%TF.GenerationSoftware,KiCad,Pcbnew,7.0.10*%
%TF.CreationDate,2024-02-18T23:55:24+09:00*%
%TF.ProjectId,kamu_keyboard,6b616d75-5f6b-4657-9962-6f6172642e6b,rev?*%
%TF.SameCoordinates,Original*%
%TF.FileFunction,Copper,L2,Bot*%
%TF.FilePolarity,Positive*%
%FSLAX46Y46*%
G04 Gerber Fmt 4.6, Leading zero omitted, Abs format (unit mm)*
G04 Created by KiCad (PCBNEW 7.0.10) date 2024-02-18 23:55:24*
%MOMM*%
%LPD*%
G01*
G04 APERTURE LIST*
%TA.AperFunction,ComponentPad*%
%ADD10C,4.000000*%
%TD*%
G04 APERTURE END LIST*
D10*
%TO.P,,*%
%TO.N,*%
X51813000Y-122896000D03*
%TD*%
%TO.P,,*%
%TO.N,*%
X127813000Y-84896000D03*
%TD*%
%TO.P,,*%
%TO.N,*%
X99313000Y-132396000D03*
%TD*%
%TO.P,,*%
%TO.N,*%
X129399414Y-136671000D03*
%TD*%
%TO.P,,*%
%TO.N,*%
X51813000Y-84896000D03*
%TD*%
%TA.AperFunction,Conductor*%
%TO.N,GND*%
G36*
X98362683Y-68749608D02*
G01*
X98365454Y-68749676D01*
X98382868Y-68750106D01*
X98388917Y-68750405D01*
X98407511Y-68751786D01*
X98413526Y-68752382D01*
X98414449Y-68752497D01*
X98431873Y-68754658D01*
X98437874Y-68755552D01*
X98456070Y-68758722D01*
X98462001Y-68759907D01*
X98479947Y-68763950D01*
X98485814Y-68765423D01*
X98503471Y-68770319D01*
X98509247Y-68772074D01*
X98513074Y-68773340D01*
X98526653Y-68777831D01*
X98532346Y-68779869D01*
X98549416Y-68786454D01*
X98554999Y-68788765D01*
X98571743Y-68796183D01*
X98577199Y-68798761D01*
X98593589Y-68807001D01*
X98598930Y-68809853D01*
X98614877Y-68818874D01*
X98620076Y-68821985D01*
X98635609Y-68831803D01*
X98640647Y-68835163D01*
X98655738Y-68845772D01*
X98660598Y-68849370D01*
X98675228Y-68860770D01*
X98679934Y-68864627D01*
X98693989Y-68876737D01*
X98698508Y-68880830D01*
X98712051Y-68893718D01*
X98716372Y-68898040D01*
X98729261Y-68911584D01*
X98733374Y-68916125D01*
X98745474Y-68930168D01*
X98749349Y-68934896D01*
X98760696Y-68949459D01*
X98764325Y-68954360D01*
X98774916Y-68969426D01*
X98778288Y-68974482D01*
X98788108Y-68990017D01*
X98791218Y-68995215D01*
X98800240Y-69011168D01*
X98803091Y-69016511D01*
X98811322Y-69032884D01*
X98813907Y-69038355D01*
X98821317Y-69055082D01*
X98823636Y-69060681D01*
X98830218Y-69077745D01*
X98832258Y-69083446D01*
X98838009Y-69100841D01*
X98839761Y-69106608D01*
X98844664Y-69124289D01*
X98846136Y-69130154D01*
X98850176Y-69148093D01*
X98851366Y-69154055D01*
X98854529Y-69172212D01*
X98855426Y-69178233D01*
X98857694Y-69196522D01*
X98858297Y-69202606D01*
X98859672Y-69221137D01*
X98859974Y-69227234D01*
X98860475Y-69247407D01*
X98860513Y-69250486D01*
X98860513Y-70489688D01*
X98860317Y-70492370D01*
X98860456Y-70496939D01*
X98860513Y-70500701D01*
X98860513Y-70505146D01*
X98860724Y-70507417D01*
X98860928Y-70515686D01*
X98860792Y-70519202D01*
X98860900Y-70520647D01*
X98861203Y-70526736D01*
X98861241Y-70528271D01*
X98861725Y-70531744D01*
X98862319Y-70539741D01*
X98862339Y-70543190D01*
X98862644Y-70545720D01*
X98863158Y-70550910D01*
X98863324Y-70553043D01*
X98863954Y-70556360D01*
X98864881Y-70563833D01*
X98865071Y-70567478D01*
X98865482Y-70569842D01*
X98866356Y-70575701D01*
X98866518Y-70576997D01*
X98867299Y-70580286D01*
X98868700Y-70588322D01*
X98869065Y-70591848D01*
X98869595Y-70594218D01*
X98870692Y-70599705D01*
X98871085Y-70601934D01*
X98872081Y-70605276D01*
X98873821Y-70612998D01*
X98874377Y-70616489D01*
X98874749Y-70617826D01*
X98876269Y-70623872D01*
X98876778Y-70626140D01*
X98878031Y-70629644D01*
X98879659Y-70635515D01*
X98880348Y-70638960D01*
X98881380Y-70642125D01*
X98882775Y-70646701D01*
X98883620Y-70649678D01*
X98884895Y-70652783D01*
X98887047Y-70659291D01*
X98887864Y-70662491D01*
X98888973Y-70665419D01*
X98890506Y-70669705D01*
X98891385Y-70672314D01*
X98892763Y-70675287D01*
X98895914Y-70683453D01*
X98896962Y-70686726D01*
X98897218Y-70687300D01*
X98899739Y-70693381D01*
X98900758Y-70696036D01*
X98902619Y-70699472D01*
X98904719Y-70704214D01*
X98905926Y-70707587D01*
X98907221Y-70710177D01*
X98909568Y-70715143D01*
X98910534Y-70717310D01*
X98912307Y-70720308D01*
X98915495Y-70726648D01*
X98916854Y-70729893D01*
X98918104Y-70732116D01*
X98920628Y-70736839D01*
X98921968Y-70739483D01*
X98923925Y-70742420D01*
X98927248Y-70748295D01*
X98928743Y-70751414D01*
X98930087Y-70753554D01*
X98932741Y-70757983D01*
X98934650Y-70761325D01*
X98936807Y-70764201D01*
X98939676Y-70768738D01*
X98941372Y-70771910D01*
X98942946Y-70774158D01*
X98946036Y-70778790D01*
X98947661Y-70781349D01*
X98949971Y-70784160D01*
X98953901Y-70789750D01*
X98955792Y-70792855D01*
X98956630Y-70793926D01*
X98960557Y-70799229D01*
X98962145Y-70801498D01*
X98964795Y-70804393D01*
X98968821Y-70809561D01*
X98970932Y-70812664D01*
X98971343Y-70813134D01*
X98976068Y-70818888D01*
X98976824Y-70819867D01*
X98979511Y-70822580D01*
X98983444Y-70827145D01*
X98985601Y-70830091D01*
X98988121Y-70832759D01*
X98991678Y-70836690D01*
X98993760Y-70839093D01*
X98996439Y-70841515D01*
X99001689Y-70847032D01*
X99003925Y-70849693D01*
X99004866Y-70850589D01*
X99009168Y-70854890D01*
X99010721Y-70856520D01*
X99013549Y-70858852D01*
X99018320Y-70863392D01*
X99020863Y-70866198D01*
X99022635Y-70867721D01*
X99027365Y-70872003D01*
X99029913Y-70874432D01*
X99033139Y-70876766D01*
X99037769Y-70880756D01*
X99040429Y-70883358D01*
X99040679Y-70883550D01*
X99046738Y-70888522D01*
X99048093Y-70889707D01*
X99051546Y-70891987D01*
X99055470Y-70895044D01*
X99058146Y-70897486D01*
X99061226Y-70899670D01*
X99065198Y-70902607D01*
X99069516Y-70905934D01*
X99072772Y-70907798D01*
X99074551Y-70909048D01*
X99076149Y-70910172D01*
X99079004Y-70912492D01*
X99080625Y-70913514D01*
X99085901Y-70917030D01*
X99089008Y-70919218D01*
X99092552Y-70921047D01*
X99096136Y-70923312D01*
X99099151Y-70925546D01*
X99101315Y-70926768D01*
X99106614Y-70929936D01*
X99109371Y-70931679D01*
X99112864Y-70933296D01*
X99117673Y-70936017D01*
X99120764Y-70938061D01*
X99122350Y-70938854D01*
X99128132Y-70941939D01*
X99131085Y-70943615D01*
X99134794Y-70945102D01*
X99139185Y-70947310D01*
X99139595Y-70947516D01*
X99142775Y-70949391D01*
X99143987Y-70949923D01*
X99150173Y-70952846D01*
X99153648Y-70954606D01*
X99157607Y-70955944D01*
X99160503Y-70957227D01*
X99164139Y-70959189D01*
X99165633Y-70959752D01*
X99173128Y-70962858D01*
X99174542Y-70963499D01*
X99178512Y-70964685D01*
X99184155Y-70966862D01*
X99187557Y-70968449D01*
X99188817Y-70968861D01*
X99195529Y-70971268D01*
X99198934Y-70972600D01*
X99203077Y-70973561D01*
X99204592Y-70974062D01*
X99206624Y-70974734D01*
X99210003Y-70976134D01*
X99212513Y-70976831D01*
X99218177Y-70978551D01*
X99222498Y-70979976D01*
X99226408Y-70980685D01*
X99229838Y-70981636D01*
X99233708Y-70983030D01*
X99234842Y-70983275D01*
X99242943Y-70985311D01*
X99245109Y-70985933D01*
X99249436Y-70986524D01*
X99253979Y-70987548D01*
X99257783Y-70988699D01*
X99258934Y-70988891D01*
X99266651Y-70990429D01*
X99269671Y-70991131D01*
X99274002Y-70991487D01*
X99278703Y-70992307D01*
X99282539Y-70993243D01*
X99282840Y-70993278D01*
X99291108Y-70994503D01*
X99293926Y-70995018D01*
X99298355Y-70995160D01*
X99302580Y-70995684D01*
X99306443Y-70996446D01*
X99307542Y-70996520D01*
X99315324Y-70997291D01*
X99318540Y-70997712D01*
X99322907Y-70997635D01*
X99326957Y-70997935D01*
X99331094Y-70998548D01*
X99331736Y-70998557D01*
X99340417Y-70998974D01*
X99342245Y-70999126D01*
X99346557Y-70998873D01*
X99348055Y-70998909D01*
X99350048Y-70998959D01*
X99353122Y-70999302D01*
X99358044Y-70999255D01*
X99363785Y-70999332D01*
X99373163Y-70999675D01*
X99376709Y-70999226D01*
X117359486Y-70997111D01*
X117362540Y-70997148D01*
X117382724Y-70997647D01*
X117388780Y-70997946D01*
X117407368Y-70999327D01*
X117413375Y-70999922D01*
X117422452Y-71001048D01*
X117431731Y-71002199D01*
X117437754Y-71003097D01*
X117455906Y-71006260D01*
X117461845Y-71007445D01*
X117479813Y-71011492D01*
X117485665Y-71012963D01*
X117503320Y-71017859D01*
X117509088Y-71019610D01*
X117526536Y-71025380D01*
X117532165Y-71027396D01*
X117549273Y-71033995D01*
X117554846Y-71036304D01*
X117571591Y-71043722D01*
X117577070Y-71046311D01*
X117593438Y-71054541D01*
X117598781Y-71057392D01*
X117601595Y-71058984D01*
X117614738Y-71066418D01*
X117619941Y-71069532D01*
X117635433Y-71079324D01*
X117640495Y-71082700D01*
X117655583Y-71093307D01*
X117660484Y-71096936D01*
X117675058Y-71108292D01*
X117679787Y-71112167D01*
X117693849Y-71124284D01*
X117698389Y-71128396D01*
X117711900Y-71141254D01*
X117716236Y-71145590D01*
X117729104Y-71159110D01*
X117733223Y-71163658D01*
X117745329Y-71177708D01*
X117749203Y-71182435D01*
X117760551Y-71196999D01*
X117764178Y-71201898D01*
X117774774Y-71216970D01*
X117778148Y-71222028D01*
X117787965Y-71237558D01*
X117791082Y-71242767D01*
X117800089Y-71258691D01*
X117802942Y-71264036D01*
X117811186Y-71280432D01*
X117813774Y-71285909D01*
X117821176Y-71302617D01*
X117823493Y-71308211D01*
X117830085Y-71325298D01*
X117832126Y-71330998D01*
X117837872Y-71348374D01*
X117839632Y-71354167D01*
X117844524Y-71371806D01*
X117846003Y-71377697D01*
X117850044Y-71395637D01*
X117851234Y-71401599D01*
X117854395Y-71419740D01*
X117855293Y-71425760D01*
X117857567Y-71444090D01*
X117858169Y-71450173D01*
X117859542Y-71468661D01*
X117859845Y-71474772D01*
X117860345Y-71494947D01*
X117860383Y-71498019D01*
X117860383Y-72989653D01*
X117860208Y-72991999D01*
X117860344Y-72997401D01*
X117860383Y-73000508D01*
X117860383Y-73005276D01*
X117860594Y-73007547D01*
X117860798Y-73015818D01*
X117860662Y-73019333D01*
X117860770Y-73020779D01*
X117861073Y-73026868D01*
X117861111Y-73028394D01*
X117861595Y-73031867D01*
X117862190Y-73039879D01*
X117862210Y-73043340D01*
X117862514Y-73045863D01*
X117863028Y-73051053D01*
X117863194Y-73053193D01*
X117863823Y-73056503D01*
X117864744Y-73063929D01*
X117864929Y-73067513D01*
X117865394Y-73070215D01*
X117866207Y-73075668D01*
X117866410Y-73077277D01*
X117867178Y-73080503D01*
X117868553Y-73088400D01*
X117868898Y-73091772D01*
X117869562Y-73094794D01*
X117870484Y-73099415D01*
X117871010Y-73102343D01*
X117871973Y-73105566D01*
X117873714Y-73113300D01*
X117874250Y-73116648D01*
X117874713Y-73118332D01*
X117876070Y-73123738D01*
X117876706Y-73126537D01*
X117877923Y-73129938D01*
X117879592Y-73135965D01*
X117880336Y-73139655D01*
X117880924Y-73141419D01*
X117882879Y-73147862D01*
X117883280Y-73149327D01*
X117884674Y-73152744D01*
X117886908Y-73159505D01*
X117887715Y-73162669D01*
X117888883Y-73165770D01*
X117890355Y-73169898D01*
X117891349Y-73172849D01*
X117892759Y-73175871D01*
X117895829Y-73183835D01*
X117896831Y-73186957D01*
X117897282Y-73187980D01*
X117899462Y-73193248D01*
X117900222Y-73195211D01*
X117901859Y-73198326D01*
X117904515Y-73204325D01*
X117905647Y-73207503D01*
X117907368Y-73210991D01*
X117909192Y-73214853D01*
X117910562Y-73217890D01*
X117912238Y-73220717D01*
X117915289Y-73226786D01*
X117916560Y-73229833D01*
X117918324Y-73233008D01*
X117920218Y-73236552D01*
X117922067Y-73240151D01*
X117923885Y-73242872D01*
X117927381Y-73249054D01*
X117928914Y-73252217D01*
X117929679Y-73253426D01*
X117932844Y-73258712D01*
X117934075Y-73260890D01*
X117936292Y-73263880D01*
X117939470Y-73268904D01*
X117941108Y-73271971D01*
X117943034Y-73274739D01*
X117945683Y-73278708D01*
X117947660Y-73281797D01*
X117949896Y-73284512D01*
X117953319Y-73289377D01*
X117955167Y-73292452D01*
X117956895Y-73294677D01*
X117960070Y-73298953D01*
X117962808Y-73302811D01*
X117965389Y-73305573D01*
X117968874Y-73310038D01*
X117970812Y-73312865D01*
X117971751Y-73313955D01*
X117975469Y-73318482D01*
X117977391Y-73320938D01*
X117980058Y-73323580D01*
X117984538Y-73328767D01*
X117986706Y-73331630D01*
X117987592Y-73332555D01*
X117991918Y-73337317D01*
X117993386Y-73339020D01*
X117996194Y-73341558D01*
X118000695Y-73346272D01*
X118003015Y-73349080D01*
X118004741Y-73350721D01*
X118009041Y-73355014D01*
X118010657Y-73356708D01*
X118013457Y-73359016D01*
X118018177Y-73363510D01*
X118020690Y-73366286D01*
X118022579Y-73367913D01*
X118027173Y-73372075D01*
X118029306Y-73374107D01*
X118032383Y-73376365D01*
X118037506Y-73380783D01*
X118040036Y-73383266D01*
X118041236Y-73384201D01*
X118045989Y-73388097D01*
X118048430Y-73390201D01*
X118051626Y-73392304D01*
X118055468Y-73395301D01*
X118058271Y-73397857D01*
X118060618Y-73399509D01*
X118065500Y-73403126D01*
X118069047Y-73405891D01*
X118072514Y-73407884D01*
X118076885Y-73410962D01*
X118079640Y-73413165D01*
X118080307Y-73413585D01*
X118085895Y-73417314D01*
X118087824Y-73418678D01*
X118091215Y-73420483D01*
X118096140Y-73423603D01*
X118099263Y-73425916D01*
X118100770Y-73426761D01*
X118106880Y-73430420D01*
X118109034Y-73431796D01*
X118112655Y-73433480D01*
X118117595Y-73436281D01*
X118120714Y-73438346D01*
X118122133Y-73439056D01*
X118128070Y-73442228D01*
X118131087Y-73443947D01*
X118134826Y-73445444D01*
X118139447Y-73447774D01*
X118142584Y-73449628D01*
X118143937Y-73450226D01*
X118149916Y-73453060D01*
X118153592Y-73454924D01*
X118157506Y-73456249D01*
X118160181Y-73457438D01*
X118163600Y-73459294D01*
X118166292Y-73460332D01*
X118172229Y-73462798D01*
X118174910Y-73463994D01*
X118178624Y-73465101D01*
X118182791Y-73466713D01*
X118186166Y-73468337D01*
X118189324Y-73469390D01*
X118194724Y-73471330D01*
X118198877Y-73472931D01*
X118202670Y-73473825D01*
X118206292Y-73475028D01*
X118209952Y-73476556D01*
X118211703Y-73477034D01*
X118218695Y-73479164D01*
X118220334Y-73479716D01*
X118224156Y-73480482D01*
X118230870Y-73482353D01*
X118234422Y-73483597D01*
X118235017Y-73483728D01*
X118242491Y-73485615D01*
X118245172Y-73486381D01*
X118249391Y-73486958D01*
X118253378Y-73487860D01*
X118257490Y-73489125D01*
X118258324Y-73489260D01*
X118266929Y-73490966D01*
X118268199Y-73491264D01*
X118272368Y-73491662D01*
X118278589Y-73492752D01*
X118282398Y-73493685D01*
X118282797Y-73493732D01*
X118290873Y-73494935D01*
X118293840Y-73495477D01*
X118298245Y-73495620D01*
X118302469Y-73496147D01*
X118306365Y-73496916D01*
X118307311Y-73496980D01*
X118315268Y-73497774D01*
X118318335Y-73498180D01*
X118322759Y-73498105D01*
X118326863Y-73498411D01*
X118331005Y-73499026D01*
X118331523Y-73499033D01*
X118340344Y-73499460D01*
X118342076Y-73499605D01*
X118346431Y-73499351D01*
X118349035Y-73499416D01*
X118349660Y-73499432D01*
X118352083Y-73499709D01*
X118359240Y-73499709D01*
X118362346Y-73499748D01*
X118369482Y-73499926D01*
X118371927Y-73499709D01*
X136369178Y-73499709D01*
X136372232Y-73499747D01*
X136393331Y-73500279D01*
X136399513Y-73500592D01*
X136418686Y-73502048D01*
X136424894Y-73502679D01*
X136443732Y-73505071D01*
X136449888Y-73506010D01*
X136468359Y-73509305D01*
X136474428Y-73510545D01*
X136492568Y-73514727D01*
X136498537Y-73516261D01*
X136516031Y-73521225D01*
X136516320Y-73521307D01*
X136522186Y-73523130D01*
X136539581Y-73529011D01*
X136545321Y-73531110D01*
X136562379Y-73537831D01*
X136567922Y-73540174D01*
X136584577Y-73547699D01*
X136589932Y-73550277D01*
X136606187Y-73558599D01*
X136611429Y-73561446D01*
X136627174Y-73570496D01*
X136632255Y-73573581D01*
X136647536Y-73583374D01*
X136652440Y-73586686D01*
X136667170Y-73597159D01*
X136671923Y-73600713D01*
X136686115Y-73611863D01*
X136690689Y-73615637D01*
X136704310Y-73627434D01*
X136708690Y-73631414D01*
X136721770Y-73643883D01*
X136725955Y-73648067D01*
X136738390Y-73661109D01*
X136742376Y-73665495D01*
X136754195Y-73679141D01*
X136757965Y-73683710D01*
X136769115Y-73697900D01*
X136772681Y-73702670D01*
X136783161Y-73717413D01*
X136786492Y-73722345D01*
X136796243Y-73737559D01*
X136799352Y-73742678D01*
X136808381Y-73758387D01*
X136811250Y-73763671D01*
X136819534Y-73779852D01*
X136822156Y-73785297D01*
X136829638Y-73801854D01*
X136832008Y-73807462D01*
X136838723Y-73824505D01*
X136840820Y-73830238D01*
X136846703Y-73847635D01*
X136848528Y-73853507D01*
X136853567Y-73871265D01*
X136855107Y-73877256D01*
X136859288Y-73895390D01*
X136860530Y-73901468D01*
X136863827Y-73919946D01*
X136864768Y-73926112D01*
X136867154Y-73944908D01*
X136867785Y-73951133D01*
X136869239Y-73970278D01*
X136869555Y-73976530D01*
X136870086Y-73997503D01*
X136870126Y-74000641D01*
X136870126Y-75240040D01*
X136869948Y-75242427D01*
X136870085Y-75247726D01*
X136870126Y-75250908D01*
X136870126Y-75255557D01*
X136870341Y-75257863D01*
X136870567Y-75266780D01*
X136870439Y-75269945D01*
X136870659Y-75273282D01*
X136870842Y-75276842D01*
X136870940Y-75279490D01*
X136871336Y-75282417D01*
X136872040Y-75291662D01*
X136872059Y-75294891D01*
X136872486Y-75298544D01*
X136872878Y-75302424D01*
X136873215Y-75306387D01*
X136873884Y-75309679D01*
X136874854Y-75317304D01*
X136875072Y-75320876D01*
X136875368Y-75322536D01*
X136876277Y-75328464D01*
X136876560Y-75330664D01*
X136877451Y-75334195D01*
X136879045Y-75343111D01*
X136879409Y-75346116D01*
X136879821Y-75347970D01*
X136880689Y-75352228D01*
X136881179Y-75354868D01*
X136882126Y-75358024D01*
X136884078Y-75366473D01*
X136884638Y-75369876D01*
X136885126Y-75371606D01*
X136886536Y-75377080D01*
X136886863Y-75378483D01*
X136887981Y-75381668D01*
X136890639Y-75391021D01*
X136891331Y-75394130D01*
X136891842Y-75395663D01*
X136893332Y-75400455D01*
X136894290Y-75403773D01*
X136895689Y-75407060D01*
X136897655Y-75412862D01*
X136898516Y-75416152D01*
X136899636Y-75419039D01*
X136901295Y-75423576D01*
X136902130Y-75426007D01*
X136903576Y-75429060D01*
X136906767Y-75437146D01*
X136907835Y-75440399D01*
X136908151Y-75441093D01*
X136910648Y-75446986D01*
X136911660Y-75449558D01*
X136913503Y-75452911D01*
X136916539Y-75459620D01*
X136917671Y-75462557D01*
X136918396Y-75463987D01*
X136920539Y-75468433D01*
X136921619Y-75470793D01*
X136923350Y-75473677D01*
X136926592Y-75480002D01*
X136927929Y-75483126D01*
X136929359Y-75485637D01*
X136931679Y-75489902D01*
X136933042Y-75492531D01*
X136934927Y-75495336D01*
X136938002Y-75500679D01*
X136939577Y-75503951D01*
X136941053Y-75506255D01*
X136944074Y-75511223D01*
X136945837Y-75514282D01*
X136948128Y-75517287D01*
X136950664Y-75521240D01*
X136952447Y-75524527D01*
X136953817Y-75526445D01*
X136957349Y-75531666D01*
X136958621Y-75533653D01*
X136960982Y-75536505D01*
X136964990Y-75542137D01*
X136966706Y-75544903D01*
X136968118Y-75546715D01*
X136971017Y-75550589D01*
X136973430Y-75553948D01*
X136975843Y-75556557D01*
X136979480Y-75561183D01*
X136981308Y-75563842D01*
X136983050Y-75565875D01*
X136985872Y-75569290D01*
X136989161Y-75573417D01*
X136991708Y-75575881D01*
X136995216Y-75579928D01*
X136997200Y-75582519D01*
X136998400Y-75583783D01*
X137001952Y-75587688D01*
X137004772Y-75590924D01*
X137007543Y-75593378D01*
X137009893Y-75595842D01*
X137012290Y-75598793D01*
X137014614Y-75601005D01*
X137018887Y-75605274D01*
X137021969Y-75608508D01*
X137025074Y-75610969D01*
X137027571Y-75613348D01*
X137030224Y-75616272D01*
X137031231Y-75617131D01*
X137036979Y-75622353D01*
X137038294Y-75623625D01*
X137041560Y-75626037D01*
X137044575Y-75628648D01*
X137045748Y-75629664D01*
X137048362Y-75632266D01*
X137049733Y-75633337D01*
X137054876Y-75637579D01*
X137057092Y-75639510D01*
X137060356Y-75641671D01*
X137064110Y-75644620D01*
X137066813Y-75647080D01*
X137068835Y-75648516D01*
X137073647Y-75652112D01*
X137076343Y-75654231D01*
X137079605Y-75656171D01*
X137083768Y-75659131D01*
X137086448Y-75661333D01*
X137088716Y-75662795D01*
X137093031Y-75665707D01*
X137096750Y-75668332D01*
X137100031Y-75670055D01*
X137103528Y-75672296D01*
X137106491Y-75674514D01*
X137108530Y-75675684D01*
X137113826Y-75678899D01*
X137116490Y-75680609D01*
X137119947Y-75682244D01*
X137125012Y-75685156D01*
X137128088Y-75687205D01*
X137128983Y-75687658D01*
X137135280Y-75691078D01*
X137137822Y-75692555D01*
X137141622Y-75694113D01*
X137145125Y-75695907D01*
X137148579Y-75698027D01*
X137150316Y-75698800D01*
X137157157Y-75702095D01*
X137160248Y-75703702D01*
X137164349Y-75705116D01*
X137167092Y-75706356D01*
X137170528Y-75708242D01*
X137172807Y-75709134D01*
X137179051Y-75711776D01*
X137181591Y-75712934D01*
X137185406Y-75714091D01*
X137191025Y-75716307D01*
X137194499Y-75717947D01*
X137194759Y-75718033D01*
X137202561Y-75720898D01*
X137205203Y-75721970D01*
X137209594Y-75723019D01*
X137212740Y-75724083D01*
X137216237Y-75725578D01*
X137219047Y-75726376D01*
X137224855Y-75728180D01*
X137227855Y-75729193D01*
X137231584Y-75729937D01*
X137237919Y-75731736D01*
X137241374Y-75732964D01*
X137242294Y-75733173D01*
X137249088Y-75734920D01*
X137252021Y-75735763D01*
X137256081Y-75736343D01*
X137261514Y-75737597D01*
X137265001Y-75738660D01*
X137266979Y-75739014D01*
X137272914Y-75740226D01*
X137275713Y-75740869D01*
X137279455Y-75741243D01*
X137285371Y-75742300D01*
X137289120Y-75743264D01*
X137291249Y-75743530D01*
X137297940Y-75744552D01*
X137300584Y-75745030D01*
X137304564Y-75745215D01*
X137306734Y-75745491D01*
X137309866Y-75745890D01*
X137313763Y-75746700D01*
X137316237Y-75746883D01*
X137323108Y-75747582D01*
X137327029Y-75748091D01*
X137331286Y-75748019D01*
X137336682Y-75748429D01*
X137340280Y-75748947D01*
X137341899Y-75748988D01*
X137348230Y-75749308D01*
X137351825Y-75749581D01*
X137355829Y-75749340D01*
X137359740Y-75749439D01*
X137362202Y-75749721D01*
X137369300Y-75749721D01*
X137372443Y-75749761D01*
X137379526Y-75749940D01*
X137381992Y-75749721D01*
X157109321Y-75749721D01*
X157112382Y-75749759D01*
X157115443Y-75749834D01*
X157132562Y-75750257D01*
X157138620Y-75750556D01*
X157157208Y-75751937D01*
X157163219Y-75752533D01*
X157168828Y-75753228D01*
X157181571Y-75754809D01*
X157187572Y-75755703D01*
X157205768Y-75758873D01*
X157211699Y-75760058D01*
X157229645Y-75764101D01*
X157235502Y-75765571D01*
X157253185Y-75770474D01*
X157258942Y-75772224D01*
X157273393Y-75777003D01*
X157276343Y-75777979D01*
X157282025Y-75780012D01*
X157299127Y-75786609D01*
X157304688Y-75788911D01*
X157321440Y-75796333D01*
X157326897Y-75798912D01*
X157343287Y-75807152D01*
X157348630Y-75810004D01*
X157364567Y-75819017D01*
X157369781Y-75822137D01*
X157385302Y-75831948D01*
X157390357Y-75835319D01*
X157405449Y-75845928D01*
X157410330Y-75849542D01*
X157424907Y-75860900D01*
X157429614Y-75864757D01*
X157443687Y-75876881D01*
X157448233Y-75880998D01*
X157461828Y-75893935D01*
X157466039Y-75898139D01*
X157477448Y-75910091D01*
X157478932Y-75911645D01*
X157483090Y-75916224D01*
X157490299Y-75924573D01*
X157495162Y-75930204D01*
X157499051Y-75934940D01*
X157509369Y-75948163D01*
X157510383Y-75949462D01*
X157514042Y-75954399D01*
X157524595Y-75969400D01*
X157527984Y-75974478D01*
X157537806Y-75990012D01*
X157540934Y-75995239D01*
X157549935Y-76011155D01*
X157552796Y-76016517D01*
X157561018Y-76032878D01*
X157563611Y-76038368D01*
X157571021Y-76055109D01*
X157573335Y-76060701D01*
X157579920Y-76077785D01*
X157581951Y-76083464D01*
X157585340Y-76093721D01*
X157587709Y-76100892D01*
X157589468Y-76106691D01*
X157594361Y-76124358D01*
X157595833Y-76130224D01*
X157599879Y-76148198D01*
X157601067Y-76154154D01*
X157601270Y-76155321D01*
X157604232Y-76172338D01*
X157605127Y-76178348D01*
X157607397Y-76196665D01*
X157607998Y-76202735D01*
X157609375Y-76221284D01*
X157609677Y-76227390D01*
X157610177Y-76247554D01*
X157610215Y-76250628D01*
X157610215Y-136092134D01*
X157610198Y-136094169D01*
X157609979Y-136107510D01*
X157609848Y-136111536D01*
X157609242Y-136123919D01*
X157608977Y-136127974D01*
X157607974Y-136140228D01*
X157607579Y-136144245D01*
X157606178Y-136156457D01*
X157605650Y-136160479D01*
X157603856Y-136172600D01*
X157603195Y-136176608D01*
X157601000Y-136188691D01*
X157600212Y-136192660D01*
X157597630Y-136204637D01*
X157596710Y-136208589D01*
X157593749Y-136220429D01*
X157592699Y-136224356D01*
X157589342Y-136236126D01*
X157588163Y-136240015D01*
X157584422Y-136251669D01*
X157583115Y-136255522D01*
X157578993Y-136267049D01*
X157577558Y-136270863D01*
X157573054Y-136282262D01*
X157571492Y-136286033D01*
X157566606Y-136297299D01*
X157564922Y-136301013D01*
X157559655Y-136312140D01*
X157557840Y-136315816D01*
X157552210Y-136326759D01*
X157550285Y-136330355D01*
X157543748Y-136342095D01*
X157542797Y-136343772D01*
X143360640Y-160907706D01*
X143358297Y-160911597D01*
X143342433Y-160936887D01*
X143337362Y-160944353D01*
X143321221Y-160966350D01*
X143315663Y-160973376D01*
X143298135Y-160993960D01*
X143292114Y-161000535D01*
X143273262Y-161019693D01*
X143266819Y-161025788D01*
X143246745Y-161043462D01*
X143239914Y-161049058D01*
X143218710Y-161065200D01*
X143211529Y-161070274D01*
X143189289Y-161084837D01*
X143181791Y-161089377D01*
X143158593Y-161102324D01*
X143150794Y-161106322D01*
X143126710Y-161117612D01*
X143118643Y-161121050D01*
X143093842Y-161130602D01*
X143085545Y-161133464D01*
X143060027Y-161141268D01*
X143051507Y-161143545D01*
X143025431Y-161149531D01*
X143016735Y-161151203D01*
X142990181Y-161155331D01*
X142981337Y-161156382D01*
X142954367Y-161158609D01*
X142945425Y-161159024D01*
X142918116Y-161159302D01*
X142909114Y-161159066D01*
X142879341Y-161157204D01*
X142874760Y-161156832D01*
X142094421Y-161078909D01*
X142077376Y-161075995D01*
X141090215Y-160835364D01*
X141075916Y-160830950D01*
X138623812Y-159908388D01*
X138614000Y-159904206D01*
X135607264Y-158466993D01*
X135602223Y-158464441D01*
X132115568Y-156598142D01*
X132111752Y-156596012D01*
X114851077Y-146558793D01*
X114849616Y-146557821D01*
X114845565Y-146555564D01*
X114843513Y-146554395D01*
X114837253Y-146550748D01*
X114835584Y-146549987D01*
X105258524Y-141196850D01*
X105256142Y-141195243D01*
X105250982Y-141192568D01*
X105247720Y-141190815D01*
X105245348Y-141189494D01*
X105243017Y-141188453D01*
X100475166Y-138728019D01*
X100472808Y-138726587D01*
X100469039Y-138724792D01*
X100465792Y-138723187D01*
X100461563Y-138721018D01*
X100458932Y-138720007D01*
X96128165Y-136671005D01*
X126893970Y-136671005D01*
X126913724Y-136985004D01*
X126913725Y-136985011D01*
X126972684Y-137294083D01*
X127069911Y-137593316D01*
X127069913Y-137593321D01*
X127203875Y-137878003D01*
X127203878Y-137878009D01*
X127372465Y-138143661D01*
X127372468Y-138143665D01*
X127573020Y-138386090D01*
X127573022Y-138386092D01*
X127802382Y-138601476D01*
X127802392Y-138601484D01*
X128056918Y-138786408D01*
X128056923Y-138786410D01*
X128056930Y-138786416D01*
X128332648Y-138937994D01*
X128332653Y-138937996D01*
X128332655Y-138937997D01*
X128332656Y-138937998D01*
X128625185Y-139053818D01*
X128625188Y-139053819D01*
X128929937Y-139132065D01*
X128929941Y-139132066D01*
X128995424Y-139140338D01*
X129242084Y-139171499D01*
X129242093Y-139171499D01*
X129242096Y-139171500D01*
X129242098Y-139171500D01*
X129556730Y-139171500D01*
X129556732Y-139171500D01*
X129556735Y-139171499D01*
X129556743Y-139171499D01*
X129743007Y-139147968D01*
X129868887Y-139132066D01*
X130173639Y-139053819D01*
X130173642Y-139053818D01*
X130466171Y-138937998D01*
X130466172Y-138937997D01*
X130466170Y-138937997D01*
X130466180Y-138937994D01*
X130741898Y-138786416D01*
X130996444Y-138601478D01*
X131225804Y-138386094D01*
X131426361Y-138143663D01*
X131594951Y-137878007D01*
X131728917Y-137593315D01*
X131826145Y-137294079D01*
X131885102Y-136985015D01*
X131904858Y-136671000D01*
X131894986Y-136514094D01*
X131885103Y-136356995D01*
X131885102Y-136356988D01*
X131885102Y-136356985D01*
X131826145Y-136047921D01*
X131728917Y-135748685D01*
X131594951Y-135463993D01*
X131426361Y-135198337D01*
X131426359Y-135198334D01*
X131225807Y-134955909D01*
X131225805Y-134955907D01*
X130996445Y-134740523D01*
X130996435Y-134740515D01*
X130741909Y-134555591D01*
X130741902Y-134555586D01*
X130741898Y-134555584D01*
X130466180Y-134404006D01*
X130466177Y-134404004D01*
X130466172Y-134404002D01*
X130466171Y-134404001D01*
X130173642Y-134288181D01*
X130173639Y-134288180D01*
X129868890Y-134209934D01*
X129868877Y-134209932D01*
X129556743Y-134170500D01*
X129556732Y-134170500D01*
X129242096Y-134170500D01*
X129242084Y-134170500D01*
X128929950Y-134209932D01*
X128929937Y-134209934D01*
X128625188Y-134288180D01*
X128625185Y-134288181D01*
X128332656Y-134404001D01*
X128332655Y-134404002D01*
X128056930Y-134555584D01*
X128056918Y-134555591D01*
X127802392Y-134740515D01*
X127802382Y-134740523D01*
X127573022Y-134955907D01*
X127573020Y-134955909D01*
X127372468Y-135198334D01*
X127372465Y-135198338D01*
X127203878Y-135463990D01*
X127203875Y-135463996D01*
X127069913Y-135748678D01*
X127069911Y-135748683D01*
X126972684Y-136047916D01*
X126913725Y-136356988D01*
X126913724Y-136356995D01*
X126893970Y-136670994D01*
X126893970Y-136671005D01*
X96128165Y-136671005D01*
X95800688Y-136516067D01*
X95797661Y-136514405D01*
X95796907Y-136514094D01*
X95790811Y-136511382D01*
X95789870Y-136510932D01*
X95786498Y-136509773D01*
X91307827Y-134647061D01*
X91304404Y-134645389D01*
X91304084Y-134645279D01*
X91298097Y-134643015D01*
X91294521Y-134642006D01*
X87069554Y-133205903D01*
X87066041Y-133204461D01*
X87065070Y-133204194D01*
X87059328Y-133202460D01*
X87059297Y-133202449D01*
X87055982Y-133201745D01*
X85069050Y-132672522D01*
X85065316Y-132671253D01*
X85064505Y-132671087D01*
X85057988Y-132669547D01*
X85054309Y-132668989D01*
X83730943Y-132396005D01*
X96807556Y-132396005D01*
X96827310Y-132710004D01*
X96827311Y-132710011D01*
X96886270Y-133019083D01*
X96983497Y-133318316D01*
X96983499Y-133318321D01*
X97117461Y-133603003D01*
X97117464Y-133603009D01*
X97286051Y-133868661D01*
X97286054Y-133868665D01*
X97486606Y-134111090D01*
X97486608Y-134111092D01*
X97486610Y-134111094D01*
X97591862Y-134209932D01*
X97715968Y-134326476D01*
X97715978Y-134326484D01*
X97970504Y-134511408D01*
X97970509Y-134511410D01*
X97970516Y-134511416D01*
X98246234Y-134662994D01*
X98246239Y-134662996D01*
X98246241Y-134662997D01*
X98246242Y-134662998D01*
X98538771Y-134778818D01*
X98538774Y-134778819D01*
X98843523Y-134857065D01*
X98843527Y-134857066D01*
X98909010Y-134865338D01*
X99155670Y-134896499D01*
X99155679Y-134896499D01*
X99155682Y-134896500D01*
X99155684Y-134896500D01*
X99470316Y-134896500D01*
X99470318Y-134896500D01*
X99470321Y-134896499D01*
X99470329Y-134896499D01*
X99656593Y-134872968D01*
X99782473Y-134857066D01*
X100087225Y-134778819D01*
X100183950Y-134740523D01*
X100379757Y-134662998D01*
X100379758Y-134662997D01*
X100379756Y-134662997D01*
X100379766Y-134662994D01*
X100655484Y-134511416D01*
X100910030Y-134326478D01*
X101139390Y-134111094D01*
X101339947Y-133868663D01*
X101508537Y-133603007D01*
X101642503Y-133318315D01*
X101739731Y-133019079D01*
X101798688Y-132710015D01*
X101801184Y-132670340D01*
X101818444Y-132396005D01*
X101818444Y-132395994D01*
X101798689Y-132081995D01*
X101798688Y-132081988D01*
X101798688Y-132081985D01*
X101739731Y-131772921D01*
X101642503Y-131473685D01*
X101639156Y-131466573D01*
X101508538Y-131188996D01*
X101508537Y-131188993D01*
X101339947Y-130923337D01*
X101339945Y-130923334D01*
X101139393Y-130680909D01*
X101139391Y-130680907D01*
X100910031Y-130465523D01*
X100910021Y-130465515D01*
X100655495Y-130280591D01*
X100655488Y-130280586D01*
X100655484Y-130280584D01*
X100379766Y-130129006D01*
X100379763Y-130129004D01*
X100379758Y-130129002D01*
X100379757Y-130129001D01*
X100087228Y-130013181D01*
X100087225Y-130013180D01*
X99782476Y-129934934D01*
X99782463Y-129934932D01*
X99470329Y-129895500D01*
X99470318Y-129895500D01*
X99155682Y-129895500D01*
X99155670Y-129895500D01*
X98843536Y-129934932D01*
X98843523Y-129934934D01*
X98538774Y-130013180D01*
X98538771Y-130013181D01*
X98246242Y-130129001D01*
X98246241Y-130129002D01*
X97970516Y-130280584D01*
X97970504Y-130280591D01*
X97715978Y-130465515D01*
X97715968Y-130465523D01*
X97486608Y-130680907D01*
X97486606Y-130680909D01*
X97286054Y-130923334D01*
X97286051Y-130923338D01*
X97117464Y-131188990D01*
X97117461Y-131188996D01*
X96983499Y-131473678D01*
X96983497Y-131473683D01*
X96886270Y-131772916D01*
X96827311Y-132081988D01*
X96827310Y-132081995D01*
X96807556Y-132395994D01*
X96807556Y-132396005D01*
X83730943Y-132396005D01*
X83159215Y-132278068D01*
X83155031Y-132276894D01*
X83154582Y-132276833D01*
X83147975Y-132275706D01*
X83143805Y-132275371D01*
X81347549Y-132033123D01*
X81342990Y-132032240D01*
X81338282Y-132031802D01*
X81333581Y-132031823D01*
X79648936Y-131948648D01*
X79645232Y-131948189D01*
X79642688Y-131948189D01*
X79636572Y-131948038D01*
X79634698Y-131947945D01*
X79631090Y-131948192D01*
X43316665Y-131964415D01*
X43313845Y-131964384D01*
X43293580Y-131963932D01*
X43287386Y-131963639D01*
X43268930Y-131962302D01*
X43262791Y-131961703D01*
X43244547Y-131959465D01*
X43238460Y-131958565D01*
X43231952Y-131957436D01*
X43220339Y-131955422D01*
X43214349Y-131954230D01*
X43196474Y-131950214D01*
X43190554Y-131948730D01*
X43172937Y-131943850D01*
X43167124Y-131942085D01*
X43149749Y-131936342D01*
X43144037Y-131934298D01*
X43126953Y-131927708D01*
X43121372Y-131925397D01*
X43104633Y-131917981D01*
X43099189Y-131915408D01*
X43082792Y-131907166D01*
X43077461Y-131904322D01*
X43061513Y-131895307D01*
X43056325Y-131892205D01*
X43040752Y-131882371D01*
X43035726Y-131879023D01*
X43020627Y-131868423D01*
X43015776Y-131864837D01*
X43001177Y-131853486D01*
X42996468Y-131849636D01*
X42982362Y-131837513D01*
X42977854Y-131833442D01*
X42964417Y-131820698D01*
X42959940Y-131816230D01*
X42947102Y-131802741D01*
X42943045Y-131798262D01*
X42930876Y-131784142D01*
X42927028Y-131779447D01*
X42915643Y-131764839D01*
X42912026Y-131759956D01*
X42901398Y-131744847D01*
X42898039Y-131739816D01*
X42888177Y-131724225D01*
X42885074Y-131719042D01*
X42876015Y-131703043D01*
X42873166Y-131697714D01*
X42864898Y-131681294D01*
X42862318Y-131675841D01*
X42854873Y-131659064D01*
X42852569Y-131653512D01*
X42845926Y-131636334D01*
X42843912Y-131630722D01*
X42838119Y-131613254D01*
X42836359Y-131607476D01*
X42831437Y-131589784D01*
X42829953Y-131583896D01*
X42825895Y-131565949D01*
X42824700Y-131559985D01*
X42821523Y-131541838D01*
X42820617Y-131535790D01*
X42818334Y-131517471D01*
X42817727Y-131511373D01*
X42816346Y-131492886D01*
X42816039Y-131486730D01*
X42815538Y-131466573D01*
X42815500Y-131463492D01*
X42815500Y-122896005D01*
X49307556Y-122896005D01*
X49327310Y-123210004D01*
X49327311Y-123210011D01*
X49386270Y-123519083D01*
X49483497Y-123818316D01*
X49483499Y-123818321D01*
X49617461Y-124103003D01*
X49617464Y-124103009D01*
X49786051Y-124368661D01*
X49786054Y-124368665D01*
X49986606Y-124611090D01*
X49986608Y-124611092D01*
X50215968Y-124826476D01*
X50215978Y-124826484D01*
X50470504Y-125011408D01*
X50470509Y-125011410D01*
X50470516Y-125011416D01*
X50746234Y-125162994D01*
X50746239Y-125162996D01*
X50746241Y-125162997D01*
X50746242Y-125162998D01*
X51038771Y-125278818D01*
X51038774Y-125278819D01*
X51343523Y-125357065D01*
X51343527Y-125357066D01*
X51409010Y-125365338D01*
X51655670Y-125396499D01*
X51655679Y-125396499D01*
X51655682Y-125396500D01*
X51655684Y-125396500D01*
X51970316Y-125396500D01*
X51970318Y-125396500D01*
X51970321Y-125396499D01*
X51970329Y-125396499D01*
X52156593Y-125372968D01*
X52282473Y-125357066D01*
X52587225Y-125278819D01*
X52587228Y-125278818D01*
X52879757Y-125162998D01*
X52879758Y-125162997D01*
X52879756Y-125162997D01*
X52879766Y-125162994D01*
X53155484Y-125011416D01*
X53410030Y-124826478D01*
X53639390Y-124611094D01*
X53839947Y-124368663D01*
X54008537Y-124103007D01*
X54142503Y-123818315D01*
X54239731Y-123519079D01*
X54298688Y-123210015D01*
X54318444Y-122896000D01*
X54298688Y-122581985D01*
X54239731Y-122272921D01*
X54142503Y-121973685D01*
X54008537Y-121688993D01*
X53839947Y-121423337D01*
X53839945Y-121423334D01*
X53639393Y-121180909D01*
X53639391Y-121180907D01*
X53410031Y-120965523D01*
X53410021Y-120965515D01*
X53155495Y-120780591D01*
X53155488Y-120780586D01*
X53155484Y-120780584D01*
X52879766Y-120629006D01*
X52879763Y-120629004D01*
X52879758Y-120629002D01*
X52879757Y-120629001D01*
X52587228Y-120513181D01*
X52587225Y-120513180D01*
X52282476Y-120434934D01*
X52282463Y-120434932D01*
X51970329Y-120395500D01*
X51970318Y-120395500D01*
X51655682Y-120395500D01*
X51655670Y-120395500D01*
X51343536Y-120434932D01*
X51343523Y-120434934D01*
X51038774Y-120513180D01*
X51038771Y-120513181D01*
X50746242Y-120629001D01*
X50746241Y-120629002D01*
X50470516Y-120780584D01*
X50470504Y-120780591D01*
X50215978Y-120965515D01*
X50215968Y-120965523D01*
X49986608Y-121180907D01*
X49986606Y-121180909D01*
X49786054Y-121423334D01*
X49786051Y-121423338D01*
X49617464Y-121688990D01*
X49617461Y-121688996D01*
X49483499Y-121973678D01*
X49483497Y-121973683D01*
X49386270Y-122272916D01*
X49327311Y-122581988D01*
X49327310Y-122581995D01*
X49307556Y-122895994D01*
X49307556Y-122896005D01*
X42815500Y-122896005D01*
X42815500Y-84896005D01*
X49307556Y-84896005D01*
X49327310Y-85210004D01*
X49327311Y-85210011D01*
X49386270Y-85519083D01*
X49483497Y-85818316D01*
X49483499Y-85818321D01*
X49617461Y-86103003D01*
X49617464Y-86103009D01*
X49786051Y-86368661D01*
X49786054Y-86368665D01*
X49986606Y-86611090D01*
X49986608Y-86611092D01*
X50215968Y-86826476D01*
X50215978Y-86826484D01*
X50470504Y-87011408D01*
X50470509Y-87011410D01*
X50470516Y-87011416D01*
X50746234Y-87162994D01*
X50746239Y-87162996D01*
X50746241Y-87162997D01*
X50746242Y-87162998D01*
X51038771Y-87278818D01*
X51038774Y-87278819D01*
X51343523Y-87357065D01*
X51343527Y-87357066D01*
X51409010Y-87365338D01*
X51655670Y-87396499D01*
X51655679Y-87396499D01*
X51655682Y-87396500D01*
X51655684Y-87396500D01*
X51970316Y-87396500D01*
X51970318Y-87396500D01*
X51970321Y-87396499D01*
X51970329Y-87396499D01*
X52156593Y-87372968D01*
X52282473Y-87357066D01*
X52587225Y-87278819D01*
X52587228Y-87278818D01*
X52879757Y-87162998D01*
X52879758Y-87162997D01*
X52879756Y-87162997D01*
X52879766Y-87162994D01*
X53155484Y-87011416D01*
X53410030Y-86826478D01*
X53639390Y-86611094D01*
X53839947Y-86368663D01*
X54008537Y-86103007D01*
X54142503Y-85818315D01*
X54239731Y-85519079D01*
X54298688Y-85210015D01*
X54318444Y-84896005D01*
X125307556Y-84896005D01*
X125327310Y-85210004D01*
X125327311Y-85210011D01*
X125386270Y-85519083D01*
X125483497Y-85818316D01*
X125483499Y-85818321D01*
X125617461Y-86103003D01*
X125617464Y-86103009D01*
X125786051Y-86368661D01*
X125786054Y-86368665D01*
X125986606Y-86611090D01*
X125986608Y-86611092D01*
X126215968Y-86826476D01*
X126215978Y-86826484D01*
X126470504Y-87011408D01*
X126470509Y-87011410D01*
X126470516Y-87011416D01*
X126746234Y-87162994D01*
X126746239Y-87162996D01*
X126746241Y-87162997D01*
X126746242Y-87162998D01*
X127038771Y-87278818D01*
X127038774Y-87278819D01*
X127343523Y-87357065D01*
X127343527Y-87357066D01*
X127409010Y-87365338D01*
X127655670Y-87396499D01*
X127655679Y-87396499D01*
X127655682Y-87396500D01*
X127655684Y-87396500D01*
X127970316Y-87396500D01*
X127970318Y-87396500D01*
X127970321Y-87396499D01*
X127970329Y-87396499D01*
X128156593Y-87372968D01*
X128282473Y-87357066D01*
X128587225Y-87278819D01*
X128587228Y-87278818D01*
X128879757Y-87162998D01*
X128879758Y-87162997D01*
X128879756Y-87162997D01*
X128879766Y-87162994D01*
X129155484Y-87011416D01*
X129410030Y-86826478D01*
X129639390Y-86611094D01*
X129839947Y-86368663D01*
X130008537Y-86103007D01*
X130142503Y-85818315D01*
X130239731Y-85519079D01*
X130298688Y-85210015D01*
X130318444Y-84896000D01*
X130298688Y-84581985D01*
X130239731Y-84272921D01*
X130142503Y-83973685D01*
X130008537Y-83688993D01*
X129839947Y-83423337D01*
X129839945Y-83423334D01*
X129639393Y-83180909D01*
X129639391Y-83180907D01*
X129410031Y-82965523D01*
X129410021Y-82965515D01*
X129155495Y-82780591D01*
X129155488Y-82780586D01*
X129155484Y-82780584D01*
X128879766Y-82629006D01*
X128879763Y-82629004D01*
X128879758Y-82629002D01*
X128879757Y-82629001D01*
X128587228Y-82513181D01*
X128587225Y-82513180D01*
X128282476Y-82434934D01*
X128282463Y-82434932D01*
X127970329Y-82395500D01*
X127970318Y-82395500D01*
X127655682Y-82395500D01*
X127655670Y-82395500D01*
X127343536Y-82434932D01*
X127343523Y-82434934D01*
X127038774Y-82513180D01*
X127038771Y-82513181D01*
X126746242Y-82629001D01*
X126746241Y-82629002D01*
X126470516Y-82780584D01*
X126470504Y-82780591D01*
X126215978Y-82965515D01*
X126215968Y-82965523D01*
X125986608Y-83180907D01*
X125986606Y-83180909D01*
X125786054Y-83423334D01*
X125786051Y-83423338D01*
X125617464Y-83688990D01*
X125617461Y-83688996D01*
X125483499Y-83973678D01*
X125483497Y-83973683D01*
X125386270Y-84272916D01*
X125327311Y-84581988D01*
X125327310Y-84581995D01*
X125307556Y-84895994D01*
X125307556Y-84896005D01*
X54318444Y-84896005D01*
X54318444Y-84896000D01*
X54298688Y-84581985D01*
X54239731Y-84272921D01*
X54142503Y-83973685D01*
X54008537Y-83688993D01*
X53839947Y-83423337D01*
X53839945Y-83423334D01*
X53639393Y-83180909D01*
X53639391Y-83180907D01*
X53410031Y-82965523D01*
X53410021Y-82965515D01*
X53155495Y-82780591D01*
X53155488Y-82780586D01*
X53155484Y-82780584D01*
X52879766Y-82629006D01*
X52879763Y-82629004D01*
X52879758Y-82629002D01*
X52879757Y-82629001D01*
X52587228Y-82513181D01*
X52587225Y-82513180D01*
X52282476Y-82434934D01*
X52282463Y-82434932D01*
X51970329Y-82395500D01*
X51970318Y-82395500D01*
X51655682Y-82395500D01*
X51655670Y-82395500D01*
X51343536Y-82434932D01*
X51343523Y-82434934D01*
X51038774Y-82513180D01*
X51038771Y-82513181D01*
X50746242Y-82629001D01*
X50746241Y-82629002D01*
X50470516Y-82780584D01*
X50470504Y-82780591D01*
X50215978Y-82965515D01*
X50215968Y-82965523D01*
X49986608Y-83180907D01*
X49986606Y-83180909D01*
X49786054Y-83423334D01*
X49786051Y-83423338D01*
X49617464Y-83688990D01*
X49617461Y-83688996D01*
X49483499Y-83973678D01*
X49483497Y-83973683D01*
X49386270Y-84272916D01*
X49327311Y-84581988D01*
X49327310Y-84581995D01*
X49307556Y-84895994D01*
X49307556Y-84896005D01*
X42815500Y-84896005D01*
X42815500Y-76351552D01*
X42815540Y-76348416D01*
X42816070Y-76327467D01*
X42816384Y-76321246D01*
X42817845Y-76302056D01*
X42818471Y-76295900D01*
X42820867Y-76277077D01*
X42821806Y-76270930D01*
X42825107Y-76252468D01*
X42826354Y-76246387D01*
X42830537Y-76228285D01*
X42832077Y-76222303D01*
X42837127Y-76204535D01*
X42838950Y-76198678D01*
X42844838Y-76181293D01*
X42846936Y-76175568D01*
X42853653Y-76158544D01*
X42856011Y-76152970D01*
X42863559Y-76136285D01*
X42866137Y-76130938D01*
X42874470Y-76114679D01*
X42877296Y-76109481D01*
X42886383Y-76093686D01*
X42889453Y-76088637D01*
X42899245Y-76073370D01*
X42902538Y-76068497D01*
X42913090Y-76053663D01*
X42916568Y-76049014D01*
X42927797Y-76034728D01*
X42931512Y-76030228D01*
X42943397Y-76016509D01*
X42947334Y-76012180D01*
X42959812Y-75999093D01*
X42963993Y-75994912D01*
X42977071Y-75982444D01*
X42981395Y-75978512D01*
X42995114Y-75966627D01*
X42999614Y-75962912D01*
X43013900Y-75951683D01*
X43018570Y-75948191D01*
X43033363Y-75937667D01*
X43038280Y-75934345D01*
X43041120Y-75932524D01*
X43053518Y-75924572D01*
X43058603Y-75921481D01*
X43074359Y-75912416D01*
X43079580Y-75909578D01*
X43095834Y-75901248D01*
X43101196Y-75898663D01*
X43117874Y-75891118D01*
X43123400Y-75888779D01*
X43140481Y-75882039D01*
X43146111Y-75879977D01*
X43163587Y-75874057D01*
X43169405Y-75872246D01*
X43187216Y-75867184D01*
X43193120Y-75865663D01*
X43211317Y-75861459D01*
X43217302Y-75860233D01*
X43235850Y-75856916D01*
X43241977Y-75855979D01*
X43260786Y-75853586D01*
X43266963Y-75852959D01*
X43286100Y-75851502D01*
X43292318Y-75851187D01*
X43313382Y-75850652D01*
X43316371Y-75850614D01*
X61501816Y-75849911D01*
X61504197Y-75850088D01*
X61509502Y-75849952D01*
X61512684Y-75849911D01*
X61521526Y-75849911D01*
X61524059Y-75849582D01*
X61526917Y-75849510D01*
X61530851Y-75849723D01*
X61533661Y-75849507D01*
X61540126Y-75849179D01*
X61542468Y-75849121D01*
X61546255Y-75848545D01*
X61551468Y-75848149D01*
X61555536Y-75848192D01*
X61559062Y-75847740D01*
X61565542Y-75847081D01*
X61569243Y-75846802D01*
X61573230Y-75845936D01*
X61578055Y-75845323D01*
X61582013Y-75845118D01*
X61583813Y-75844789D01*
X61590921Y-75843700D01*
X61593768Y-75843348D01*
X61597759Y-75842283D01*
X61603050Y-75841338D01*
X61606835Y-75840941D01*
X61608785Y-75840488D01*
X61615293Y-75839155D01*
X61617779Y-75838714D01*
X61621490Y-75837549D01*
X61626366Y-75836423D01*
X61630499Y-75835816D01*
X61632530Y-75835225D01*
X61640010Y-75833298D01*
X61642613Y-75832712D01*
X61646581Y-75831208D01*
X61651002Y-75829953D01*
X61655154Y-75829102D01*
X61655803Y-75828874D01*
X61664269Y-75826229D01*
X61666417Y-75825641D01*
X61670504Y-75823843D01*
X61672812Y-75823062D01*
X61677343Y-75821963D01*
X61678940Y-75821306D01*
X61687688Y-75818083D01*
X61689470Y-75817501D01*
X61693486Y-75815496D01*
X61696650Y-75814248D01*
X61700581Y-75813052D01*
X61702603Y-75812124D01*
X61709499Y-75809204D01*
X61712592Y-75808003D01*
X61716311Y-75805901D01*
X61717807Y-75805225D01*
X61722114Y-75803733D01*
X61724271Y-75802597D01*
X61732250Y-75798748D01*
X61734500Y-75797759D01*
X61738307Y-75795351D01*
X61740160Y-75794402D01*
X61744001Y-75792834D01*
X61746703Y-75791265D01*
X61752989Y-75787851D01*
X61755214Y-75786724D01*
X61758519Y-75784452D01*
X61762744Y-75782023D01*
X61766575Y-75780181D01*
X61766888Y-75779975D01*
X61774764Y-75775175D01*
X61775617Y-75774697D01*
X61779014Y-75772125D01*
X61781581Y-75770480D01*
X61784942Y-75768730D01*
X61788671Y-75766096D01*
X61793559Y-75762812D01*
X61796653Y-75760838D01*
X61799688Y-75758273D01*
X61800970Y-75757362D01*
X61804834Y-75755135D01*
X61807596Y-75752927D01*
X61813955Y-75748165D01*
X61815631Y-75746991D01*
X61818651Y-75744198D01*
X61821213Y-75742185D01*
X61824865Y-75739789D01*
X61826446Y-75738391D01*
X61832987Y-75732987D01*
X61834619Y-75731729D01*
X61837611Y-75728662D01*
X61840006Y-75726589D01*
X61843625Y-75723942D01*
X61844336Y-75723244D01*
X61851500Y-75716729D01*
X61852777Y-75715655D01*
X61855810Y-75712207D01*
X61858122Y-75710003D01*
X61861285Y-75707427D01*
X61862437Y-75706200D01*
X61868120Y-75700523D01*
X61869329Y-75699390D01*
X61871917Y-75696217D01*
X61872213Y-75695907D01*
X61873754Y-75694291D01*
X61877165Y-75691321D01*
X61879048Y-75689099D01*
X61884696Y-75682874D01*
X61886587Y-75680926D01*
X61889128Y-75677399D01*
X61889840Y-75676577D01*
X61893116Y-75673438D01*
X61894916Y-75671099D01*
X61900316Y-75664553D01*
X61901225Y-75663524D01*
X61903527Y-75660075D01*
X61905396Y-75657698D01*
X61908201Y-75654726D01*
X61910420Y-75651590D01*
X61914504Y-75646140D01*
X61917274Y-75642646D01*
X61919382Y-75638979D01*
X61920190Y-75637843D01*
X61922946Y-75634590D01*
X61924294Y-75632450D01*
X61928558Y-75626118D01*
X61930058Y-75624031D01*
X61931964Y-75620434D01*
X61933698Y-75617731D01*
X61936251Y-75614402D01*
X61937419Y-75612338D01*
X61941521Y-75605596D01*
X61942512Y-75604076D01*
X61944275Y-75600368D01*
X61946410Y-75596657D01*
X61948694Y-75593337D01*
X61949747Y-75591257D01*
X61953283Y-75584758D01*
X61954663Y-75582391D01*
X61956237Y-75578558D01*
X61958047Y-75575027D01*
X61960148Y-75571609D01*
X61960952Y-75569808D01*
X61964226Y-75563026D01*
X61965851Y-75559904D01*
X61967264Y-75555808D01*
X61967994Y-75554196D01*
X61970171Y-75550324D01*
X61970887Y-75548456D01*
X61974455Y-75540076D01*
X61974828Y-75539281D01*
X61976112Y-75535095D01*
X61977932Y-75530481D01*
X61979682Y-75526886D01*
X61980284Y-75525083D01*
X61982912Y-75517936D01*
X61984096Y-75514996D01*
X61985121Y-75510746D01*
X61985829Y-75508657D01*
X61987548Y-75504747D01*
X61988309Y-75502008D01*
X61990635Y-75494553D01*
X61991145Y-75493081D01*
X61991960Y-75489085D01*
X61992338Y-75487755D01*
X61993579Y-75483390D01*
X61994981Y-75479553D01*
X61995187Y-75478630D01*
X61997299Y-75470454D01*
X61997737Y-75468965D01*
X61998366Y-75464717D01*
X61999523Y-75459711D01*
X62000710Y-75455929D01*
X62001069Y-75453883D01*
X62002531Y-75446773D01*
X62002963Y-75444944D01*
X62003367Y-75440967D01*
X62004286Y-75435826D01*
X62005416Y-75431567D01*
X62005581Y-75430151D01*
X62006942Y-75421262D01*
X62007034Y-75420776D01*
X62007260Y-75416576D01*
X62007890Y-75411625D01*
X62008862Y-75407161D01*
X62008998Y-75405077D01*
X62009883Y-75396288D01*
X62009920Y-75396015D01*
X62009947Y-75391965D01*
X62010336Y-75386866D01*
X62011040Y-75382739D01*
X62011140Y-75378592D01*
X62011478Y-75371948D01*
X62011685Y-75369283D01*
X62011472Y-75365318D01*
X62011544Y-75362473D01*
X62011873Y-75359934D01*
X62011873Y-75351098D01*
X62011914Y-75347916D01*
X62012050Y-75342617D01*
X62011873Y-75340230D01*
X62011873Y-71500857D01*
X62011911Y-71497801D01*
X62012444Y-71476683D01*
X62012755Y-71470532D01*
X62014212Y-71451346D01*
X62014841Y-71445143D01*
X62017234Y-71426291D01*
X62018166Y-71420180D01*
X62021475Y-71401627D01*
X62022702Y-71395621D01*
X62026898Y-71377421D01*
X62028428Y-71371467D01*
X62033480Y-71353652D01*
X62035278Y-71347861D01*
X62041187Y-71330374D01*
X62043253Y-71324722D01*
X62050009Y-71307569D01*
X62052321Y-71302097D01*
X62059866Y-71285390D01*
X62062443Y-71280034D01*
X62070751Y-71263795D01*
X62073593Y-71258556D01*
X62082662Y-71242766D01*
X62085728Y-71237714D01*
X62095535Y-71222400D01*
X62098811Y-71217544D01*
X62109345Y-71202715D01*
X62112850Y-71198024D01*
X62124026Y-71183785D01*
X62127772Y-71179240D01*
X62139626Y-71165542D01*
X62143560Y-71161210D01*
X62156054Y-71148093D01*
X62160216Y-71143928D01*
X62160804Y-71143367D01*
X62173300Y-71131440D01*
X62177613Y-71127516D01*
X62191330Y-71115623D01*
X62195839Y-71111898D01*
X62210088Y-71100690D01*
X62214787Y-71097173D01*
X62229598Y-71086632D01*
X62234450Y-71083351D01*
X62249753Y-71073531D01*
X62254760Y-71070487D01*
X62270565Y-71061391D01*
X62275792Y-71058549D01*
X62292017Y-71050232D01*
X62297440Y-71047618D01*
X62300330Y-71046311D01*
X62314053Y-71040103D01*
X62319629Y-71037742D01*
X62336666Y-71031021D01*
X62342346Y-71028940D01*
X62359808Y-71023027D01*
X62365629Y-71021216D01*
X62383463Y-71016149D01*
X62389369Y-71014628D01*
X62407545Y-71010431D01*
X62413597Y-71009192D01*
X62432134Y-71005880D01*
X62438256Y-71004945D01*
X62457063Y-71002555D01*
X62463280Y-71001923D01*
X62482436Y-71000466D01*
X62488667Y-71000151D01*
X62506797Y-70999693D01*
X62509658Y-70999621D01*
X62512790Y-70999581D01*
X80399645Y-70999581D01*
X80402110Y-70999800D01*
X80409194Y-70999621D01*
X80412337Y-70999581D01*
X80421228Y-70999581D01*
X80423764Y-70999252D01*
X80426619Y-70999180D01*
X80430540Y-70999392D01*
X80433330Y-70999178D01*
X80439795Y-70998850D01*
X80442152Y-70998791D01*
X80445935Y-70998216D01*
X80451144Y-70997821D01*
X80455212Y-70997864D01*
X80458727Y-70997414D01*
X80465207Y-70996755D01*
X80468917Y-70996475D01*
X80472889Y-70995612D01*
X80477657Y-70995007D01*
X80481541Y-70994809D01*
X80483683Y-70994422D01*
X80490383Y-70993399D01*
X80493542Y-70993004D01*
X80497471Y-70991954D01*
X80502717Y-70991018D01*
X80506506Y-70990622D01*
X80508437Y-70990173D01*
X80514945Y-70988840D01*
X80517456Y-70988395D01*
X80521166Y-70987231D01*
X80525901Y-70986139D01*
X80529919Y-70985551D01*
X80532523Y-70984803D01*
X80539322Y-70983055D01*
X80542458Y-70982342D01*
X80546315Y-70980877D01*
X80550653Y-70979646D01*
X80554813Y-70978795D01*
X80555444Y-70978573D01*
X80563899Y-70975932D01*
X80564764Y-70975695D01*
X80568598Y-70974067D01*
X80572509Y-70972745D01*
X80576819Y-70971697D01*
X80579033Y-70970799D01*
X80586845Y-70967930D01*
X80589326Y-70967111D01*
X80593210Y-70965169D01*
X80596552Y-70963852D01*
X80600779Y-70962556D01*
X80601327Y-70962299D01*
X80610066Y-70958587D01*
X80610510Y-70958417D01*
X80614201Y-70956403D01*
X80617216Y-70955041D01*
X80621335Y-70953621D01*
X80624416Y-70952019D01*
X80631270Y-70948718D01*
X80634437Y-70947310D01*
X80638102Y-70944986D01*
X80639827Y-70944103D01*
X80643643Y-70942547D01*
X80646295Y-70941007D01*
X80652581Y-70937593D01*
X80654824Y-70936457D01*
X80658128Y-70934186D01*
X80662144Y-70931879D01*
X80665776Y-70930140D01*
X80667088Y-70929286D01*
X80673692Y-70925270D01*
X80675494Y-70924249D01*
X80678733Y-70921791D01*
X80681567Y-70919975D01*
X80685561Y-70917875D01*
X80686933Y-70916872D01*
X80694548Y-70911724D01*
X80695646Y-70911039D01*
X80698988Y-70908227D01*
X80701672Y-70906320D01*
X80705273Y-70904191D01*
X80707256Y-70902612D01*
X80713439Y-70897991D01*
X80715824Y-70896320D01*
X80718934Y-70893403D01*
X80720783Y-70891952D01*
X80724427Y-70889561D01*
X80725994Y-70888175D01*
X80732535Y-70882771D01*
X80734165Y-70881515D01*
X80737145Y-70878461D01*
X80738758Y-70877064D01*
X80742501Y-70874372D01*
X80744194Y-70872714D01*
X80750662Y-70866811D01*
X80752376Y-70865354D01*
X80755239Y-70862105D01*
X80757659Y-70859799D01*
X80760812Y-70857231D01*
X80761966Y-70856002D01*
X80767649Y-70850325D01*
X80768860Y-70849191D01*
X80771448Y-70846017D01*
X80773281Y-70844095D01*
X80776689Y-70841127D01*
X80778569Y-70838910D01*
X80784217Y-70832685D01*
X80786114Y-70830731D01*
X80788663Y-70827192D01*
X80790175Y-70825447D01*
X80793325Y-70822371D01*
X80794157Y-70821287D01*
X80800178Y-70814019D01*
X80801043Y-70813051D01*
X80803535Y-70809264D01*
X80805715Y-70806492D01*
X80808604Y-70803365D01*
X80809292Y-70802376D01*
X80814768Y-70795086D01*
X80816357Y-70793124D01*
X80818715Y-70789047D01*
X80820301Y-70786819D01*
X80822995Y-70783585D01*
X80823576Y-70782657D01*
X80828341Y-70775584D01*
X80829042Y-70774616D01*
X80830988Y-70771011D01*
X80833209Y-70767550D01*
X80835757Y-70764225D01*
X80836923Y-70762165D01*
X80841025Y-70755423D01*
X80842022Y-70753895D01*
X80843787Y-70750182D01*
X80845784Y-70746713D01*
X80848224Y-70743181D01*
X80849047Y-70741536D01*
X80853053Y-70734157D01*
X80854229Y-70732154D01*
X80855866Y-70728142D01*
X80857547Y-70724863D01*
X80859655Y-70721436D01*
X80860458Y-70719635D01*
X80863735Y-70712844D01*
X80864358Y-70711646D01*
X80865708Y-70707986D01*
X80867384Y-70704282D01*
X80869379Y-70700753D01*
X80870855Y-70697003D01*
X80873359Y-70691094D01*
X80874638Y-70688279D01*
X80875774Y-70684536D01*
X80876865Y-70681771D01*
X80878703Y-70678115D01*
X80879948Y-70674423D01*
X80882217Y-70668240D01*
X80883645Y-70664644D01*
X80884608Y-70660661D01*
X80885374Y-70658400D01*
X80887153Y-70654345D01*
X80887739Y-70652215D01*
X80890324Y-70643948D01*
X80890618Y-70643110D01*
X80891463Y-70638988D01*
X80892746Y-70634483D01*
X80894302Y-70630372D01*
X80894695Y-70628594D01*
X80896894Y-70620082D01*
X80897272Y-70618803D01*
X80897910Y-70614517D01*
X80898262Y-70612998D01*
X80898711Y-70611057D01*
X80900088Y-70606862D01*
X80900539Y-70604240D01*
X80902256Y-70595949D01*
X80902469Y-70595071D01*
X80902903Y-70590891D01*
X80903699Y-70586458D01*
X80904802Y-70582421D01*
X80905245Y-70578881D01*
X80906290Y-70572064D01*
X80906837Y-70569053D01*
X80907014Y-70564981D01*
X80907506Y-70561138D01*
X80908407Y-70556989D01*
X80908606Y-70554234D01*
X80909403Y-70546539D01*
X80909483Y-70545945D01*
X80909525Y-70542077D01*
X80909954Y-70536511D01*
X80910671Y-70532309D01*
X80910762Y-70528479D01*
X80911127Y-70521455D01*
X80911367Y-70518467D01*
X80911125Y-70514353D01*
X80911137Y-70513890D01*
X80911527Y-70511181D01*
X80911527Y-70500869D01*
X80911572Y-70497517D01*
X80911710Y-70492384D01*
X80911529Y-70489931D01*
X80911880Y-69250791D01*
X80911919Y-69247781D01*
X80912452Y-69226705D01*
X80912765Y-69220513D01*
X80914222Y-69201320D01*
X80914845Y-69195170D01*
X80917244Y-69176280D01*
X80918180Y-69170151D01*
X80921477Y-69151674D01*
X80922720Y-69145593D01*
X80926904Y-69127449D01*
X80928443Y-69121462D01*
X80933478Y-69103718D01*
X80935299Y-69097856D01*
X80936748Y-69093567D01*
X80941193Y-69080422D01*
X80943268Y-69074747D01*
X80950014Y-69057631D01*
X80952344Y-69052119D01*
X80959871Y-69035462D01*
X80962460Y-69030083D01*
X80970770Y-69013852D01*
X80973601Y-69008636D01*
X80982687Y-68992828D01*
X80985732Y-68987815D01*
X80995551Y-68972495D01*
X80998841Y-68967624D01*
X81009341Y-68952854D01*
X81012886Y-68948115D01*
X81024050Y-68933905D01*
X81027780Y-68929385D01*
X81039632Y-68915700D01*
X81043591Y-68911346D01*
X81056071Y-68898256D01*
X81060224Y-68894101D01*
X81073328Y-68881608D01*
X81077648Y-68877683D01*
X81091336Y-68865827D01*
X81095848Y-68862104D01*
X81110103Y-68850904D01*
X81114816Y-68847380D01*
X81129576Y-68836886D01*
X81134502Y-68833560D01*
X81134715Y-68833424D01*
X81149740Y-68823794D01*
X81154826Y-68820705D01*
X81170591Y-68811644D01*
X81175776Y-68808828D01*
X81192061Y-68800491D01*
X81197428Y-68797908D01*
X81214085Y-68790381D01*
X81219645Y-68788031D01*
X81236675Y-68781321D01*
X81242380Y-68779234D01*
X81259831Y-68773334D01*
X81265626Y-68771533D01*
X81283486Y-68766465D01*
X81289404Y-68764944D01*
X81307573Y-68760755D01*
X81313635Y-68759517D01*
X81332149Y-68756212D01*
X81338231Y-68755284D01*
X81357129Y-68752885D01*
X81363284Y-68752262D01*
X81382474Y-68750805D01*
X81388661Y-68750492D01*
X81409758Y-68749958D01*
X81412734Y-68749920D01*
X98359621Y-68749570D01*
X98362683Y-68749608D01*
G37*
%TD.AperFunction*%
%TD*%
M02*
