<?xml version="1.0" encoding="UTF-8" standalone="no"?>
<!DOCTYPE svg PUBLIC "-//W3C//DTD SVG 1.1//EN" "http://www.w3.org/Graphics/SVG/1.1/DTD/svg11.dtd">
<svg width="100%" height="100%" viewBox="0 0 908 1134" version="1.1" xmlns="http://www.w3.org/2000/svg" xmlns:xlink="http://www.w3.org/1999/xlink" xml:space="preserve" xmlns:serif="http://www.serif.com/" style="fill-rule:evenodd;clip-rule:evenodd;stroke-linecap:round;stroke-linejoin:round;">
    <g transform="matrix(1.33333,0,0,1.33333,13.0473,-16.2716)">
        <g transform="matrix(0.55,0,0,0.55,108.551,30.9304)">
            <circle cx="241.225" cy="68.734" r="5.669" style="fill:none;stroke:rgb(255,0,0);stroke-width:0.18px;"/>
        </g>
        <g transform="matrix(0.55,0,0,0.55,11.6062,30.9304)">
            <circle cx="25.792" cy="68.734" r="5.669" style="fill:none;stroke:rgb(255,0,0);stroke-width:0.18px;"/>
        </g>
        <g transform="matrix(0.55,0,0,0.55,11.6062,79.4028)">
            <circle cx="25.792" cy="176.451" r="5.669" style="fill:none;stroke:rgb(255,0,0);stroke-width:0.18px;"/>
        </g>
        <g transform="matrix(0.55,0,0,0.55,72.1968,91.5209)">
            <circle cx="160.437" cy="203.38" r="5.669" style="fill:none;stroke:rgb(255,0,0);stroke-width:0.18px;"/>
        </g>
        <g transform="matrix(0.55,0,0,0.55,110.575,96.9741)">
            <circle cx="245.722" cy="215.498" r="5.669" style="fill:none;stroke:rgb(255,0,0);stroke-width:0.18px;"/>
        </g>
    </g>
    <g transform="matrix(-1.33333,0,0,1.33333,894.062,-16.2716)">
        <path d="M540.724,204.158L535.051,205.669L523.036,209.753L510.3,215.05L497.052,221.318L483.497,228.313L456.298,243.516L407.346,271.982L397.45,277.279L388.906,281.363L381.921,283.991L379.078,284.684C379.078,284.684 377.766,284.815 376.835,284.908C376.28,284.963 375.745,284.689 375.466,284.206C371.174,276.772 338.069,219.434 335.26,214.568C335.135,214.352 335.07,214.108 335.07,213.859C335.07,205.453 335.07,60.168 335.07,44.222C335.07,43.846 335.219,43.485 335.485,43.22C335.751,42.954 336.111,42.805 336.487,42.805C344.534,42.805 384.396,42.805 392.443,42.805C393.226,42.805 393.861,42.17 393.861,41.388C393.861,40.333 393.861,38.899 393.861,37.844C393.861,37.061 394.495,36.427 395.278,36.427C402.877,36.427 438.731,36.427 446.33,36.427C446.706,36.427 447.066,36.277 447.332,36.011C447.598,35.746 447.747,35.385 447.747,35.009C447.747,33.772 447.747,31.987 447.747,30.75C447.747,30.374 447.896,30.014 448.162,29.748C448.428,29.482 448.788,29.333 449.164,29.333C456.761,29.334 492.591,29.338 500.188,29.339C500.564,29.339 500.924,29.19 501.19,28.924C501.456,28.658 501.605,28.298 501.605,27.922C501.605,26.867 501.605,25.434 501.605,24.379C501.605,24.003 501.754,23.643 502.02,23.377C502.286,23.111 502.646,22.962 503.022,22.962C510.337,22.962 543.756,22.962 551.069,22.963C551.852,22.963 552.486,23.597 552.486,24.38C552.487,25.434 552.487,26.868 552.487,27.923C552.488,28.706 553.122,29.34 553.905,29.34C561.474,29.34 597.074,29.34 604.644,29.34C605.427,29.34 606.061,29.975 606.061,30.758C606.061,33.396 606.061,39.033 606.061,41.672C606.061,42.454 606.696,43.089 607.479,43.089C615.127,43.089 651.411,43.091 659.059,43.091C659.841,43.091 660.476,43.726 660.476,44.508C660.476,59.341 660.476,185.904 660.476,200.74C660.476,201.116 660.326,201.477 660.06,201.743C659.794,202.008 659.434,202.158 659.058,202.157C646.589,202.152 556.091,202.111 556.091,202.111L551.27,202.349L546.139,203.041L540.724,204.158" style="fill:none;fill-rule:nonzero;stroke:rgb(0,0,255);stroke-width:0.1px;"/>
    </g>
</svg>
