%TF.GenerationSoftware,KiCad,Pcbnew,7.0.6*%
%TF.CreationDate,2024-02-24T14:45:10+09:00*%
%TF.ProjectId,kamu_keyboard,6b616d75-5f6b-4657-9962-6f6172642e6b,rev?*%
%TF.SameCoordinates,Original*%
%TF.FileFunction,Soldermask,Top*%
%TF.FilePolarity,Negative*%
%FSLAX46Y46*%
G04 Gerber Fmt 4.6, Leading zero omitted, Abs format (unit mm)*
G04 Created by KiCad (PCBNEW 7.0.6) date 2024-02-24 14:45:10*
%MOMM*%
%LPD*%
G01*
G04 APERTURE LIST*
%ADD10C,0.450000*%
%ADD11C,5.000000*%
%ADD12C,4.000000*%
%ADD13C,1.524000*%
%ADD14C,1.200000*%
%ADD15R,1.397000X1.397000*%
%ADD16C,1.397000*%
%ADD17C,1.900000*%
%ADD18C,3.000000*%
%ADD19C,4.100000*%
%ADD20C,0.500000*%
G04 APERTURE END LIST*
D10*
%TO.C,REF\u002A\u002A*%
X265016000Y-132160000D03*
X265816000Y-132160000D03*
X266616000Y-132160000D03*
X267416000Y-132160000D03*
X268216000Y-132160000D03*
X269016000Y-132160000D03*
X269816000Y-132160000D03*
X270616000Y-132160000D03*
X271416000Y-132160000D03*
%TD*%
D11*
%TO.C,*%
X129399414Y-136671000D03*
%TD*%
%TO.C,*%
X127813000Y-84896000D03*
%TD*%
D10*
%TO.C,REF\u002A\u002A*%
X126110000Y-73299000D03*
X126910000Y-73299000D03*
X127710000Y-73299000D03*
X128510000Y-73299000D03*
X129310000Y-73299000D03*
X130110000Y-73299000D03*
X130910000Y-73299000D03*
X131710000Y-73299000D03*
X132510000Y-73299000D03*
%TD*%
D12*
%TO.C,*%
X140475539Y-121514484D03*
%TD*%
D11*
%TO.C,*%
X51813000Y-122896000D03*
%TD*%
D12*
%TO.C,*%
X153800507Y-130014484D03*
%TD*%
D13*
%TO.C,U2*%
X178539818Y-81076000D03*
X178539818Y-83616000D03*
X178539818Y-86156000D03*
X178539818Y-88696000D03*
X178539818Y-91236000D03*
X178549818Y-93776000D03*
X178539818Y-96316000D03*
X178539818Y-98856000D03*
X178549818Y-101396000D03*
X178549818Y-103936000D03*
X178549818Y-106476000D03*
X178539818Y-109016000D03*
X163299818Y-109016000D03*
X163289818Y-106476000D03*
X163289818Y-103936000D03*
X163289818Y-101396000D03*
X163289818Y-98856000D03*
X163299818Y-96316000D03*
X163289818Y-93776000D03*
X163299818Y-91236000D03*
X163299818Y-88696000D03*
X163299818Y-86156000D03*
X163299818Y-83616000D03*
X163299818Y-81076000D03*
X163299818Y-78536000D03*
X178539818Y-78536000D03*
%TD*%
D10*
%TO.C,REF\u002A\u002A*%
X186110000Y-73299000D03*
X186910000Y-73299000D03*
X187710000Y-73299000D03*
X188510000Y-73299000D03*
X189310000Y-73299000D03*
X190110000Y-73299000D03*
X190910000Y-73299000D03*
X191710000Y-73299000D03*
X192510000Y-73299000D03*
%TD*%
D14*
%TO.C,J6*%
X162944818Y-123688500D03*
X169944818Y-123688500D03*
%TD*%
%TO.C,J5*%
X155585766Y-123863500D03*
X148585766Y-123863500D03*
%TD*%
D11*
%TO.C,*%
X99313000Y-132396000D03*
%TD*%
D10*
%TO.C,REF\u002A\u002A*%
X47115000Y-132163000D03*
X47915000Y-132163000D03*
X48715000Y-132163000D03*
X49515000Y-132163000D03*
X50315000Y-132163000D03*
X51115000Y-132163000D03*
X51915000Y-132163000D03*
X52715000Y-132163000D03*
X53515000Y-132163000D03*
%TD*%
D11*
%TO.C,*%
X51813000Y-84896000D03*
%TD*%
D13*
%TO.C,U1*%
X155230766Y-81076000D03*
X155230766Y-83616000D03*
X155230766Y-86156000D03*
X155230766Y-88696000D03*
X155230766Y-91236000D03*
X155240766Y-93776000D03*
X155230766Y-96316000D03*
X155230766Y-98856000D03*
X155240766Y-101396000D03*
X155240766Y-103936000D03*
X155240766Y-106476000D03*
X155230766Y-109016000D03*
X139990766Y-109016000D03*
X139980766Y-106476000D03*
X139980766Y-103936000D03*
X139980766Y-101396000D03*
X139980766Y-98856000D03*
X139990766Y-96316000D03*
X139980766Y-93776000D03*
X139990766Y-91236000D03*
X139990766Y-88696000D03*
X139990766Y-86156000D03*
X139990766Y-83616000D03*
X139990766Y-81076000D03*
X139990766Y-78536000D03*
X155230766Y-78536000D03*
%TD*%
D10*
%TO.C,REF\u002A\u002A*%
X265015000Y-75649000D03*
X265815000Y-75649000D03*
X266615000Y-75649000D03*
X267415000Y-75649000D03*
X268215000Y-75649000D03*
X269015000Y-75649000D03*
X269815000Y-75649000D03*
X270615000Y-75649000D03*
X271415000Y-75649000D03*
%TD*%
%TO.C,REF\u002A\u002A*%
X47115064Y-75649500D03*
X47915064Y-75649500D03*
X48715064Y-75649500D03*
X49515064Y-75649500D03*
X50315064Y-75649500D03*
X51115064Y-75649500D03*
X51915064Y-75649500D03*
X52715064Y-75649500D03*
X53515064Y-75649500D03*
%TD*%
D15*
%TO.C,J4*%
X172189818Y-101236000D03*
D16*
X169649818Y-101236000D03*
X172189818Y-103776000D03*
X169649818Y-103776000D03*
X172189818Y-106316000D03*
X169649818Y-106316000D03*
%TD*%
D12*
%TO.C,*%
X164729543Y-130014484D03*
%TD*%
D17*
%TO.C,SW8*%
X223638000Y-77771000D03*
D18*
X224908000Y-75231000D03*
D19*
X228718000Y-77771000D03*
D18*
X231258000Y-72691000D03*
D17*
X233798000Y-77771000D03*
D20*
X219858000Y-73731000D03*
X219858000Y-76731000D03*
X236308000Y-71191000D03*
X236308000Y-74191000D03*
%TD*%
D17*
%TO.C,SW9*%
X242638000Y-80146000D03*
D18*
X243908000Y-77606000D03*
D19*
X247718000Y-80146000D03*
D18*
X250258000Y-75066000D03*
D17*
X252798000Y-80146000D03*
D20*
X238858000Y-76106000D03*
X238858000Y-79106000D03*
X255308000Y-73566000D03*
X255308000Y-76566000D03*
%TD*%
D15*
%TO.C,J2*%
X148880766Y-101236000D03*
D16*
X146340766Y-101236000D03*
X148880766Y-103776000D03*
X146340766Y-103776000D03*
X148880766Y-106316000D03*
X146340766Y-106316000D03*
%TD*%
D11*
%TO.C,*%
X266718000Y-122896000D03*
%TD*%
D17*
%TO.C,SW2*%
X65733000Y-80146000D03*
D18*
X67003000Y-77606000D03*
D19*
X70813000Y-80146000D03*
D18*
X73353000Y-75066000D03*
D17*
X75893000Y-80146000D03*
D20*
X61953000Y-76106000D03*
X61953000Y-79106000D03*
X78403000Y-73566000D03*
X78403000Y-76566000D03*
%TD*%
D17*
%TO.C,SW3*%
X84733000Y-77771000D03*
D18*
X86003000Y-75231000D03*
D19*
X89813000Y-77771000D03*
D18*
X92353000Y-72691000D03*
D17*
X94893000Y-77771000D03*
D20*
X80953000Y-73731000D03*
X80953000Y-76731000D03*
X97403000Y-71191000D03*
X97403000Y-74191000D03*
%TD*%
D17*
%TO.C,SW7*%
X204638000Y-80146000D03*
D18*
X205908000Y-77606000D03*
D19*
X209718000Y-80146000D03*
D18*
X212258000Y-75066000D03*
D17*
X214798000Y-80146000D03*
D20*
X200858000Y-76106000D03*
X200858000Y-79106000D03*
X217308000Y-73566000D03*
X217308000Y-76566000D03*
%TD*%
D17*
%TO.C,SW1*%
X46733000Y-103896000D03*
D18*
X48003000Y-101356000D03*
D19*
X51813000Y-103896000D03*
D18*
X54353000Y-98816000D03*
D17*
X56893000Y-103896000D03*
D20*
X42953000Y-99856000D03*
X42953000Y-102856000D03*
X59403000Y-97316000D03*
X59403000Y-100316000D03*
%TD*%
D11*
%TO.C,*%
X189131586Y-136671000D03*
%TD*%
D12*
%TO.C,*%
X178054657Y-121514845D03*
%TD*%
D17*
%TO.C,SW5*%
X138163591Y-141731000D03*
D18*
X140533443Y-140166295D03*
D19*
X142563000Y-144271000D03*
D18*
X147302705Y-141141591D03*
D17*
X146962409Y-146811000D03*
D20*
X136910015Y-136342257D03*
X135410015Y-138940334D03*
X152426133Y-142367553D03*
X150926133Y-144965629D03*
%TD*%
D17*
%TO.C,SW6*%
X171568591Y-146811000D03*
D18*
X171398443Y-143976295D03*
D19*
X175968000Y-144271000D03*
D18*
X175627705Y-138601591D03*
D17*
X180367409Y-141731000D03*
D20*
X166275015Y-145202257D03*
X167775015Y-147800334D03*
X179251133Y-134777553D03*
X180751133Y-137375629D03*
%TD*%
D11*
%TO.C,*%
X219218000Y-132396000D03*
%TD*%
%TO.C,*%
X266718000Y-84896000D03*
%TD*%
D17*
%TO.C,SW10*%
X261638000Y-103896000D03*
D18*
X262908000Y-101356000D03*
D19*
X266718000Y-103896000D03*
D18*
X269258000Y-98816000D03*
D17*
X271798000Y-103896000D03*
D20*
X257858000Y-99856000D03*
X257858000Y-102856000D03*
X274308000Y-97316000D03*
X274308000Y-100316000D03*
%TD*%
D17*
%TO.C,SW4*%
X103733000Y-80146000D03*
D18*
X105003000Y-77606000D03*
D19*
X108813000Y-80146000D03*
D18*
X111353000Y-75066000D03*
D17*
X113893000Y-80146000D03*
D20*
X99953000Y-76106000D03*
X99953000Y-79106000D03*
X116403000Y-73566000D03*
X116403000Y-76566000D03*
%TD*%
D11*
%TO.C,*%
X190718000Y-84896000D03*
%TD*%
M02*
