%TF.GenerationSoftware,KiCad,Pcbnew,7.0.6*%
%TF.CreationDate,2024-02-24T14:45:10+09:00*%
%TF.ProjectId,kamu_keyboard,6b616d75-5f6b-4657-9962-6f6172642e6b,rev?*%
%TF.SameCoordinates,Original*%
%TF.FileFunction,Legend,Bot*%
%TF.FilePolarity,Positive*%
%FSLAX46Y46*%
G04 Gerber Fmt 4.6, Leading zero omitted, Abs format (unit mm)*
G04 Created by KiCad (PCBNEW 7.0.6) date 2024-02-24 14:45:10*
%MOMM*%
%LPD*%
G01*
G04 APERTURE LIST*
%ADD10C,0.150000*%
%ADD11C,0.100000*%
%ADD12C,0.120000*%
%ADD13R,1.397000X1.397000*%
%ADD14C,1.397000*%
G04 APERTURE END LIST*
D10*
X140189361Y-111487009D02*
X140046504Y-111534628D01*
X140046504Y-111534628D02*
X139998885Y-111582247D01*
X139998885Y-111582247D02*
X139951266Y-111677485D01*
X139951266Y-111677485D02*
X139951266Y-111820342D01*
X139951266Y-111820342D02*
X139998885Y-111915580D01*
X139998885Y-111915580D02*
X140046504Y-111963200D01*
X140046504Y-111963200D02*
X140141742Y-112010819D01*
X140141742Y-112010819D02*
X140522694Y-112010819D01*
X140522694Y-112010819D02*
X140522694Y-111010819D01*
X140522694Y-111010819D02*
X140189361Y-111010819D01*
X140189361Y-111010819D02*
X140094123Y-111058438D01*
X140094123Y-111058438D02*
X140046504Y-111106057D01*
X140046504Y-111106057D02*
X139998885Y-111201295D01*
X139998885Y-111201295D02*
X139998885Y-111296533D01*
X139998885Y-111296533D02*
X140046504Y-111391771D01*
X140046504Y-111391771D02*
X140094123Y-111439390D01*
X140094123Y-111439390D02*
X140189361Y-111487009D01*
X140189361Y-111487009D02*
X140522694Y-111487009D01*
X139046504Y-111010819D02*
X139522694Y-111010819D01*
X139522694Y-111010819D02*
X139570313Y-111487009D01*
X139570313Y-111487009D02*
X139522694Y-111439390D01*
X139522694Y-111439390D02*
X139427456Y-111391771D01*
X139427456Y-111391771D02*
X139189361Y-111391771D01*
X139189361Y-111391771D02*
X139094123Y-111439390D01*
X139094123Y-111439390D02*
X139046504Y-111487009D01*
X139046504Y-111487009D02*
X138998885Y-111582247D01*
X138998885Y-111582247D02*
X138998885Y-111820342D01*
X138998885Y-111820342D02*
X139046504Y-111915580D01*
X139046504Y-111915580D02*
X139094123Y-111963200D01*
X139094123Y-111963200D02*
X139189361Y-112010819D01*
X139189361Y-112010819D02*
X139427456Y-112010819D01*
X139427456Y-112010819D02*
X139522694Y-111963200D01*
X139522694Y-111963200D02*
X139570313Y-111915580D01*
X173636007Y-99710819D02*
X173636007Y-98710819D01*
X172588389Y-99615580D02*
X172636008Y-99663200D01*
X172636008Y-99663200D02*
X172778865Y-99710819D01*
X172778865Y-99710819D02*
X172874103Y-99710819D01*
X172874103Y-99710819D02*
X173016960Y-99663200D01*
X173016960Y-99663200D02*
X173112198Y-99567961D01*
X173112198Y-99567961D02*
X173159817Y-99472723D01*
X173159817Y-99472723D02*
X173207436Y-99282247D01*
X173207436Y-99282247D02*
X173207436Y-99139390D01*
X173207436Y-99139390D02*
X173159817Y-98948914D01*
X173159817Y-98948914D02*
X173112198Y-98853676D01*
X173112198Y-98853676D02*
X173016960Y-98758438D01*
X173016960Y-98758438D02*
X172874103Y-98710819D01*
X172874103Y-98710819D02*
X172778865Y-98710819D01*
X172778865Y-98710819D02*
X172636008Y-98758438D01*
X172636008Y-98758438D02*
X172588389Y-98806057D01*
X172207436Y-99663200D02*
X172064579Y-99710819D01*
X172064579Y-99710819D02*
X171826484Y-99710819D01*
X171826484Y-99710819D02*
X171731246Y-99663200D01*
X171731246Y-99663200D02*
X171683627Y-99615580D01*
X171683627Y-99615580D02*
X171636008Y-99520342D01*
X171636008Y-99520342D02*
X171636008Y-99425104D01*
X171636008Y-99425104D02*
X171683627Y-99329866D01*
X171683627Y-99329866D02*
X171731246Y-99282247D01*
X171731246Y-99282247D02*
X171826484Y-99234628D01*
X171826484Y-99234628D02*
X172016960Y-99187009D01*
X172016960Y-99187009D02*
X172112198Y-99139390D01*
X172112198Y-99139390D02*
X172159817Y-99091771D01*
X172159817Y-99091771D02*
X172207436Y-98996533D01*
X172207436Y-98996533D02*
X172207436Y-98901295D01*
X172207436Y-98901295D02*
X172159817Y-98806057D01*
X172159817Y-98806057D02*
X172112198Y-98758438D01*
X172112198Y-98758438D02*
X172016960Y-98710819D01*
X172016960Y-98710819D02*
X171778865Y-98710819D01*
X171778865Y-98710819D02*
X171636008Y-98758438D01*
X171207436Y-99710819D02*
X171207436Y-98710819D01*
X171207436Y-98710819D02*
X170826484Y-98710819D01*
X170826484Y-98710819D02*
X170731246Y-98758438D01*
X170731246Y-98758438D02*
X170683627Y-98806057D01*
X170683627Y-98806057D02*
X170636008Y-98901295D01*
X170636008Y-98901295D02*
X170636008Y-99044152D01*
X170636008Y-99044152D02*
X170683627Y-99139390D01*
X170683627Y-99139390D02*
X170731246Y-99187009D01*
X170731246Y-99187009D02*
X170826484Y-99234628D01*
X170826484Y-99234628D02*
X171207436Y-99234628D01*
D11*
X176581722Y-106680895D02*
X176848389Y-106299942D01*
X177038865Y-106680895D02*
X177038865Y-105880895D01*
X177038865Y-105880895D02*
X176734103Y-105880895D01*
X176734103Y-105880895D02*
X176657913Y-105918990D01*
X176657913Y-105918990D02*
X176619818Y-105957085D01*
X176619818Y-105957085D02*
X176581722Y-106033276D01*
X176581722Y-106033276D02*
X176581722Y-106147561D01*
X176581722Y-106147561D02*
X176619818Y-106223752D01*
X176619818Y-106223752D02*
X176657913Y-106261847D01*
X176657913Y-106261847D02*
X176734103Y-106299942D01*
X176734103Y-106299942D02*
X177038865Y-106299942D01*
X176238865Y-106261847D02*
X175972199Y-106261847D01*
X175857913Y-106680895D02*
X176238865Y-106680895D01*
X176238865Y-106680895D02*
X176238865Y-105880895D01*
X176238865Y-105880895D02*
X175857913Y-105880895D01*
X175553151Y-106642800D02*
X175438865Y-106680895D01*
X175438865Y-106680895D02*
X175248389Y-106680895D01*
X175248389Y-106680895D02*
X175172198Y-106642800D01*
X175172198Y-106642800D02*
X175134103Y-106604704D01*
X175134103Y-106604704D02*
X175096008Y-106528514D01*
X175096008Y-106528514D02*
X175096008Y-106452323D01*
X175096008Y-106452323D02*
X175134103Y-106376133D01*
X175134103Y-106376133D02*
X175172198Y-106338038D01*
X175172198Y-106338038D02*
X175248389Y-106299942D01*
X175248389Y-106299942D02*
X175400770Y-106261847D01*
X175400770Y-106261847D02*
X175476960Y-106223752D01*
X175476960Y-106223752D02*
X175515055Y-106185657D01*
X175515055Y-106185657D02*
X175553151Y-106109466D01*
X175553151Y-106109466D02*
X175553151Y-106033276D01*
X175553151Y-106033276D02*
X175515055Y-105957085D01*
X175515055Y-105957085D02*
X175476960Y-105918990D01*
X175476960Y-105918990D02*
X175400770Y-105880895D01*
X175400770Y-105880895D02*
X175210293Y-105880895D01*
X175210293Y-105880895D02*
X175096008Y-105918990D01*
X174753150Y-106261847D02*
X174486484Y-106261847D01*
X174372198Y-106680895D02*
X174753150Y-106680895D01*
X174753150Y-106680895D02*
X174753150Y-105880895D01*
X174753150Y-105880895D02*
X174372198Y-105880895D01*
X174143626Y-105880895D02*
X173686483Y-105880895D01*
X173915055Y-106680895D02*
X173915055Y-105880895D01*
X177149342Y-105658800D02*
X173690293Y-105658800D01*
X175948389Y-104102800D02*
X175834103Y-104140895D01*
X175834103Y-104140895D02*
X175643627Y-104140895D01*
X175643627Y-104140895D02*
X175567436Y-104102800D01*
X175567436Y-104102800D02*
X175529341Y-104064704D01*
X175529341Y-104064704D02*
X175491246Y-103988514D01*
X175491246Y-103988514D02*
X175491246Y-103912323D01*
X175491246Y-103912323D02*
X175529341Y-103836133D01*
X175529341Y-103836133D02*
X175567436Y-103798038D01*
X175567436Y-103798038D02*
X175643627Y-103759942D01*
X175643627Y-103759942D02*
X175796008Y-103721847D01*
X175796008Y-103721847D02*
X175872198Y-103683752D01*
X175872198Y-103683752D02*
X175910293Y-103645657D01*
X175910293Y-103645657D02*
X175948389Y-103569466D01*
X175948389Y-103569466D02*
X175948389Y-103493276D01*
X175948389Y-103493276D02*
X175910293Y-103417085D01*
X175910293Y-103417085D02*
X175872198Y-103378990D01*
X175872198Y-103378990D02*
X175796008Y-103340895D01*
X175796008Y-103340895D02*
X175605531Y-103340895D01*
X175605531Y-103340895D02*
X175491246Y-103378990D01*
X174691245Y-104064704D02*
X174729341Y-104102800D01*
X174729341Y-104102800D02*
X174843626Y-104140895D01*
X174843626Y-104140895D02*
X174919817Y-104140895D01*
X174919817Y-104140895D02*
X175034103Y-104102800D01*
X175034103Y-104102800D02*
X175110293Y-104026609D01*
X175110293Y-104026609D02*
X175148388Y-103950419D01*
X175148388Y-103950419D02*
X175186484Y-103798038D01*
X175186484Y-103798038D02*
X175186484Y-103683752D01*
X175186484Y-103683752D02*
X175148388Y-103531371D01*
X175148388Y-103531371D02*
X175110293Y-103455180D01*
X175110293Y-103455180D02*
X175034103Y-103378990D01*
X175034103Y-103378990D02*
X174919817Y-103340895D01*
X174919817Y-103340895D02*
X174843626Y-103340895D01*
X174843626Y-103340895D02*
X174729341Y-103378990D01*
X174729341Y-103378990D02*
X174691245Y-103417085D01*
X174348388Y-104140895D02*
X174348388Y-103340895D01*
X173891245Y-104140895D02*
X174234103Y-103683752D01*
X173891245Y-103340895D02*
X174348388Y-103798038D01*
X167986484Y-100840895D02*
X167719817Y-101640895D01*
X167719817Y-101640895D02*
X167453151Y-100840895D01*
X166729341Y-101564704D02*
X166767437Y-101602800D01*
X166767437Y-101602800D02*
X166881722Y-101640895D01*
X166881722Y-101640895D02*
X166957913Y-101640895D01*
X166957913Y-101640895D02*
X167072199Y-101602800D01*
X167072199Y-101602800D02*
X167148389Y-101526609D01*
X167148389Y-101526609D02*
X167186484Y-101450419D01*
X167186484Y-101450419D02*
X167224580Y-101298038D01*
X167224580Y-101298038D02*
X167224580Y-101183752D01*
X167224580Y-101183752D02*
X167186484Y-101031371D01*
X167186484Y-101031371D02*
X167148389Y-100955180D01*
X167148389Y-100955180D02*
X167072199Y-100878990D01*
X167072199Y-100878990D02*
X166957913Y-100840895D01*
X166957913Y-100840895D02*
X166881722Y-100840895D01*
X166881722Y-100840895D02*
X166767437Y-100878990D01*
X166767437Y-100878990D02*
X166729341Y-100917085D01*
X165929341Y-101564704D02*
X165967437Y-101602800D01*
X165967437Y-101602800D02*
X166081722Y-101640895D01*
X166081722Y-101640895D02*
X166157913Y-101640895D01*
X166157913Y-101640895D02*
X166272199Y-101602800D01*
X166272199Y-101602800D02*
X166348389Y-101526609D01*
X166348389Y-101526609D02*
X166386484Y-101450419D01*
X166386484Y-101450419D02*
X166424580Y-101298038D01*
X166424580Y-101298038D02*
X166424580Y-101183752D01*
X166424580Y-101183752D02*
X166386484Y-101031371D01*
X166386484Y-101031371D02*
X166348389Y-100955180D01*
X166348389Y-100955180D02*
X166272199Y-100878990D01*
X166272199Y-100878990D02*
X166157913Y-100840895D01*
X166157913Y-100840895D02*
X166081722Y-100840895D01*
X166081722Y-100840895D02*
X165967437Y-100878990D01*
X165967437Y-100878990D02*
X165929341Y-100917085D01*
X167529341Y-105918990D02*
X167605531Y-105880895D01*
X167605531Y-105880895D02*
X167719817Y-105880895D01*
X167719817Y-105880895D02*
X167834103Y-105918990D01*
X167834103Y-105918990D02*
X167910293Y-105995180D01*
X167910293Y-105995180D02*
X167948388Y-106071371D01*
X167948388Y-106071371D02*
X167986484Y-106223752D01*
X167986484Y-106223752D02*
X167986484Y-106338038D01*
X167986484Y-106338038D02*
X167948388Y-106490419D01*
X167948388Y-106490419D02*
X167910293Y-106566609D01*
X167910293Y-106566609D02*
X167834103Y-106642800D01*
X167834103Y-106642800D02*
X167719817Y-106680895D01*
X167719817Y-106680895D02*
X167643626Y-106680895D01*
X167643626Y-106680895D02*
X167529341Y-106642800D01*
X167529341Y-106642800D02*
X167491245Y-106604704D01*
X167491245Y-106604704D02*
X167491245Y-106338038D01*
X167491245Y-106338038D02*
X167643626Y-106338038D01*
X167148388Y-106680895D02*
X167148388Y-105880895D01*
X167148388Y-105880895D02*
X166691245Y-106680895D01*
X166691245Y-106680895D02*
X166691245Y-105880895D01*
X166310293Y-106680895D02*
X166310293Y-105880895D01*
X166310293Y-105880895D02*
X166119817Y-105880895D01*
X166119817Y-105880895D02*
X166005531Y-105918990D01*
X166005531Y-105918990D02*
X165929341Y-105995180D01*
X165929341Y-105995180D02*
X165891246Y-106071371D01*
X165891246Y-106071371D02*
X165853150Y-106223752D01*
X165853150Y-106223752D02*
X165853150Y-106338038D01*
X165853150Y-106338038D02*
X165891246Y-106490419D01*
X165891246Y-106490419D02*
X165929341Y-106566609D01*
X165929341Y-106566609D02*
X166005531Y-106642800D01*
X166005531Y-106642800D02*
X166119817Y-106680895D01*
X166119817Y-106680895D02*
X166310293Y-106680895D01*
X176176960Y-101600895D02*
X176176960Y-100800895D01*
X176176960Y-100800895D02*
X175910294Y-101372323D01*
X175910294Y-101372323D02*
X175643627Y-100800895D01*
X175643627Y-100800895D02*
X175643627Y-101600895D01*
X175262674Y-101600895D02*
X175262674Y-100800895D01*
X174919818Y-101562800D02*
X174805532Y-101600895D01*
X174805532Y-101600895D02*
X174615056Y-101600895D01*
X174615056Y-101600895D02*
X174538865Y-101562800D01*
X174538865Y-101562800D02*
X174500770Y-101524704D01*
X174500770Y-101524704D02*
X174462675Y-101448514D01*
X174462675Y-101448514D02*
X174462675Y-101372323D01*
X174462675Y-101372323D02*
X174500770Y-101296133D01*
X174500770Y-101296133D02*
X174538865Y-101258038D01*
X174538865Y-101258038D02*
X174615056Y-101219942D01*
X174615056Y-101219942D02*
X174767437Y-101181847D01*
X174767437Y-101181847D02*
X174843627Y-101143752D01*
X174843627Y-101143752D02*
X174881722Y-101105657D01*
X174881722Y-101105657D02*
X174919818Y-101029466D01*
X174919818Y-101029466D02*
X174919818Y-100953276D01*
X174919818Y-100953276D02*
X174881722Y-100877085D01*
X174881722Y-100877085D02*
X174843627Y-100838990D01*
X174843627Y-100838990D02*
X174767437Y-100800895D01*
X174767437Y-100800895D02*
X174576960Y-100800895D01*
X174576960Y-100800895D02*
X174462675Y-100838990D01*
X173967436Y-100800895D02*
X173815055Y-100800895D01*
X173815055Y-100800895D02*
X173738865Y-100838990D01*
X173738865Y-100838990D02*
X173662674Y-100915180D01*
X173662674Y-100915180D02*
X173624579Y-101067561D01*
X173624579Y-101067561D02*
X173624579Y-101334228D01*
X173624579Y-101334228D02*
X173662674Y-101486609D01*
X173662674Y-101486609D02*
X173738865Y-101562800D01*
X173738865Y-101562800D02*
X173815055Y-101600895D01*
X173815055Y-101600895D02*
X173967436Y-101600895D01*
X173967436Y-101600895D02*
X174043627Y-101562800D01*
X174043627Y-101562800D02*
X174119817Y-101486609D01*
X174119817Y-101486609D02*
X174157913Y-101334228D01*
X174157913Y-101334228D02*
X174157913Y-101067561D01*
X174157913Y-101067561D02*
X174119817Y-100915180D01*
X174119817Y-100915180D02*
X174043627Y-100838990D01*
X174043627Y-100838990D02*
X173967436Y-100800895D01*
X168176960Y-104140895D02*
X168176960Y-103340895D01*
X168176960Y-103340895D02*
X167910294Y-103912323D01*
X167910294Y-103912323D02*
X167643627Y-103340895D01*
X167643627Y-103340895D02*
X167643627Y-104140895D01*
X167110293Y-103340895D02*
X166957912Y-103340895D01*
X166957912Y-103340895D02*
X166881722Y-103378990D01*
X166881722Y-103378990D02*
X166805531Y-103455180D01*
X166805531Y-103455180D02*
X166767436Y-103607561D01*
X166767436Y-103607561D02*
X166767436Y-103874228D01*
X166767436Y-103874228D02*
X166805531Y-104026609D01*
X166805531Y-104026609D02*
X166881722Y-104102800D01*
X166881722Y-104102800D02*
X166957912Y-104140895D01*
X166957912Y-104140895D02*
X167110293Y-104140895D01*
X167110293Y-104140895D02*
X167186484Y-104102800D01*
X167186484Y-104102800D02*
X167262674Y-104026609D01*
X167262674Y-104026609D02*
X167300770Y-103874228D01*
X167300770Y-103874228D02*
X167300770Y-103607561D01*
X167300770Y-103607561D02*
X167262674Y-103455180D01*
X167262674Y-103455180D02*
X167186484Y-103378990D01*
X167186484Y-103378990D02*
X167110293Y-103340895D01*
X166462675Y-104102800D02*
X166348389Y-104140895D01*
X166348389Y-104140895D02*
X166157913Y-104140895D01*
X166157913Y-104140895D02*
X166081722Y-104102800D01*
X166081722Y-104102800D02*
X166043627Y-104064704D01*
X166043627Y-104064704D02*
X166005532Y-103988514D01*
X166005532Y-103988514D02*
X166005532Y-103912323D01*
X166005532Y-103912323D02*
X166043627Y-103836133D01*
X166043627Y-103836133D02*
X166081722Y-103798038D01*
X166081722Y-103798038D02*
X166157913Y-103759942D01*
X166157913Y-103759942D02*
X166310294Y-103721847D01*
X166310294Y-103721847D02*
X166386484Y-103683752D01*
X166386484Y-103683752D02*
X166424579Y-103645657D01*
X166424579Y-103645657D02*
X166462675Y-103569466D01*
X166462675Y-103569466D02*
X166462675Y-103493276D01*
X166462675Y-103493276D02*
X166424579Y-103417085D01*
X166424579Y-103417085D02*
X166386484Y-103378990D01*
X166386484Y-103378990D02*
X166310294Y-103340895D01*
X166310294Y-103340895D02*
X166119817Y-103340895D01*
X166119817Y-103340895D02*
X166005532Y-103378990D01*
X165662674Y-104140895D02*
X165662674Y-103340895D01*
D10*
X150326955Y-99710819D02*
X150326955Y-98710819D01*
X149279337Y-99615580D02*
X149326956Y-99663200D01*
X149326956Y-99663200D02*
X149469813Y-99710819D01*
X149469813Y-99710819D02*
X149565051Y-99710819D01*
X149565051Y-99710819D02*
X149707908Y-99663200D01*
X149707908Y-99663200D02*
X149803146Y-99567961D01*
X149803146Y-99567961D02*
X149850765Y-99472723D01*
X149850765Y-99472723D02*
X149898384Y-99282247D01*
X149898384Y-99282247D02*
X149898384Y-99139390D01*
X149898384Y-99139390D02*
X149850765Y-98948914D01*
X149850765Y-98948914D02*
X149803146Y-98853676D01*
X149803146Y-98853676D02*
X149707908Y-98758438D01*
X149707908Y-98758438D02*
X149565051Y-98710819D01*
X149565051Y-98710819D02*
X149469813Y-98710819D01*
X149469813Y-98710819D02*
X149326956Y-98758438D01*
X149326956Y-98758438D02*
X149279337Y-98806057D01*
X148898384Y-99663200D02*
X148755527Y-99710819D01*
X148755527Y-99710819D02*
X148517432Y-99710819D01*
X148517432Y-99710819D02*
X148422194Y-99663200D01*
X148422194Y-99663200D02*
X148374575Y-99615580D01*
X148374575Y-99615580D02*
X148326956Y-99520342D01*
X148326956Y-99520342D02*
X148326956Y-99425104D01*
X148326956Y-99425104D02*
X148374575Y-99329866D01*
X148374575Y-99329866D02*
X148422194Y-99282247D01*
X148422194Y-99282247D02*
X148517432Y-99234628D01*
X148517432Y-99234628D02*
X148707908Y-99187009D01*
X148707908Y-99187009D02*
X148803146Y-99139390D01*
X148803146Y-99139390D02*
X148850765Y-99091771D01*
X148850765Y-99091771D02*
X148898384Y-98996533D01*
X148898384Y-98996533D02*
X148898384Y-98901295D01*
X148898384Y-98901295D02*
X148850765Y-98806057D01*
X148850765Y-98806057D02*
X148803146Y-98758438D01*
X148803146Y-98758438D02*
X148707908Y-98710819D01*
X148707908Y-98710819D02*
X148469813Y-98710819D01*
X148469813Y-98710819D02*
X148326956Y-98758438D01*
X147898384Y-99710819D02*
X147898384Y-98710819D01*
X147898384Y-98710819D02*
X147517432Y-98710819D01*
X147517432Y-98710819D02*
X147422194Y-98758438D01*
X147422194Y-98758438D02*
X147374575Y-98806057D01*
X147374575Y-98806057D02*
X147326956Y-98901295D01*
X147326956Y-98901295D02*
X147326956Y-99044152D01*
X147326956Y-99044152D02*
X147374575Y-99139390D01*
X147374575Y-99139390D02*
X147422194Y-99187009D01*
X147422194Y-99187009D02*
X147517432Y-99234628D01*
X147517432Y-99234628D02*
X147898384Y-99234628D01*
D11*
X144867908Y-104140895D02*
X144867908Y-103340895D01*
X144867908Y-103340895D02*
X144601242Y-103912323D01*
X144601242Y-103912323D02*
X144334575Y-103340895D01*
X144334575Y-103340895D02*
X144334575Y-104140895D01*
X143801241Y-103340895D02*
X143648860Y-103340895D01*
X143648860Y-103340895D02*
X143572670Y-103378990D01*
X143572670Y-103378990D02*
X143496479Y-103455180D01*
X143496479Y-103455180D02*
X143458384Y-103607561D01*
X143458384Y-103607561D02*
X143458384Y-103874228D01*
X143458384Y-103874228D02*
X143496479Y-104026609D01*
X143496479Y-104026609D02*
X143572670Y-104102800D01*
X143572670Y-104102800D02*
X143648860Y-104140895D01*
X143648860Y-104140895D02*
X143801241Y-104140895D01*
X143801241Y-104140895D02*
X143877432Y-104102800D01*
X143877432Y-104102800D02*
X143953622Y-104026609D01*
X143953622Y-104026609D02*
X143991718Y-103874228D01*
X143991718Y-103874228D02*
X143991718Y-103607561D01*
X143991718Y-103607561D02*
X143953622Y-103455180D01*
X143953622Y-103455180D02*
X143877432Y-103378990D01*
X143877432Y-103378990D02*
X143801241Y-103340895D01*
X143153623Y-104102800D02*
X143039337Y-104140895D01*
X143039337Y-104140895D02*
X142848861Y-104140895D01*
X142848861Y-104140895D02*
X142772670Y-104102800D01*
X142772670Y-104102800D02*
X142734575Y-104064704D01*
X142734575Y-104064704D02*
X142696480Y-103988514D01*
X142696480Y-103988514D02*
X142696480Y-103912323D01*
X142696480Y-103912323D02*
X142734575Y-103836133D01*
X142734575Y-103836133D02*
X142772670Y-103798038D01*
X142772670Y-103798038D02*
X142848861Y-103759942D01*
X142848861Y-103759942D02*
X143001242Y-103721847D01*
X143001242Y-103721847D02*
X143077432Y-103683752D01*
X143077432Y-103683752D02*
X143115527Y-103645657D01*
X143115527Y-103645657D02*
X143153623Y-103569466D01*
X143153623Y-103569466D02*
X143153623Y-103493276D01*
X143153623Y-103493276D02*
X143115527Y-103417085D01*
X143115527Y-103417085D02*
X143077432Y-103378990D01*
X143077432Y-103378990D02*
X143001242Y-103340895D01*
X143001242Y-103340895D02*
X142810765Y-103340895D01*
X142810765Y-103340895D02*
X142696480Y-103378990D01*
X142353622Y-104140895D02*
X142353622Y-103340895D01*
X153272670Y-106680895D02*
X153539337Y-106299942D01*
X153729813Y-106680895D02*
X153729813Y-105880895D01*
X153729813Y-105880895D02*
X153425051Y-105880895D01*
X153425051Y-105880895D02*
X153348861Y-105918990D01*
X153348861Y-105918990D02*
X153310766Y-105957085D01*
X153310766Y-105957085D02*
X153272670Y-106033276D01*
X153272670Y-106033276D02*
X153272670Y-106147561D01*
X153272670Y-106147561D02*
X153310766Y-106223752D01*
X153310766Y-106223752D02*
X153348861Y-106261847D01*
X153348861Y-106261847D02*
X153425051Y-106299942D01*
X153425051Y-106299942D02*
X153729813Y-106299942D01*
X152929813Y-106261847D02*
X152663147Y-106261847D01*
X152548861Y-106680895D02*
X152929813Y-106680895D01*
X152929813Y-106680895D02*
X152929813Y-105880895D01*
X152929813Y-105880895D02*
X152548861Y-105880895D01*
X152244099Y-106642800D02*
X152129813Y-106680895D01*
X152129813Y-106680895D02*
X151939337Y-106680895D01*
X151939337Y-106680895D02*
X151863146Y-106642800D01*
X151863146Y-106642800D02*
X151825051Y-106604704D01*
X151825051Y-106604704D02*
X151786956Y-106528514D01*
X151786956Y-106528514D02*
X151786956Y-106452323D01*
X151786956Y-106452323D02*
X151825051Y-106376133D01*
X151825051Y-106376133D02*
X151863146Y-106338038D01*
X151863146Y-106338038D02*
X151939337Y-106299942D01*
X151939337Y-106299942D02*
X152091718Y-106261847D01*
X152091718Y-106261847D02*
X152167908Y-106223752D01*
X152167908Y-106223752D02*
X152206003Y-106185657D01*
X152206003Y-106185657D02*
X152244099Y-106109466D01*
X152244099Y-106109466D02*
X152244099Y-106033276D01*
X152244099Y-106033276D02*
X152206003Y-105957085D01*
X152206003Y-105957085D02*
X152167908Y-105918990D01*
X152167908Y-105918990D02*
X152091718Y-105880895D01*
X152091718Y-105880895D02*
X151901241Y-105880895D01*
X151901241Y-105880895D02*
X151786956Y-105918990D01*
X151444098Y-106261847D02*
X151177432Y-106261847D01*
X151063146Y-106680895D02*
X151444098Y-106680895D01*
X151444098Y-106680895D02*
X151444098Y-105880895D01*
X151444098Y-105880895D02*
X151063146Y-105880895D01*
X150834574Y-105880895D02*
X150377431Y-105880895D01*
X150606003Y-106680895D02*
X150606003Y-105880895D01*
X153840290Y-105658800D02*
X150381241Y-105658800D01*
X152867908Y-101600895D02*
X152867908Y-100800895D01*
X152867908Y-100800895D02*
X152601242Y-101372323D01*
X152601242Y-101372323D02*
X152334575Y-100800895D01*
X152334575Y-100800895D02*
X152334575Y-101600895D01*
X151953622Y-101600895D02*
X151953622Y-100800895D01*
X151610766Y-101562800D02*
X151496480Y-101600895D01*
X151496480Y-101600895D02*
X151306004Y-101600895D01*
X151306004Y-101600895D02*
X151229813Y-101562800D01*
X151229813Y-101562800D02*
X151191718Y-101524704D01*
X151191718Y-101524704D02*
X151153623Y-101448514D01*
X151153623Y-101448514D02*
X151153623Y-101372323D01*
X151153623Y-101372323D02*
X151191718Y-101296133D01*
X151191718Y-101296133D02*
X151229813Y-101258038D01*
X151229813Y-101258038D02*
X151306004Y-101219942D01*
X151306004Y-101219942D02*
X151458385Y-101181847D01*
X151458385Y-101181847D02*
X151534575Y-101143752D01*
X151534575Y-101143752D02*
X151572670Y-101105657D01*
X151572670Y-101105657D02*
X151610766Y-101029466D01*
X151610766Y-101029466D02*
X151610766Y-100953276D01*
X151610766Y-100953276D02*
X151572670Y-100877085D01*
X151572670Y-100877085D02*
X151534575Y-100838990D01*
X151534575Y-100838990D02*
X151458385Y-100800895D01*
X151458385Y-100800895D02*
X151267908Y-100800895D01*
X151267908Y-100800895D02*
X151153623Y-100838990D01*
X150658384Y-100800895D02*
X150506003Y-100800895D01*
X150506003Y-100800895D02*
X150429813Y-100838990D01*
X150429813Y-100838990D02*
X150353622Y-100915180D01*
X150353622Y-100915180D02*
X150315527Y-101067561D01*
X150315527Y-101067561D02*
X150315527Y-101334228D01*
X150315527Y-101334228D02*
X150353622Y-101486609D01*
X150353622Y-101486609D02*
X150429813Y-101562800D01*
X150429813Y-101562800D02*
X150506003Y-101600895D01*
X150506003Y-101600895D02*
X150658384Y-101600895D01*
X150658384Y-101600895D02*
X150734575Y-101562800D01*
X150734575Y-101562800D02*
X150810765Y-101486609D01*
X150810765Y-101486609D02*
X150848861Y-101334228D01*
X150848861Y-101334228D02*
X150848861Y-101067561D01*
X150848861Y-101067561D02*
X150810765Y-100915180D01*
X150810765Y-100915180D02*
X150734575Y-100838990D01*
X150734575Y-100838990D02*
X150658384Y-100800895D01*
X144220289Y-105918990D02*
X144296479Y-105880895D01*
X144296479Y-105880895D02*
X144410765Y-105880895D01*
X144410765Y-105880895D02*
X144525051Y-105918990D01*
X144525051Y-105918990D02*
X144601241Y-105995180D01*
X144601241Y-105995180D02*
X144639336Y-106071371D01*
X144639336Y-106071371D02*
X144677432Y-106223752D01*
X144677432Y-106223752D02*
X144677432Y-106338038D01*
X144677432Y-106338038D02*
X144639336Y-106490419D01*
X144639336Y-106490419D02*
X144601241Y-106566609D01*
X144601241Y-106566609D02*
X144525051Y-106642800D01*
X144525051Y-106642800D02*
X144410765Y-106680895D01*
X144410765Y-106680895D02*
X144334574Y-106680895D01*
X144334574Y-106680895D02*
X144220289Y-106642800D01*
X144220289Y-106642800D02*
X144182193Y-106604704D01*
X144182193Y-106604704D02*
X144182193Y-106338038D01*
X144182193Y-106338038D02*
X144334574Y-106338038D01*
X143839336Y-106680895D02*
X143839336Y-105880895D01*
X143839336Y-105880895D02*
X143382193Y-106680895D01*
X143382193Y-106680895D02*
X143382193Y-105880895D01*
X143001241Y-106680895D02*
X143001241Y-105880895D01*
X143001241Y-105880895D02*
X142810765Y-105880895D01*
X142810765Y-105880895D02*
X142696479Y-105918990D01*
X142696479Y-105918990D02*
X142620289Y-105995180D01*
X142620289Y-105995180D02*
X142582194Y-106071371D01*
X142582194Y-106071371D02*
X142544098Y-106223752D01*
X142544098Y-106223752D02*
X142544098Y-106338038D01*
X142544098Y-106338038D02*
X142582194Y-106490419D01*
X142582194Y-106490419D02*
X142620289Y-106566609D01*
X142620289Y-106566609D02*
X142696479Y-106642800D01*
X142696479Y-106642800D02*
X142810765Y-106680895D01*
X142810765Y-106680895D02*
X143001241Y-106680895D01*
X152639337Y-104102800D02*
X152525051Y-104140895D01*
X152525051Y-104140895D02*
X152334575Y-104140895D01*
X152334575Y-104140895D02*
X152258384Y-104102800D01*
X152258384Y-104102800D02*
X152220289Y-104064704D01*
X152220289Y-104064704D02*
X152182194Y-103988514D01*
X152182194Y-103988514D02*
X152182194Y-103912323D01*
X152182194Y-103912323D02*
X152220289Y-103836133D01*
X152220289Y-103836133D02*
X152258384Y-103798038D01*
X152258384Y-103798038D02*
X152334575Y-103759942D01*
X152334575Y-103759942D02*
X152486956Y-103721847D01*
X152486956Y-103721847D02*
X152563146Y-103683752D01*
X152563146Y-103683752D02*
X152601241Y-103645657D01*
X152601241Y-103645657D02*
X152639337Y-103569466D01*
X152639337Y-103569466D02*
X152639337Y-103493276D01*
X152639337Y-103493276D02*
X152601241Y-103417085D01*
X152601241Y-103417085D02*
X152563146Y-103378990D01*
X152563146Y-103378990D02*
X152486956Y-103340895D01*
X152486956Y-103340895D02*
X152296479Y-103340895D01*
X152296479Y-103340895D02*
X152182194Y-103378990D01*
X151382193Y-104064704D02*
X151420289Y-104102800D01*
X151420289Y-104102800D02*
X151534574Y-104140895D01*
X151534574Y-104140895D02*
X151610765Y-104140895D01*
X151610765Y-104140895D02*
X151725051Y-104102800D01*
X151725051Y-104102800D02*
X151801241Y-104026609D01*
X151801241Y-104026609D02*
X151839336Y-103950419D01*
X151839336Y-103950419D02*
X151877432Y-103798038D01*
X151877432Y-103798038D02*
X151877432Y-103683752D01*
X151877432Y-103683752D02*
X151839336Y-103531371D01*
X151839336Y-103531371D02*
X151801241Y-103455180D01*
X151801241Y-103455180D02*
X151725051Y-103378990D01*
X151725051Y-103378990D02*
X151610765Y-103340895D01*
X151610765Y-103340895D02*
X151534574Y-103340895D01*
X151534574Y-103340895D02*
X151420289Y-103378990D01*
X151420289Y-103378990D02*
X151382193Y-103417085D01*
X151039336Y-104140895D02*
X151039336Y-103340895D01*
X150582193Y-104140895D02*
X150925051Y-103683752D01*
X150582193Y-103340895D02*
X151039336Y-103798038D01*
X144677432Y-100840895D02*
X144410765Y-101640895D01*
X144410765Y-101640895D02*
X144144099Y-100840895D01*
X143420289Y-101564704D02*
X143458385Y-101602800D01*
X143458385Y-101602800D02*
X143572670Y-101640895D01*
X143572670Y-101640895D02*
X143648861Y-101640895D01*
X143648861Y-101640895D02*
X143763147Y-101602800D01*
X143763147Y-101602800D02*
X143839337Y-101526609D01*
X143839337Y-101526609D02*
X143877432Y-101450419D01*
X143877432Y-101450419D02*
X143915528Y-101298038D01*
X143915528Y-101298038D02*
X143915528Y-101183752D01*
X143915528Y-101183752D02*
X143877432Y-101031371D01*
X143877432Y-101031371D02*
X143839337Y-100955180D01*
X143839337Y-100955180D02*
X143763147Y-100878990D01*
X143763147Y-100878990D02*
X143648861Y-100840895D01*
X143648861Y-100840895D02*
X143572670Y-100840895D01*
X143572670Y-100840895D02*
X143458385Y-100878990D01*
X143458385Y-100878990D02*
X143420289Y-100917085D01*
X142620289Y-101564704D02*
X142658385Y-101602800D01*
X142658385Y-101602800D02*
X142772670Y-101640895D01*
X142772670Y-101640895D02*
X142848861Y-101640895D01*
X142848861Y-101640895D02*
X142963147Y-101602800D01*
X142963147Y-101602800D02*
X143039337Y-101526609D01*
X143039337Y-101526609D02*
X143077432Y-101450419D01*
X143077432Y-101450419D02*
X143115528Y-101298038D01*
X143115528Y-101298038D02*
X143115528Y-101183752D01*
X143115528Y-101183752D02*
X143077432Y-101031371D01*
X143077432Y-101031371D02*
X143039337Y-100955180D01*
X143039337Y-100955180D02*
X142963147Y-100878990D01*
X142963147Y-100878990D02*
X142848861Y-100840895D01*
X142848861Y-100840895D02*
X142772670Y-100840895D01*
X142772670Y-100840895D02*
X142658385Y-100878990D01*
X142658385Y-100878990D02*
X142620289Y-100917085D01*
D10*
X145046505Y-116090819D02*
X145046505Y-116805104D01*
X145046505Y-116805104D02*
X145094124Y-116947961D01*
X145094124Y-116947961D02*
X145189362Y-117043200D01*
X145189362Y-117043200D02*
X145332219Y-117090819D01*
X145332219Y-117090819D02*
X145427457Y-117090819D01*
X144141743Y-116424152D02*
X144141743Y-117090819D01*
X144570314Y-116424152D02*
X144570314Y-116947961D01*
X144570314Y-116947961D02*
X144522695Y-117043200D01*
X144522695Y-117043200D02*
X144427457Y-117090819D01*
X144427457Y-117090819D02*
X144284600Y-117090819D01*
X144284600Y-117090819D02*
X144189362Y-117043200D01*
X144189362Y-117043200D02*
X144141743Y-116995580D01*
X143665552Y-117090819D02*
X143665552Y-116424152D01*
X143665552Y-116519390D02*
X143617933Y-116471771D01*
X143617933Y-116471771D02*
X143522695Y-116424152D01*
X143522695Y-116424152D02*
X143379838Y-116424152D01*
X143379838Y-116424152D02*
X143284600Y-116471771D01*
X143284600Y-116471771D02*
X143236981Y-116567009D01*
X143236981Y-116567009D02*
X143236981Y-117090819D01*
X143236981Y-116567009D02*
X143189362Y-116471771D01*
X143189362Y-116471771D02*
X143094124Y-116424152D01*
X143094124Y-116424152D02*
X142951267Y-116424152D01*
X142951267Y-116424152D02*
X142856028Y-116471771D01*
X142856028Y-116471771D02*
X142808409Y-116567009D01*
X142808409Y-116567009D02*
X142808409Y-117090819D01*
X142332219Y-116424152D02*
X142332219Y-117424152D01*
X142332219Y-116471771D02*
X142236981Y-116424152D01*
X142236981Y-116424152D02*
X142046505Y-116424152D01*
X142046505Y-116424152D02*
X141951267Y-116471771D01*
X141951267Y-116471771D02*
X141903648Y-116519390D01*
X141903648Y-116519390D02*
X141856029Y-116614628D01*
X141856029Y-116614628D02*
X141856029Y-116900342D01*
X141856029Y-116900342D02*
X141903648Y-116995580D01*
X141903648Y-116995580D02*
X141951267Y-117043200D01*
X141951267Y-117043200D02*
X142046505Y-117090819D01*
X142046505Y-117090819D02*
X142236981Y-117090819D01*
X142236981Y-117090819D02*
X142332219Y-117043200D01*
X141046505Y-117043200D02*
X141141743Y-117090819D01*
X141141743Y-117090819D02*
X141332219Y-117090819D01*
X141332219Y-117090819D02*
X141427457Y-117043200D01*
X141427457Y-117043200D02*
X141475076Y-116947961D01*
X141475076Y-116947961D02*
X141475076Y-116567009D01*
X141475076Y-116567009D02*
X141427457Y-116471771D01*
X141427457Y-116471771D02*
X141332219Y-116424152D01*
X141332219Y-116424152D02*
X141141743Y-116424152D01*
X141141743Y-116424152D02*
X141046505Y-116471771D01*
X141046505Y-116471771D02*
X140998886Y-116567009D01*
X140998886Y-116567009D02*
X140998886Y-116662247D01*
X140998886Y-116662247D02*
X141475076Y-116757485D01*
X140570314Y-117090819D02*
X140570314Y-116424152D01*
X140570314Y-116614628D02*
X140522695Y-116519390D01*
X140522695Y-116519390D02*
X140475076Y-116471771D01*
X140475076Y-116471771D02*
X140379838Y-116424152D01*
X140379838Y-116424152D02*
X140284600Y-116424152D01*
X140189362Y-117186057D02*
X139427457Y-117186057D01*
X139236980Y-116186057D02*
X139189361Y-116138438D01*
X139189361Y-116138438D02*
X139094123Y-116090819D01*
X139094123Y-116090819D02*
X138856028Y-116090819D01*
X138856028Y-116090819D02*
X138760790Y-116138438D01*
X138760790Y-116138438D02*
X138713171Y-116186057D01*
X138713171Y-116186057D02*
X138665552Y-116281295D01*
X138665552Y-116281295D02*
X138665552Y-116376533D01*
X138665552Y-116376533D02*
X138713171Y-116519390D01*
X138713171Y-116519390D02*
X139284599Y-117090819D01*
X139284599Y-117090819D02*
X138665552Y-117090819D01*
X138475076Y-117186057D02*
X137713171Y-117186057D01*
X137284599Y-116090819D02*
X137094123Y-116090819D01*
X137094123Y-116090819D02*
X136998885Y-116138438D01*
X136998885Y-116138438D02*
X136903647Y-116233676D01*
X136903647Y-116233676D02*
X136856028Y-116424152D01*
X136856028Y-116424152D02*
X136856028Y-116757485D01*
X136856028Y-116757485D02*
X136903647Y-116947961D01*
X136903647Y-116947961D02*
X136998885Y-117043200D01*
X136998885Y-117043200D02*
X137094123Y-117090819D01*
X137094123Y-117090819D02*
X137284599Y-117090819D01*
X137284599Y-117090819D02*
X137379837Y-117043200D01*
X137379837Y-117043200D02*
X137475075Y-116947961D01*
X137475075Y-116947961D02*
X137522694Y-116757485D01*
X137522694Y-116757485D02*
X137522694Y-116424152D01*
X137522694Y-116424152D02*
X137475075Y-116233676D01*
X137475075Y-116233676D02*
X137379837Y-116138438D01*
X137379837Y-116138438D02*
X137284599Y-116090819D01*
X136427456Y-116424152D02*
X136427456Y-117424152D01*
X136427456Y-116471771D02*
X136332218Y-116424152D01*
X136332218Y-116424152D02*
X136141742Y-116424152D01*
X136141742Y-116424152D02*
X136046504Y-116471771D01*
X136046504Y-116471771D02*
X135998885Y-116519390D01*
X135998885Y-116519390D02*
X135951266Y-116614628D01*
X135951266Y-116614628D02*
X135951266Y-116900342D01*
X135951266Y-116900342D02*
X135998885Y-116995580D01*
X135998885Y-116995580D02*
X136046504Y-117043200D01*
X136046504Y-117043200D02*
X136141742Y-117090819D01*
X136141742Y-117090819D02*
X136332218Y-117090819D01*
X136332218Y-117090819D02*
X136427456Y-117043200D01*
X135141742Y-117043200D02*
X135236980Y-117090819D01*
X135236980Y-117090819D02*
X135427456Y-117090819D01*
X135427456Y-117090819D02*
X135522694Y-117043200D01*
X135522694Y-117043200D02*
X135570313Y-116947961D01*
X135570313Y-116947961D02*
X135570313Y-116567009D01*
X135570313Y-116567009D02*
X135522694Y-116471771D01*
X135522694Y-116471771D02*
X135427456Y-116424152D01*
X135427456Y-116424152D02*
X135236980Y-116424152D01*
X135236980Y-116424152D02*
X135141742Y-116471771D01*
X135141742Y-116471771D02*
X135094123Y-116567009D01*
X135094123Y-116567009D02*
X135094123Y-116662247D01*
X135094123Y-116662247D02*
X135570313Y-116757485D01*
X134665551Y-116424152D02*
X134665551Y-117090819D01*
X134665551Y-116519390D02*
X134617932Y-116471771D01*
X134617932Y-116471771D02*
X134522694Y-116424152D01*
X134522694Y-116424152D02*
X134379837Y-116424152D01*
X134379837Y-116424152D02*
X134284599Y-116471771D01*
X134284599Y-116471771D02*
X134236980Y-116567009D01*
X134236980Y-116567009D02*
X134236980Y-117090819D01*
%TO.C,J4*%
X173459818Y-107586000D02*
X173459818Y-99966000D01*
X173459818Y-99966000D02*
X168379818Y-99966000D01*
X168379818Y-107586000D02*
X173459818Y-107586000D01*
X168379818Y-99966000D02*
X168379818Y-107586000D01*
%TO.C,SW8*%
G36*
X233595035Y-74494621D02*
G01*
X233594421Y-74519423D01*
X233592589Y-74544055D01*
X233589558Y-74568476D01*
X233585342Y-74592646D01*
X233579961Y-74616524D01*
X233573429Y-74640069D01*
X233565765Y-74663240D01*
X233556985Y-74685996D01*
X233547107Y-74708297D01*
X233536146Y-74730101D01*
X233524120Y-74751367D01*
X233511046Y-74772056D01*
X233496941Y-74792125D01*
X233481821Y-74811535D01*
X233465704Y-74830244D01*
X233448606Y-74848211D01*
X233430638Y-74865309D01*
X233411929Y-74881427D01*
X233392520Y-74896547D01*
X233372450Y-74910653D01*
X233351761Y-74923727D01*
X233330495Y-74935754D01*
X233308691Y-74946715D01*
X233286390Y-74956593D01*
X233263634Y-74965373D01*
X233240463Y-74973038D01*
X233216918Y-74979569D01*
X233193041Y-74984951D01*
X233168871Y-74989166D01*
X233144449Y-74992198D01*
X233119817Y-74994029D01*
X233095016Y-74994644D01*
X228452392Y-74994644D01*
X228276324Y-75001505D01*
X228103239Y-75021801D01*
X227933753Y-75055101D01*
X227768483Y-75100973D01*
X227608043Y-75158986D01*
X227453049Y-75228709D01*
X227304118Y-75309711D01*
X227161864Y-75401560D01*
X227026903Y-75503825D01*
X226899852Y-75616074D01*
X226781325Y-75737877D01*
X226671938Y-75868802D01*
X226572308Y-76008418D01*
X226483048Y-76156293D01*
X226404777Y-76311997D01*
X226338108Y-76475097D01*
X226301195Y-76576473D01*
X226294121Y-76594795D01*
X226286386Y-76612718D01*
X226278005Y-76630230D01*
X226268997Y-76647319D01*
X226259379Y-76663973D01*
X226249166Y-76680179D01*
X226238378Y-76695927D01*
X226227030Y-76711204D01*
X226215139Y-76725997D01*
X226202724Y-76740296D01*
X226189801Y-76754088D01*
X226176387Y-76767361D01*
X226162499Y-76780103D01*
X226148154Y-76792302D01*
X226133370Y-76803947D01*
X226118164Y-76815025D01*
X226102552Y-76825524D01*
X226086552Y-76835433D01*
X226070180Y-76844738D01*
X226053455Y-76853430D01*
X226036393Y-76861495D01*
X226019011Y-76868921D01*
X226001327Y-76875697D01*
X225983357Y-76881810D01*
X225965118Y-76887249D01*
X225946628Y-76892002D01*
X225927904Y-76896056D01*
X225908963Y-76899400D01*
X225889822Y-76902021D01*
X225870497Y-76903909D01*
X225851008Y-76905050D01*
X225831369Y-76905433D01*
X222607996Y-76905433D01*
X222607996Y-73021087D01*
X222610599Y-72918164D01*
X222618322Y-72816593D01*
X222631040Y-72716498D01*
X222648629Y-72618006D01*
X222670961Y-72521243D01*
X222697911Y-72426333D01*
X222729354Y-72333404D01*
X222765164Y-72242579D01*
X222805215Y-72153986D01*
X222849382Y-72067749D01*
X222897539Y-71983994D01*
X222949561Y-71902847D01*
X223005321Y-71824434D01*
X223064695Y-71748880D01*
X223127555Y-71676311D01*
X223193778Y-71606852D01*
X223263237Y-71540629D01*
X223335806Y-71477769D01*
X223411360Y-71418395D01*
X223489773Y-71362635D01*
X223570920Y-71310614D01*
X223654675Y-71262457D01*
X223740912Y-71218290D01*
X223829505Y-71178238D01*
X223920330Y-71142428D01*
X224013260Y-71110985D01*
X224108169Y-71084035D01*
X224204933Y-71061703D01*
X224303425Y-71044115D01*
X224403519Y-71031396D01*
X224505091Y-71023673D01*
X224608014Y-71021071D01*
X233595035Y-71021071D01*
X233595035Y-74494621D01*
G37*
%TO.C,SW9*%
G36*
X252595035Y-76869621D02*
G01*
X252594421Y-76894423D01*
X252592589Y-76919055D01*
X252589558Y-76943476D01*
X252585342Y-76967646D01*
X252579961Y-76991524D01*
X252573429Y-77015069D01*
X252565765Y-77038240D01*
X252556985Y-77060996D01*
X252547107Y-77083297D01*
X252536146Y-77105101D01*
X252524120Y-77126367D01*
X252511046Y-77147056D01*
X252496941Y-77167125D01*
X252481821Y-77186535D01*
X252465704Y-77205244D01*
X252448606Y-77223211D01*
X252430638Y-77240309D01*
X252411929Y-77256427D01*
X252392520Y-77271547D01*
X252372450Y-77285653D01*
X252351761Y-77298727D01*
X252330495Y-77310754D01*
X252308691Y-77321715D01*
X252286390Y-77331593D01*
X252263634Y-77340373D01*
X252240463Y-77348038D01*
X252216918Y-77354569D01*
X252193041Y-77359951D01*
X252168871Y-77364166D01*
X252144449Y-77367198D01*
X252119817Y-77369029D01*
X252095016Y-77369644D01*
X247452392Y-77369644D01*
X247276324Y-77376505D01*
X247103239Y-77396801D01*
X246933753Y-77430101D01*
X246768483Y-77475973D01*
X246608043Y-77533986D01*
X246453049Y-77603709D01*
X246304118Y-77684711D01*
X246161864Y-77776560D01*
X246026903Y-77878825D01*
X245899852Y-77991074D01*
X245781325Y-78112877D01*
X245671938Y-78243802D01*
X245572308Y-78383418D01*
X245483048Y-78531293D01*
X245404777Y-78686997D01*
X245338108Y-78850097D01*
X245301195Y-78951473D01*
X245294121Y-78969795D01*
X245286386Y-78987718D01*
X245278005Y-79005230D01*
X245268997Y-79022319D01*
X245259379Y-79038973D01*
X245249166Y-79055179D01*
X245238378Y-79070927D01*
X245227030Y-79086204D01*
X245215139Y-79100997D01*
X245202724Y-79115296D01*
X245189801Y-79129088D01*
X245176387Y-79142361D01*
X245162499Y-79155103D01*
X245148154Y-79167302D01*
X245133370Y-79178947D01*
X245118164Y-79190025D01*
X245102552Y-79200524D01*
X245086552Y-79210433D01*
X245070180Y-79219738D01*
X245053455Y-79228430D01*
X245036393Y-79236495D01*
X245019011Y-79243921D01*
X245001327Y-79250697D01*
X244983357Y-79256810D01*
X244965118Y-79262249D01*
X244946628Y-79267002D01*
X244927904Y-79271056D01*
X244908963Y-79274400D01*
X244889822Y-79277021D01*
X244870497Y-79278909D01*
X244851008Y-79280050D01*
X244831369Y-79280433D01*
X241607996Y-79280433D01*
X241607996Y-75396087D01*
X241610599Y-75293164D01*
X241618322Y-75191593D01*
X241631040Y-75091498D01*
X241648629Y-74993006D01*
X241670961Y-74896243D01*
X241697911Y-74801333D01*
X241729354Y-74708404D01*
X241765164Y-74617579D01*
X241805215Y-74528986D01*
X241849382Y-74442749D01*
X241897539Y-74358994D01*
X241949561Y-74277847D01*
X242005321Y-74199434D01*
X242064695Y-74123880D01*
X242127555Y-74051311D01*
X242193778Y-73981852D01*
X242263237Y-73915629D01*
X242335806Y-73852769D01*
X242411360Y-73793395D01*
X242489773Y-73737635D01*
X242570920Y-73685614D01*
X242654675Y-73637457D01*
X242740912Y-73593290D01*
X242829505Y-73553238D01*
X242920330Y-73517428D01*
X243013260Y-73485985D01*
X243108169Y-73459035D01*
X243204933Y-73436703D01*
X243303425Y-73419115D01*
X243403519Y-73406396D01*
X243505091Y-73398673D01*
X243608014Y-73396071D01*
X252595035Y-73396071D01*
X252595035Y-76869621D01*
G37*
%TO.C,J2*%
X150150766Y-107586000D02*
X150150766Y-99966000D01*
X150150766Y-99966000D02*
X145070766Y-99966000D01*
X145070766Y-107586000D02*
X150150766Y-107586000D01*
X145070766Y-99966000D02*
X145070766Y-107586000D01*
%TO.C,SW2*%
G36*
X75690035Y-76869621D02*
G01*
X75689421Y-76894423D01*
X75687589Y-76919055D01*
X75684558Y-76943476D01*
X75680342Y-76967646D01*
X75674961Y-76991524D01*
X75668429Y-77015069D01*
X75660765Y-77038240D01*
X75651985Y-77060996D01*
X75642107Y-77083297D01*
X75631146Y-77105101D01*
X75619120Y-77126367D01*
X75606046Y-77147056D01*
X75591941Y-77167125D01*
X75576821Y-77186535D01*
X75560704Y-77205244D01*
X75543606Y-77223211D01*
X75525638Y-77240309D01*
X75506929Y-77256427D01*
X75487520Y-77271547D01*
X75467450Y-77285653D01*
X75446761Y-77298727D01*
X75425495Y-77310754D01*
X75403691Y-77321715D01*
X75381390Y-77331593D01*
X75358634Y-77340373D01*
X75335463Y-77348038D01*
X75311918Y-77354569D01*
X75288041Y-77359951D01*
X75263871Y-77364166D01*
X75239449Y-77367198D01*
X75214817Y-77369029D01*
X75190016Y-77369644D01*
X70547392Y-77369644D01*
X70371324Y-77376505D01*
X70198239Y-77396801D01*
X70028753Y-77430101D01*
X69863483Y-77475973D01*
X69703043Y-77533986D01*
X69548049Y-77603709D01*
X69399118Y-77684711D01*
X69256864Y-77776560D01*
X69121903Y-77878825D01*
X68994852Y-77991074D01*
X68876325Y-78112877D01*
X68766938Y-78243802D01*
X68667308Y-78383418D01*
X68578048Y-78531293D01*
X68499777Y-78686997D01*
X68433108Y-78850097D01*
X68396195Y-78951473D01*
X68389121Y-78969795D01*
X68381386Y-78987718D01*
X68373005Y-79005230D01*
X68363997Y-79022319D01*
X68354379Y-79038973D01*
X68344166Y-79055179D01*
X68333378Y-79070927D01*
X68322030Y-79086204D01*
X68310139Y-79100997D01*
X68297724Y-79115296D01*
X68284801Y-79129088D01*
X68271387Y-79142361D01*
X68257499Y-79155103D01*
X68243154Y-79167302D01*
X68228370Y-79178947D01*
X68213164Y-79190025D01*
X68197552Y-79200524D01*
X68181552Y-79210433D01*
X68165180Y-79219738D01*
X68148455Y-79228430D01*
X68131393Y-79236495D01*
X68114011Y-79243921D01*
X68096327Y-79250697D01*
X68078357Y-79256810D01*
X68060118Y-79262249D01*
X68041628Y-79267002D01*
X68022904Y-79271056D01*
X68003963Y-79274400D01*
X67984822Y-79277021D01*
X67965497Y-79278909D01*
X67946008Y-79280050D01*
X67926369Y-79280433D01*
X64702996Y-79280433D01*
X64702996Y-75396087D01*
X64705599Y-75293164D01*
X64713322Y-75191593D01*
X64726040Y-75091498D01*
X64743629Y-74993006D01*
X64765961Y-74896243D01*
X64792911Y-74801333D01*
X64824354Y-74708404D01*
X64860164Y-74617579D01*
X64900215Y-74528986D01*
X64944382Y-74442749D01*
X64992539Y-74358994D01*
X65044561Y-74277847D01*
X65100321Y-74199434D01*
X65159695Y-74123880D01*
X65222555Y-74051311D01*
X65288778Y-73981852D01*
X65358237Y-73915629D01*
X65430806Y-73852769D01*
X65506360Y-73793395D01*
X65584773Y-73737635D01*
X65665920Y-73685614D01*
X65749675Y-73637457D01*
X65835912Y-73593290D01*
X65924505Y-73553238D01*
X66015330Y-73517428D01*
X66108260Y-73485985D01*
X66203169Y-73459035D01*
X66299933Y-73436703D01*
X66398425Y-73419115D01*
X66498519Y-73406396D01*
X66600091Y-73398673D01*
X66703014Y-73396071D01*
X75690035Y-73396071D01*
X75690035Y-76869621D01*
G37*
%TO.C,SW3*%
G36*
X94690035Y-74494621D02*
G01*
X94689421Y-74519423D01*
X94687589Y-74544055D01*
X94684558Y-74568476D01*
X94680342Y-74592646D01*
X94674961Y-74616524D01*
X94668429Y-74640069D01*
X94660765Y-74663240D01*
X94651985Y-74685996D01*
X94642107Y-74708297D01*
X94631146Y-74730101D01*
X94619120Y-74751367D01*
X94606046Y-74772056D01*
X94591941Y-74792125D01*
X94576821Y-74811535D01*
X94560704Y-74830244D01*
X94543606Y-74848211D01*
X94525638Y-74865309D01*
X94506929Y-74881427D01*
X94487520Y-74896547D01*
X94467450Y-74910653D01*
X94446761Y-74923727D01*
X94425495Y-74935754D01*
X94403691Y-74946715D01*
X94381390Y-74956593D01*
X94358634Y-74965373D01*
X94335463Y-74973038D01*
X94311918Y-74979569D01*
X94288041Y-74984951D01*
X94263871Y-74989166D01*
X94239449Y-74992198D01*
X94214817Y-74994029D01*
X94190016Y-74994644D01*
X89547392Y-74994644D01*
X89371324Y-75001505D01*
X89198239Y-75021801D01*
X89028753Y-75055101D01*
X88863483Y-75100973D01*
X88703043Y-75158986D01*
X88548049Y-75228709D01*
X88399118Y-75309711D01*
X88256864Y-75401560D01*
X88121903Y-75503825D01*
X87994852Y-75616074D01*
X87876325Y-75737877D01*
X87766938Y-75868802D01*
X87667308Y-76008418D01*
X87578048Y-76156293D01*
X87499777Y-76311997D01*
X87433108Y-76475097D01*
X87396195Y-76576473D01*
X87389121Y-76594795D01*
X87381386Y-76612718D01*
X87373005Y-76630230D01*
X87363997Y-76647319D01*
X87354379Y-76663973D01*
X87344166Y-76680179D01*
X87333378Y-76695927D01*
X87322030Y-76711204D01*
X87310139Y-76725997D01*
X87297724Y-76740296D01*
X87284801Y-76754088D01*
X87271387Y-76767361D01*
X87257499Y-76780103D01*
X87243154Y-76792302D01*
X87228370Y-76803947D01*
X87213164Y-76815025D01*
X87197552Y-76825524D01*
X87181552Y-76835433D01*
X87165180Y-76844738D01*
X87148455Y-76853430D01*
X87131393Y-76861495D01*
X87114011Y-76868921D01*
X87096327Y-76875697D01*
X87078357Y-76881810D01*
X87060118Y-76887249D01*
X87041628Y-76892002D01*
X87022904Y-76896056D01*
X87003963Y-76899400D01*
X86984822Y-76902021D01*
X86965497Y-76903909D01*
X86946008Y-76905050D01*
X86926369Y-76905433D01*
X83702996Y-76905433D01*
X83702996Y-73021087D01*
X83705599Y-72918164D01*
X83713322Y-72816593D01*
X83726040Y-72716498D01*
X83743629Y-72618006D01*
X83765961Y-72521243D01*
X83792911Y-72426333D01*
X83824354Y-72333404D01*
X83860164Y-72242579D01*
X83900215Y-72153986D01*
X83944382Y-72067749D01*
X83992539Y-71983994D01*
X84044561Y-71902847D01*
X84100321Y-71824434D01*
X84159695Y-71748880D01*
X84222555Y-71676311D01*
X84288778Y-71606852D01*
X84358237Y-71540629D01*
X84430806Y-71477769D01*
X84506360Y-71418395D01*
X84584773Y-71362635D01*
X84665920Y-71310614D01*
X84749675Y-71262457D01*
X84835912Y-71218290D01*
X84924505Y-71178238D01*
X85015330Y-71142428D01*
X85108260Y-71110985D01*
X85203169Y-71084035D01*
X85299933Y-71061703D01*
X85398425Y-71044115D01*
X85498519Y-71031396D01*
X85600091Y-71023673D01*
X85703014Y-71021071D01*
X94690035Y-71021071D01*
X94690035Y-74494621D01*
G37*
%TO.C,SW7*%
G36*
X214595035Y-76869621D02*
G01*
X214594421Y-76894423D01*
X214592589Y-76919055D01*
X214589558Y-76943476D01*
X214585342Y-76967646D01*
X214579961Y-76991524D01*
X214573429Y-77015069D01*
X214565765Y-77038240D01*
X214556985Y-77060996D01*
X214547107Y-77083297D01*
X214536146Y-77105101D01*
X214524120Y-77126367D01*
X214511046Y-77147056D01*
X214496941Y-77167125D01*
X214481821Y-77186535D01*
X214465704Y-77205244D01*
X214448606Y-77223211D01*
X214430638Y-77240309D01*
X214411929Y-77256427D01*
X214392520Y-77271547D01*
X214372450Y-77285653D01*
X214351761Y-77298727D01*
X214330495Y-77310754D01*
X214308691Y-77321715D01*
X214286390Y-77331593D01*
X214263634Y-77340373D01*
X214240463Y-77348038D01*
X214216918Y-77354569D01*
X214193041Y-77359951D01*
X214168871Y-77364166D01*
X214144449Y-77367198D01*
X214119817Y-77369029D01*
X214095016Y-77369644D01*
X209452392Y-77369644D01*
X209276324Y-77376505D01*
X209103239Y-77396801D01*
X208933753Y-77430101D01*
X208768483Y-77475973D01*
X208608043Y-77533986D01*
X208453049Y-77603709D01*
X208304118Y-77684711D01*
X208161864Y-77776560D01*
X208026903Y-77878825D01*
X207899852Y-77991074D01*
X207781325Y-78112877D01*
X207671938Y-78243802D01*
X207572308Y-78383418D01*
X207483048Y-78531293D01*
X207404777Y-78686997D01*
X207338108Y-78850097D01*
X207301195Y-78951473D01*
X207294121Y-78969795D01*
X207286386Y-78987718D01*
X207278005Y-79005230D01*
X207268997Y-79022319D01*
X207259379Y-79038973D01*
X207249166Y-79055179D01*
X207238378Y-79070927D01*
X207227030Y-79086204D01*
X207215139Y-79100997D01*
X207202724Y-79115296D01*
X207189801Y-79129088D01*
X207176387Y-79142361D01*
X207162499Y-79155103D01*
X207148154Y-79167302D01*
X207133370Y-79178947D01*
X207118164Y-79190025D01*
X207102552Y-79200524D01*
X207086552Y-79210433D01*
X207070180Y-79219738D01*
X207053455Y-79228430D01*
X207036393Y-79236495D01*
X207019011Y-79243921D01*
X207001327Y-79250697D01*
X206983357Y-79256810D01*
X206965118Y-79262249D01*
X206946628Y-79267002D01*
X206927904Y-79271056D01*
X206908963Y-79274400D01*
X206889822Y-79277021D01*
X206870497Y-79278909D01*
X206851008Y-79280050D01*
X206831369Y-79280433D01*
X203607996Y-79280433D01*
X203607996Y-75396087D01*
X203610599Y-75293164D01*
X203618322Y-75191593D01*
X203631040Y-75091498D01*
X203648629Y-74993006D01*
X203670961Y-74896243D01*
X203697911Y-74801333D01*
X203729354Y-74708404D01*
X203765164Y-74617579D01*
X203805215Y-74528986D01*
X203849382Y-74442749D01*
X203897539Y-74358994D01*
X203949561Y-74277847D01*
X204005321Y-74199434D01*
X204064695Y-74123880D01*
X204127555Y-74051311D01*
X204193778Y-73981852D01*
X204263237Y-73915629D01*
X204335806Y-73852769D01*
X204411360Y-73793395D01*
X204489773Y-73737635D01*
X204570920Y-73685614D01*
X204654675Y-73637457D01*
X204740912Y-73593290D01*
X204829505Y-73553238D01*
X204920330Y-73517428D01*
X205013260Y-73485985D01*
X205108169Y-73459035D01*
X205204933Y-73436703D01*
X205303425Y-73419115D01*
X205403519Y-73406396D01*
X205505091Y-73398673D01*
X205608014Y-73396071D01*
X214595035Y-73396071D01*
X214595035Y-76869621D01*
G37*
D12*
%TO.C,JP1*%
X140784600Y-112696000D02*
X138784600Y-112696000D01*
X138784600Y-112696000D02*
X138784600Y-115496000D01*
X140784600Y-115496000D02*
X140784600Y-112696000D01*
X138784600Y-115496000D02*
X140784600Y-115496000D01*
%TO.C,SW1*%
G36*
X56690035Y-100619621D02*
G01*
X56689421Y-100644423D01*
X56687589Y-100669055D01*
X56684558Y-100693476D01*
X56680342Y-100717646D01*
X56674961Y-100741524D01*
X56668429Y-100765069D01*
X56660765Y-100788240D01*
X56651985Y-100810996D01*
X56642107Y-100833297D01*
X56631146Y-100855101D01*
X56619120Y-100876367D01*
X56606046Y-100897056D01*
X56591941Y-100917125D01*
X56576821Y-100936535D01*
X56560704Y-100955244D01*
X56543606Y-100973211D01*
X56525638Y-100990309D01*
X56506929Y-101006427D01*
X56487520Y-101021547D01*
X56467450Y-101035653D01*
X56446761Y-101048727D01*
X56425495Y-101060754D01*
X56403691Y-101071715D01*
X56381390Y-101081593D01*
X56358634Y-101090373D01*
X56335463Y-101098038D01*
X56311918Y-101104569D01*
X56288041Y-101109951D01*
X56263871Y-101114166D01*
X56239449Y-101117198D01*
X56214817Y-101119029D01*
X56190016Y-101119644D01*
X51547392Y-101119644D01*
X51371324Y-101126505D01*
X51198239Y-101146801D01*
X51028753Y-101180101D01*
X50863483Y-101225973D01*
X50703043Y-101283986D01*
X50548049Y-101353709D01*
X50399118Y-101434711D01*
X50256864Y-101526560D01*
X50121903Y-101628825D01*
X49994852Y-101741074D01*
X49876325Y-101862877D01*
X49766938Y-101993802D01*
X49667308Y-102133418D01*
X49578048Y-102281293D01*
X49499777Y-102436997D01*
X49433108Y-102600097D01*
X49396195Y-102701473D01*
X49389121Y-102719795D01*
X49381386Y-102737718D01*
X49373005Y-102755230D01*
X49363997Y-102772319D01*
X49354379Y-102788973D01*
X49344166Y-102805179D01*
X49333378Y-102820927D01*
X49322030Y-102836204D01*
X49310139Y-102850997D01*
X49297724Y-102865296D01*
X49284801Y-102879088D01*
X49271387Y-102892361D01*
X49257499Y-102905103D01*
X49243154Y-102917302D01*
X49228370Y-102928947D01*
X49213164Y-102940025D01*
X49197552Y-102950524D01*
X49181552Y-102960433D01*
X49165180Y-102969738D01*
X49148455Y-102978430D01*
X49131393Y-102986495D01*
X49114011Y-102993921D01*
X49096327Y-103000697D01*
X49078357Y-103006810D01*
X49060118Y-103012249D01*
X49041628Y-103017002D01*
X49022904Y-103021056D01*
X49003963Y-103024400D01*
X48984822Y-103027021D01*
X48965497Y-103028909D01*
X48946008Y-103030050D01*
X48926369Y-103030433D01*
X45702996Y-103030433D01*
X45702996Y-99146087D01*
X45705599Y-99043164D01*
X45713322Y-98941593D01*
X45726040Y-98841498D01*
X45743629Y-98743006D01*
X45765961Y-98646243D01*
X45792911Y-98551333D01*
X45824354Y-98458404D01*
X45860164Y-98367579D01*
X45900215Y-98278986D01*
X45944382Y-98192749D01*
X45992539Y-98108994D01*
X46044561Y-98027847D01*
X46100321Y-97949434D01*
X46159695Y-97873880D01*
X46222555Y-97801311D01*
X46288778Y-97731852D01*
X46358237Y-97665629D01*
X46430806Y-97602769D01*
X46506360Y-97543395D01*
X46584773Y-97487635D01*
X46665920Y-97435614D01*
X46749675Y-97387457D01*
X46835912Y-97343290D01*
X46924505Y-97303238D01*
X47015330Y-97267428D01*
X47108260Y-97235985D01*
X47203169Y-97209035D01*
X47299933Y-97186703D01*
X47398425Y-97169115D01*
X47498519Y-97156396D01*
X47600091Y-97148673D01*
X47703014Y-97146071D01*
X56690035Y-97146071D01*
X56690035Y-100619621D01*
G37*
%TO.C,SW5*%
G36*
X141432303Y-136102774D02*
G01*
X141529070Y-136107643D01*
X141625820Y-136117253D01*
X141722382Y-136131653D01*
X141818583Y-136150888D01*
X141914252Y-136175003D01*
X142009218Y-136204045D01*
X142103308Y-136238059D01*
X142196352Y-136277091D01*
X142288177Y-136321189D01*
X142378612Y-136370397D01*
X150161601Y-140863908D01*
X148424826Y-143872090D01*
X148411893Y-143893262D01*
X148397990Y-143913678D01*
X148383155Y-143933312D01*
X148367419Y-143952136D01*
X148350820Y-143970124D01*
X148333390Y-143987249D01*
X148315168Y-144003483D01*
X148296186Y-144018801D01*
X148276481Y-144033175D01*
X148256086Y-144046577D01*
X148235039Y-144058981D01*
X148213372Y-144070361D01*
X148191122Y-144080689D01*
X148168323Y-144089939D01*
X148145010Y-144098083D01*
X148121219Y-144105093D01*
X148097110Y-144110917D01*
X148072848Y-144115521D01*
X148048480Y-144118911D01*
X148024045Y-144121092D01*
X147999591Y-144122070D01*
X147975161Y-144121852D01*
X147950798Y-144120443D01*
X147926545Y-144117847D01*
X147902448Y-144114073D01*
X147878549Y-144109125D01*
X147854893Y-144103009D01*
X147831524Y-144095731D01*
X147808484Y-144087297D01*
X147785818Y-144077711D01*
X147763571Y-144066981D01*
X147741785Y-144055113D01*
X143721155Y-141733801D01*
X143565245Y-141651709D01*
X143405201Y-141582743D01*
X143241772Y-141526839D01*
X143075708Y-141483930D01*
X142907756Y-141453951D01*
X142738666Y-141436836D01*
X142569187Y-141432520D01*
X142400067Y-141440937D01*
X142232055Y-141462020D01*
X142065901Y-141495705D01*
X141902352Y-141541926D01*
X141742157Y-141600617D01*
X141586067Y-141671713D01*
X141434828Y-141755147D01*
X141289192Y-141850855D01*
X141149905Y-141958769D01*
X141067249Y-142028107D01*
X141051962Y-142040437D01*
X141036302Y-142052091D01*
X141020287Y-142063067D01*
X141003942Y-142073362D01*
X140987285Y-142082976D01*
X140970338Y-142091904D01*
X140953121Y-142100148D01*
X140935655Y-142107705D01*
X140917960Y-142114570D01*
X140900059Y-142120746D01*
X140881971Y-142126229D01*
X140863718Y-142131017D01*
X140845320Y-142135108D01*
X140826797Y-142138500D01*
X140808171Y-142141193D01*
X140789463Y-142143183D01*
X140770694Y-142144470D01*
X140751883Y-142145051D01*
X140733052Y-142144924D01*
X140714221Y-142144089D01*
X140695413Y-142142542D01*
X140676646Y-142140282D01*
X140657944Y-142137308D01*
X140639325Y-142133617D01*
X140620810Y-142129208D01*
X140602420Y-142124079D01*
X140584178Y-142118228D01*
X140566103Y-142111654D01*
X140548216Y-142104353D01*
X140530536Y-142096326D01*
X140513087Y-142087569D01*
X140495888Y-142078081D01*
X137704365Y-140466395D01*
X139646538Y-137102453D01*
X139700254Y-137014620D01*
X139757727Y-136930519D01*
X139818789Y-136850193D01*
X139883268Y-136773691D01*
X139950989Y-136701058D01*
X140021783Y-136632338D01*
X140095478Y-136567581D01*
X140171903Y-136506829D01*
X140250885Y-136450131D01*
X140332253Y-136397531D01*
X140415836Y-136349075D01*
X140501462Y-136304811D01*
X140588958Y-136264783D01*
X140678154Y-136229039D01*
X140768877Y-136197622D01*
X140860957Y-136170580D01*
X140954222Y-136147959D01*
X141048499Y-136129805D01*
X141143617Y-136116163D01*
X141239405Y-136107080D01*
X141335691Y-136102602D01*
X141432303Y-136102774D01*
G37*
%TO.C,SW6*%
G36*
X178553447Y-138995055D02*
G01*
X178565316Y-139016841D01*
X178576045Y-139039089D01*
X178585631Y-139061754D01*
X178594065Y-139084794D01*
X178601344Y-139108163D01*
X178607459Y-139131820D01*
X178612408Y-139155718D01*
X178616182Y-139179816D01*
X178618778Y-139204068D01*
X178620187Y-139228431D01*
X178620406Y-139252861D01*
X178619428Y-139277315D01*
X178617247Y-139301748D01*
X178613858Y-139326118D01*
X178609254Y-139350379D01*
X178603430Y-139374487D01*
X178596419Y-139398279D01*
X178588275Y-139421592D01*
X178579027Y-139444391D01*
X178568698Y-139466642D01*
X178557318Y-139488309D01*
X178544915Y-139509357D01*
X178531513Y-139529752D01*
X178517138Y-139549457D01*
X178501821Y-139568439D01*
X178485587Y-139586662D01*
X178468462Y-139604091D01*
X178450475Y-139620690D01*
X178431650Y-139636426D01*
X178412016Y-139651262D01*
X178391600Y-139665164D01*
X178370429Y-139678097D01*
X174349799Y-141999409D01*
X174200750Y-142093385D01*
X174061002Y-142197504D01*
X173930873Y-142311086D01*
X173810681Y-142433447D01*
X173700742Y-142563908D01*
X173601375Y-142701787D01*
X173512898Y-142846402D01*
X173435627Y-142997073D01*
X173369880Y-143153117D01*
X173315975Y-143313853D01*
X173274229Y-143478601D01*
X173244959Y-143646679D01*
X173228485Y-143817405D01*
X173225121Y-143990099D01*
X173235189Y-144164078D01*
X173259002Y-144338661D01*
X173277722Y-144444912D01*
X173280757Y-144464316D01*
X173283020Y-144483705D01*
X173284517Y-144503062D01*
X173285261Y-144522365D01*
X173285258Y-144541597D01*
X173284517Y-144560738D01*
X173283048Y-144579770D01*
X173280859Y-144598675D01*
X173277957Y-144617431D01*
X173274355Y-144636022D01*
X173270059Y-144654428D01*
X173265079Y-144672630D01*
X173259423Y-144690609D01*
X173253099Y-144708346D01*
X173246118Y-144725823D01*
X173238488Y-144743019D01*
X173230218Y-144759918D01*
X173221316Y-144776499D01*
X173211790Y-144792744D01*
X173201651Y-144808634D01*
X173190908Y-144824149D01*
X173179567Y-144839271D01*
X173167641Y-144853981D01*
X173155135Y-144868260D01*
X173142059Y-144882090D01*
X173128422Y-144895451D01*
X173114234Y-144908324D01*
X173099503Y-144920691D01*
X173084237Y-144932531D01*
X173068445Y-144943829D01*
X173052137Y-144954561D01*
X173035321Y-144964712D01*
X170243798Y-146576399D01*
X168301625Y-143212457D01*
X168252418Y-143122021D01*
X168208320Y-143030197D01*
X168169287Y-142937153D01*
X168135274Y-142843062D01*
X168106232Y-142748097D01*
X168082116Y-142652427D01*
X168062882Y-142556227D01*
X168048482Y-142459665D01*
X168038871Y-142362916D01*
X168034002Y-142266149D01*
X168033830Y-142169536D01*
X168038309Y-142073250D01*
X168047392Y-141977462D01*
X168061034Y-141882344D01*
X168079188Y-141788067D01*
X168101809Y-141694802D01*
X168128851Y-141602722D01*
X168160268Y-141511999D01*
X168196012Y-141422803D01*
X168236040Y-141335307D01*
X168280305Y-141249682D01*
X168328760Y-141166099D01*
X168381360Y-141084731D01*
X168438058Y-141005748D01*
X168498810Y-140929323D01*
X168563568Y-140855628D01*
X168632287Y-140784834D01*
X168704921Y-140717112D01*
X168781423Y-140652634D01*
X168861748Y-140591572D01*
X168945850Y-140534098D01*
X169033683Y-140480383D01*
X176816672Y-135986873D01*
X178553447Y-138995055D01*
G37*
%TO.C,SW10*%
G36*
X271595035Y-100619621D02*
G01*
X271594421Y-100644423D01*
X271592589Y-100669055D01*
X271589558Y-100693476D01*
X271585342Y-100717646D01*
X271579961Y-100741524D01*
X271573429Y-100765069D01*
X271565765Y-100788240D01*
X271556985Y-100810996D01*
X271547107Y-100833297D01*
X271536146Y-100855101D01*
X271524120Y-100876367D01*
X271511046Y-100897056D01*
X271496941Y-100917125D01*
X271481821Y-100936535D01*
X271465704Y-100955244D01*
X271448606Y-100973211D01*
X271430638Y-100990309D01*
X271411929Y-101006427D01*
X271392520Y-101021547D01*
X271372450Y-101035653D01*
X271351761Y-101048727D01*
X271330495Y-101060754D01*
X271308691Y-101071715D01*
X271286390Y-101081593D01*
X271263634Y-101090373D01*
X271240463Y-101098038D01*
X271216918Y-101104569D01*
X271193041Y-101109951D01*
X271168871Y-101114166D01*
X271144449Y-101117198D01*
X271119817Y-101119029D01*
X271095016Y-101119644D01*
X266452392Y-101119644D01*
X266276324Y-101126505D01*
X266103239Y-101146801D01*
X265933753Y-101180101D01*
X265768483Y-101225973D01*
X265608043Y-101283986D01*
X265453049Y-101353709D01*
X265304118Y-101434711D01*
X265161864Y-101526560D01*
X265026903Y-101628825D01*
X264899852Y-101741074D01*
X264781325Y-101862877D01*
X264671938Y-101993802D01*
X264572308Y-102133418D01*
X264483048Y-102281293D01*
X264404777Y-102436997D01*
X264338108Y-102600097D01*
X264301195Y-102701473D01*
X264294121Y-102719795D01*
X264286386Y-102737718D01*
X264278005Y-102755230D01*
X264268997Y-102772319D01*
X264259379Y-102788973D01*
X264249166Y-102805179D01*
X264238378Y-102820927D01*
X264227030Y-102836204D01*
X264215139Y-102850997D01*
X264202724Y-102865296D01*
X264189801Y-102879088D01*
X264176387Y-102892361D01*
X264162499Y-102905103D01*
X264148154Y-102917302D01*
X264133370Y-102928947D01*
X264118164Y-102940025D01*
X264102552Y-102950524D01*
X264086552Y-102960433D01*
X264070180Y-102969738D01*
X264053455Y-102978430D01*
X264036393Y-102986495D01*
X264019011Y-102993921D01*
X264001327Y-103000697D01*
X263983357Y-103006810D01*
X263965118Y-103012249D01*
X263946628Y-103017002D01*
X263927904Y-103021056D01*
X263908963Y-103024400D01*
X263889822Y-103027021D01*
X263870497Y-103028909D01*
X263851008Y-103030050D01*
X263831369Y-103030433D01*
X260607996Y-103030433D01*
X260607996Y-99146087D01*
X260610599Y-99043164D01*
X260618322Y-98941593D01*
X260631040Y-98841498D01*
X260648629Y-98743006D01*
X260670961Y-98646243D01*
X260697911Y-98551333D01*
X260729354Y-98458404D01*
X260765164Y-98367579D01*
X260805215Y-98278986D01*
X260849382Y-98192749D01*
X260897539Y-98108994D01*
X260949561Y-98027847D01*
X261005321Y-97949434D01*
X261064695Y-97873880D01*
X261127555Y-97801311D01*
X261193778Y-97731852D01*
X261263237Y-97665629D01*
X261335806Y-97602769D01*
X261411360Y-97543395D01*
X261489773Y-97487635D01*
X261570920Y-97435614D01*
X261654675Y-97387457D01*
X261740912Y-97343290D01*
X261829505Y-97303238D01*
X261920330Y-97267428D01*
X262013260Y-97235985D01*
X262108169Y-97209035D01*
X262204933Y-97186703D01*
X262303425Y-97169115D01*
X262403519Y-97156396D01*
X262505091Y-97148673D01*
X262608014Y-97146071D01*
X271595035Y-97146071D01*
X271595035Y-100619621D01*
G37*
%TO.C,SW4*%
G36*
X113690035Y-76869621D02*
G01*
X113689421Y-76894423D01*
X113687589Y-76919055D01*
X113684558Y-76943476D01*
X113680342Y-76967646D01*
X113674961Y-76991524D01*
X113668429Y-77015069D01*
X113660765Y-77038240D01*
X113651985Y-77060996D01*
X113642107Y-77083297D01*
X113631146Y-77105101D01*
X113619120Y-77126367D01*
X113606046Y-77147056D01*
X113591941Y-77167125D01*
X113576821Y-77186535D01*
X113560704Y-77205244D01*
X113543606Y-77223211D01*
X113525638Y-77240309D01*
X113506929Y-77256427D01*
X113487520Y-77271547D01*
X113467450Y-77285653D01*
X113446761Y-77298727D01*
X113425495Y-77310754D01*
X113403691Y-77321715D01*
X113381390Y-77331593D01*
X113358634Y-77340373D01*
X113335463Y-77348038D01*
X113311918Y-77354569D01*
X113288041Y-77359951D01*
X113263871Y-77364166D01*
X113239449Y-77367198D01*
X113214817Y-77369029D01*
X113190016Y-77369644D01*
X108547392Y-77369644D01*
X108371324Y-77376505D01*
X108198239Y-77396801D01*
X108028753Y-77430101D01*
X107863483Y-77475973D01*
X107703043Y-77533986D01*
X107548049Y-77603709D01*
X107399118Y-77684711D01*
X107256864Y-77776560D01*
X107121903Y-77878825D01*
X106994852Y-77991074D01*
X106876325Y-78112877D01*
X106766938Y-78243802D01*
X106667308Y-78383418D01*
X106578048Y-78531293D01*
X106499777Y-78686997D01*
X106433108Y-78850097D01*
X106396195Y-78951473D01*
X106389121Y-78969795D01*
X106381386Y-78987718D01*
X106373005Y-79005230D01*
X106363997Y-79022319D01*
X106354379Y-79038973D01*
X106344166Y-79055179D01*
X106333378Y-79070927D01*
X106322030Y-79086204D01*
X106310139Y-79100997D01*
X106297724Y-79115296D01*
X106284801Y-79129088D01*
X106271387Y-79142361D01*
X106257499Y-79155103D01*
X106243154Y-79167302D01*
X106228370Y-79178947D01*
X106213164Y-79190025D01*
X106197552Y-79200524D01*
X106181552Y-79210433D01*
X106165180Y-79219738D01*
X106148455Y-79228430D01*
X106131393Y-79236495D01*
X106114011Y-79243921D01*
X106096327Y-79250697D01*
X106078357Y-79256810D01*
X106060118Y-79262249D01*
X106041628Y-79267002D01*
X106022904Y-79271056D01*
X106003963Y-79274400D01*
X105984822Y-79277021D01*
X105965497Y-79278909D01*
X105946008Y-79280050D01*
X105926369Y-79280433D01*
X102702996Y-79280433D01*
X102702996Y-75396087D01*
X102705599Y-75293164D01*
X102713322Y-75191593D01*
X102726040Y-75091498D01*
X102743629Y-74993006D01*
X102765961Y-74896243D01*
X102792911Y-74801333D01*
X102824354Y-74708404D01*
X102860164Y-74617579D01*
X102900215Y-74528986D01*
X102944382Y-74442749D01*
X102992539Y-74358994D01*
X103044561Y-74277847D01*
X103100321Y-74199434D01*
X103159695Y-74123880D01*
X103222555Y-74051311D01*
X103288778Y-73981852D01*
X103358237Y-73915629D01*
X103430806Y-73852769D01*
X103506360Y-73793395D01*
X103584773Y-73737635D01*
X103665920Y-73685614D01*
X103749675Y-73637457D01*
X103835912Y-73593290D01*
X103924505Y-73553238D01*
X104015330Y-73517428D01*
X104108260Y-73485985D01*
X104203169Y-73459035D01*
X104299933Y-73436703D01*
X104398425Y-73419115D01*
X104498519Y-73406396D01*
X104600091Y-73398673D01*
X104703014Y-73396071D01*
X113690035Y-73396071D01*
X113690035Y-76869621D01*
G37*
%TD*%
D13*
%TO.C,J4*%
X172189818Y-101236000D03*
D14*
X169649818Y-101236000D03*
X172189818Y-103776000D03*
X169649818Y-103776000D03*
X172189818Y-106316000D03*
X169649818Y-106316000D03*
%TD*%
D13*
%TO.C,J2*%
X148880766Y-101236000D03*
D14*
X146340766Y-101236000D03*
X148880766Y-103776000D03*
X146340766Y-103776000D03*
X148880766Y-106316000D03*
X146340766Y-106316000D03*
%TD*%
M02*
