M48
; DRILL file {KiCad 7.0.6} date Sat Feb 24 14:45:11 2024
; FORMAT={-:-/ absolute / inch / decimal}
; #@! TF.CreationDate,2024-02-24T14:45:11+09:00
; #@! TF.GenerationSoftware,Kicad,Pcbnew,7.0.6
; #@! TF.FileFunction,NonPlated,1,2,NPTH
FMAT,2
INCH
; #@! TA.AperFunction,NonPlated,NPTH,ComponentDrill
T1C0.0177
; #@! TA.AperFunction,NonPlated,NPTH,ComponentDrill
T2C0.0472
; #@! TA.AperFunction,NonPlated,NPTH,ComponentDrill
T3C0.0748
; #@! TA.AperFunction,NonPlated,NPTH,ComponentDrill
T4C0.1169
; #@! TA.AperFunction,NonPlated,NPTH,ComponentDrill
T5C0.1614
%
G90
G05
T1
X1.8549Y-5.2033
X1.8549Y-2.9783
X1.8864Y-5.2033
X1.8864Y-2.9783
X1.9179Y-5.2033
X1.9179Y-2.9783
X1.9494Y-5.2033
X1.9494Y-2.9783
X1.9809Y-5.2033
X1.9809Y-2.9783
X2.0124Y-5.2033
X2.0124Y-2.9783
X2.0439Y-5.2033
X2.0439Y-2.9783
X2.0754Y-5.2033
X2.0754Y-2.9783
X2.1069Y-5.2033
X2.1069Y-2.9783
X4.965Y-2.8858
X4.9965Y-2.8858
X5.028Y-2.8858
X5.0594Y-2.8858
X5.0909Y-2.8858
X5.1224Y-2.8858
X5.1539Y-2.8858
X5.1854Y-2.8858
X5.2169Y-2.8858
X7.3272Y-2.8858
X7.3587Y-2.8858
X7.3902Y-2.8858
X7.4217Y-2.8858
X7.4531Y-2.8858
X7.4846Y-2.8858
X7.5161Y-2.8858
X7.5476Y-2.8858
X7.5791Y-2.8858
X10.4337Y-2.9783
X10.4337Y-5.2031
X10.4652Y-2.9783
X10.4652Y-5.2031
X10.4967Y-2.9783
X10.4967Y-5.2031
X10.5281Y-2.9783
X10.5282Y-5.2031
X10.5596Y-2.9783
X10.5597Y-5.2031
X10.5911Y-2.9783
X10.5912Y-5.2031
X10.6226Y-2.9783
X10.6227Y-5.2031
X10.6541Y-2.9783
X10.6542Y-5.2031
X10.6856Y-2.9783
X10.6857Y-5.2031
T2
X5.8498Y-4.8765
X6.1254Y-4.8765
X6.4152Y-4.8696
X6.6907Y-4.8696
T3
X1.8399Y-4.0904
X2.2399Y-4.0904
X2.5879Y-3.1554
X2.9879Y-3.1554
X3.3359Y-3.0619
X3.7359Y-3.0619
X4.084Y-3.1554
X4.484Y-3.1554
X5.4395Y-5.58
X5.7859Y-5.78
X6.7547Y-5.78
X7.1011Y-5.58
X8.0566Y-3.1554
X8.4566Y-3.1554
X8.8046Y-3.0619
X9.2046Y-3.0619
X9.5527Y-3.1554
X9.9527Y-3.1554
X10.3007Y-4.0904
X10.7007Y-4.0904
T4
X1.8899Y-3.9904
X2.1399Y-3.8904
X2.6379Y-3.0554
X2.8879Y-2.9554
X3.3859Y-2.9619
X3.6359Y-2.8619
X4.134Y-3.0554
X4.384Y-2.9554
X5.5328Y-5.5184
X5.7993Y-5.5568
X6.748Y-5.6684
X6.9145Y-5.4568
X8.1066Y-3.0554
X8.3566Y-2.9554
X8.8546Y-2.9619
X9.1046Y-2.8619
X9.6027Y-3.0554
X9.8527Y-2.9554
X10.3507Y-3.9904
X10.6007Y-3.8904
T5
X2.0399Y-4.0904
X2.7879Y-3.1554
X3.5359Y-3.0619
X4.284Y-3.1554
X5.6127Y-5.68
X6.9279Y-5.68
X8.2566Y-3.1554
X9.0046Y-3.0619
X9.7527Y-3.1554
X10.5007Y-4.0904
T0
M30
