M48
; DRILL file {KiCad 7.0.6} date Sat Feb 24 14:45:11 2024
; FORMAT={-:-/ absolute / inch / decimal}
; #@! TF.CreationDate,2024-02-24T14:45:11+09:00
; #@! TF.GenerationSoftware,Kicad,Pcbnew,7.0.6
; #@! TF.FileFunction,Plated,1,2,PTH
FMAT,2
INCH
; #@! TA.AperFunction,Plated,PTH,ComponentDrill
T1C0.0118
; #@! TA.AperFunction,Plated,PTH,ViaDrill
T2C0.0157
; #@! TA.AperFunction,Plated,PTH,ComponentDrill
T3C0.0315
; #@! TA.AperFunction,Plated,PTH,ComponentDrill
T4C0.0320
; #@! TA.AperFunction,Plated,PTH,ComponentDrill
T5C0.0512
; #@! TA.AperFunction,Plated,PTH,ComponentDrill
T6C0.0866
; #@! TA.AperFunction,Plated,PTH,ComponentDrill
T7C0.1614
%
G90
G05
T1
X1.6911Y-3.9313
X1.6911Y-4.0494
X2.3387Y-3.8313
X2.3387Y-3.9494
X2.4391Y-2.9963
X2.4391Y-3.1144
X3.0867Y-2.8963
X3.0867Y-3.0144
X3.1871Y-2.9028
X3.1871Y-3.0209
X3.8348Y-2.8028
X3.8348Y-2.9209
X3.9352Y-2.9963
X3.9352Y-3.1144
X4.5828Y-2.8963
X4.5828Y-3.0144
X5.3311Y-5.4701
X5.3902Y-5.3678
X5.942Y-5.7073
X6.001Y-5.605
X6.5463Y-5.7166
X6.6053Y-5.8189
X7.0571Y-5.3062
X7.1162Y-5.4085
X7.9078Y-2.9963
X7.9078Y-3.1144
X8.5554Y-2.8963
X8.5554Y-3.0144
X8.6558Y-2.9028
X8.6558Y-3.0209
X9.3035Y-2.8028
X9.3035Y-2.9209
X9.4039Y-2.9963
X9.4039Y-3.1144
X10.0515Y-2.8963
X10.0515Y-3.0144
X10.1519Y-3.9313
X10.1519Y-4.0494
X10.7995Y-3.8313
X10.7995Y-3.9494
T2
X4.4925Y-4.5373
X4.4925Y-4.5373
X4.8469Y-4.6358
X4.8666Y-4.6358
X5.0044Y-4.0058
X5.0437Y-4.498
X5.3614Y-3.442
X5.6114Y-3.442
X5.6114Y-3.442
X5.654Y-3.9074
X5.654Y-3.9271
X5.654Y-3.9665
X5.654Y-3.9665
X5.8614Y-3.442
X5.8614Y-3.442
X6.0114Y-3.442
X6.0114Y-3.442
X6.087Y-3.0216
X6.087Y-3.0216
X6.1067Y-3.0216
X6.1658Y-3.0216
X6.1658Y-3.0216
X6.1658Y-3.0216
X6.1855Y-3.0019
X6.6114Y-2.692
T4
X5.5111Y-3.692
X5.5111Y-3.892
X5.5111Y-3.992
X5.5111Y-4.092
X5.5111Y-4.192
X5.5114Y-3.092
X5.5114Y-3.192
X5.5114Y-3.292
X5.5114Y-3.392
X5.5114Y-3.492
X5.5114Y-3.592
X5.5114Y-3.792
X5.5114Y-4.292
X5.6614Y-4.4794
X5.7614Y-3.9857
X5.7614Y-4.0857
X5.7614Y-4.1857
X5.7614Y-4.4794
X5.8614Y-3.9857
X5.8614Y-4.0857
X5.8614Y-4.1857
X5.8614Y-4.4794
X5.9614Y-4.4794
X6.1114Y-3.092
X6.1114Y-3.192
X6.1114Y-3.292
X6.1114Y-3.392
X6.1114Y-3.492
X6.1114Y-3.592
X6.1114Y-3.792
X6.1114Y-3.892
X6.1114Y-4.292
X6.1118Y-3.692
X6.1118Y-3.992
X6.1118Y-4.092
X6.1118Y-4.192
X6.4287Y-3.692
X6.4287Y-3.892
X6.4287Y-3.992
X6.4287Y-4.092
X6.4287Y-4.192
X6.4291Y-3.092
X6.4291Y-3.192
X6.4291Y-3.292
X6.4291Y-3.392
X6.4291Y-3.492
X6.4291Y-3.592
X6.4291Y-3.792
X6.4291Y-4.292
X6.5791Y-4.4794
X6.6791Y-3.9857
X6.6791Y-4.0857
X6.6791Y-4.1857
X6.6791Y-4.4794
X6.7791Y-3.9857
X6.7791Y-4.0857
X6.7791Y-4.1857
X6.7791Y-4.4794
X6.8791Y-4.4794
X7.0291Y-3.092
X7.0291Y-3.192
X7.0291Y-3.292
X7.0291Y-3.392
X7.0291Y-3.492
X7.0291Y-3.592
X7.0291Y-3.792
X7.0291Y-3.892
X7.0291Y-4.292
X7.0295Y-3.692
X7.0295Y-3.992
X7.0295Y-4.092
X7.0295Y-4.192
T5
X6.1264Y-4.4105
X6.1264Y-4.6664
X6.4142Y-4.4105
X6.4142Y-4.6664
T6
X5.5305Y-4.784
X6.0551Y-5.1187
X6.4854Y-5.1187
X7.01Y-4.784
T7
X2.0399Y-3.3424
X2.0399Y-4.8384
X3.91Y-5.2124
X5.032Y-3.3424
X5.0945Y-5.3807
X7.4461Y-5.3807
X7.5086Y-3.3424
X8.6306Y-5.2124
X10.5007Y-3.3424
X10.5007Y-4.8384
T3
G00X5.7337Y-4.7938
M15
G01X5.7061Y-4.7938
M16
G05
G00X5.7927Y-4.9592
M15
G01X5.7652Y-4.9592
M16
G05
G00X5.9502Y-4.9592
M15
G01X5.9227Y-4.9592
M16
G05
G00X6.0683Y-4.9592
M15
G01X6.0408Y-4.9592
M16
G05
G00X6.4722Y-4.7869
M15
G01X6.4998Y-4.7869
M16
G05
G00X6.5903Y-4.7869
M15
G01X6.6179Y-4.7869
M16
G05
G00X6.7478Y-4.7869
M15
G01X6.7754Y-4.7869
M16
G05
G00X6.8069Y-4.9523
M15
G01X6.8344Y-4.9523
M16
G05
T0
M30
