M48
METRIC,TZ
T1C0.300
T2C0.400
T3C0.800
T4C0.813
T5C1.300
T6C2.200
T7C4.100
%
G90
G05
T1
X42953Y-99856
X42953Y-102856
X59403Y-97316
X59403Y-100316
X61953Y-76106
X61953Y-79106
X78403Y-73566
X78403Y-76566
X80953Y-73731
X80953Y-76731
X97403Y-71191
X97403Y-74191
X99953Y-76106
X99953Y-79106
X116403Y-73566
X116403Y-76566
X135410Y-138940
X136910Y-136342
X150926Y-144966
X152426Y-142368
X166207Y-145056
X167707Y-147654
X179183Y-134632
X180683Y-137230
X200790Y-75960
X200790Y-78960
X217240Y-73420
X217240Y-76420
X219790Y-73585
X219790Y-76585
X236240Y-71045
X236240Y-74045
X238790Y-75960
X238790Y-78960
X255240Y-73420
X255240Y-76420
X257790Y-99710
X257790Y-102710
X274240Y-97170
X274240Y-100170
T2
X43660Y-76546
X43914Y-94072
X60932Y-76546
X62964Y-71974
X79474Y-71974
X82014Y-69688
X97762Y-69688
X100048Y-72228
X116812Y-71974
X118590Y-74514
X135862Y-74514
X138656Y-97528
X142212Y-87468
X142720Y-160366
X143482Y-91278
X143482Y-93818
X143482Y-96358
X143482Y-98898
X145768Y-87468
X149578Y-91278
X167612Y-95342
X168374Y-90008
X168374Y-99660
X171168Y-108550
X175994Y-160366
X182090Y-107788
X182344Y-74260
X199362Y-74260
X201648Y-71720
X218158Y-71720
X220444Y-69434
X236700Y-69434
X238986Y-71974
X255496Y-71974
X274546Y-130902
X274800Y-76800
T4
X139888Y-93776
X139888Y-98856
X139888Y-101396
X139888Y-103936
X139888Y-106476
X139898Y-78536
X139898Y-81076
X139898Y-83616
X139898Y-86156
X139898Y-88696
X139898Y-91236
X139898Y-96316
X139898Y-109016
X143654Y-116144
X146194Y-116144
X146248Y-101396
X146248Y-103936
X146248Y-106476
X148734Y-116144
X148788Y-101396
X148788Y-103936
X148788Y-106476
X151274Y-116144
X155138Y-78536
X155138Y-81076
X155138Y-83616
X155138Y-86156
X155138Y-88696
X155138Y-91236
X155138Y-96316
X155138Y-98856
X155138Y-109016
X155148Y-93776
X155148Y-101396
X155148Y-103936
X155148Y-106476
X163397Y-93776
X163397Y-98856
X163397Y-101396
X163397Y-103936
X163397Y-106476
X163407Y-78536
X163407Y-81076
X163407Y-83616
X163407Y-86156
X163407Y-88696
X163407Y-91236
X163407Y-96316
X163407Y-109016
X167200Y-116170
X169740Y-116170
X169757Y-101396
X169757Y-103936
X169757Y-106476
X172280Y-116170
X172297Y-101396
X172297Y-103936
X172297Y-106476
X174820Y-116170
X178647Y-78536
X178647Y-81076
X178647Y-83616
X178647Y-86156
X178647Y-88696
X178647Y-91236
X178647Y-96316
X178647Y-98856
X178647Y-109016
X178657Y-93776
X178657Y-101396
X178657Y-103936
X178657Y-106476
T5
X155130Y-113397
X155130Y-119897
X163340Y-113397
X163340Y-119897
T6
X140476Y-121514
X154976Y-130014
X163428Y-131999
X177928Y-123499
T7
X61226Y-92514
X61226Y-111514
X85476Y-125514
X118226Y-88764
X131976Y-136264
X186428Y-138249
X200178Y-90749
X232928Y-125499
X257178Y-94499
X257178Y-113499
T3
G00X145540Y-122208
M15
G01X144840Y-122208
M16
G05
G00X147040Y-126408
M15
G01X146340Y-126408
M16
G05
G00X151040Y-126408
M15
G01X150340Y-126408
M16
G05
G00X154040Y-126408
M15
G01X153340Y-126408
M16
G05
G00X164373Y-122195
M15
G01X165073Y-122195
M16
G05
G00X167373Y-122195
M15
G01X168073Y-122195
M16
G05
G00X171373Y-122195
M15
G01X172073Y-122195
M16
G05
G00X172873Y-126395
M15
G01X173573Y-126395
M16
G05
T0
M30
