%TF.GenerationSoftware,KiCad,Pcbnew,7.0.2*%
%TF.CreationDate,2023-10-11T00:11:02+09:00*%
%TF.ProjectId,_______,4b80adfc-dcfc-4c92-9e6b-696361645f70,rev?*%
%TF.SameCoordinates,Original*%
%TF.FileFunction,Soldermask,Top*%
%TF.FilePolarity,Negative*%
%FSLAX46Y46*%
G04 Gerber Fmt 4.6, Leading zero omitted, Abs format (unit mm)*
G04 Created by KiCad (PCBNEW 7.0.2) date 2023-10-11 00:11:02*
%MOMM*%
%LPD*%
G01*
G04 APERTURE LIST*
%ADD10C,5.000000*%
%ADD11C,4.000000*%
%ADD12C,0.450000*%
%ADD13C,1.524000*%
%ADD14C,1.200000*%
%ADD15R,1.397000X1.397000*%
%ADD16C,1.397000*%
%ADD17C,1.900000*%
%ADD18C,3.000000*%
%ADD19C,4.100000*%
%ADD20C,0.500000*%
G04 APERTURE END LIST*
D10*
%TO.C,*%
X232927657Y-125498846D03*
%TD*%
%TO.C,*%
X61225539Y-92514484D03*
%TD*%
%TO.C,*%
X85475539Y-125514484D03*
%TD*%
%TO.C,*%
X131975539Y-136264484D03*
%TD*%
%TO.C,*%
X118225539Y-88764484D03*
%TD*%
%TO.C,*%
X61225539Y-111514484D03*
%TD*%
D11*
%TO.C,*%
X154975539Y-130014484D03*
%TD*%
%TO.C,*%
X140475539Y-121514484D03*
%TD*%
%TO.C,*%
X177927657Y-123498845D03*
%TD*%
%TO.C,*%
X163427656Y-131998845D03*
%TD*%
D10*
%TO.C,*%
X257177656Y-94498845D03*
%TD*%
%TO.C,*%
X186427656Y-138248845D03*
%TD*%
%TO.C,*%
X257177656Y-113498845D03*
%TD*%
%TO.C,*%
X200177656Y-90748845D03*
%TD*%
D12*
%TO.C,REF\u002A\u002A*%
X47115000Y-132163000D03*
X47915000Y-132163000D03*
X48715000Y-132163000D03*
X49515000Y-132163000D03*
X50315000Y-132163000D03*
X51115000Y-132163000D03*
X51915000Y-132163000D03*
X52715000Y-132163000D03*
X53515000Y-132163000D03*
%TD*%
%TO.C,REF\u002A\u002A*%
X265016000Y-132160000D03*
X265816000Y-132160000D03*
X266616000Y-132160000D03*
X267416000Y-132160000D03*
X268216000Y-132160000D03*
X269016000Y-132160000D03*
X269816000Y-132160000D03*
X270616000Y-132160000D03*
X271416000Y-132160000D03*
%TD*%
%TO.C,REF\u002A\u002A*%
X265015000Y-75649000D03*
X265815000Y-75649000D03*
X266615000Y-75649000D03*
X267415000Y-75649000D03*
X268215000Y-75649000D03*
X269015000Y-75649000D03*
X269815000Y-75649000D03*
X270615000Y-75649000D03*
X271415000Y-75649000D03*
%TD*%
%TO.C,REF\u002A\u002A*%
X186110000Y-73299000D03*
X186910000Y-73299000D03*
X187710000Y-73299000D03*
X188510000Y-73299000D03*
X189310000Y-73299000D03*
X190110000Y-73299000D03*
X190910000Y-73299000D03*
X191710000Y-73299000D03*
X192510000Y-73299000D03*
%TD*%
%TO.C,REF\u002A\u002A*%
X126110000Y-73299000D03*
X126910000Y-73299000D03*
X127710000Y-73299000D03*
X128510000Y-73299000D03*
X129310000Y-73299000D03*
X130110000Y-73299000D03*
X130910000Y-73299000D03*
X131710000Y-73299000D03*
X132510000Y-73299000D03*
%TD*%
D13*
%TO.C,U2*%
X178646600Y-78536000D03*
X163406600Y-78536000D03*
X163406600Y-81076000D03*
X163406600Y-83616000D03*
X163406600Y-86156000D03*
X163406600Y-88696000D03*
X163406600Y-91236000D03*
X163396600Y-93776000D03*
X163406600Y-96316000D03*
X163396600Y-98856000D03*
X163396600Y-101396000D03*
X163396600Y-103936000D03*
X163396600Y-106476000D03*
X163406600Y-109016000D03*
X178646600Y-109016000D03*
X178656600Y-106476000D03*
X178656600Y-103936000D03*
X178656600Y-101396000D03*
X178646600Y-98856000D03*
X178646600Y-96316000D03*
X178656600Y-93776000D03*
X178646600Y-91236000D03*
X178646600Y-88696000D03*
X178646600Y-86156000D03*
X178646600Y-83616000D03*
X178646600Y-81076000D03*
%TD*%
%TO.C,U1*%
X155138000Y-78536000D03*
X139898000Y-78536000D03*
X139898000Y-81076000D03*
X139898000Y-83616000D03*
X139898000Y-86156000D03*
X139898000Y-88696000D03*
X139898000Y-91236000D03*
X139888000Y-93776000D03*
X139898000Y-96316000D03*
X139888000Y-98856000D03*
X139888000Y-101396000D03*
X139888000Y-103936000D03*
X139888000Y-106476000D03*
X139898000Y-109016000D03*
X155138000Y-109016000D03*
X155148000Y-106476000D03*
X155148000Y-103936000D03*
X155148000Y-101396000D03*
X155138000Y-98856000D03*
X155138000Y-96316000D03*
X155148000Y-93776000D03*
X155138000Y-91236000D03*
X155138000Y-88696000D03*
X155138000Y-86156000D03*
X155138000Y-83616000D03*
X155138000Y-81076000D03*
%TD*%
D12*
%TO.C,REF\u002A\u002A*%
X48715064Y-75649500D03*
X52715064Y-75649500D03*
X53515064Y-75649500D03*
X51915064Y-75649500D03*
X47115064Y-75649500D03*
X51115064Y-75649500D03*
X47915064Y-75649500D03*
X49515064Y-75649500D03*
X50315064Y-75649500D03*
%TD*%
D14*
%TO.C,J6*%
X162923000Y-124295000D03*
X169923000Y-124295000D03*
%TD*%
%TO.C,J5*%
X155490000Y-124308000D03*
X148490000Y-124308000D03*
%TD*%
D15*
%TO.C,J4*%
X172296600Y-101396000D03*
D16*
X169756600Y-101396000D03*
X172296600Y-103936000D03*
X169756600Y-103936000D03*
X172296600Y-106476000D03*
X169756600Y-106476000D03*
%TD*%
D17*
%TO.C,SW8*%
X223570000Y-77625000D03*
D18*
X224840000Y-75085000D03*
D19*
X228650000Y-77625000D03*
D18*
X231190000Y-72545000D03*
D17*
X233730000Y-77625000D03*
D20*
X219790000Y-73585000D03*
X219790000Y-76585000D03*
X236240000Y-71045000D03*
X236240000Y-74045000D03*
%TD*%
D17*
%TO.C,SW9*%
X242570000Y-80000000D03*
D18*
X243840000Y-77460000D03*
D19*
X247650000Y-80000000D03*
D18*
X250190000Y-74920000D03*
D17*
X252730000Y-80000000D03*
D20*
X238790000Y-75960000D03*
X238790000Y-78960000D03*
X255240000Y-73420000D03*
X255240000Y-76420000D03*
%TD*%
D15*
%TO.C,J2*%
X148788000Y-101396000D03*
D16*
X146248000Y-101396000D03*
X148788000Y-103936000D03*
X146248000Y-103936000D03*
X148788000Y-106476000D03*
X146248000Y-106476000D03*
%TD*%
D17*
%TO.C,SW2*%
X65733000Y-80146000D03*
D18*
X67003000Y-77606000D03*
D19*
X70813000Y-80146000D03*
D18*
X73353000Y-75066000D03*
D17*
X75893000Y-80146000D03*
D20*
X61953000Y-76106000D03*
X61953000Y-79106000D03*
X78403000Y-73566000D03*
X78403000Y-76566000D03*
%TD*%
D17*
%TO.C,SW3*%
X84733000Y-77771000D03*
D18*
X86003000Y-75231000D03*
D19*
X89813000Y-77771000D03*
D18*
X92353000Y-72691000D03*
D17*
X94893000Y-77771000D03*
D20*
X80953000Y-73731000D03*
X80953000Y-76731000D03*
X97403000Y-71191000D03*
X97403000Y-74191000D03*
%TD*%
D17*
%TO.C,SW7*%
X204570000Y-80000000D03*
D18*
X205840000Y-77460000D03*
D19*
X209650000Y-80000000D03*
D18*
X212190000Y-74920000D03*
D17*
X214730000Y-80000000D03*
D20*
X200790000Y-75960000D03*
X200790000Y-78960000D03*
X217240000Y-73420000D03*
X217240000Y-76420000D03*
%TD*%
D17*
%TO.C,SW1*%
X46733000Y-103896000D03*
D18*
X48003000Y-101356000D03*
D19*
X51813000Y-103896000D03*
D18*
X54353000Y-98816000D03*
D17*
X56893000Y-103896000D03*
D20*
X42953000Y-99856000D03*
X42953000Y-102856000D03*
X59403000Y-97316000D03*
X59403000Y-100316000D03*
%TD*%
D17*
%TO.C,SW5*%
X138163591Y-141731000D03*
D18*
X140533443Y-140166295D03*
D19*
X142563000Y-144271000D03*
D18*
X147302705Y-141141591D03*
D17*
X146962409Y-146811000D03*
D20*
X136910015Y-136342257D03*
X135410015Y-138940334D03*
X152426133Y-142367553D03*
X150926133Y-144965629D03*
%TD*%
D17*
%TO.C,SW6*%
X171500591Y-146665000D03*
D18*
X171330443Y-143830295D03*
D19*
X175900000Y-144125000D03*
D18*
X175559705Y-138455591D03*
D17*
X180299409Y-141585000D03*
D20*
X166207015Y-145056257D03*
X167707015Y-147654334D03*
X179183133Y-134631553D03*
X180683133Y-137229629D03*
%TD*%
D17*
%TO.C,SW10*%
X261570000Y-103750000D03*
D18*
X262840000Y-101210000D03*
D19*
X266650000Y-103750000D03*
D18*
X269190000Y-98670000D03*
D17*
X271730000Y-103750000D03*
D20*
X257790000Y-99710000D03*
X257790000Y-102710000D03*
X274240000Y-97170000D03*
X274240000Y-100170000D03*
%TD*%
D17*
%TO.C,SW4*%
X103733000Y-80146000D03*
D18*
X105003000Y-77606000D03*
D19*
X108813000Y-80146000D03*
D18*
X111353000Y-75066000D03*
D17*
X113893000Y-80146000D03*
D20*
X99953000Y-76106000D03*
X99953000Y-79106000D03*
X116403000Y-73566000D03*
X116403000Y-76566000D03*
%TD*%
M02*
