%TF.GenerationSoftware,KiCad,Pcbnew,7.0.2*%
%TF.CreationDate,2023-10-11T00:11:02+09:00*%
%TF.ProjectId,_______,4b80adfc-dcfc-4c92-9e6b-696361645f70,rev?*%
%TF.SameCoordinates,Original*%
%TF.FileFunction,Legend,Bot*%
%TF.FilePolarity,Positive*%
%FSLAX46Y46*%
G04 Gerber Fmt 4.6, Leading zero omitted, Abs format (unit mm)*
G04 Created by KiCad (PCBNEW 7.0.2) date 2023-10-11 00:11:02*
%MOMM*%
%LPD*%
G01*
G04 APERTURE LIST*
%ADD10C,0.150000*%
%ADD11C,0.100000*%
%ADD12C,0.120000*%
%ADD13R,1.397000X1.397000*%
%ADD14C,1.397000*%
G04 APERTURE END LIST*
D10*
X140189361Y-111494809D02*
X140046504Y-111542428D01*
X140046504Y-111542428D02*
X139998885Y-111590047D01*
X139998885Y-111590047D02*
X139951266Y-111685285D01*
X139951266Y-111685285D02*
X139951266Y-111828142D01*
X139951266Y-111828142D02*
X139998885Y-111923380D01*
X139998885Y-111923380D02*
X140046504Y-111971000D01*
X140046504Y-111971000D02*
X140141742Y-112018619D01*
X140141742Y-112018619D02*
X140522694Y-112018619D01*
X140522694Y-112018619D02*
X140522694Y-111018619D01*
X140522694Y-111018619D02*
X140189361Y-111018619D01*
X140189361Y-111018619D02*
X140094123Y-111066238D01*
X140094123Y-111066238D02*
X140046504Y-111113857D01*
X140046504Y-111113857D02*
X139998885Y-111209095D01*
X139998885Y-111209095D02*
X139998885Y-111304333D01*
X139998885Y-111304333D02*
X140046504Y-111399571D01*
X140046504Y-111399571D02*
X140094123Y-111447190D01*
X140094123Y-111447190D02*
X140189361Y-111494809D01*
X140189361Y-111494809D02*
X140522694Y-111494809D01*
X139046504Y-111018619D02*
X139522694Y-111018619D01*
X139522694Y-111018619D02*
X139570313Y-111494809D01*
X139570313Y-111494809D02*
X139522694Y-111447190D01*
X139522694Y-111447190D02*
X139427456Y-111399571D01*
X139427456Y-111399571D02*
X139189361Y-111399571D01*
X139189361Y-111399571D02*
X139094123Y-111447190D01*
X139094123Y-111447190D02*
X139046504Y-111494809D01*
X139046504Y-111494809D02*
X138998885Y-111590047D01*
X138998885Y-111590047D02*
X138998885Y-111828142D01*
X138998885Y-111828142D02*
X139046504Y-111923380D01*
X139046504Y-111923380D02*
X139094123Y-111971000D01*
X139094123Y-111971000D02*
X139189361Y-112018619D01*
X139189361Y-112018619D02*
X139427456Y-112018619D01*
X139427456Y-112018619D02*
X139522694Y-111971000D01*
X139522694Y-111971000D02*
X139570313Y-111923380D01*
%TO.C,*%
%TO.C,JP1*%
X140736981Y-117098619D02*
X141213171Y-117098619D01*
X141213171Y-117098619D02*
X141213171Y-116098619D01*
X140403647Y-116574809D02*
X140070314Y-116574809D01*
X139927457Y-117098619D02*
X140403647Y-117098619D01*
X140403647Y-117098619D02*
X140403647Y-116098619D01*
X140403647Y-116098619D02*
X139927457Y-116098619D01*
X139165552Y-116574809D02*
X139498885Y-116574809D01*
X139498885Y-117098619D02*
X139498885Y-116098619D01*
X139498885Y-116098619D02*
X139022695Y-116098619D01*
X138784599Y-116098619D02*
X138213171Y-116098619D01*
X138498885Y-117098619D02*
X138498885Y-116098619D01*
%TO.C,J4*%
X173742789Y-99878619D02*
X173742789Y-98878619D01*
X172695171Y-99783380D02*
X172742790Y-99831000D01*
X172742790Y-99831000D02*
X172885647Y-99878619D01*
X172885647Y-99878619D02*
X172980885Y-99878619D01*
X172980885Y-99878619D02*
X173123742Y-99831000D01*
X173123742Y-99831000D02*
X173218980Y-99735761D01*
X173218980Y-99735761D02*
X173266599Y-99640523D01*
X173266599Y-99640523D02*
X173314218Y-99450047D01*
X173314218Y-99450047D02*
X173314218Y-99307190D01*
X173314218Y-99307190D02*
X173266599Y-99116714D01*
X173266599Y-99116714D02*
X173218980Y-99021476D01*
X173218980Y-99021476D02*
X173123742Y-98926238D01*
X173123742Y-98926238D02*
X172980885Y-98878619D01*
X172980885Y-98878619D02*
X172885647Y-98878619D01*
X172885647Y-98878619D02*
X172742790Y-98926238D01*
X172742790Y-98926238D02*
X172695171Y-98973857D01*
X172314218Y-99831000D02*
X172171361Y-99878619D01*
X172171361Y-99878619D02*
X171933266Y-99878619D01*
X171933266Y-99878619D02*
X171838028Y-99831000D01*
X171838028Y-99831000D02*
X171790409Y-99783380D01*
X171790409Y-99783380D02*
X171742790Y-99688142D01*
X171742790Y-99688142D02*
X171742790Y-99592904D01*
X171742790Y-99592904D02*
X171790409Y-99497666D01*
X171790409Y-99497666D02*
X171838028Y-99450047D01*
X171838028Y-99450047D02*
X171933266Y-99402428D01*
X171933266Y-99402428D02*
X172123742Y-99354809D01*
X172123742Y-99354809D02*
X172218980Y-99307190D01*
X172218980Y-99307190D02*
X172266599Y-99259571D01*
X172266599Y-99259571D02*
X172314218Y-99164333D01*
X172314218Y-99164333D02*
X172314218Y-99069095D01*
X172314218Y-99069095D02*
X172266599Y-98973857D01*
X172266599Y-98973857D02*
X172218980Y-98926238D01*
X172218980Y-98926238D02*
X172123742Y-98878619D01*
X172123742Y-98878619D02*
X171885647Y-98878619D01*
X171885647Y-98878619D02*
X171742790Y-98926238D01*
X171314218Y-99878619D02*
X171314218Y-98878619D01*
X171314218Y-98878619D02*
X170933266Y-98878619D01*
X170933266Y-98878619D02*
X170838028Y-98926238D01*
X170838028Y-98926238D02*
X170790409Y-98973857D01*
X170790409Y-98973857D02*
X170742790Y-99069095D01*
X170742790Y-99069095D02*
X170742790Y-99211952D01*
X170742790Y-99211952D02*
X170790409Y-99307190D01*
X170790409Y-99307190D02*
X170838028Y-99354809D01*
X170838028Y-99354809D02*
X170933266Y-99402428D01*
X170933266Y-99402428D02*
X171314218Y-99402428D01*
D11*
X176688504Y-106846095D02*
X176955171Y-106465142D01*
X177145647Y-106846095D02*
X177145647Y-106046095D01*
X177145647Y-106046095D02*
X176840885Y-106046095D01*
X176840885Y-106046095D02*
X176764695Y-106084190D01*
X176764695Y-106084190D02*
X176726600Y-106122285D01*
X176726600Y-106122285D02*
X176688504Y-106198476D01*
X176688504Y-106198476D02*
X176688504Y-106312761D01*
X176688504Y-106312761D02*
X176726600Y-106388952D01*
X176726600Y-106388952D02*
X176764695Y-106427047D01*
X176764695Y-106427047D02*
X176840885Y-106465142D01*
X176840885Y-106465142D02*
X177145647Y-106465142D01*
X176345647Y-106427047D02*
X176078981Y-106427047D01*
X175964695Y-106846095D02*
X176345647Y-106846095D01*
X176345647Y-106846095D02*
X176345647Y-106046095D01*
X176345647Y-106046095D02*
X175964695Y-106046095D01*
X175659933Y-106808000D02*
X175545647Y-106846095D01*
X175545647Y-106846095D02*
X175355171Y-106846095D01*
X175355171Y-106846095D02*
X175278980Y-106808000D01*
X175278980Y-106808000D02*
X175240885Y-106769904D01*
X175240885Y-106769904D02*
X175202790Y-106693714D01*
X175202790Y-106693714D02*
X175202790Y-106617523D01*
X175202790Y-106617523D02*
X175240885Y-106541333D01*
X175240885Y-106541333D02*
X175278980Y-106503238D01*
X175278980Y-106503238D02*
X175355171Y-106465142D01*
X175355171Y-106465142D02*
X175507552Y-106427047D01*
X175507552Y-106427047D02*
X175583742Y-106388952D01*
X175583742Y-106388952D02*
X175621837Y-106350857D01*
X175621837Y-106350857D02*
X175659933Y-106274666D01*
X175659933Y-106274666D02*
X175659933Y-106198476D01*
X175659933Y-106198476D02*
X175621837Y-106122285D01*
X175621837Y-106122285D02*
X175583742Y-106084190D01*
X175583742Y-106084190D02*
X175507552Y-106046095D01*
X175507552Y-106046095D02*
X175317075Y-106046095D01*
X175317075Y-106046095D02*
X175202790Y-106084190D01*
X174859932Y-106427047D02*
X174593266Y-106427047D01*
X174478980Y-106846095D02*
X174859932Y-106846095D01*
X174859932Y-106846095D02*
X174859932Y-106046095D01*
X174859932Y-106046095D02*
X174478980Y-106046095D01*
X174250408Y-106046095D02*
X173793265Y-106046095D01*
X174021837Y-106846095D02*
X174021837Y-106046095D01*
X177256124Y-105688000D02*
X173797075Y-105688000D01*
X176055171Y-104268000D02*
X175940885Y-104306095D01*
X175940885Y-104306095D02*
X175750409Y-104306095D01*
X175750409Y-104306095D02*
X175674218Y-104268000D01*
X175674218Y-104268000D02*
X175636123Y-104229904D01*
X175636123Y-104229904D02*
X175598028Y-104153714D01*
X175598028Y-104153714D02*
X175598028Y-104077523D01*
X175598028Y-104077523D02*
X175636123Y-104001333D01*
X175636123Y-104001333D02*
X175674218Y-103963238D01*
X175674218Y-103963238D02*
X175750409Y-103925142D01*
X175750409Y-103925142D02*
X175902790Y-103887047D01*
X175902790Y-103887047D02*
X175978980Y-103848952D01*
X175978980Y-103848952D02*
X176017075Y-103810857D01*
X176017075Y-103810857D02*
X176055171Y-103734666D01*
X176055171Y-103734666D02*
X176055171Y-103658476D01*
X176055171Y-103658476D02*
X176017075Y-103582285D01*
X176017075Y-103582285D02*
X175978980Y-103544190D01*
X175978980Y-103544190D02*
X175902790Y-103506095D01*
X175902790Y-103506095D02*
X175712313Y-103506095D01*
X175712313Y-103506095D02*
X175598028Y-103544190D01*
X174798027Y-104229904D02*
X174836123Y-104268000D01*
X174836123Y-104268000D02*
X174950408Y-104306095D01*
X174950408Y-104306095D02*
X175026599Y-104306095D01*
X175026599Y-104306095D02*
X175140885Y-104268000D01*
X175140885Y-104268000D02*
X175217075Y-104191809D01*
X175217075Y-104191809D02*
X175255170Y-104115619D01*
X175255170Y-104115619D02*
X175293266Y-103963238D01*
X175293266Y-103963238D02*
X175293266Y-103848952D01*
X175293266Y-103848952D02*
X175255170Y-103696571D01*
X175255170Y-103696571D02*
X175217075Y-103620380D01*
X175217075Y-103620380D02*
X175140885Y-103544190D01*
X175140885Y-103544190D02*
X175026599Y-103506095D01*
X175026599Y-103506095D02*
X174950408Y-103506095D01*
X174950408Y-103506095D02*
X174836123Y-103544190D01*
X174836123Y-103544190D02*
X174798027Y-103582285D01*
X174455170Y-104306095D02*
X174455170Y-103506095D01*
X173998027Y-104306095D02*
X174340885Y-103848952D01*
X173998027Y-103506095D02*
X174455170Y-103963238D01*
X168093266Y-101006095D02*
X167826599Y-101806095D01*
X167826599Y-101806095D02*
X167559933Y-101006095D01*
X166836123Y-101729904D02*
X166874219Y-101768000D01*
X166874219Y-101768000D02*
X166988504Y-101806095D01*
X166988504Y-101806095D02*
X167064695Y-101806095D01*
X167064695Y-101806095D02*
X167178981Y-101768000D01*
X167178981Y-101768000D02*
X167255171Y-101691809D01*
X167255171Y-101691809D02*
X167293266Y-101615619D01*
X167293266Y-101615619D02*
X167331362Y-101463238D01*
X167331362Y-101463238D02*
X167331362Y-101348952D01*
X167331362Y-101348952D02*
X167293266Y-101196571D01*
X167293266Y-101196571D02*
X167255171Y-101120380D01*
X167255171Y-101120380D02*
X167178981Y-101044190D01*
X167178981Y-101044190D02*
X167064695Y-101006095D01*
X167064695Y-101006095D02*
X166988504Y-101006095D01*
X166988504Y-101006095D02*
X166874219Y-101044190D01*
X166874219Y-101044190D02*
X166836123Y-101082285D01*
X166036123Y-101729904D02*
X166074219Y-101768000D01*
X166074219Y-101768000D02*
X166188504Y-101806095D01*
X166188504Y-101806095D02*
X166264695Y-101806095D01*
X166264695Y-101806095D02*
X166378981Y-101768000D01*
X166378981Y-101768000D02*
X166455171Y-101691809D01*
X166455171Y-101691809D02*
X166493266Y-101615619D01*
X166493266Y-101615619D02*
X166531362Y-101463238D01*
X166531362Y-101463238D02*
X166531362Y-101348952D01*
X166531362Y-101348952D02*
X166493266Y-101196571D01*
X166493266Y-101196571D02*
X166455171Y-101120380D01*
X166455171Y-101120380D02*
X166378981Y-101044190D01*
X166378981Y-101044190D02*
X166264695Y-101006095D01*
X166264695Y-101006095D02*
X166188504Y-101006095D01*
X166188504Y-101006095D02*
X166074219Y-101044190D01*
X166074219Y-101044190D02*
X166036123Y-101082285D01*
X167636123Y-106084190D02*
X167712313Y-106046095D01*
X167712313Y-106046095D02*
X167826599Y-106046095D01*
X167826599Y-106046095D02*
X167940885Y-106084190D01*
X167940885Y-106084190D02*
X168017075Y-106160380D01*
X168017075Y-106160380D02*
X168055170Y-106236571D01*
X168055170Y-106236571D02*
X168093266Y-106388952D01*
X168093266Y-106388952D02*
X168093266Y-106503238D01*
X168093266Y-106503238D02*
X168055170Y-106655619D01*
X168055170Y-106655619D02*
X168017075Y-106731809D01*
X168017075Y-106731809D02*
X167940885Y-106808000D01*
X167940885Y-106808000D02*
X167826599Y-106846095D01*
X167826599Y-106846095D02*
X167750408Y-106846095D01*
X167750408Y-106846095D02*
X167636123Y-106808000D01*
X167636123Y-106808000D02*
X167598027Y-106769904D01*
X167598027Y-106769904D02*
X167598027Y-106503238D01*
X167598027Y-106503238D02*
X167750408Y-106503238D01*
X167255170Y-106846095D02*
X167255170Y-106046095D01*
X167255170Y-106046095D02*
X166798027Y-106846095D01*
X166798027Y-106846095D02*
X166798027Y-106046095D01*
X166417075Y-106846095D02*
X166417075Y-106046095D01*
X166417075Y-106046095D02*
X166226599Y-106046095D01*
X166226599Y-106046095D02*
X166112313Y-106084190D01*
X166112313Y-106084190D02*
X166036123Y-106160380D01*
X166036123Y-106160380D02*
X165998028Y-106236571D01*
X165998028Y-106236571D02*
X165959932Y-106388952D01*
X165959932Y-106388952D02*
X165959932Y-106503238D01*
X165959932Y-106503238D02*
X165998028Y-106655619D01*
X165998028Y-106655619D02*
X166036123Y-106731809D01*
X166036123Y-106731809D02*
X166112313Y-106808000D01*
X166112313Y-106808000D02*
X166226599Y-106846095D01*
X166226599Y-106846095D02*
X166417075Y-106846095D01*
X176283742Y-101766095D02*
X176283742Y-100966095D01*
X176283742Y-100966095D02*
X176017076Y-101537523D01*
X176017076Y-101537523D02*
X175750409Y-100966095D01*
X175750409Y-100966095D02*
X175750409Y-101766095D01*
X175369456Y-101766095D02*
X175369456Y-100966095D01*
X175026600Y-101728000D02*
X174912314Y-101766095D01*
X174912314Y-101766095D02*
X174721838Y-101766095D01*
X174721838Y-101766095D02*
X174645647Y-101728000D01*
X174645647Y-101728000D02*
X174607552Y-101689904D01*
X174607552Y-101689904D02*
X174569457Y-101613714D01*
X174569457Y-101613714D02*
X174569457Y-101537523D01*
X174569457Y-101537523D02*
X174607552Y-101461333D01*
X174607552Y-101461333D02*
X174645647Y-101423238D01*
X174645647Y-101423238D02*
X174721838Y-101385142D01*
X174721838Y-101385142D02*
X174874219Y-101347047D01*
X174874219Y-101347047D02*
X174950409Y-101308952D01*
X174950409Y-101308952D02*
X174988504Y-101270857D01*
X174988504Y-101270857D02*
X175026600Y-101194666D01*
X175026600Y-101194666D02*
X175026600Y-101118476D01*
X175026600Y-101118476D02*
X174988504Y-101042285D01*
X174988504Y-101042285D02*
X174950409Y-101004190D01*
X174950409Y-101004190D02*
X174874219Y-100966095D01*
X174874219Y-100966095D02*
X174683742Y-100966095D01*
X174683742Y-100966095D02*
X174569457Y-101004190D01*
X174074218Y-100966095D02*
X173921837Y-100966095D01*
X173921837Y-100966095D02*
X173845647Y-101004190D01*
X173845647Y-101004190D02*
X173769456Y-101080380D01*
X173769456Y-101080380D02*
X173731361Y-101232761D01*
X173731361Y-101232761D02*
X173731361Y-101499428D01*
X173731361Y-101499428D02*
X173769456Y-101651809D01*
X173769456Y-101651809D02*
X173845647Y-101728000D01*
X173845647Y-101728000D02*
X173921837Y-101766095D01*
X173921837Y-101766095D02*
X174074218Y-101766095D01*
X174074218Y-101766095D02*
X174150409Y-101728000D01*
X174150409Y-101728000D02*
X174226599Y-101651809D01*
X174226599Y-101651809D02*
X174264695Y-101499428D01*
X174264695Y-101499428D02*
X174264695Y-101232761D01*
X174264695Y-101232761D02*
X174226599Y-101080380D01*
X174226599Y-101080380D02*
X174150409Y-101004190D01*
X174150409Y-101004190D02*
X174074218Y-100966095D01*
X168283742Y-104306095D02*
X168283742Y-103506095D01*
X168283742Y-103506095D02*
X168017076Y-104077523D01*
X168017076Y-104077523D02*
X167750409Y-103506095D01*
X167750409Y-103506095D02*
X167750409Y-104306095D01*
X167217075Y-103506095D02*
X167064694Y-103506095D01*
X167064694Y-103506095D02*
X166988504Y-103544190D01*
X166988504Y-103544190D02*
X166912313Y-103620380D01*
X166912313Y-103620380D02*
X166874218Y-103772761D01*
X166874218Y-103772761D02*
X166874218Y-104039428D01*
X166874218Y-104039428D02*
X166912313Y-104191809D01*
X166912313Y-104191809D02*
X166988504Y-104268000D01*
X166988504Y-104268000D02*
X167064694Y-104306095D01*
X167064694Y-104306095D02*
X167217075Y-104306095D01*
X167217075Y-104306095D02*
X167293266Y-104268000D01*
X167293266Y-104268000D02*
X167369456Y-104191809D01*
X167369456Y-104191809D02*
X167407552Y-104039428D01*
X167407552Y-104039428D02*
X167407552Y-103772761D01*
X167407552Y-103772761D02*
X167369456Y-103620380D01*
X167369456Y-103620380D02*
X167293266Y-103544190D01*
X167293266Y-103544190D02*
X167217075Y-103506095D01*
X166569457Y-104268000D02*
X166455171Y-104306095D01*
X166455171Y-104306095D02*
X166264695Y-104306095D01*
X166264695Y-104306095D02*
X166188504Y-104268000D01*
X166188504Y-104268000D02*
X166150409Y-104229904D01*
X166150409Y-104229904D02*
X166112314Y-104153714D01*
X166112314Y-104153714D02*
X166112314Y-104077523D01*
X166112314Y-104077523D02*
X166150409Y-104001333D01*
X166150409Y-104001333D02*
X166188504Y-103963238D01*
X166188504Y-103963238D02*
X166264695Y-103925142D01*
X166264695Y-103925142D02*
X166417076Y-103887047D01*
X166417076Y-103887047D02*
X166493266Y-103848952D01*
X166493266Y-103848952D02*
X166531361Y-103810857D01*
X166531361Y-103810857D02*
X166569457Y-103734666D01*
X166569457Y-103734666D02*
X166569457Y-103658476D01*
X166569457Y-103658476D02*
X166531361Y-103582285D01*
X166531361Y-103582285D02*
X166493266Y-103544190D01*
X166493266Y-103544190D02*
X166417076Y-103506095D01*
X166417076Y-103506095D02*
X166226599Y-103506095D01*
X166226599Y-103506095D02*
X166112314Y-103544190D01*
X165769456Y-104306095D02*
X165769456Y-103506095D01*
D10*
%TO.C,J2*%
X150234189Y-99878619D02*
X150234189Y-98878619D01*
X149186571Y-99783380D02*
X149234190Y-99831000D01*
X149234190Y-99831000D02*
X149377047Y-99878619D01*
X149377047Y-99878619D02*
X149472285Y-99878619D01*
X149472285Y-99878619D02*
X149615142Y-99831000D01*
X149615142Y-99831000D02*
X149710380Y-99735761D01*
X149710380Y-99735761D02*
X149757999Y-99640523D01*
X149757999Y-99640523D02*
X149805618Y-99450047D01*
X149805618Y-99450047D02*
X149805618Y-99307190D01*
X149805618Y-99307190D02*
X149757999Y-99116714D01*
X149757999Y-99116714D02*
X149710380Y-99021476D01*
X149710380Y-99021476D02*
X149615142Y-98926238D01*
X149615142Y-98926238D02*
X149472285Y-98878619D01*
X149472285Y-98878619D02*
X149377047Y-98878619D01*
X149377047Y-98878619D02*
X149234190Y-98926238D01*
X149234190Y-98926238D02*
X149186571Y-98973857D01*
X148805618Y-99831000D02*
X148662761Y-99878619D01*
X148662761Y-99878619D02*
X148424666Y-99878619D01*
X148424666Y-99878619D02*
X148329428Y-99831000D01*
X148329428Y-99831000D02*
X148281809Y-99783380D01*
X148281809Y-99783380D02*
X148234190Y-99688142D01*
X148234190Y-99688142D02*
X148234190Y-99592904D01*
X148234190Y-99592904D02*
X148281809Y-99497666D01*
X148281809Y-99497666D02*
X148329428Y-99450047D01*
X148329428Y-99450047D02*
X148424666Y-99402428D01*
X148424666Y-99402428D02*
X148615142Y-99354809D01*
X148615142Y-99354809D02*
X148710380Y-99307190D01*
X148710380Y-99307190D02*
X148757999Y-99259571D01*
X148757999Y-99259571D02*
X148805618Y-99164333D01*
X148805618Y-99164333D02*
X148805618Y-99069095D01*
X148805618Y-99069095D02*
X148757999Y-98973857D01*
X148757999Y-98973857D02*
X148710380Y-98926238D01*
X148710380Y-98926238D02*
X148615142Y-98878619D01*
X148615142Y-98878619D02*
X148377047Y-98878619D01*
X148377047Y-98878619D02*
X148234190Y-98926238D01*
X147805618Y-99878619D02*
X147805618Y-98878619D01*
X147805618Y-98878619D02*
X147424666Y-98878619D01*
X147424666Y-98878619D02*
X147329428Y-98926238D01*
X147329428Y-98926238D02*
X147281809Y-98973857D01*
X147281809Y-98973857D02*
X147234190Y-99069095D01*
X147234190Y-99069095D02*
X147234190Y-99211952D01*
X147234190Y-99211952D02*
X147281809Y-99307190D01*
X147281809Y-99307190D02*
X147329428Y-99354809D01*
X147329428Y-99354809D02*
X147424666Y-99402428D01*
X147424666Y-99402428D02*
X147805618Y-99402428D01*
D11*
X144775142Y-104306095D02*
X144775142Y-103506095D01*
X144775142Y-103506095D02*
X144508476Y-104077523D01*
X144508476Y-104077523D02*
X144241809Y-103506095D01*
X144241809Y-103506095D02*
X144241809Y-104306095D01*
X143708475Y-103506095D02*
X143556094Y-103506095D01*
X143556094Y-103506095D02*
X143479904Y-103544190D01*
X143479904Y-103544190D02*
X143403713Y-103620380D01*
X143403713Y-103620380D02*
X143365618Y-103772761D01*
X143365618Y-103772761D02*
X143365618Y-104039428D01*
X143365618Y-104039428D02*
X143403713Y-104191809D01*
X143403713Y-104191809D02*
X143479904Y-104268000D01*
X143479904Y-104268000D02*
X143556094Y-104306095D01*
X143556094Y-104306095D02*
X143708475Y-104306095D01*
X143708475Y-104306095D02*
X143784666Y-104268000D01*
X143784666Y-104268000D02*
X143860856Y-104191809D01*
X143860856Y-104191809D02*
X143898952Y-104039428D01*
X143898952Y-104039428D02*
X143898952Y-103772761D01*
X143898952Y-103772761D02*
X143860856Y-103620380D01*
X143860856Y-103620380D02*
X143784666Y-103544190D01*
X143784666Y-103544190D02*
X143708475Y-103506095D01*
X143060857Y-104268000D02*
X142946571Y-104306095D01*
X142946571Y-104306095D02*
X142756095Y-104306095D01*
X142756095Y-104306095D02*
X142679904Y-104268000D01*
X142679904Y-104268000D02*
X142641809Y-104229904D01*
X142641809Y-104229904D02*
X142603714Y-104153714D01*
X142603714Y-104153714D02*
X142603714Y-104077523D01*
X142603714Y-104077523D02*
X142641809Y-104001333D01*
X142641809Y-104001333D02*
X142679904Y-103963238D01*
X142679904Y-103963238D02*
X142756095Y-103925142D01*
X142756095Y-103925142D02*
X142908476Y-103887047D01*
X142908476Y-103887047D02*
X142984666Y-103848952D01*
X142984666Y-103848952D02*
X143022761Y-103810857D01*
X143022761Y-103810857D02*
X143060857Y-103734666D01*
X143060857Y-103734666D02*
X143060857Y-103658476D01*
X143060857Y-103658476D02*
X143022761Y-103582285D01*
X143022761Y-103582285D02*
X142984666Y-103544190D01*
X142984666Y-103544190D02*
X142908476Y-103506095D01*
X142908476Y-103506095D02*
X142717999Y-103506095D01*
X142717999Y-103506095D02*
X142603714Y-103544190D01*
X142260856Y-104306095D02*
X142260856Y-103506095D01*
X153179904Y-106846095D02*
X153446571Y-106465142D01*
X153637047Y-106846095D02*
X153637047Y-106046095D01*
X153637047Y-106046095D02*
X153332285Y-106046095D01*
X153332285Y-106046095D02*
X153256095Y-106084190D01*
X153256095Y-106084190D02*
X153218000Y-106122285D01*
X153218000Y-106122285D02*
X153179904Y-106198476D01*
X153179904Y-106198476D02*
X153179904Y-106312761D01*
X153179904Y-106312761D02*
X153218000Y-106388952D01*
X153218000Y-106388952D02*
X153256095Y-106427047D01*
X153256095Y-106427047D02*
X153332285Y-106465142D01*
X153332285Y-106465142D02*
X153637047Y-106465142D01*
X152837047Y-106427047D02*
X152570381Y-106427047D01*
X152456095Y-106846095D02*
X152837047Y-106846095D01*
X152837047Y-106846095D02*
X152837047Y-106046095D01*
X152837047Y-106046095D02*
X152456095Y-106046095D01*
X152151333Y-106808000D02*
X152037047Y-106846095D01*
X152037047Y-106846095D02*
X151846571Y-106846095D01*
X151846571Y-106846095D02*
X151770380Y-106808000D01*
X151770380Y-106808000D02*
X151732285Y-106769904D01*
X151732285Y-106769904D02*
X151694190Y-106693714D01*
X151694190Y-106693714D02*
X151694190Y-106617523D01*
X151694190Y-106617523D02*
X151732285Y-106541333D01*
X151732285Y-106541333D02*
X151770380Y-106503238D01*
X151770380Y-106503238D02*
X151846571Y-106465142D01*
X151846571Y-106465142D02*
X151998952Y-106427047D01*
X151998952Y-106427047D02*
X152075142Y-106388952D01*
X152075142Y-106388952D02*
X152113237Y-106350857D01*
X152113237Y-106350857D02*
X152151333Y-106274666D01*
X152151333Y-106274666D02*
X152151333Y-106198476D01*
X152151333Y-106198476D02*
X152113237Y-106122285D01*
X152113237Y-106122285D02*
X152075142Y-106084190D01*
X152075142Y-106084190D02*
X151998952Y-106046095D01*
X151998952Y-106046095D02*
X151808475Y-106046095D01*
X151808475Y-106046095D02*
X151694190Y-106084190D01*
X151351332Y-106427047D02*
X151084666Y-106427047D01*
X150970380Y-106846095D02*
X151351332Y-106846095D01*
X151351332Y-106846095D02*
X151351332Y-106046095D01*
X151351332Y-106046095D02*
X150970380Y-106046095D01*
X150741808Y-106046095D02*
X150284665Y-106046095D01*
X150513237Y-106846095D02*
X150513237Y-106046095D01*
X153747524Y-105688000D02*
X150288475Y-105688000D01*
X152775142Y-101766095D02*
X152775142Y-100966095D01*
X152775142Y-100966095D02*
X152508476Y-101537523D01*
X152508476Y-101537523D02*
X152241809Y-100966095D01*
X152241809Y-100966095D02*
X152241809Y-101766095D01*
X151860856Y-101766095D02*
X151860856Y-100966095D01*
X151518000Y-101728000D02*
X151403714Y-101766095D01*
X151403714Y-101766095D02*
X151213238Y-101766095D01*
X151213238Y-101766095D02*
X151137047Y-101728000D01*
X151137047Y-101728000D02*
X151098952Y-101689904D01*
X151098952Y-101689904D02*
X151060857Y-101613714D01*
X151060857Y-101613714D02*
X151060857Y-101537523D01*
X151060857Y-101537523D02*
X151098952Y-101461333D01*
X151098952Y-101461333D02*
X151137047Y-101423238D01*
X151137047Y-101423238D02*
X151213238Y-101385142D01*
X151213238Y-101385142D02*
X151365619Y-101347047D01*
X151365619Y-101347047D02*
X151441809Y-101308952D01*
X151441809Y-101308952D02*
X151479904Y-101270857D01*
X151479904Y-101270857D02*
X151518000Y-101194666D01*
X151518000Y-101194666D02*
X151518000Y-101118476D01*
X151518000Y-101118476D02*
X151479904Y-101042285D01*
X151479904Y-101042285D02*
X151441809Y-101004190D01*
X151441809Y-101004190D02*
X151365619Y-100966095D01*
X151365619Y-100966095D02*
X151175142Y-100966095D01*
X151175142Y-100966095D02*
X151060857Y-101004190D01*
X150565618Y-100966095D02*
X150413237Y-100966095D01*
X150413237Y-100966095D02*
X150337047Y-101004190D01*
X150337047Y-101004190D02*
X150260856Y-101080380D01*
X150260856Y-101080380D02*
X150222761Y-101232761D01*
X150222761Y-101232761D02*
X150222761Y-101499428D01*
X150222761Y-101499428D02*
X150260856Y-101651809D01*
X150260856Y-101651809D02*
X150337047Y-101728000D01*
X150337047Y-101728000D02*
X150413237Y-101766095D01*
X150413237Y-101766095D02*
X150565618Y-101766095D01*
X150565618Y-101766095D02*
X150641809Y-101728000D01*
X150641809Y-101728000D02*
X150717999Y-101651809D01*
X150717999Y-101651809D02*
X150756095Y-101499428D01*
X150756095Y-101499428D02*
X150756095Y-101232761D01*
X150756095Y-101232761D02*
X150717999Y-101080380D01*
X150717999Y-101080380D02*
X150641809Y-101004190D01*
X150641809Y-101004190D02*
X150565618Y-100966095D01*
X144127523Y-106084190D02*
X144203713Y-106046095D01*
X144203713Y-106046095D02*
X144317999Y-106046095D01*
X144317999Y-106046095D02*
X144432285Y-106084190D01*
X144432285Y-106084190D02*
X144508475Y-106160380D01*
X144508475Y-106160380D02*
X144546570Y-106236571D01*
X144546570Y-106236571D02*
X144584666Y-106388952D01*
X144584666Y-106388952D02*
X144584666Y-106503238D01*
X144584666Y-106503238D02*
X144546570Y-106655619D01*
X144546570Y-106655619D02*
X144508475Y-106731809D01*
X144508475Y-106731809D02*
X144432285Y-106808000D01*
X144432285Y-106808000D02*
X144317999Y-106846095D01*
X144317999Y-106846095D02*
X144241808Y-106846095D01*
X144241808Y-106846095D02*
X144127523Y-106808000D01*
X144127523Y-106808000D02*
X144089427Y-106769904D01*
X144089427Y-106769904D02*
X144089427Y-106503238D01*
X144089427Y-106503238D02*
X144241808Y-106503238D01*
X143746570Y-106846095D02*
X143746570Y-106046095D01*
X143746570Y-106046095D02*
X143289427Y-106846095D01*
X143289427Y-106846095D02*
X143289427Y-106046095D01*
X142908475Y-106846095D02*
X142908475Y-106046095D01*
X142908475Y-106046095D02*
X142717999Y-106046095D01*
X142717999Y-106046095D02*
X142603713Y-106084190D01*
X142603713Y-106084190D02*
X142527523Y-106160380D01*
X142527523Y-106160380D02*
X142489428Y-106236571D01*
X142489428Y-106236571D02*
X142451332Y-106388952D01*
X142451332Y-106388952D02*
X142451332Y-106503238D01*
X142451332Y-106503238D02*
X142489428Y-106655619D01*
X142489428Y-106655619D02*
X142527523Y-106731809D01*
X142527523Y-106731809D02*
X142603713Y-106808000D01*
X142603713Y-106808000D02*
X142717999Y-106846095D01*
X142717999Y-106846095D02*
X142908475Y-106846095D01*
X152546571Y-104268000D02*
X152432285Y-104306095D01*
X152432285Y-104306095D02*
X152241809Y-104306095D01*
X152241809Y-104306095D02*
X152165618Y-104268000D01*
X152165618Y-104268000D02*
X152127523Y-104229904D01*
X152127523Y-104229904D02*
X152089428Y-104153714D01*
X152089428Y-104153714D02*
X152089428Y-104077523D01*
X152089428Y-104077523D02*
X152127523Y-104001333D01*
X152127523Y-104001333D02*
X152165618Y-103963238D01*
X152165618Y-103963238D02*
X152241809Y-103925142D01*
X152241809Y-103925142D02*
X152394190Y-103887047D01*
X152394190Y-103887047D02*
X152470380Y-103848952D01*
X152470380Y-103848952D02*
X152508475Y-103810857D01*
X152508475Y-103810857D02*
X152546571Y-103734666D01*
X152546571Y-103734666D02*
X152546571Y-103658476D01*
X152546571Y-103658476D02*
X152508475Y-103582285D01*
X152508475Y-103582285D02*
X152470380Y-103544190D01*
X152470380Y-103544190D02*
X152394190Y-103506095D01*
X152394190Y-103506095D02*
X152203713Y-103506095D01*
X152203713Y-103506095D02*
X152089428Y-103544190D01*
X151289427Y-104229904D02*
X151327523Y-104268000D01*
X151327523Y-104268000D02*
X151441808Y-104306095D01*
X151441808Y-104306095D02*
X151517999Y-104306095D01*
X151517999Y-104306095D02*
X151632285Y-104268000D01*
X151632285Y-104268000D02*
X151708475Y-104191809D01*
X151708475Y-104191809D02*
X151746570Y-104115619D01*
X151746570Y-104115619D02*
X151784666Y-103963238D01*
X151784666Y-103963238D02*
X151784666Y-103848952D01*
X151784666Y-103848952D02*
X151746570Y-103696571D01*
X151746570Y-103696571D02*
X151708475Y-103620380D01*
X151708475Y-103620380D02*
X151632285Y-103544190D01*
X151632285Y-103544190D02*
X151517999Y-103506095D01*
X151517999Y-103506095D02*
X151441808Y-103506095D01*
X151441808Y-103506095D02*
X151327523Y-103544190D01*
X151327523Y-103544190D02*
X151289427Y-103582285D01*
X150946570Y-104306095D02*
X150946570Y-103506095D01*
X150489427Y-104306095D02*
X150832285Y-103848952D01*
X150489427Y-103506095D02*
X150946570Y-103963238D01*
X144584666Y-101006095D02*
X144317999Y-101806095D01*
X144317999Y-101806095D02*
X144051333Y-101006095D01*
X143327523Y-101729904D02*
X143365619Y-101768000D01*
X143365619Y-101768000D02*
X143479904Y-101806095D01*
X143479904Y-101806095D02*
X143556095Y-101806095D01*
X143556095Y-101806095D02*
X143670381Y-101768000D01*
X143670381Y-101768000D02*
X143746571Y-101691809D01*
X143746571Y-101691809D02*
X143784666Y-101615619D01*
X143784666Y-101615619D02*
X143822762Y-101463238D01*
X143822762Y-101463238D02*
X143822762Y-101348952D01*
X143822762Y-101348952D02*
X143784666Y-101196571D01*
X143784666Y-101196571D02*
X143746571Y-101120380D01*
X143746571Y-101120380D02*
X143670381Y-101044190D01*
X143670381Y-101044190D02*
X143556095Y-101006095D01*
X143556095Y-101006095D02*
X143479904Y-101006095D01*
X143479904Y-101006095D02*
X143365619Y-101044190D01*
X143365619Y-101044190D02*
X143327523Y-101082285D01*
X142527523Y-101729904D02*
X142565619Y-101768000D01*
X142565619Y-101768000D02*
X142679904Y-101806095D01*
X142679904Y-101806095D02*
X142756095Y-101806095D01*
X142756095Y-101806095D02*
X142870381Y-101768000D01*
X142870381Y-101768000D02*
X142946571Y-101691809D01*
X142946571Y-101691809D02*
X142984666Y-101615619D01*
X142984666Y-101615619D02*
X143022762Y-101463238D01*
X143022762Y-101463238D02*
X143022762Y-101348952D01*
X143022762Y-101348952D02*
X142984666Y-101196571D01*
X142984666Y-101196571D02*
X142946571Y-101120380D01*
X142946571Y-101120380D02*
X142870381Y-101044190D01*
X142870381Y-101044190D02*
X142756095Y-101006095D01*
X142756095Y-101006095D02*
X142679904Y-101006095D01*
X142679904Y-101006095D02*
X142565619Y-101044190D01*
X142565619Y-101044190D02*
X142527523Y-101082285D01*
D12*
%TO.C,JP1*%
X140784600Y-112696000D02*
X138784600Y-112696000D01*
X140784600Y-115496000D02*
X140784600Y-112696000D01*
X138784600Y-115496000D02*
X140784600Y-115496000D01*
X138784600Y-112696000D02*
X138784600Y-115496000D01*
D10*
%TO.C,J4*%
X173566600Y-107746000D02*
X173566600Y-100126000D01*
X173566600Y-100126000D02*
X168486600Y-100126000D01*
X168486600Y-107746000D02*
X173566600Y-107746000D01*
X168486600Y-100126000D02*
X168486600Y-107746000D01*
%TO.C,SW8*%
G36*
X233527035Y-74348621D02*
G01*
X233526421Y-74373423D01*
X233524589Y-74398055D01*
X233521558Y-74422476D01*
X233517342Y-74446646D01*
X233511961Y-74470524D01*
X233505429Y-74494069D01*
X233497765Y-74517240D01*
X233488985Y-74539996D01*
X233479107Y-74562297D01*
X233468146Y-74584101D01*
X233456120Y-74605367D01*
X233443046Y-74626056D01*
X233428941Y-74646125D01*
X233413821Y-74665535D01*
X233397704Y-74684244D01*
X233380606Y-74702211D01*
X233362638Y-74719309D01*
X233343929Y-74735427D01*
X233324520Y-74750547D01*
X233304450Y-74764653D01*
X233283761Y-74777727D01*
X233262495Y-74789754D01*
X233240691Y-74800715D01*
X233218390Y-74810593D01*
X233195634Y-74819373D01*
X233172463Y-74827038D01*
X233148918Y-74833569D01*
X233125041Y-74838951D01*
X233100871Y-74843166D01*
X233076449Y-74846198D01*
X233051817Y-74848029D01*
X233027016Y-74848644D01*
X228384392Y-74848644D01*
X228208324Y-74855505D01*
X228035239Y-74875801D01*
X227865753Y-74909101D01*
X227700483Y-74954973D01*
X227540043Y-75012986D01*
X227385049Y-75082709D01*
X227236118Y-75163711D01*
X227093864Y-75255560D01*
X226958903Y-75357825D01*
X226831852Y-75470074D01*
X226713325Y-75591877D01*
X226603938Y-75722802D01*
X226504308Y-75862418D01*
X226415048Y-76010293D01*
X226336777Y-76165997D01*
X226270108Y-76329097D01*
X226233195Y-76430473D01*
X226226121Y-76448795D01*
X226218386Y-76466718D01*
X226210005Y-76484230D01*
X226200997Y-76501319D01*
X226191379Y-76517973D01*
X226181166Y-76534179D01*
X226170378Y-76549927D01*
X226159030Y-76565204D01*
X226147139Y-76579997D01*
X226134724Y-76594296D01*
X226121801Y-76608088D01*
X226108387Y-76621361D01*
X226094499Y-76634103D01*
X226080154Y-76646302D01*
X226065370Y-76657947D01*
X226050164Y-76669025D01*
X226034552Y-76679524D01*
X226018552Y-76689433D01*
X226002180Y-76698738D01*
X225985455Y-76707430D01*
X225968393Y-76715495D01*
X225951011Y-76722921D01*
X225933327Y-76729697D01*
X225915357Y-76735810D01*
X225897118Y-76741249D01*
X225878628Y-76746002D01*
X225859904Y-76750056D01*
X225840963Y-76753400D01*
X225821822Y-76756021D01*
X225802497Y-76757909D01*
X225783008Y-76759050D01*
X225763369Y-76759433D01*
X222539996Y-76759433D01*
X222539996Y-72875087D01*
X222542599Y-72772164D01*
X222550322Y-72670593D01*
X222563040Y-72570498D01*
X222580629Y-72472006D01*
X222602961Y-72375243D01*
X222629911Y-72280333D01*
X222661354Y-72187404D01*
X222697164Y-72096579D01*
X222737215Y-72007986D01*
X222781382Y-71921749D01*
X222829539Y-71837994D01*
X222881561Y-71756847D01*
X222937321Y-71678434D01*
X222996695Y-71602880D01*
X223059555Y-71530311D01*
X223125778Y-71460852D01*
X223195237Y-71394629D01*
X223267806Y-71331769D01*
X223343360Y-71272395D01*
X223421773Y-71216635D01*
X223502920Y-71164614D01*
X223586675Y-71116457D01*
X223672912Y-71072290D01*
X223761505Y-71032238D01*
X223852330Y-70996428D01*
X223945260Y-70964985D01*
X224040169Y-70938035D01*
X224136933Y-70915703D01*
X224235425Y-70898115D01*
X224335519Y-70885396D01*
X224437091Y-70877673D01*
X224540014Y-70875071D01*
X233527035Y-70875071D01*
X233527035Y-74348621D01*
G37*
%TO.C,SW9*%
G36*
X252527035Y-76723621D02*
G01*
X252526421Y-76748423D01*
X252524589Y-76773055D01*
X252521558Y-76797476D01*
X252517342Y-76821646D01*
X252511961Y-76845524D01*
X252505429Y-76869069D01*
X252497765Y-76892240D01*
X252488985Y-76914996D01*
X252479107Y-76937297D01*
X252468146Y-76959101D01*
X252456120Y-76980367D01*
X252443046Y-77001056D01*
X252428941Y-77021125D01*
X252413821Y-77040535D01*
X252397704Y-77059244D01*
X252380606Y-77077211D01*
X252362638Y-77094309D01*
X252343929Y-77110427D01*
X252324520Y-77125547D01*
X252304450Y-77139653D01*
X252283761Y-77152727D01*
X252262495Y-77164754D01*
X252240691Y-77175715D01*
X252218390Y-77185593D01*
X252195634Y-77194373D01*
X252172463Y-77202038D01*
X252148918Y-77208569D01*
X252125041Y-77213951D01*
X252100871Y-77218166D01*
X252076449Y-77221198D01*
X252051817Y-77223029D01*
X252027016Y-77223644D01*
X247384392Y-77223644D01*
X247208324Y-77230505D01*
X247035239Y-77250801D01*
X246865753Y-77284101D01*
X246700483Y-77329973D01*
X246540043Y-77387986D01*
X246385049Y-77457709D01*
X246236118Y-77538711D01*
X246093864Y-77630560D01*
X245958903Y-77732825D01*
X245831852Y-77845074D01*
X245713325Y-77966877D01*
X245603938Y-78097802D01*
X245504308Y-78237418D01*
X245415048Y-78385293D01*
X245336777Y-78540997D01*
X245270108Y-78704097D01*
X245233195Y-78805473D01*
X245226121Y-78823795D01*
X245218386Y-78841718D01*
X245210005Y-78859230D01*
X245200997Y-78876319D01*
X245191379Y-78892973D01*
X245181166Y-78909179D01*
X245170378Y-78924927D01*
X245159030Y-78940204D01*
X245147139Y-78954997D01*
X245134724Y-78969296D01*
X245121801Y-78983088D01*
X245108387Y-78996361D01*
X245094499Y-79009103D01*
X245080154Y-79021302D01*
X245065370Y-79032947D01*
X245050164Y-79044025D01*
X245034552Y-79054524D01*
X245018552Y-79064433D01*
X245002180Y-79073738D01*
X244985455Y-79082430D01*
X244968393Y-79090495D01*
X244951011Y-79097921D01*
X244933327Y-79104697D01*
X244915357Y-79110810D01*
X244897118Y-79116249D01*
X244878628Y-79121002D01*
X244859904Y-79125056D01*
X244840963Y-79128400D01*
X244821822Y-79131021D01*
X244802497Y-79132909D01*
X244783008Y-79134050D01*
X244763369Y-79134433D01*
X241539996Y-79134433D01*
X241539996Y-75250087D01*
X241542599Y-75147164D01*
X241550322Y-75045593D01*
X241563040Y-74945498D01*
X241580629Y-74847006D01*
X241602961Y-74750243D01*
X241629911Y-74655333D01*
X241661354Y-74562404D01*
X241697164Y-74471579D01*
X241737215Y-74382986D01*
X241781382Y-74296749D01*
X241829539Y-74212994D01*
X241881561Y-74131847D01*
X241937321Y-74053434D01*
X241996695Y-73977880D01*
X242059555Y-73905311D01*
X242125778Y-73835852D01*
X242195237Y-73769629D01*
X242267806Y-73706769D01*
X242343360Y-73647395D01*
X242421773Y-73591635D01*
X242502920Y-73539614D01*
X242586675Y-73491457D01*
X242672912Y-73447290D01*
X242761505Y-73407238D01*
X242852330Y-73371428D01*
X242945260Y-73339985D01*
X243040169Y-73313035D01*
X243136933Y-73290703D01*
X243235425Y-73273115D01*
X243335519Y-73260396D01*
X243437091Y-73252673D01*
X243540014Y-73250071D01*
X252527035Y-73250071D01*
X252527035Y-76723621D01*
G37*
%TO.C,J2*%
X150058000Y-107746000D02*
X150058000Y-100126000D01*
X150058000Y-100126000D02*
X144978000Y-100126000D01*
X144978000Y-107746000D02*
X150058000Y-107746000D01*
X144978000Y-100126000D02*
X144978000Y-107746000D01*
%TO.C,SW2*%
G36*
X75690035Y-76869621D02*
G01*
X75689421Y-76894423D01*
X75687589Y-76919055D01*
X75684558Y-76943476D01*
X75680342Y-76967646D01*
X75674961Y-76991524D01*
X75668429Y-77015069D01*
X75660765Y-77038240D01*
X75651985Y-77060996D01*
X75642107Y-77083297D01*
X75631146Y-77105101D01*
X75619120Y-77126367D01*
X75606046Y-77147056D01*
X75591941Y-77167125D01*
X75576821Y-77186535D01*
X75560704Y-77205244D01*
X75543606Y-77223211D01*
X75525638Y-77240309D01*
X75506929Y-77256427D01*
X75487520Y-77271547D01*
X75467450Y-77285653D01*
X75446761Y-77298727D01*
X75425495Y-77310754D01*
X75403691Y-77321715D01*
X75381390Y-77331593D01*
X75358634Y-77340373D01*
X75335463Y-77348038D01*
X75311918Y-77354569D01*
X75288041Y-77359951D01*
X75263871Y-77364166D01*
X75239449Y-77367198D01*
X75214817Y-77369029D01*
X75190016Y-77369644D01*
X70547392Y-77369644D01*
X70371324Y-77376505D01*
X70198239Y-77396801D01*
X70028753Y-77430101D01*
X69863483Y-77475973D01*
X69703043Y-77533986D01*
X69548049Y-77603709D01*
X69399118Y-77684711D01*
X69256864Y-77776560D01*
X69121903Y-77878825D01*
X68994852Y-77991074D01*
X68876325Y-78112877D01*
X68766938Y-78243802D01*
X68667308Y-78383418D01*
X68578048Y-78531293D01*
X68499777Y-78686997D01*
X68433108Y-78850097D01*
X68396195Y-78951473D01*
X68389121Y-78969795D01*
X68381386Y-78987718D01*
X68373005Y-79005230D01*
X68363997Y-79022319D01*
X68354379Y-79038973D01*
X68344166Y-79055179D01*
X68333378Y-79070927D01*
X68322030Y-79086204D01*
X68310139Y-79100997D01*
X68297724Y-79115296D01*
X68284801Y-79129088D01*
X68271387Y-79142361D01*
X68257499Y-79155103D01*
X68243154Y-79167302D01*
X68228370Y-79178947D01*
X68213164Y-79190025D01*
X68197552Y-79200524D01*
X68181552Y-79210433D01*
X68165180Y-79219738D01*
X68148455Y-79228430D01*
X68131393Y-79236495D01*
X68114011Y-79243921D01*
X68096327Y-79250697D01*
X68078357Y-79256810D01*
X68060118Y-79262249D01*
X68041628Y-79267002D01*
X68022904Y-79271056D01*
X68003963Y-79274400D01*
X67984822Y-79277021D01*
X67965497Y-79278909D01*
X67946008Y-79280050D01*
X67926369Y-79280433D01*
X64702996Y-79280433D01*
X64702996Y-75396087D01*
X64705599Y-75293164D01*
X64713322Y-75191593D01*
X64726040Y-75091498D01*
X64743629Y-74993006D01*
X64765961Y-74896243D01*
X64792911Y-74801333D01*
X64824354Y-74708404D01*
X64860164Y-74617579D01*
X64900215Y-74528986D01*
X64944382Y-74442749D01*
X64992539Y-74358994D01*
X65044561Y-74277847D01*
X65100321Y-74199434D01*
X65159695Y-74123880D01*
X65222555Y-74051311D01*
X65288778Y-73981852D01*
X65358237Y-73915629D01*
X65430806Y-73852769D01*
X65506360Y-73793395D01*
X65584773Y-73737635D01*
X65665920Y-73685614D01*
X65749675Y-73637457D01*
X65835912Y-73593290D01*
X65924505Y-73553238D01*
X66015330Y-73517428D01*
X66108260Y-73485985D01*
X66203169Y-73459035D01*
X66299933Y-73436703D01*
X66398425Y-73419115D01*
X66498519Y-73406396D01*
X66600091Y-73398673D01*
X66703014Y-73396071D01*
X75690035Y-73396071D01*
X75690035Y-76869621D01*
G37*
%TO.C,SW3*%
G36*
X94690035Y-74494621D02*
G01*
X94689421Y-74519423D01*
X94687589Y-74544055D01*
X94684558Y-74568476D01*
X94680342Y-74592646D01*
X94674961Y-74616524D01*
X94668429Y-74640069D01*
X94660765Y-74663240D01*
X94651985Y-74685996D01*
X94642107Y-74708297D01*
X94631146Y-74730101D01*
X94619120Y-74751367D01*
X94606046Y-74772056D01*
X94591941Y-74792125D01*
X94576821Y-74811535D01*
X94560704Y-74830244D01*
X94543606Y-74848211D01*
X94525638Y-74865309D01*
X94506929Y-74881427D01*
X94487520Y-74896547D01*
X94467450Y-74910653D01*
X94446761Y-74923727D01*
X94425495Y-74935754D01*
X94403691Y-74946715D01*
X94381390Y-74956593D01*
X94358634Y-74965373D01*
X94335463Y-74973038D01*
X94311918Y-74979569D01*
X94288041Y-74984951D01*
X94263871Y-74989166D01*
X94239449Y-74992198D01*
X94214817Y-74994029D01*
X94190016Y-74994644D01*
X89547392Y-74994644D01*
X89371324Y-75001505D01*
X89198239Y-75021801D01*
X89028753Y-75055101D01*
X88863483Y-75100973D01*
X88703043Y-75158986D01*
X88548049Y-75228709D01*
X88399118Y-75309711D01*
X88256864Y-75401560D01*
X88121903Y-75503825D01*
X87994852Y-75616074D01*
X87876325Y-75737877D01*
X87766938Y-75868802D01*
X87667308Y-76008418D01*
X87578048Y-76156293D01*
X87499777Y-76311997D01*
X87433108Y-76475097D01*
X87396195Y-76576473D01*
X87389121Y-76594795D01*
X87381386Y-76612718D01*
X87373005Y-76630230D01*
X87363997Y-76647319D01*
X87354379Y-76663973D01*
X87344166Y-76680179D01*
X87333378Y-76695927D01*
X87322030Y-76711204D01*
X87310139Y-76725997D01*
X87297724Y-76740296D01*
X87284801Y-76754088D01*
X87271387Y-76767361D01*
X87257499Y-76780103D01*
X87243154Y-76792302D01*
X87228370Y-76803947D01*
X87213164Y-76815025D01*
X87197552Y-76825524D01*
X87181552Y-76835433D01*
X87165180Y-76844738D01*
X87148455Y-76853430D01*
X87131393Y-76861495D01*
X87114011Y-76868921D01*
X87096327Y-76875697D01*
X87078357Y-76881810D01*
X87060118Y-76887249D01*
X87041628Y-76892002D01*
X87022904Y-76896056D01*
X87003963Y-76899400D01*
X86984822Y-76902021D01*
X86965497Y-76903909D01*
X86946008Y-76905050D01*
X86926369Y-76905433D01*
X83702996Y-76905433D01*
X83702996Y-73021087D01*
X83705599Y-72918164D01*
X83713322Y-72816593D01*
X83726040Y-72716498D01*
X83743629Y-72618006D01*
X83765961Y-72521243D01*
X83792911Y-72426333D01*
X83824354Y-72333404D01*
X83860164Y-72242579D01*
X83900215Y-72153986D01*
X83944382Y-72067749D01*
X83992539Y-71983994D01*
X84044561Y-71902847D01*
X84100321Y-71824434D01*
X84159695Y-71748880D01*
X84222555Y-71676311D01*
X84288778Y-71606852D01*
X84358237Y-71540629D01*
X84430806Y-71477769D01*
X84506360Y-71418395D01*
X84584773Y-71362635D01*
X84665920Y-71310614D01*
X84749675Y-71262457D01*
X84835912Y-71218290D01*
X84924505Y-71178238D01*
X85015330Y-71142428D01*
X85108260Y-71110985D01*
X85203169Y-71084035D01*
X85299933Y-71061703D01*
X85398425Y-71044115D01*
X85498519Y-71031396D01*
X85600091Y-71023673D01*
X85703014Y-71021071D01*
X94690035Y-71021071D01*
X94690035Y-74494621D01*
G37*
%TO.C,SW7*%
G36*
X214527035Y-76723621D02*
G01*
X214526421Y-76748423D01*
X214524589Y-76773055D01*
X214521558Y-76797476D01*
X214517342Y-76821646D01*
X214511961Y-76845524D01*
X214505429Y-76869069D01*
X214497765Y-76892240D01*
X214488985Y-76914996D01*
X214479107Y-76937297D01*
X214468146Y-76959101D01*
X214456120Y-76980367D01*
X214443046Y-77001056D01*
X214428941Y-77021125D01*
X214413821Y-77040535D01*
X214397704Y-77059244D01*
X214380606Y-77077211D01*
X214362638Y-77094309D01*
X214343929Y-77110427D01*
X214324520Y-77125547D01*
X214304450Y-77139653D01*
X214283761Y-77152727D01*
X214262495Y-77164754D01*
X214240691Y-77175715D01*
X214218390Y-77185593D01*
X214195634Y-77194373D01*
X214172463Y-77202038D01*
X214148918Y-77208569D01*
X214125041Y-77213951D01*
X214100871Y-77218166D01*
X214076449Y-77221198D01*
X214051817Y-77223029D01*
X214027016Y-77223644D01*
X209384392Y-77223644D01*
X209208324Y-77230505D01*
X209035239Y-77250801D01*
X208865753Y-77284101D01*
X208700483Y-77329973D01*
X208540043Y-77387986D01*
X208385049Y-77457709D01*
X208236118Y-77538711D01*
X208093864Y-77630560D01*
X207958903Y-77732825D01*
X207831852Y-77845074D01*
X207713325Y-77966877D01*
X207603938Y-78097802D01*
X207504308Y-78237418D01*
X207415048Y-78385293D01*
X207336777Y-78540997D01*
X207270108Y-78704097D01*
X207233195Y-78805473D01*
X207226121Y-78823795D01*
X207218386Y-78841718D01*
X207210005Y-78859230D01*
X207200997Y-78876319D01*
X207191379Y-78892973D01*
X207181166Y-78909179D01*
X207170378Y-78924927D01*
X207159030Y-78940204D01*
X207147139Y-78954997D01*
X207134724Y-78969296D01*
X207121801Y-78983088D01*
X207108387Y-78996361D01*
X207094499Y-79009103D01*
X207080154Y-79021302D01*
X207065370Y-79032947D01*
X207050164Y-79044025D01*
X207034552Y-79054524D01*
X207018552Y-79064433D01*
X207002180Y-79073738D01*
X206985455Y-79082430D01*
X206968393Y-79090495D01*
X206951011Y-79097921D01*
X206933327Y-79104697D01*
X206915357Y-79110810D01*
X206897118Y-79116249D01*
X206878628Y-79121002D01*
X206859904Y-79125056D01*
X206840963Y-79128400D01*
X206821822Y-79131021D01*
X206802497Y-79132909D01*
X206783008Y-79134050D01*
X206763369Y-79134433D01*
X203539996Y-79134433D01*
X203539996Y-75250087D01*
X203542599Y-75147164D01*
X203550322Y-75045593D01*
X203563040Y-74945498D01*
X203580629Y-74847006D01*
X203602961Y-74750243D01*
X203629911Y-74655333D01*
X203661354Y-74562404D01*
X203697164Y-74471579D01*
X203737215Y-74382986D01*
X203781382Y-74296749D01*
X203829539Y-74212994D01*
X203881561Y-74131847D01*
X203937321Y-74053434D01*
X203996695Y-73977880D01*
X204059555Y-73905311D01*
X204125778Y-73835852D01*
X204195237Y-73769629D01*
X204267806Y-73706769D01*
X204343360Y-73647395D01*
X204421773Y-73591635D01*
X204502920Y-73539614D01*
X204586675Y-73491457D01*
X204672912Y-73447290D01*
X204761505Y-73407238D01*
X204852330Y-73371428D01*
X204945260Y-73339985D01*
X205040169Y-73313035D01*
X205136933Y-73290703D01*
X205235425Y-73273115D01*
X205335519Y-73260396D01*
X205437091Y-73252673D01*
X205540014Y-73250071D01*
X214527035Y-73250071D01*
X214527035Y-76723621D01*
G37*
%TO.C,SW1*%
G36*
X56690035Y-100619621D02*
G01*
X56689421Y-100644423D01*
X56687589Y-100669055D01*
X56684558Y-100693476D01*
X56680342Y-100717646D01*
X56674961Y-100741524D01*
X56668429Y-100765069D01*
X56660765Y-100788240D01*
X56651985Y-100810996D01*
X56642107Y-100833297D01*
X56631146Y-100855101D01*
X56619120Y-100876367D01*
X56606046Y-100897056D01*
X56591941Y-100917125D01*
X56576821Y-100936535D01*
X56560704Y-100955244D01*
X56543606Y-100973211D01*
X56525638Y-100990309D01*
X56506929Y-101006427D01*
X56487520Y-101021547D01*
X56467450Y-101035653D01*
X56446761Y-101048727D01*
X56425495Y-101060754D01*
X56403691Y-101071715D01*
X56381390Y-101081593D01*
X56358634Y-101090373D01*
X56335463Y-101098038D01*
X56311918Y-101104569D01*
X56288041Y-101109951D01*
X56263871Y-101114166D01*
X56239449Y-101117198D01*
X56214817Y-101119029D01*
X56190016Y-101119644D01*
X51547392Y-101119644D01*
X51371324Y-101126505D01*
X51198239Y-101146801D01*
X51028753Y-101180101D01*
X50863483Y-101225973D01*
X50703043Y-101283986D01*
X50548049Y-101353709D01*
X50399118Y-101434711D01*
X50256864Y-101526560D01*
X50121903Y-101628825D01*
X49994852Y-101741074D01*
X49876325Y-101862877D01*
X49766938Y-101993802D01*
X49667308Y-102133418D01*
X49578048Y-102281293D01*
X49499777Y-102436997D01*
X49433108Y-102600097D01*
X49396195Y-102701473D01*
X49389121Y-102719795D01*
X49381386Y-102737718D01*
X49373005Y-102755230D01*
X49363997Y-102772319D01*
X49354379Y-102788973D01*
X49344166Y-102805179D01*
X49333378Y-102820927D01*
X49322030Y-102836204D01*
X49310139Y-102850997D01*
X49297724Y-102865296D01*
X49284801Y-102879088D01*
X49271387Y-102892361D01*
X49257499Y-102905103D01*
X49243154Y-102917302D01*
X49228370Y-102928947D01*
X49213164Y-102940025D01*
X49197552Y-102950524D01*
X49181552Y-102960433D01*
X49165180Y-102969738D01*
X49148455Y-102978430D01*
X49131393Y-102986495D01*
X49114011Y-102993921D01*
X49096327Y-103000697D01*
X49078357Y-103006810D01*
X49060118Y-103012249D01*
X49041628Y-103017002D01*
X49022904Y-103021056D01*
X49003963Y-103024400D01*
X48984822Y-103027021D01*
X48965497Y-103028909D01*
X48946008Y-103030050D01*
X48926369Y-103030433D01*
X45702996Y-103030433D01*
X45702996Y-99146087D01*
X45705599Y-99043164D01*
X45713322Y-98941593D01*
X45726040Y-98841498D01*
X45743629Y-98743006D01*
X45765961Y-98646243D01*
X45792911Y-98551333D01*
X45824354Y-98458404D01*
X45860164Y-98367579D01*
X45900215Y-98278986D01*
X45944382Y-98192749D01*
X45992539Y-98108994D01*
X46044561Y-98027847D01*
X46100321Y-97949434D01*
X46159695Y-97873880D01*
X46222555Y-97801311D01*
X46288778Y-97731852D01*
X46358237Y-97665629D01*
X46430806Y-97602769D01*
X46506360Y-97543395D01*
X46584773Y-97487635D01*
X46665920Y-97435614D01*
X46749675Y-97387457D01*
X46835912Y-97343290D01*
X46924505Y-97303238D01*
X47015330Y-97267428D01*
X47108260Y-97235985D01*
X47203169Y-97209035D01*
X47299933Y-97186703D01*
X47398425Y-97169115D01*
X47498519Y-97156396D01*
X47600091Y-97148673D01*
X47703014Y-97146071D01*
X56690035Y-97146071D01*
X56690035Y-100619621D01*
G37*
%TO.C,SW5*%
G36*
X141432303Y-136102774D02*
G01*
X141529070Y-136107643D01*
X141625820Y-136117253D01*
X141722382Y-136131653D01*
X141818583Y-136150888D01*
X141914252Y-136175003D01*
X142009218Y-136204045D01*
X142103308Y-136238059D01*
X142196352Y-136277091D01*
X142288177Y-136321189D01*
X142378612Y-136370397D01*
X150161601Y-140863908D01*
X148424826Y-143872090D01*
X148411893Y-143893262D01*
X148397990Y-143913678D01*
X148383155Y-143933312D01*
X148367419Y-143952136D01*
X148350820Y-143970124D01*
X148333390Y-143987249D01*
X148315168Y-144003483D01*
X148296186Y-144018801D01*
X148276481Y-144033175D01*
X148256086Y-144046577D01*
X148235039Y-144058981D01*
X148213372Y-144070361D01*
X148191122Y-144080689D01*
X148168323Y-144089939D01*
X148145010Y-144098083D01*
X148121219Y-144105093D01*
X148097110Y-144110917D01*
X148072848Y-144115521D01*
X148048480Y-144118911D01*
X148024045Y-144121092D01*
X147999591Y-144122070D01*
X147975161Y-144121852D01*
X147950798Y-144120443D01*
X147926545Y-144117847D01*
X147902448Y-144114073D01*
X147878549Y-144109125D01*
X147854893Y-144103009D01*
X147831524Y-144095731D01*
X147808484Y-144087297D01*
X147785818Y-144077711D01*
X147763571Y-144066981D01*
X147741785Y-144055113D01*
X143721155Y-141733801D01*
X143565245Y-141651709D01*
X143405201Y-141582743D01*
X143241772Y-141526839D01*
X143075708Y-141483930D01*
X142907756Y-141453951D01*
X142738666Y-141436836D01*
X142569187Y-141432520D01*
X142400067Y-141440937D01*
X142232055Y-141462020D01*
X142065901Y-141495705D01*
X141902352Y-141541926D01*
X141742157Y-141600617D01*
X141586067Y-141671713D01*
X141434828Y-141755147D01*
X141289192Y-141850855D01*
X141149905Y-141958769D01*
X141067249Y-142028107D01*
X141051962Y-142040437D01*
X141036302Y-142052091D01*
X141020287Y-142063067D01*
X141003942Y-142073362D01*
X140987285Y-142082976D01*
X140970338Y-142091904D01*
X140953121Y-142100148D01*
X140935655Y-142107705D01*
X140917960Y-142114570D01*
X140900059Y-142120746D01*
X140881971Y-142126229D01*
X140863718Y-142131017D01*
X140845320Y-142135108D01*
X140826797Y-142138500D01*
X140808171Y-142141193D01*
X140789463Y-142143183D01*
X140770694Y-142144470D01*
X140751883Y-142145051D01*
X140733052Y-142144924D01*
X140714221Y-142144089D01*
X140695413Y-142142542D01*
X140676646Y-142140282D01*
X140657944Y-142137308D01*
X140639325Y-142133617D01*
X140620810Y-142129208D01*
X140602420Y-142124079D01*
X140584178Y-142118228D01*
X140566103Y-142111654D01*
X140548216Y-142104353D01*
X140530536Y-142096326D01*
X140513087Y-142087569D01*
X140495888Y-142078081D01*
X137704365Y-140466395D01*
X139646538Y-137102453D01*
X139700254Y-137014620D01*
X139757727Y-136930519D01*
X139818789Y-136850193D01*
X139883268Y-136773691D01*
X139950989Y-136701058D01*
X140021783Y-136632338D01*
X140095478Y-136567581D01*
X140171903Y-136506829D01*
X140250885Y-136450131D01*
X140332253Y-136397531D01*
X140415836Y-136349075D01*
X140501462Y-136304811D01*
X140588958Y-136264783D01*
X140678154Y-136229039D01*
X140768877Y-136197622D01*
X140860957Y-136170580D01*
X140954222Y-136147959D01*
X141048499Y-136129805D01*
X141143617Y-136116163D01*
X141239405Y-136107080D01*
X141335691Y-136102602D01*
X141432303Y-136102774D01*
G37*
%TO.C,SW6*%
G36*
X178485447Y-138849055D02*
G01*
X178497316Y-138870841D01*
X178508045Y-138893089D01*
X178517631Y-138915754D01*
X178526065Y-138938794D01*
X178533344Y-138962163D01*
X178539459Y-138985820D01*
X178544408Y-139009718D01*
X178548182Y-139033816D01*
X178550778Y-139058068D01*
X178552187Y-139082431D01*
X178552406Y-139106861D01*
X178551428Y-139131315D01*
X178549247Y-139155748D01*
X178545858Y-139180118D01*
X178541254Y-139204379D01*
X178535430Y-139228487D01*
X178528419Y-139252279D01*
X178520275Y-139275592D01*
X178511027Y-139298391D01*
X178500698Y-139320642D01*
X178489318Y-139342309D01*
X178476915Y-139363357D01*
X178463513Y-139383752D01*
X178449138Y-139403457D01*
X178433821Y-139422439D01*
X178417587Y-139440662D01*
X178400462Y-139458091D01*
X178382475Y-139474690D01*
X178363650Y-139490426D01*
X178344016Y-139505262D01*
X178323600Y-139519164D01*
X178302429Y-139532097D01*
X174281799Y-141853409D01*
X174132750Y-141947385D01*
X173993002Y-142051504D01*
X173862873Y-142165086D01*
X173742681Y-142287447D01*
X173632742Y-142417908D01*
X173533375Y-142555787D01*
X173444898Y-142700402D01*
X173367627Y-142851073D01*
X173301880Y-143007117D01*
X173247975Y-143167853D01*
X173206229Y-143332601D01*
X173176959Y-143500679D01*
X173160485Y-143671405D01*
X173157121Y-143844099D01*
X173167189Y-144018078D01*
X173191002Y-144192661D01*
X173209722Y-144298912D01*
X173212757Y-144318316D01*
X173215020Y-144337705D01*
X173216517Y-144357062D01*
X173217261Y-144376365D01*
X173217258Y-144395597D01*
X173216517Y-144414738D01*
X173215048Y-144433770D01*
X173212859Y-144452675D01*
X173209957Y-144471431D01*
X173206355Y-144490022D01*
X173202059Y-144508428D01*
X173197079Y-144526630D01*
X173191423Y-144544609D01*
X173185099Y-144562346D01*
X173178118Y-144579823D01*
X173170488Y-144597019D01*
X173162218Y-144613918D01*
X173153316Y-144630499D01*
X173143790Y-144646744D01*
X173133651Y-144662634D01*
X173122908Y-144678149D01*
X173111567Y-144693271D01*
X173099641Y-144707981D01*
X173087135Y-144722260D01*
X173074059Y-144736090D01*
X173060422Y-144749451D01*
X173046234Y-144762324D01*
X173031503Y-144774691D01*
X173016237Y-144786531D01*
X173000445Y-144797829D01*
X172984137Y-144808561D01*
X172967321Y-144818712D01*
X170175798Y-146430399D01*
X168233625Y-143066457D01*
X168184418Y-142976021D01*
X168140320Y-142884197D01*
X168101287Y-142791153D01*
X168067274Y-142697062D01*
X168038232Y-142602097D01*
X168014116Y-142506427D01*
X167994882Y-142410227D01*
X167980482Y-142313665D01*
X167970871Y-142216916D01*
X167966002Y-142120149D01*
X167965830Y-142023536D01*
X167970309Y-141927250D01*
X167979392Y-141831462D01*
X167993034Y-141736344D01*
X168011188Y-141642067D01*
X168033809Y-141548802D01*
X168060851Y-141456722D01*
X168092268Y-141365999D01*
X168128012Y-141276803D01*
X168168040Y-141189307D01*
X168212305Y-141103682D01*
X168260760Y-141020099D01*
X168313360Y-140938731D01*
X168370058Y-140859748D01*
X168430810Y-140783323D01*
X168495568Y-140709628D01*
X168564287Y-140638834D01*
X168636921Y-140571112D01*
X168713423Y-140506634D01*
X168793748Y-140445572D01*
X168877850Y-140388098D01*
X168965683Y-140334383D01*
X176748672Y-135840873D01*
X178485447Y-138849055D01*
G37*
%TO.C,SW10*%
G36*
X271527035Y-100473621D02*
G01*
X271526421Y-100498423D01*
X271524589Y-100523055D01*
X271521558Y-100547476D01*
X271517342Y-100571646D01*
X271511961Y-100595524D01*
X271505429Y-100619069D01*
X271497765Y-100642240D01*
X271488985Y-100664996D01*
X271479107Y-100687297D01*
X271468146Y-100709101D01*
X271456120Y-100730367D01*
X271443046Y-100751056D01*
X271428941Y-100771125D01*
X271413821Y-100790535D01*
X271397704Y-100809244D01*
X271380606Y-100827211D01*
X271362638Y-100844309D01*
X271343929Y-100860427D01*
X271324520Y-100875547D01*
X271304450Y-100889653D01*
X271283761Y-100902727D01*
X271262495Y-100914754D01*
X271240691Y-100925715D01*
X271218390Y-100935593D01*
X271195634Y-100944373D01*
X271172463Y-100952038D01*
X271148918Y-100958569D01*
X271125041Y-100963951D01*
X271100871Y-100968166D01*
X271076449Y-100971198D01*
X271051817Y-100973029D01*
X271027016Y-100973644D01*
X266384392Y-100973644D01*
X266208324Y-100980505D01*
X266035239Y-101000801D01*
X265865753Y-101034101D01*
X265700483Y-101079973D01*
X265540043Y-101137986D01*
X265385049Y-101207709D01*
X265236118Y-101288711D01*
X265093864Y-101380560D01*
X264958903Y-101482825D01*
X264831852Y-101595074D01*
X264713325Y-101716877D01*
X264603938Y-101847802D01*
X264504308Y-101987418D01*
X264415048Y-102135293D01*
X264336777Y-102290997D01*
X264270108Y-102454097D01*
X264233195Y-102555473D01*
X264226121Y-102573795D01*
X264218386Y-102591718D01*
X264210005Y-102609230D01*
X264200997Y-102626319D01*
X264191379Y-102642973D01*
X264181166Y-102659179D01*
X264170378Y-102674927D01*
X264159030Y-102690204D01*
X264147139Y-102704997D01*
X264134724Y-102719296D01*
X264121801Y-102733088D01*
X264108387Y-102746361D01*
X264094499Y-102759103D01*
X264080154Y-102771302D01*
X264065370Y-102782947D01*
X264050164Y-102794025D01*
X264034552Y-102804524D01*
X264018552Y-102814433D01*
X264002180Y-102823738D01*
X263985455Y-102832430D01*
X263968393Y-102840495D01*
X263951011Y-102847921D01*
X263933327Y-102854697D01*
X263915357Y-102860810D01*
X263897118Y-102866249D01*
X263878628Y-102871002D01*
X263859904Y-102875056D01*
X263840963Y-102878400D01*
X263821822Y-102881021D01*
X263802497Y-102882909D01*
X263783008Y-102884050D01*
X263763369Y-102884433D01*
X260539996Y-102884433D01*
X260539996Y-99000087D01*
X260542599Y-98897164D01*
X260550322Y-98795593D01*
X260563040Y-98695498D01*
X260580629Y-98597006D01*
X260602961Y-98500243D01*
X260629911Y-98405333D01*
X260661354Y-98312404D01*
X260697164Y-98221579D01*
X260737215Y-98132986D01*
X260781382Y-98046749D01*
X260829539Y-97962994D01*
X260881561Y-97881847D01*
X260937321Y-97803434D01*
X260996695Y-97727880D01*
X261059555Y-97655311D01*
X261125778Y-97585852D01*
X261195237Y-97519629D01*
X261267806Y-97456769D01*
X261343360Y-97397395D01*
X261421773Y-97341635D01*
X261502920Y-97289614D01*
X261586675Y-97241457D01*
X261672912Y-97197290D01*
X261761505Y-97157238D01*
X261852330Y-97121428D01*
X261945260Y-97089985D01*
X262040169Y-97063035D01*
X262136933Y-97040703D01*
X262235425Y-97023115D01*
X262335519Y-97010396D01*
X262437091Y-97002673D01*
X262540014Y-97000071D01*
X271527035Y-97000071D01*
X271527035Y-100473621D01*
G37*
%TO.C,SW4*%
G36*
X113690035Y-76869621D02*
G01*
X113689421Y-76894423D01*
X113687589Y-76919055D01*
X113684558Y-76943476D01*
X113680342Y-76967646D01*
X113674961Y-76991524D01*
X113668429Y-77015069D01*
X113660765Y-77038240D01*
X113651985Y-77060996D01*
X113642107Y-77083297D01*
X113631146Y-77105101D01*
X113619120Y-77126367D01*
X113606046Y-77147056D01*
X113591941Y-77167125D01*
X113576821Y-77186535D01*
X113560704Y-77205244D01*
X113543606Y-77223211D01*
X113525638Y-77240309D01*
X113506929Y-77256427D01*
X113487520Y-77271547D01*
X113467450Y-77285653D01*
X113446761Y-77298727D01*
X113425495Y-77310754D01*
X113403691Y-77321715D01*
X113381390Y-77331593D01*
X113358634Y-77340373D01*
X113335463Y-77348038D01*
X113311918Y-77354569D01*
X113288041Y-77359951D01*
X113263871Y-77364166D01*
X113239449Y-77367198D01*
X113214817Y-77369029D01*
X113190016Y-77369644D01*
X108547392Y-77369644D01*
X108371324Y-77376505D01*
X108198239Y-77396801D01*
X108028753Y-77430101D01*
X107863483Y-77475973D01*
X107703043Y-77533986D01*
X107548049Y-77603709D01*
X107399118Y-77684711D01*
X107256864Y-77776560D01*
X107121903Y-77878825D01*
X106994852Y-77991074D01*
X106876325Y-78112877D01*
X106766938Y-78243802D01*
X106667308Y-78383418D01*
X106578048Y-78531293D01*
X106499777Y-78686997D01*
X106433108Y-78850097D01*
X106396195Y-78951473D01*
X106389121Y-78969795D01*
X106381386Y-78987718D01*
X106373005Y-79005230D01*
X106363997Y-79022319D01*
X106354379Y-79038973D01*
X106344166Y-79055179D01*
X106333378Y-79070927D01*
X106322030Y-79086204D01*
X106310139Y-79100997D01*
X106297724Y-79115296D01*
X106284801Y-79129088D01*
X106271387Y-79142361D01*
X106257499Y-79155103D01*
X106243154Y-79167302D01*
X106228370Y-79178947D01*
X106213164Y-79190025D01*
X106197552Y-79200524D01*
X106181552Y-79210433D01*
X106165180Y-79219738D01*
X106148455Y-79228430D01*
X106131393Y-79236495D01*
X106114011Y-79243921D01*
X106096327Y-79250697D01*
X106078357Y-79256810D01*
X106060118Y-79262249D01*
X106041628Y-79267002D01*
X106022904Y-79271056D01*
X106003963Y-79274400D01*
X105984822Y-79277021D01*
X105965497Y-79278909D01*
X105946008Y-79280050D01*
X105926369Y-79280433D01*
X102702996Y-79280433D01*
X102702996Y-75396087D01*
X102705599Y-75293164D01*
X102713322Y-75191593D01*
X102726040Y-75091498D01*
X102743629Y-74993006D01*
X102765961Y-74896243D01*
X102792911Y-74801333D01*
X102824354Y-74708404D01*
X102860164Y-74617579D01*
X102900215Y-74528986D01*
X102944382Y-74442749D01*
X102992539Y-74358994D01*
X103044561Y-74277847D01*
X103100321Y-74199434D01*
X103159695Y-74123880D01*
X103222555Y-74051311D01*
X103288778Y-73981852D01*
X103358237Y-73915629D01*
X103430806Y-73852769D01*
X103506360Y-73793395D01*
X103584773Y-73737635D01*
X103665920Y-73685614D01*
X103749675Y-73637457D01*
X103835912Y-73593290D01*
X103924505Y-73553238D01*
X104015330Y-73517428D01*
X104108260Y-73485985D01*
X104203169Y-73459035D01*
X104299933Y-73436703D01*
X104398425Y-73419115D01*
X104498519Y-73406396D01*
X104600091Y-73398673D01*
X104703014Y-73396071D01*
X113690035Y-73396071D01*
X113690035Y-76869621D01*
G37*
%TD*%
D13*
%TO.C,J4*%
X172296600Y-101396000D03*
D14*
X169756600Y-101396000D03*
X172296600Y-103936000D03*
X169756600Y-103936000D03*
X172296600Y-106476000D03*
X169756600Y-106476000D03*
%TD*%
D13*
%TO.C,J2*%
X148788000Y-101396000D03*
D14*
X146248000Y-101396000D03*
X148788000Y-103936000D03*
X146248000Y-103936000D03*
X148788000Y-106476000D03*
X146248000Y-106476000D03*
%TD*%
M02*
