M48
METRIC,TZ
T1C0.450
T2C1.200
T3C1.900
T4C2.970
T5C4.100
%
G90
G05
T1
X47115Y-132163
X47115Y-75650
X47915Y-132163
X47915Y-75650
X48715Y-132163
X48715Y-75650
X49515Y-132163
X49515Y-75650
X50315Y-132163
X50315Y-75650
X51115Y-132163
X51115Y-75650
X51915Y-132163
X51915Y-75650
X52715Y-132163
X52715Y-75650
X53515Y-132163
X53515Y-75650
X126110Y-73299
X126910Y-73299
X127710Y-73299
X128510Y-73299
X129310Y-73299
X130110Y-73299
X130910Y-73299
X131710Y-73299
X132510Y-73299
X186110Y-73299
X186910Y-73299
X187710Y-73299
X188510Y-73299
X189310Y-73299
X190110Y-73299
X190910Y-73299
X191710Y-73299
X192510Y-73299
X265015Y-75649
X265016Y-132160
X265815Y-75649
X265816Y-132160
X266615Y-75649
X266616Y-132160
X267415Y-75649
X267416Y-132160
X268215Y-75649
X268216Y-132160
X269015Y-75649
X269016Y-132160
X269815Y-75649
X269816Y-132160
X270615Y-75649
X270616Y-132160
X271415Y-75649
X271416Y-132160
T2
X148490Y-124308
X155490Y-124308
X162923Y-124295
X169923Y-124295
T3
X46733Y-103896
X56893Y-103896
X65733Y-80146
X75893Y-80146
X84733Y-77771
X94893Y-77771
X103733Y-80146
X113893Y-80146
X138164Y-141731
X146962Y-146811
X171501Y-146665
X180299Y-141585
X204570Y-80000
X214730Y-80000
X223570Y-77625
X233730Y-77625
X242570Y-80000
X252730Y-80000
X261570Y-103750
X271730Y-103750
T4
X48003Y-101356
X54353Y-98816
X67003Y-77606
X73353Y-75066
X86003Y-75231
X92353Y-72691
X105003Y-77606
X111353Y-75066
X140533Y-140166
X147303Y-141142
X171330Y-143830
X175560Y-138456
X205840Y-77460
X212190Y-74920
X224840Y-75085
X231190Y-72545
X243840Y-77460
X250190Y-74920
X262840Y-101210
X269190Y-98670
T5
X51813Y-103896
X70813Y-80146
X89813Y-77771
X108813Y-80146
X142563Y-144271
X175900Y-144125
X209650Y-80000
X228650Y-77625
X247650Y-80000
X266650Y-103750
T0
M30
