%TF.GenerationSoftware,KiCad,Pcbnew,7.0.2*%
%TF.CreationDate,2023-10-11T00:11:02+09:00*%
%TF.ProjectId,_______,4b80adfc-dcfc-4c92-9e6b-696361645f70,rev?*%
%TF.SameCoordinates,Original*%
%TF.FileFunction,Paste,Bot*%
%TF.FilePolarity,Positive*%
%FSLAX46Y46*%
G04 Gerber Fmt 4.6, Leading zero omitted, Abs format (unit mm)*
G04 Created by KiCad (PCBNEW 7.0.2) date 2023-10-11 00:11:02*
%MOMM*%
%LPD*%
G01*
G04 APERTURE LIST*
G04 Aperture macros list*
%AMRoundRect*
0 Rectangle with rounded corners*
0 $1 Rounding radius*
0 $2 $3 $4 $5 $6 $7 $8 $9 X,Y pos of 4 corners*
0 Add a 4 corners polygon primitive as box body*
4,1,4,$2,$3,$4,$5,$6,$7,$8,$9,$2,$3,0*
0 Add four circle primitives for the rounded corners*
1,1,$1+$1,$2,$3*
1,1,$1+$1,$4,$5*
1,1,$1+$1,$6,$7*
1,1,$1+$1,$8,$9*
0 Add four rect primitives between the rounded corners*
20,1,$1+$1,$2,$3,$4,$5,0*
20,1,$1+$1,$4,$5,$6,$7,0*
20,1,$1+$1,$6,$7,$8,$9,0*
20,1,$1+$1,$8,$9,$2,$3,0*%
G04 Aperture macros list end*
%ADD10C,1.000000*%
%ADD11RoundRect,0.250000X1.025000X1.000000X-1.025000X1.000000X-1.025000X-1.000000X1.025000X-1.000000X0*%
%ADD12RoundRect,0.250000X-1.025000X-1.000000X1.025000X-1.000000X1.025000X1.000000X-1.025000X1.000000X0*%
%ADD13RoundRect,0.250000X1.387676X0.353525X-0.387676X1.378525X-1.387676X-0.353525X0.387676X-1.378525X0*%
%ADD14RoundRect,0.250000X-1.387676X-0.353525X0.387676X-1.378525X1.387676X0.353525X-0.387676X1.378525X0*%
%ADD15RoundRect,0.250000X0.387676X1.378525X-1.387676X0.353525X-0.387676X-1.378525X1.387676X-0.353525X0*%
%ADD16RoundRect,0.250000X-0.387676X-1.378525X1.387676X-0.353525X0.387676X1.378525X-1.387676X0.353525X0*%
G04 APERTURE END LIST*
D10*
%TO.C,SW8*%
X220015000Y-75085000D03*
D11*
X221265000Y-75085000D03*
D12*
X234765000Y-72545000D03*
D10*
X236040000Y-72545000D03*
%TD*%
%TO.C,SW9*%
X239015000Y-77460000D03*
D11*
X240265000Y-77460000D03*
D12*
X253765000Y-74920000D03*
D10*
X255040000Y-74920000D03*
%TD*%
%TO.C,SW2*%
X62178000Y-77606000D03*
D11*
X63428000Y-77606000D03*
D12*
X76928000Y-75066000D03*
D10*
X78203000Y-75066000D03*
%TD*%
%TO.C,SW3*%
X81178000Y-75231000D03*
D11*
X82428000Y-75231000D03*
D12*
X95928000Y-72691000D03*
D10*
X97203000Y-72691000D03*
%TD*%
%TO.C,SW7*%
X201015000Y-77460000D03*
D11*
X202265000Y-77460000D03*
D12*
X215765000Y-74920000D03*
D10*
X217040000Y-74920000D03*
%TD*%
%TO.C,SW1*%
X43178000Y-101356000D03*
D11*
X44428000Y-101356000D03*
D12*
X57928000Y-98816000D03*
D10*
X59203000Y-98816000D03*
%TD*%
%TO.C,SW5*%
X136354871Y-137753795D03*
D13*
X137437402Y-138378795D03*
D14*
X150398745Y-142929091D03*
D10*
X151502928Y-143566591D03*
%TD*%
%TO.C,SW6*%
X167151871Y-146242795D03*
D15*
X168234402Y-145617795D03*
D16*
X178655745Y-136668091D03*
D10*
X179759928Y-136030591D03*
%TD*%
%TO.C,SW10*%
X258015000Y-101210000D03*
D11*
X259265000Y-101210000D03*
D12*
X272765000Y-98670000D03*
D10*
X274040000Y-98670000D03*
%TD*%
%TO.C,SW4*%
X100178000Y-77606000D03*
D11*
X101428000Y-77606000D03*
D12*
X114928000Y-75066000D03*
D10*
X116203000Y-75066000D03*
%TD*%
M02*
