%TF.GenerationSoftware,KiCad,Pcbnew,7.0.2*%
%TF.CreationDate,2023-10-11T00:11:02+09:00*%
%TF.ProjectId,_______,4b80adfc-dcfc-4c92-9e6b-696361645f70,rev?*%
%TF.SameCoordinates,Original*%
%TF.FileFunction,Legend,Top*%
%TF.FilePolarity,Positive*%
%FSLAX46Y46*%
G04 Gerber Fmt 4.6, Leading zero omitted, Abs format (unit mm)*
G04 Created by KiCad (PCBNEW 7.0.2) date 2023-10-11 00:11:02*
%MOMM*%
%LPD*%
G01*
G04 APERTURE LIST*
%ADD10C,0.150000*%
%ADD11C,0.160000*%
%ADD12C,0.120000*%
%ADD13C,0.100000*%
%ADD14C,0.200000*%
%ADD15C,1.524000*%
%ADD16C,1.397000*%
G04 APERTURE END LIST*
D10*
X173731905Y-125014619D02*
X173731905Y-124014619D01*
X173731905Y-124014619D02*
X173970000Y-124014619D01*
X173970000Y-124014619D02*
X174112857Y-124062238D01*
X174112857Y-124062238D02*
X174208095Y-124157476D01*
X174208095Y-124157476D02*
X174255714Y-124252714D01*
X174255714Y-124252714D02*
X174303333Y-124443190D01*
X174303333Y-124443190D02*
X174303333Y-124586047D01*
X174303333Y-124586047D02*
X174255714Y-124776523D01*
X174255714Y-124776523D02*
X174208095Y-124871761D01*
X174208095Y-124871761D02*
X174112857Y-124967000D01*
X174112857Y-124967000D02*
X173970000Y-125014619D01*
X173970000Y-125014619D02*
X173731905Y-125014619D01*
X174684286Y-124109857D02*
X174731905Y-124062238D01*
X174731905Y-124062238D02*
X174827143Y-124014619D01*
X174827143Y-124014619D02*
X175065238Y-124014619D01*
X175065238Y-124014619D02*
X175160476Y-124062238D01*
X175160476Y-124062238D02*
X175208095Y-124109857D01*
X175208095Y-124109857D02*
X175255714Y-124205095D01*
X175255714Y-124205095D02*
X175255714Y-124300333D01*
X175255714Y-124300333D02*
X175208095Y-124443190D01*
X175208095Y-124443190D02*
X174636667Y-125014619D01*
X174636667Y-125014619D02*
X175255714Y-125014619D01*
X142743905Y-124252619D02*
X142743905Y-123252619D01*
X142743905Y-123252619D02*
X142982000Y-123252619D01*
X142982000Y-123252619D02*
X143124857Y-123300238D01*
X143124857Y-123300238D02*
X143220095Y-123395476D01*
X143220095Y-123395476D02*
X143267714Y-123490714D01*
X143267714Y-123490714D02*
X143315333Y-123681190D01*
X143315333Y-123681190D02*
X143315333Y-123824047D01*
X143315333Y-123824047D02*
X143267714Y-124014523D01*
X143267714Y-124014523D02*
X143220095Y-124109761D01*
X143220095Y-124109761D02*
X143124857Y-124205000D01*
X143124857Y-124205000D02*
X142982000Y-124252619D01*
X142982000Y-124252619D02*
X142743905Y-124252619D01*
X143696286Y-123347857D02*
X143743905Y-123300238D01*
X143743905Y-123300238D02*
X143839143Y-123252619D01*
X143839143Y-123252619D02*
X144077238Y-123252619D01*
X144077238Y-123252619D02*
X144172476Y-123300238D01*
X144172476Y-123300238D02*
X144220095Y-123347857D01*
X144220095Y-123347857D02*
X144267714Y-123443095D01*
X144267714Y-123443095D02*
X144267714Y-123538333D01*
X144267714Y-123538333D02*
X144220095Y-123681190D01*
X144220095Y-123681190D02*
X143648667Y-124252619D01*
X143648667Y-124252619D02*
X144267714Y-124252619D01*
%TO.C,*%
D11*
%TO.C,U2*%
X168607552Y-95508619D02*
X168607552Y-94508619D01*
X168607552Y-94508619D02*
X168912314Y-94508619D01*
X168912314Y-94508619D02*
X168988504Y-94556238D01*
X168988504Y-94556238D02*
X169026599Y-94603857D01*
X169026599Y-94603857D02*
X169064695Y-94699095D01*
X169064695Y-94699095D02*
X169064695Y-94841952D01*
X169064695Y-94841952D02*
X169026599Y-94937190D01*
X169026599Y-94937190D02*
X168988504Y-94984809D01*
X168988504Y-94984809D02*
X168912314Y-95032428D01*
X168912314Y-95032428D02*
X168607552Y-95032428D01*
X169407552Y-95508619D02*
X169407552Y-94841952D01*
X169407552Y-95032428D02*
X169445647Y-94937190D01*
X169445647Y-94937190D02*
X169483742Y-94889571D01*
X169483742Y-94889571D02*
X169559933Y-94841952D01*
X169559933Y-94841952D02*
X169636123Y-94841952D01*
X170017075Y-95508619D02*
X169940885Y-95461000D01*
X169940885Y-95461000D02*
X169902790Y-95413380D01*
X169902790Y-95413380D02*
X169864694Y-95318142D01*
X169864694Y-95318142D02*
X169864694Y-95032428D01*
X169864694Y-95032428D02*
X169902790Y-94937190D01*
X169902790Y-94937190D02*
X169940885Y-94889571D01*
X169940885Y-94889571D02*
X170017075Y-94841952D01*
X170017075Y-94841952D02*
X170131361Y-94841952D01*
X170131361Y-94841952D02*
X170207552Y-94889571D01*
X170207552Y-94889571D02*
X170245647Y-94937190D01*
X170245647Y-94937190D02*
X170283742Y-95032428D01*
X170283742Y-95032428D02*
X170283742Y-95318142D01*
X170283742Y-95318142D02*
X170245647Y-95413380D01*
X170245647Y-95413380D02*
X170207552Y-95461000D01*
X170207552Y-95461000D02*
X170131361Y-95508619D01*
X170131361Y-95508619D02*
X170017075Y-95508619D01*
X170626600Y-95508619D02*
X170626600Y-94508619D01*
X170626600Y-94508619D02*
X170893266Y-95222904D01*
X170893266Y-95222904D02*
X171159933Y-94508619D01*
X171159933Y-94508619D02*
X171159933Y-95508619D01*
X171540886Y-95508619D02*
X171540886Y-94841952D01*
X171540886Y-94508619D02*
X171502790Y-94556238D01*
X171502790Y-94556238D02*
X171540886Y-94603857D01*
X171540886Y-94603857D02*
X171578981Y-94556238D01*
X171578981Y-94556238D02*
X171540886Y-94508619D01*
X171540886Y-94508619D02*
X171540886Y-94603857D01*
X172264695Y-95461000D02*
X172188504Y-95508619D01*
X172188504Y-95508619D02*
X172036123Y-95508619D01*
X172036123Y-95508619D02*
X171959933Y-95461000D01*
X171959933Y-95461000D02*
X171921838Y-95413380D01*
X171921838Y-95413380D02*
X171883742Y-95318142D01*
X171883742Y-95318142D02*
X171883742Y-95032428D01*
X171883742Y-95032428D02*
X171921838Y-94937190D01*
X171921838Y-94937190D02*
X171959933Y-94889571D01*
X171959933Y-94889571D02*
X172036123Y-94841952D01*
X172036123Y-94841952D02*
X172188504Y-94841952D01*
X172188504Y-94841952D02*
X172264695Y-94889571D01*
X172607552Y-95508619D02*
X172607552Y-94841952D01*
X172607552Y-95032428D02*
X172645647Y-94937190D01*
X172645647Y-94937190D02*
X172683742Y-94889571D01*
X172683742Y-94889571D02*
X172759933Y-94841952D01*
X172759933Y-94841952D02*
X172836123Y-94841952D01*
X173217075Y-95508619D02*
X173140885Y-95461000D01*
X173140885Y-95461000D02*
X173102790Y-95413380D01*
X173102790Y-95413380D02*
X173064694Y-95318142D01*
X173064694Y-95318142D02*
X173064694Y-95032428D01*
X173064694Y-95032428D02*
X173102790Y-94937190D01*
X173102790Y-94937190D02*
X173140885Y-94889571D01*
X173140885Y-94889571D02*
X173217075Y-94841952D01*
X173217075Y-94841952D02*
X173331361Y-94841952D01*
X173331361Y-94841952D02*
X173407552Y-94889571D01*
X173407552Y-94889571D02*
X173445647Y-94937190D01*
X173445647Y-94937190D02*
X173483742Y-95032428D01*
X173483742Y-95032428D02*
X173483742Y-95318142D01*
X173483742Y-95318142D02*
X173445647Y-95413380D01*
X173445647Y-95413380D02*
X173407552Y-95461000D01*
X173407552Y-95461000D02*
X173331361Y-95508619D01*
X173331361Y-95508619D02*
X173217075Y-95508619D01*
D12*
X164997428Y-87306964D02*
X164797428Y-86949821D01*
X164654571Y-87306964D02*
X164654571Y-86556964D01*
X164654571Y-86556964D02*
X164883142Y-86556964D01*
X164883142Y-86556964D02*
X164940285Y-86592678D01*
X164940285Y-86592678D02*
X164968856Y-86628392D01*
X164968856Y-86628392D02*
X164997428Y-86699821D01*
X164997428Y-86699821D02*
X164997428Y-86806964D01*
X164997428Y-86806964D02*
X164968856Y-86878392D01*
X164968856Y-86878392D02*
X164940285Y-86914107D01*
X164940285Y-86914107D02*
X164883142Y-86949821D01*
X164883142Y-86949821D02*
X164654571Y-86949821D01*
X165225999Y-87271250D02*
X165311714Y-87306964D01*
X165311714Y-87306964D02*
X165454571Y-87306964D01*
X165454571Y-87306964D02*
X165511714Y-87271250D01*
X165511714Y-87271250D02*
X165540285Y-87235535D01*
X165540285Y-87235535D02*
X165568856Y-87164107D01*
X165568856Y-87164107D02*
X165568856Y-87092678D01*
X165568856Y-87092678D02*
X165540285Y-87021250D01*
X165540285Y-87021250D02*
X165511714Y-86985535D01*
X165511714Y-86985535D02*
X165454571Y-86949821D01*
X165454571Y-86949821D02*
X165340285Y-86914107D01*
X165340285Y-86914107D02*
X165283142Y-86878392D01*
X165283142Y-86878392D02*
X165254571Y-86842678D01*
X165254571Y-86842678D02*
X165225999Y-86771250D01*
X165225999Y-86771250D02*
X165225999Y-86699821D01*
X165225999Y-86699821D02*
X165254571Y-86628392D01*
X165254571Y-86628392D02*
X165283142Y-86592678D01*
X165283142Y-86592678D02*
X165340285Y-86556964D01*
X165340285Y-86556964D02*
X165483142Y-86556964D01*
X165483142Y-86556964D02*
X165568856Y-86592678D01*
X165740285Y-86556964D02*
X166083143Y-86556964D01*
X165911714Y-87306964D02*
X165911714Y-86556964D01*
X175048028Y-91547250D02*
X175133743Y-91582964D01*
X175133743Y-91582964D02*
X175276600Y-91582964D01*
X175276600Y-91582964D02*
X175333743Y-91547250D01*
X175333743Y-91547250D02*
X175362314Y-91511535D01*
X175362314Y-91511535D02*
X175390885Y-91440107D01*
X175390885Y-91440107D02*
X175390885Y-91368678D01*
X175390885Y-91368678D02*
X175362314Y-91297250D01*
X175362314Y-91297250D02*
X175333743Y-91261535D01*
X175333743Y-91261535D02*
X175276600Y-91225821D01*
X175276600Y-91225821D02*
X175162314Y-91190107D01*
X175162314Y-91190107D02*
X175105171Y-91154392D01*
X175105171Y-91154392D02*
X175076600Y-91118678D01*
X175076600Y-91118678D02*
X175048028Y-91047250D01*
X175048028Y-91047250D02*
X175048028Y-90975821D01*
X175048028Y-90975821D02*
X175076600Y-90904392D01*
X175076600Y-90904392D02*
X175105171Y-90868678D01*
X175105171Y-90868678D02*
X175162314Y-90832964D01*
X175162314Y-90832964D02*
X175305171Y-90832964D01*
X175305171Y-90832964D02*
X175390885Y-90868678D01*
X175648029Y-91582964D02*
X175648029Y-90832964D01*
X175648029Y-90832964D02*
X175790886Y-90832964D01*
X175790886Y-90832964D02*
X175876600Y-90868678D01*
X175876600Y-90868678D02*
X175933743Y-90940107D01*
X175933743Y-90940107D02*
X175962314Y-91011535D01*
X175962314Y-91011535D02*
X175990886Y-91154392D01*
X175990886Y-91154392D02*
X175990886Y-91261535D01*
X175990886Y-91261535D02*
X175962314Y-91404392D01*
X175962314Y-91404392D02*
X175933743Y-91475821D01*
X175933743Y-91475821D02*
X175876600Y-91547250D01*
X175876600Y-91547250D02*
X175790886Y-91582964D01*
X175790886Y-91582964D02*
X175648029Y-91582964D01*
X176219457Y-91368678D02*
X176505172Y-91368678D01*
X176162314Y-91582964D02*
X176362314Y-90832964D01*
X176362314Y-90832964D02*
X176562314Y-91582964D01*
D11*
X168055170Y-78492809D02*
X168169456Y-78540428D01*
X168169456Y-78540428D02*
X168207551Y-78588047D01*
X168207551Y-78588047D02*
X168245647Y-78683285D01*
X168245647Y-78683285D02*
X168245647Y-78826142D01*
X168245647Y-78826142D02*
X168207551Y-78921380D01*
X168207551Y-78921380D02*
X168169456Y-78969000D01*
X168169456Y-78969000D02*
X168093266Y-79016619D01*
X168093266Y-79016619D02*
X167788504Y-79016619D01*
X167788504Y-79016619D02*
X167788504Y-78016619D01*
X167788504Y-78016619D02*
X168055170Y-78016619D01*
X168055170Y-78016619D02*
X168131361Y-78064238D01*
X168131361Y-78064238D02*
X168169456Y-78111857D01*
X168169456Y-78111857D02*
X168207551Y-78207095D01*
X168207551Y-78207095D02*
X168207551Y-78302333D01*
X168207551Y-78302333D02*
X168169456Y-78397571D01*
X168169456Y-78397571D02*
X168131361Y-78445190D01*
X168131361Y-78445190D02*
X168055170Y-78492809D01*
X168055170Y-78492809D02*
X167788504Y-78492809D01*
X168588504Y-79016619D02*
X168588504Y-78016619D01*
X168588504Y-78016619D02*
X168855170Y-78730904D01*
X168855170Y-78730904D02*
X169121837Y-78016619D01*
X169121837Y-78016619D02*
X169121837Y-79016619D01*
X169502790Y-79016619D02*
X169502790Y-78016619D01*
X169502790Y-78016619D02*
X169807552Y-78016619D01*
X169807552Y-78016619D02*
X169883742Y-78064238D01*
X169883742Y-78064238D02*
X169921837Y-78111857D01*
X169921837Y-78111857D02*
X169959933Y-78207095D01*
X169959933Y-78207095D02*
X169959933Y-78349952D01*
X169959933Y-78349952D02*
X169921837Y-78445190D01*
X169921837Y-78445190D02*
X169883742Y-78492809D01*
X169883742Y-78492809D02*
X169807552Y-78540428D01*
X169807552Y-78540428D02*
X169502790Y-78540428D01*
X171026599Y-79016619D02*
X170950409Y-78969000D01*
X170950409Y-78969000D02*
X170912314Y-78921380D01*
X170912314Y-78921380D02*
X170874218Y-78826142D01*
X170874218Y-78826142D02*
X170874218Y-78540428D01*
X170874218Y-78540428D02*
X170912314Y-78445190D01*
X170912314Y-78445190D02*
X170950409Y-78397571D01*
X170950409Y-78397571D02*
X171026599Y-78349952D01*
X171026599Y-78349952D02*
X171140885Y-78349952D01*
X171140885Y-78349952D02*
X171217076Y-78397571D01*
X171217076Y-78397571D02*
X171255171Y-78445190D01*
X171255171Y-78445190D02*
X171293266Y-78540428D01*
X171293266Y-78540428D02*
X171293266Y-78826142D01*
X171293266Y-78826142D02*
X171255171Y-78921380D01*
X171255171Y-78921380D02*
X171217076Y-78969000D01*
X171217076Y-78969000D02*
X171140885Y-79016619D01*
X171140885Y-79016619D02*
X171026599Y-79016619D01*
X171636124Y-78349952D02*
X171636124Y-79349952D01*
X171636124Y-78397571D02*
X171712314Y-78349952D01*
X171712314Y-78349952D02*
X171864695Y-78349952D01*
X171864695Y-78349952D02*
X171940886Y-78397571D01*
X171940886Y-78397571D02*
X171978981Y-78445190D01*
X171978981Y-78445190D02*
X172017076Y-78540428D01*
X172017076Y-78540428D02*
X172017076Y-78826142D01*
X172017076Y-78826142D02*
X171978981Y-78921380D01*
X171978981Y-78921380D02*
X171940886Y-78969000D01*
X171940886Y-78969000D02*
X171864695Y-79016619D01*
X171864695Y-79016619D02*
X171712314Y-79016619D01*
X171712314Y-79016619D02*
X171636124Y-78969000D01*
X172245648Y-78349952D02*
X172550410Y-78349952D01*
X172359934Y-78016619D02*
X172359934Y-78873761D01*
X172359934Y-78873761D02*
X172398029Y-78969000D01*
X172398029Y-78969000D02*
X172474219Y-79016619D01*
X172474219Y-79016619D02*
X172550410Y-79016619D01*
X172817077Y-79016619D02*
X172817077Y-78349952D01*
X172817077Y-78016619D02*
X172778981Y-78064238D01*
X172778981Y-78064238D02*
X172817077Y-78111857D01*
X172817077Y-78111857D02*
X172855172Y-78064238D01*
X172855172Y-78064238D02*
X172817077Y-78016619D01*
X172817077Y-78016619D02*
X172817077Y-78111857D01*
X173312314Y-79016619D02*
X173236124Y-78969000D01*
X173236124Y-78969000D02*
X173198029Y-78921380D01*
X173198029Y-78921380D02*
X173159933Y-78826142D01*
X173159933Y-78826142D02*
X173159933Y-78540428D01*
X173159933Y-78540428D02*
X173198029Y-78445190D01*
X173198029Y-78445190D02*
X173236124Y-78397571D01*
X173236124Y-78397571D02*
X173312314Y-78349952D01*
X173312314Y-78349952D02*
X173426600Y-78349952D01*
X173426600Y-78349952D02*
X173502791Y-78397571D01*
X173502791Y-78397571D02*
X173540886Y-78445190D01*
X173540886Y-78445190D02*
X173578981Y-78540428D01*
X173578981Y-78540428D02*
X173578981Y-78826142D01*
X173578981Y-78826142D02*
X173540886Y-78921380D01*
X173540886Y-78921380D02*
X173502791Y-78969000D01*
X173502791Y-78969000D02*
X173426600Y-79016619D01*
X173426600Y-79016619D02*
X173312314Y-79016619D01*
X173921839Y-78349952D02*
X173921839Y-79016619D01*
X173921839Y-78445190D02*
X173959934Y-78397571D01*
X173959934Y-78397571D02*
X174036124Y-78349952D01*
X174036124Y-78349952D02*
X174150410Y-78349952D01*
X174150410Y-78349952D02*
X174226601Y-78397571D01*
X174226601Y-78397571D02*
X174264696Y-78492809D01*
X174264696Y-78492809D02*
X174264696Y-79016619D01*
D12*
X174019457Y-106430107D02*
X174105171Y-106465821D01*
X174105171Y-106465821D02*
X174133742Y-106501535D01*
X174133742Y-106501535D02*
X174162314Y-106572964D01*
X174162314Y-106572964D02*
X174162314Y-106680107D01*
X174162314Y-106680107D02*
X174133742Y-106751535D01*
X174133742Y-106751535D02*
X174105171Y-106787250D01*
X174105171Y-106787250D02*
X174048028Y-106822964D01*
X174048028Y-106822964D02*
X173819457Y-106822964D01*
X173819457Y-106822964D02*
X173819457Y-106072964D01*
X173819457Y-106072964D02*
X174019457Y-106072964D01*
X174019457Y-106072964D02*
X174076600Y-106108678D01*
X174076600Y-106108678D02*
X174105171Y-106144392D01*
X174105171Y-106144392D02*
X174133742Y-106215821D01*
X174133742Y-106215821D02*
X174133742Y-106287250D01*
X174133742Y-106287250D02*
X174105171Y-106358678D01*
X174105171Y-106358678D02*
X174076600Y-106394392D01*
X174076600Y-106394392D02*
X174019457Y-106430107D01*
X174019457Y-106430107D02*
X173819457Y-106430107D01*
X174676600Y-106322964D02*
X174676600Y-106822964D01*
X174533742Y-106037250D02*
X174390885Y-106572964D01*
X174390885Y-106572964D02*
X174762314Y-106572964D01*
X175419457Y-106037250D02*
X174905171Y-107001535D01*
X175590885Y-106787250D02*
X175676600Y-106822964D01*
X175676600Y-106822964D02*
X175819457Y-106822964D01*
X175819457Y-106822964D02*
X175876600Y-106787250D01*
X175876600Y-106787250D02*
X175905171Y-106751535D01*
X175905171Y-106751535D02*
X175933742Y-106680107D01*
X175933742Y-106680107D02*
X175933742Y-106608678D01*
X175933742Y-106608678D02*
X175905171Y-106537250D01*
X175905171Y-106537250D02*
X175876600Y-106501535D01*
X175876600Y-106501535D02*
X175819457Y-106465821D01*
X175819457Y-106465821D02*
X175705171Y-106430107D01*
X175705171Y-106430107D02*
X175648028Y-106394392D01*
X175648028Y-106394392D02*
X175619457Y-106358678D01*
X175619457Y-106358678D02*
X175590885Y-106287250D01*
X175590885Y-106287250D02*
X175590885Y-106215821D01*
X175590885Y-106215821D02*
X175619457Y-106144392D01*
X175619457Y-106144392D02*
X175648028Y-106108678D01*
X175648028Y-106108678D02*
X175705171Y-106072964D01*
X175705171Y-106072964D02*
X175848028Y-106072964D01*
X175848028Y-106072964D02*
X175933742Y-106108678D01*
X176133743Y-106072964D02*
X176276600Y-106822964D01*
X176276600Y-106822964D02*
X176390886Y-106287250D01*
X176390886Y-106287250D02*
X176505171Y-106822964D01*
X176505171Y-106822964D02*
X176648029Y-106072964D01*
X177190885Y-106822964D02*
X176848028Y-106822964D01*
X177019457Y-106822964D02*
X177019457Y-106072964D01*
X177019457Y-106072964D02*
X176962314Y-106180107D01*
X176962314Y-106180107D02*
X176905171Y-106251535D01*
X176905171Y-106251535D02*
X176848028Y-106287250D01*
X177562314Y-106072964D02*
X177619457Y-106072964D01*
X177619457Y-106072964D02*
X177676600Y-106108678D01*
X177676600Y-106108678D02*
X177705172Y-106144392D01*
X177705172Y-106144392D02*
X177733743Y-106215821D01*
X177733743Y-106215821D02*
X177762314Y-106358678D01*
X177762314Y-106358678D02*
X177762314Y-106537250D01*
X177762314Y-106537250D02*
X177733743Y-106680107D01*
X177733743Y-106680107D02*
X177705172Y-106751535D01*
X177705172Y-106751535D02*
X177676600Y-106787250D01*
X177676600Y-106787250D02*
X177619457Y-106822964D01*
X177619457Y-106822964D02*
X177562314Y-106822964D01*
X177562314Y-106822964D02*
X177505172Y-106787250D01*
X177505172Y-106787250D02*
X177476600Y-106751535D01*
X177476600Y-106751535D02*
X177448029Y-106680107D01*
X177448029Y-106680107D02*
X177419457Y-106537250D01*
X177419457Y-106537250D02*
X177419457Y-106358678D01*
X177419457Y-106358678D02*
X177448029Y-106215821D01*
X177448029Y-106215821D02*
X177476600Y-106144392D01*
X177476600Y-106144392D02*
X177505172Y-106108678D01*
X177505172Y-106108678D02*
X177562314Y-106072964D01*
X164525999Y-88334964D02*
X164725999Y-89084964D01*
X164725999Y-89084964D02*
X164925999Y-88334964D01*
X165468857Y-89013535D02*
X165440285Y-89049250D01*
X165440285Y-89049250D02*
X165354571Y-89084964D01*
X165354571Y-89084964D02*
X165297428Y-89084964D01*
X165297428Y-89084964D02*
X165211714Y-89049250D01*
X165211714Y-89049250D02*
X165154571Y-88977821D01*
X165154571Y-88977821D02*
X165126000Y-88906392D01*
X165126000Y-88906392D02*
X165097428Y-88763535D01*
X165097428Y-88763535D02*
X165097428Y-88656392D01*
X165097428Y-88656392D02*
X165126000Y-88513535D01*
X165126000Y-88513535D02*
X165154571Y-88442107D01*
X165154571Y-88442107D02*
X165211714Y-88370678D01*
X165211714Y-88370678D02*
X165297428Y-88334964D01*
X165297428Y-88334964D02*
X165354571Y-88334964D01*
X165354571Y-88334964D02*
X165440285Y-88370678D01*
X165440285Y-88370678D02*
X165468857Y-88406392D01*
X166068857Y-89013535D02*
X166040285Y-89049250D01*
X166040285Y-89049250D02*
X165954571Y-89084964D01*
X165954571Y-89084964D02*
X165897428Y-89084964D01*
X165897428Y-89084964D02*
X165811714Y-89049250D01*
X165811714Y-89049250D02*
X165754571Y-88977821D01*
X165754571Y-88977821D02*
X165726000Y-88906392D01*
X165726000Y-88906392D02*
X165697428Y-88763535D01*
X165697428Y-88763535D02*
X165697428Y-88656392D01*
X165697428Y-88656392D02*
X165726000Y-88513535D01*
X165726000Y-88513535D02*
X165754571Y-88442107D01*
X165754571Y-88442107D02*
X165811714Y-88370678D01*
X165811714Y-88370678D02*
X165897428Y-88334964D01*
X165897428Y-88334964D02*
X165954571Y-88334964D01*
X165954571Y-88334964D02*
X166040285Y-88370678D01*
X166040285Y-88370678D02*
X166068857Y-88406392D01*
X175062314Y-94087250D02*
X175148029Y-94122964D01*
X175148029Y-94122964D02*
X175290886Y-94122964D01*
X175290886Y-94122964D02*
X175348029Y-94087250D01*
X175348029Y-94087250D02*
X175376600Y-94051535D01*
X175376600Y-94051535D02*
X175405171Y-93980107D01*
X175405171Y-93980107D02*
X175405171Y-93908678D01*
X175405171Y-93908678D02*
X175376600Y-93837250D01*
X175376600Y-93837250D02*
X175348029Y-93801535D01*
X175348029Y-93801535D02*
X175290886Y-93765821D01*
X175290886Y-93765821D02*
X175176600Y-93730107D01*
X175176600Y-93730107D02*
X175119457Y-93694392D01*
X175119457Y-93694392D02*
X175090886Y-93658678D01*
X175090886Y-93658678D02*
X175062314Y-93587250D01*
X175062314Y-93587250D02*
X175062314Y-93515821D01*
X175062314Y-93515821D02*
X175090886Y-93444392D01*
X175090886Y-93444392D02*
X175119457Y-93408678D01*
X175119457Y-93408678D02*
X175176600Y-93372964D01*
X175176600Y-93372964D02*
X175319457Y-93372964D01*
X175319457Y-93372964D02*
X175405171Y-93408678D01*
X176005172Y-94051535D02*
X175976600Y-94087250D01*
X175976600Y-94087250D02*
X175890886Y-94122964D01*
X175890886Y-94122964D02*
X175833743Y-94122964D01*
X175833743Y-94122964D02*
X175748029Y-94087250D01*
X175748029Y-94087250D02*
X175690886Y-94015821D01*
X175690886Y-94015821D02*
X175662315Y-93944392D01*
X175662315Y-93944392D02*
X175633743Y-93801535D01*
X175633743Y-93801535D02*
X175633743Y-93694392D01*
X175633743Y-93694392D02*
X175662315Y-93551535D01*
X175662315Y-93551535D02*
X175690886Y-93480107D01*
X175690886Y-93480107D02*
X175748029Y-93408678D01*
X175748029Y-93408678D02*
X175833743Y-93372964D01*
X175833743Y-93372964D02*
X175890886Y-93372964D01*
X175890886Y-93372964D02*
X175976600Y-93408678D01*
X175976600Y-93408678D02*
X176005172Y-93444392D01*
X176548029Y-94122964D02*
X176262315Y-94122964D01*
X176262315Y-94122964D02*
X176262315Y-93372964D01*
X176044857Y-86592678D02*
X175987715Y-86556964D01*
X175987715Y-86556964D02*
X175902000Y-86556964D01*
X175902000Y-86556964D02*
X175816286Y-86592678D01*
X175816286Y-86592678D02*
X175759143Y-86664107D01*
X175759143Y-86664107D02*
X175730572Y-86735535D01*
X175730572Y-86735535D02*
X175702000Y-86878392D01*
X175702000Y-86878392D02*
X175702000Y-86985535D01*
X175702000Y-86985535D02*
X175730572Y-87128392D01*
X175730572Y-87128392D02*
X175759143Y-87199821D01*
X175759143Y-87199821D02*
X175816286Y-87271250D01*
X175816286Y-87271250D02*
X175902000Y-87306964D01*
X175902000Y-87306964D02*
X175959143Y-87306964D01*
X175959143Y-87306964D02*
X176044857Y-87271250D01*
X176044857Y-87271250D02*
X176073429Y-87235535D01*
X176073429Y-87235535D02*
X176073429Y-86985535D01*
X176073429Y-86985535D02*
X175959143Y-86985535D01*
X176330572Y-87306964D02*
X176330572Y-86556964D01*
X176330572Y-86556964D02*
X176673429Y-87306964D01*
X176673429Y-87306964D02*
X176673429Y-86556964D01*
X176959143Y-87306964D02*
X176959143Y-86556964D01*
X176959143Y-86556964D02*
X177102000Y-86556964D01*
X177102000Y-86556964D02*
X177187714Y-86592678D01*
X177187714Y-86592678D02*
X177244857Y-86664107D01*
X177244857Y-86664107D02*
X177273428Y-86735535D01*
X177273428Y-86735535D02*
X177302000Y-86878392D01*
X177302000Y-86878392D02*
X177302000Y-86985535D01*
X177302000Y-86985535D02*
X177273428Y-87128392D01*
X177273428Y-87128392D02*
X177244857Y-87199821D01*
X177244857Y-87199821D02*
X177187714Y-87271250D01*
X177187714Y-87271250D02*
X177102000Y-87306964D01*
X177102000Y-87306964D02*
X176959143Y-87306964D01*
X164614857Y-84560678D02*
X164557715Y-84524964D01*
X164557715Y-84524964D02*
X164472000Y-84524964D01*
X164472000Y-84524964D02*
X164386286Y-84560678D01*
X164386286Y-84560678D02*
X164329143Y-84632107D01*
X164329143Y-84632107D02*
X164300572Y-84703535D01*
X164300572Y-84703535D02*
X164272000Y-84846392D01*
X164272000Y-84846392D02*
X164272000Y-84953535D01*
X164272000Y-84953535D02*
X164300572Y-85096392D01*
X164300572Y-85096392D02*
X164329143Y-85167821D01*
X164329143Y-85167821D02*
X164386286Y-85239250D01*
X164386286Y-85239250D02*
X164472000Y-85274964D01*
X164472000Y-85274964D02*
X164529143Y-85274964D01*
X164529143Y-85274964D02*
X164614857Y-85239250D01*
X164614857Y-85239250D02*
X164643429Y-85203535D01*
X164643429Y-85203535D02*
X164643429Y-84953535D01*
X164643429Y-84953535D02*
X164529143Y-84953535D01*
X164900572Y-85274964D02*
X164900572Y-84524964D01*
X164900572Y-84524964D02*
X165243429Y-85274964D01*
X165243429Y-85274964D02*
X165243429Y-84524964D01*
X165529143Y-85274964D02*
X165529143Y-84524964D01*
X165529143Y-84524964D02*
X165672000Y-84524964D01*
X165672000Y-84524964D02*
X165757714Y-84560678D01*
X165757714Y-84560678D02*
X165814857Y-84632107D01*
X165814857Y-84632107D02*
X165843428Y-84703535D01*
X165843428Y-84703535D02*
X165872000Y-84846392D01*
X165872000Y-84846392D02*
X165872000Y-84953535D01*
X165872000Y-84953535D02*
X165843428Y-85096392D01*
X165843428Y-85096392D02*
X165814857Y-85167821D01*
X165814857Y-85167821D02*
X165757714Y-85239250D01*
X165757714Y-85239250D02*
X165672000Y-85274964D01*
X165672000Y-85274964D02*
X165529143Y-85274964D01*
X176044857Y-88878678D02*
X175987715Y-88842964D01*
X175987715Y-88842964D02*
X175902000Y-88842964D01*
X175902000Y-88842964D02*
X175816286Y-88878678D01*
X175816286Y-88878678D02*
X175759143Y-88950107D01*
X175759143Y-88950107D02*
X175730572Y-89021535D01*
X175730572Y-89021535D02*
X175702000Y-89164392D01*
X175702000Y-89164392D02*
X175702000Y-89271535D01*
X175702000Y-89271535D02*
X175730572Y-89414392D01*
X175730572Y-89414392D02*
X175759143Y-89485821D01*
X175759143Y-89485821D02*
X175816286Y-89557250D01*
X175816286Y-89557250D02*
X175902000Y-89592964D01*
X175902000Y-89592964D02*
X175959143Y-89592964D01*
X175959143Y-89592964D02*
X176044857Y-89557250D01*
X176044857Y-89557250D02*
X176073429Y-89521535D01*
X176073429Y-89521535D02*
X176073429Y-89271535D01*
X176073429Y-89271535D02*
X175959143Y-89271535D01*
X176330572Y-89592964D02*
X176330572Y-88842964D01*
X176330572Y-88842964D02*
X176673429Y-89592964D01*
X176673429Y-89592964D02*
X176673429Y-88842964D01*
X176959143Y-89592964D02*
X176959143Y-88842964D01*
X176959143Y-88842964D02*
X177102000Y-88842964D01*
X177102000Y-88842964D02*
X177187714Y-88878678D01*
X177187714Y-88878678D02*
X177244857Y-88950107D01*
X177244857Y-88950107D02*
X177273428Y-89021535D01*
X177273428Y-89021535D02*
X177302000Y-89164392D01*
X177302000Y-89164392D02*
X177302000Y-89271535D01*
X177302000Y-89271535D02*
X177273428Y-89414392D01*
X177273428Y-89414392D02*
X177244857Y-89485821D01*
X177244857Y-89485821D02*
X177187714Y-89557250D01*
X177187714Y-89557250D02*
X177102000Y-89592964D01*
X177102000Y-89592964D02*
X176959143Y-89592964D01*
X174105171Y-101742964D02*
X174105171Y-100992964D01*
X174105171Y-100992964D02*
X174248028Y-100992964D01*
X174248028Y-100992964D02*
X174333742Y-101028678D01*
X174333742Y-101028678D02*
X174390885Y-101100107D01*
X174390885Y-101100107D02*
X174419456Y-101171535D01*
X174419456Y-101171535D02*
X174448028Y-101314392D01*
X174448028Y-101314392D02*
X174448028Y-101421535D01*
X174448028Y-101421535D02*
X174419456Y-101564392D01*
X174419456Y-101564392D02*
X174390885Y-101635821D01*
X174390885Y-101635821D02*
X174333742Y-101707250D01*
X174333742Y-101707250D02*
X174248028Y-101742964D01*
X174248028Y-101742964D02*
X174105171Y-101742964D01*
X174648028Y-100992964D02*
X175048028Y-100992964D01*
X175048028Y-100992964D02*
X174790885Y-101742964D01*
X175705171Y-100957250D02*
X175190885Y-101921535D01*
X175876599Y-101707250D02*
X175962314Y-101742964D01*
X175962314Y-101742964D02*
X176105171Y-101742964D01*
X176105171Y-101742964D02*
X176162314Y-101707250D01*
X176162314Y-101707250D02*
X176190885Y-101671535D01*
X176190885Y-101671535D02*
X176219456Y-101600107D01*
X176219456Y-101600107D02*
X176219456Y-101528678D01*
X176219456Y-101528678D02*
X176190885Y-101457250D01*
X176190885Y-101457250D02*
X176162314Y-101421535D01*
X176162314Y-101421535D02*
X176105171Y-101385821D01*
X176105171Y-101385821D02*
X175990885Y-101350107D01*
X175990885Y-101350107D02*
X175933742Y-101314392D01*
X175933742Y-101314392D02*
X175905171Y-101278678D01*
X175905171Y-101278678D02*
X175876599Y-101207250D01*
X175876599Y-101207250D02*
X175876599Y-101135821D01*
X175876599Y-101135821D02*
X175905171Y-101064392D01*
X175905171Y-101064392D02*
X175933742Y-101028678D01*
X175933742Y-101028678D02*
X175990885Y-100992964D01*
X175990885Y-100992964D02*
X176133742Y-100992964D01*
X176133742Y-100992964D02*
X176219456Y-101028678D01*
X176419457Y-100992964D02*
X176562314Y-101742964D01*
X176562314Y-101742964D02*
X176676600Y-101207250D01*
X176676600Y-101207250D02*
X176790885Y-101742964D01*
X176790885Y-101742964D02*
X176933743Y-100992964D01*
X177248028Y-101314392D02*
X177190885Y-101278678D01*
X177190885Y-101278678D02*
X177162314Y-101242964D01*
X177162314Y-101242964D02*
X177133742Y-101171535D01*
X177133742Y-101171535D02*
X177133742Y-101135821D01*
X177133742Y-101135821D02*
X177162314Y-101064392D01*
X177162314Y-101064392D02*
X177190885Y-101028678D01*
X177190885Y-101028678D02*
X177248028Y-100992964D01*
X177248028Y-100992964D02*
X177362314Y-100992964D01*
X177362314Y-100992964D02*
X177419457Y-101028678D01*
X177419457Y-101028678D02*
X177448028Y-101064392D01*
X177448028Y-101064392D02*
X177476599Y-101135821D01*
X177476599Y-101135821D02*
X177476599Y-101171535D01*
X177476599Y-101171535D02*
X177448028Y-101242964D01*
X177448028Y-101242964D02*
X177419457Y-101278678D01*
X177419457Y-101278678D02*
X177362314Y-101314392D01*
X177362314Y-101314392D02*
X177248028Y-101314392D01*
X177248028Y-101314392D02*
X177190885Y-101350107D01*
X177190885Y-101350107D02*
X177162314Y-101385821D01*
X177162314Y-101385821D02*
X177133742Y-101457250D01*
X177133742Y-101457250D02*
X177133742Y-101600107D01*
X177133742Y-101600107D02*
X177162314Y-101671535D01*
X177162314Y-101671535D02*
X177190885Y-101707250D01*
X177190885Y-101707250D02*
X177248028Y-101742964D01*
X177248028Y-101742964D02*
X177362314Y-101742964D01*
X177362314Y-101742964D02*
X177419457Y-101707250D01*
X177419457Y-101707250D02*
X177448028Y-101671535D01*
X177448028Y-101671535D02*
X177476599Y-101600107D01*
X177476599Y-101600107D02*
X177476599Y-101457250D01*
X177476599Y-101457250D02*
X177448028Y-101385821D01*
X177448028Y-101385821D02*
X177419457Y-101350107D01*
X177419457Y-101350107D02*
X177362314Y-101314392D01*
X174133743Y-103890107D02*
X174333743Y-103890107D01*
X174419457Y-104282964D02*
X174133743Y-104282964D01*
X174133743Y-104282964D02*
X174133743Y-103532964D01*
X174133743Y-103532964D02*
X174419457Y-103532964D01*
X174933743Y-103532964D02*
X174819457Y-103532964D01*
X174819457Y-103532964D02*
X174762314Y-103568678D01*
X174762314Y-103568678D02*
X174733743Y-103604392D01*
X174733743Y-103604392D02*
X174676600Y-103711535D01*
X174676600Y-103711535D02*
X174648028Y-103854392D01*
X174648028Y-103854392D02*
X174648028Y-104140107D01*
X174648028Y-104140107D02*
X174676600Y-104211535D01*
X174676600Y-104211535D02*
X174705171Y-104247250D01*
X174705171Y-104247250D02*
X174762314Y-104282964D01*
X174762314Y-104282964D02*
X174876600Y-104282964D01*
X174876600Y-104282964D02*
X174933743Y-104247250D01*
X174933743Y-104247250D02*
X174962314Y-104211535D01*
X174962314Y-104211535D02*
X174990885Y-104140107D01*
X174990885Y-104140107D02*
X174990885Y-103961535D01*
X174990885Y-103961535D02*
X174962314Y-103890107D01*
X174962314Y-103890107D02*
X174933743Y-103854392D01*
X174933743Y-103854392D02*
X174876600Y-103818678D01*
X174876600Y-103818678D02*
X174762314Y-103818678D01*
X174762314Y-103818678D02*
X174705171Y-103854392D01*
X174705171Y-103854392D02*
X174676600Y-103890107D01*
X174676600Y-103890107D02*
X174648028Y-103961535D01*
X175676600Y-103497250D02*
X175162314Y-104461535D01*
X175848028Y-104247250D02*
X175933743Y-104282964D01*
X175933743Y-104282964D02*
X176076600Y-104282964D01*
X176076600Y-104282964D02*
X176133743Y-104247250D01*
X176133743Y-104247250D02*
X176162314Y-104211535D01*
X176162314Y-104211535D02*
X176190885Y-104140107D01*
X176190885Y-104140107D02*
X176190885Y-104068678D01*
X176190885Y-104068678D02*
X176162314Y-103997250D01*
X176162314Y-103997250D02*
X176133743Y-103961535D01*
X176133743Y-103961535D02*
X176076600Y-103925821D01*
X176076600Y-103925821D02*
X175962314Y-103890107D01*
X175962314Y-103890107D02*
X175905171Y-103854392D01*
X175905171Y-103854392D02*
X175876600Y-103818678D01*
X175876600Y-103818678D02*
X175848028Y-103747250D01*
X175848028Y-103747250D02*
X175848028Y-103675821D01*
X175848028Y-103675821D02*
X175876600Y-103604392D01*
X175876600Y-103604392D02*
X175905171Y-103568678D01*
X175905171Y-103568678D02*
X175962314Y-103532964D01*
X175962314Y-103532964D02*
X176105171Y-103532964D01*
X176105171Y-103532964D02*
X176190885Y-103568678D01*
X176390886Y-103532964D02*
X176533743Y-104282964D01*
X176533743Y-104282964D02*
X176648029Y-103747250D01*
X176648029Y-103747250D02*
X176762314Y-104282964D01*
X176762314Y-104282964D02*
X176905172Y-103532964D01*
X177162314Y-104282964D02*
X177276600Y-104282964D01*
X177276600Y-104282964D02*
X177333743Y-104247250D01*
X177333743Y-104247250D02*
X177362314Y-104211535D01*
X177362314Y-104211535D02*
X177419457Y-104104392D01*
X177419457Y-104104392D02*
X177448028Y-103961535D01*
X177448028Y-103961535D02*
X177448028Y-103675821D01*
X177448028Y-103675821D02*
X177419457Y-103604392D01*
X177419457Y-103604392D02*
X177390886Y-103568678D01*
X177390886Y-103568678D02*
X177333743Y-103532964D01*
X177333743Y-103532964D02*
X177219457Y-103532964D01*
X177219457Y-103532964D02*
X177162314Y-103568678D01*
X177162314Y-103568678D02*
X177133743Y-103604392D01*
X177133743Y-103604392D02*
X177105171Y-103675821D01*
X177105171Y-103675821D02*
X177105171Y-103854392D01*
X177105171Y-103854392D02*
X177133743Y-103925821D01*
X177133743Y-103925821D02*
X177162314Y-103961535D01*
X177162314Y-103961535D02*
X177219457Y-103997250D01*
X177219457Y-103997250D02*
X177333743Y-103997250D01*
X177333743Y-103997250D02*
X177390886Y-103961535D01*
X177390886Y-103961535D02*
X177419457Y-103925821D01*
X177419457Y-103925821D02*
X177448028Y-103854392D01*
X174448028Y-99131535D02*
X174419456Y-99167250D01*
X174419456Y-99167250D02*
X174333742Y-99202964D01*
X174333742Y-99202964D02*
X174276599Y-99202964D01*
X174276599Y-99202964D02*
X174190885Y-99167250D01*
X174190885Y-99167250D02*
X174133742Y-99095821D01*
X174133742Y-99095821D02*
X174105171Y-99024392D01*
X174105171Y-99024392D02*
X174076599Y-98881535D01*
X174076599Y-98881535D02*
X174076599Y-98774392D01*
X174076599Y-98774392D02*
X174105171Y-98631535D01*
X174105171Y-98631535D02*
X174133742Y-98560107D01*
X174133742Y-98560107D02*
X174190885Y-98488678D01*
X174190885Y-98488678D02*
X174276599Y-98452964D01*
X174276599Y-98452964D02*
X174333742Y-98452964D01*
X174333742Y-98452964D02*
X174419456Y-98488678D01*
X174419456Y-98488678D02*
X174448028Y-98524392D01*
X174962314Y-98452964D02*
X174848028Y-98452964D01*
X174848028Y-98452964D02*
X174790885Y-98488678D01*
X174790885Y-98488678D02*
X174762314Y-98524392D01*
X174762314Y-98524392D02*
X174705171Y-98631535D01*
X174705171Y-98631535D02*
X174676599Y-98774392D01*
X174676599Y-98774392D02*
X174676599Y-99060107D01*
X174676599Y-99060107D02*
X174705171Y-99131535D01*
X174705171Y-99131535D02*
X174733742Y-99167250D01*
X174733742Y-99167250D02*
X174790885Y-99202964D01*
X174790885Y-99202964D02*
X174905171Y-99202964D01*
X174905171Y-99202964D02*
X174962314Y-99167250D01*
X174962314Y-99167250D02*
X174990885Y-99131535D01*
X174990885Y-99131535D02*
X175019456Y-99060107D01*
X175019456Y-99060107D02*
X175019456Y-98881535D01*
X175019456Y-98881535D02*
X174990885Y-98810107D01*
X174990885Y-98810107D02*
X174962314Y-98774392D01*
X174962314Y-98774392D02*
X174905171Y-98738678D01*
X174905171Y-98738678D02*
X174790885Y-98738678D01*
X174790885Y-98738678D02*
X174733742Y-98774392D01*
X174733742Y-98774392D02*
X174705171Y-98810107D01*
X174705171Y-98810107D02*
X174676599Y-98881535D01*
X175705171Y-98417250D02*
X175190885Y-99381535D01*
X175876599Y-99167250D02*
X175962314Y-99202964D01*
X175962314Y-99202964D02*
X176105171Y-99202964D01*
X176105171Y-99202964D02*
X176162314Y-99167250D01*
X176162314Y-99167250D02*
X176190885Y-99131535D01*
X176190885Y-99131535D02*
X176219456Y-99060107D01*
X176219456Y-99060107D02*
X176219456Y-98988678D01*
X176219456Y-98988678D02*
X176190885Y-98917250D01*
X176190885Y-98917250D02*
X176162314Y-98881535D01*
X176162314Y-98881535D02*
X176105171Y-98845821D01*
X176105171Y-98845821D02*
X175990885Y-98810107D01*
X175990885Y-98810107D02*
X175933742Y-98774392D01*
X175933742Y-98774392D02*
X175905171Y-98738678D01*
X175905171Y-98738678D02*
X175876599Y-98667250D01*
X175876599Y-98667250D02*
X175876599Y-98595821D01*
X175876599Y-98595821D02*
X175905171Y-98524392D01*
X175905171Y-98524392D02*
X175933742Y-98488678D01*
X175933742Y-98488678D02*
X175990885Y-98452964D01*
X175990885Y-98452964D02*
X176133742Y-98452964D01*
X176133742Y-98452964D02*
X176219456Y-98488678D01*
X176419457Y-98452964D02*
X176562314Y-99202964D01*
X176562314Y-99202964D02*
X176676600Y-98667250D01*
X176676600Y-98667250D02*
X176790885Y-99202964D01*
X176790885Y-99202964D02*
X176933743Y-98452964D01*
X177105171Y-98452964D02*
X177505171Y-98452964D01*
X177505171Y-98452964D02*
X177248028Y-99202964D01*
X174105171Y-96662964D02*
X174105171Y-95912964D01*
X174105171Y-95912964D02*
X174248028Y-95912964D01*
X174248028Y-95912964D02*
X174333742Y-95948678D01*
X174333742Y-95948678D02*
X174390885Y-96020107D01*
X174390885Y-96020107D02*
X174419456Y-96091535D01*
X174419456Y-96091535D02*
X174448028Y-96234392D01*
X174448028Y-96234392D02*
X174448028Y-96341535D01*
X174448028Y-96341535D02*
X174419456Y-96484392D01*
X174419456Y-96484392D02*
X174390885Y-96555821D01*
X174390885Y-96555821D02*
X174333742Y-96627250D01*
X174333742Y-96627250D02*
X174248028Y-96662964D01*
X174248028Y-96662964D02*
X174105171Y-96662964D01*
X174962314Y-96162964D02*
X174962314Y-96662964D01*
X174819456Y-95877250D02*
X174676599Y-96412964D01*
X174676599Y-96412964D02*
X175048028Y-96412964D01*
X175705171Y-95877250D02*
X175190885Y-96841535D01*
X175876599Y-96627250D02*
X175962314Y-96662964D01*
X175962314Y-96662964D02*
X176105171Y-96662964D01*
X176105171Y-96662964D02*
X176162314Y-96627250D01*
X176162314Y-96627250D02*
X176190885Y-96591535D01*
X176190885Y-96591535D02*
X176219456Y-96520107D01*
X176219456Y-96520107D02*
X176219456Y-96448678D01*
X176219456Y-96448678D02*
X176190885Y-96377250D01*
X176190885Y-96377250D02*
X176162314Y-96341535D01*
X176162314Y-96341535D02*
X176105171Y-96305821D01*
X176105171Y-96305821D02*
X175990885Y-96270107D01*
X175990885Y-96270107D02*
X175933742Y-96234392D01*
X175933742Y-96234392D02*
X175905171Y-96198678D01*
X175905171Y-96198678D02*
X175876599Y-96127250D01*
X175876599Y-96127250D02*
X175876599Y-96055821D01*
X175876599Y-96055821D02*
X175905171Y-95984392D01*
X175905171Y-95984392D02*
X175933742Y-95948678D01*
X175933742Y-95948678D02*
X175990885Y-95912964D01*
X175990885Y-95912964D02*
X176133742Y-95912964D01*
X176133742Y-95912964D02*
X176219456Y-95948678D01*
X176419457Y-95912964D02*
X176562314Y-96662964D01*
X176562314Y-96662964D02*
X176676600Y-96127250D01*
X176676600Y-96127250D02*
X176790885Y-96662964D01*
X176790885Y-96662964D02*
X176933743Y-95912964D01*
X177419457Y-95912964D02*
X177305171Y-95912964D01*
X177305171Y-95912964D02*
X177248028Y-95948678D01*
X177248028Y-95948678D02*
X177219457Y-95984392D01*
X177219457Y-95984392D02*
X177162314Y-96091535D01*
X177162314Y-96091535D02*
X177133742Y-96234392D01*
X177133742Y-96234392D02*
X177133742Y-96520107D01*
X177133742Y-96520107D02*
X177162314Y-96591535D01*
X177162314Y-96591535D02*
X177190885Y-96627250D01*
X177190885Y-96627250D02*
X177248028Y-96662964D01*
X177248028Y-96662964D02*
X177362314Y-96662964D01*
X177362314Y-96662964D02*
X177419457Y-96627250D01*
X177419457Y-96627250D02*
X177448028Y-96591535D01*
X177448028Y-96591535D02*
X177476599Y-96520107D01*
X177476599Y-96520107D02*
X177476599Y-96341535D01*
X177476599Y-96341535D02*
X177448028Y-96270107D01*
X177448028Y-96270107D02*
X177419457Y-96234392D01*
X177419457Y-96234392D02*
X177362314Y-96198678D01*
X177362314Y-96198678D02*
X177248028Y-96198678D01*
X177248028Y-96198678D02*
X177190885Y-96234392D01*
X177190885Y-96234392D02*
X177162314Y-96270107D01*
X177162314Y-96270107D02*
X177133742Y-96341535D01*
D11*
%TO.C,U1*%
X145098952Y-95508619D02*
X145098952Y-94508619D01*
X145098952Y-94508619D02*
X145403714Y-94508619D01*
X145403714Y-94508619D02*
X145479904Y-94556238D01*
X145479904Y-94556238D02*
X145517999Y-94603857D01*
X145517999Y-94603857D02*
X145556095Y-94699095D01*
X145556095Y-94699095D02*
X145556095Y-94841952D01*
X145556095Y-94841952D02*
X145517999Y-94937190D01*
X145517999Y-94937190D02*
X145479904Y-94984809D01*
X145479904Y-94984809D02*
X145403714Y-95032428D01*
X145403714Y-95032428D02*
X145098952Y-95032428D01*
X145898952Y-95508619D02*
X145898952Y-94841952D01*
X145898952Y-95032428D02*
X145937047Y-94937190D01*
X145937047Y-94937190D02*
X145975142Y-94889571D01*
X145975142Y-94889571D02*
X146051333Y-94841952D01*
X146051333Y-94841952D02*
X146127523Y-94841952D01*
X146508475Y-95508619D02*
X146432285Y-95461000D01*
X146432285Y-95461000D02*
X146394190Y-95413380D01*
X146394190Y-95413380D02*
X146356094Y-95318142D01*
X146356094Y-95318142D02*
X146356094Y-95032428D01*
X146356094Y-95032428D02*
X146394190Y-94937190D01*
X146394190Y-94937190D02*
X146432285Y-94889571D01*
X146432285Y-94889571D02*
X146508475Y-94841952D01*
X146508475Y-94841952D02*
X146622761Y-94841952D01*
X146622761Y-94841952D02*
X146698952Y-94889571D01*
X146698952Y-94889571D02*
X146737047Y-94937190D01*
X146737047Y-94937190D02*
X146775142Y-95032428D01*
X146775142Y-95032428D02*
X146775142Y-95318142D01*
X146775142Y-95318142D02*
X146737047Y-95413380D01*
X146737047Y-95413380D02*
X146698952Y-95461000D01*
X146698952Y-95461000D02*
X146622761Y-95508619D01*
X146622761Y-95508619D02*
X146508475Y-95508619D01*
X147118000Y-95508619D02*
X147118000Y-94508619D01*
X147118000Y-94508619D02*
X147384666Y-95222904D01*
X147384666Y-95222904D02*
X147651333Y-94508619D01*
X147651333Y-94508619D02*
X147651333Y-95508619D01*
X148032286Y-95508619D02*
X148032286Y-94841952D01*
X148032286Y-94508619D02*
X147994190Y-94556238D01*
X147994190Y-94556238D02*
X148032286Y-94603857D01*
X148032286Y-94603857D02*
X148070381Y-94556238D01*
X148070381Y-94556238D02*
X148032286Y-94508619D01*
X148032286Y-94508619D02*
X148032286Y-94603857D01*
X148756095Y-95461000D02*
X148679904Y-95508619D01*
X148679904Y-95508619D02*
X148527523Y-95508619D01*
X148527523Y-95508619D02*
X148451333Y-95461000D01*
X148451333Y-95461000D02*
X148413238Y-95413380D01*
X148413238Y-95413380D02*
X148375142Y-95318142D01*
X148375142Y-95318142D02*
X148375142Y-95032428D01*
X148375142Y-95032428D02*
X148413238Y-94937190D01*
X148413238Y-94937190D02*
X148451333Y-94889571D01*
X148451333Y-94889571D02*
X148527523Y-94841952D01*
X148527523Y-94841952D02*
X148679904Y-94841952D01*
X148679904Y-94841952D02*
X148756095Y-94889571D01*
X149098952Y-95508619D02*
X149098952Y-94841952D01*
X149098952Y-95032428D02*
X149137047Y-94937190D01*
X149137047Y-94937190D02*
X149175142Y-94889571D01*
X149175142Y-94889571D02*
X149251333Y-94841952D01*
X149251333Y-94841952D02*
X149327523Y-94841952D01*
X149708475Y-95508619D02*
X149632285Y-95461000D01*
X149632285Y-95461000D02*
X149594190Y-95413380D01*
X149594190Y-95413380D02*
X149556094Y-95318142D01*
X149556094Y-95318142D02*
X149556094Y-95032428D01*
X149556094Y-95032428D02*
X149594190Y-94937190D01*
X149594190Y-94937190D02*
X149632285Y-94889571D01*
X149632285Y-94889571D02*
X149708475Y-94841952D01*
X149708475Y-94841952D02*
X149822761Y-94841952D01*
X149822761Y-94841952D02*
X149898952Y-94889571D01*
X149898952Y-94889571D02*
X149937047Y-94937190D01*
X149937047Y-94937190D02*
X149975142Y-95032428D01*
X149975142Y-95032428D02*
X149975142Y-95318142D01*
X149975142Y-95318142D02*
X149937047Y-95413380D01*
X149937047Y-95413380D02*
X149898952Y-95461000D01*
X149898952Y-95461000D02*
X149822761Y-95508619D01*
X149822761Y-95508619D02*
X149708475Y-95508619D01*
D12*
X151553714Y-94087250D02*
X151639429Y-94122964D01*
X151639429Y-94122964D02*
X151782286Y-94122964D01*
X151782286Y-94122964D02*
X151839429Y-94087250D01*
X151839429Y-94087250D02*
X151868000Y-94051535D01*
X151868000Y-94051535D02*
X151896571Y-93980107D01*
X151896571Y-93980107D02*
X151896571Y-93908678D01*
X151896571Y-93908678D02*
X151868000Y-93837250D01*
X151868000Y-93837250D02*
X151839429Y-93801535D01*
X151839429Y-93801535D02*
X151782286Y-93765821D01*
X151782286Y-93765821D02*
X151668000Y-93730107D01*
X151668000Y-93730107D02*
X151610857Y-93694392D01*
X151610857Y-93694392D02*
X151582286Y-93658678D01*
X151582286Y-93658678D02*
X151553714Y-93587250D01*
X151553714Y-93587250D02*
X151553714Y-93515821D01*
X151553714Y-93515821D02*
X151582286Y-93444392D01*
X151582286Y-93444392D02*
X151610857Y-93408678D01*
X151610857Y-93408678D02*
X151668000Y-93372964D01*
X151668000Y-93372964D02*
X151810857Y-93372964D01*
X151810857Y-93372964D02*
X151896571Y-93408678D01*
X152496572Y-94051535D02*
X152468000Y-94087250D01*
X152468000Y-94087250D02*
X152382286Y-94122964D01*
X152382286Y-94122964D02*
X152325143Y-94122964D01*
X152325143Y-94122964D02*
X152239429Y-94087250D01*
X152239429Y-94087250D02*
X152182286Y-94015821D01*
X152182286Y-94015821D02*
X152153715Y-93944392D01*
X152153715Y-93944392D02*
X152125143Y-93801535D01*
X152125143Y-93801535D02*
X152125143Y-93694392D01*
X152125143Y-93694392D02*
X152153715Y-93551535D01*
X152153715Y-93551535D02*
X152182286Y-93480107D01*
X152182286Y-93480107D02*
X152239429Y-93408678D01*
X152239429Y-93408678D02*
X152325143Y-93372964D01*
X152325143Y-93372964D02*
X152382286Y-93372964D01*
X152382286Y-93372964D02*
X152468000Y-93408678D01*
X152468000Y-93408678D02*
X152496572Y-93444392D01*
X153039429Y-94122964D02*
X152753715Y-94122964D01*
X152753715Y-94122964D02*
X152753715Y-93372964D01*
X151539428Y-91547250D02*
X151625143Y-91582964D01*
X151625143Y-91582964D02*
X151768000Y-91582964D01*
X151768000Y-91582964D02*
X151825143Y-91547250D01*
X151825143Y-91547250D02*
X151853714Y-91511535D01*
X151853714Y-91511535D02*
X151882285Y-91440107D01*
X151882285Y-91440107D02*
X151882285Y-91368678D01*
X151882285Y-91368678D02*
X151853714Y-91297250D01*
X151853714Y-91297250D02*
X151825143Y-91261535D01*
X151825143Y-91261535D02*
X151768000Y-91225821D01*
X151768000Y-91225821D02*
X151653714Y-91190107D01*
X151653714Y-91190107D02*
X151596571Y-91154392D01*
X151596571Y-91154392D02*
X151568000Y-91118678D01*
X151568000Y-91118678D02*
X151539428Y-91047250D01*
X151539428Y-91047250D02*
X151539428Y-90975821D01*
X151539428Y-90975821D02*
X151568000Y-90904392D01*
X151568000Y-90904392D02*
X151596571Y-90868678D01*
X151596571Y-90868678D02*
X151653714Y-90832964D01*
X151653714Y-90832964D02*
X151796571Y-90832964D01*
X151796571Y-90832964D02*
X151882285Y-90868678D01*
X152139429Y-91582964D02*
X152139429Y-90832964D01*
X152139429Y-90832964D02*
X152282286Y-90832964D01*
X152282286Y-90832964D02*
X152368000Y-90868678D01*
X152368000Y-90868678D02*
X152425143Y-90940107D01*
X152425143Y-90940107D02*
X152453714Y-91011535D01*
X152453714Y-91011535D02*
X152482286Y-91154392D01*
X152482286Y-91154392D02*
X152482286Y-91261535D01*
X152482286Y-91261535D02*
X152453714Y-91404392D01*
X152453714Y-91404392D02*
X152425143Y-91475821D01*
X152425143Y-91475821D02*
X152368000Y-91547250D01*
X152368000Y-91547250D02*
X152282286Y-91582964D01*
X152282286Y-91582964D02*
X152139429Y-91582964D01*
X152710857Y-91368678D02*
X152996572Y-91368678D01*
X152653714Y-91582964D02*
X152853714Y-90832964D01*
X152853714Y-90832964D02*
X153053714Y-91582964D01*
X150596571Y-101742964D02*
X150596571Y-100992964D01*
X150596571Y-100992964D02*
X150739428Y-100992964D01*
X150739428Y-100992964D02*
X150825142Y-101028678D01*
X150825142Y-101028678D02*
X150882285Y-101100107D01*
X150882285Y-101100107D02*
X150910856Y-101171535D01*
X150910856Y-101171535D02*
X150939428Y-101314392D01*
X150939428Y-101314392D02*
X150939428Y-101421535D01*
X150939428Y-101421535D02*
X150910856Y-101564392D01*
X150910856Y-101564392D02*
X150882285Y-101635821D01*
X150882285Y-101635821D02*
X150825142Y-101707250D01*
X150825142Y-101707250D02*
X150739428Y-101742964D01*
X150739428Y-101742964D02*
X150596571Y-101742964D01*
X151139428Y-100992964D02*
X151539428Y-100992964D01*
X151539428Y-100992964D02*
X151282285Y-101742964D01*
X152196571Y-100957250D02*
X151682285Y-101921535D01*
X152367999Y-101707250D02*
X152453714Y-101742964D01*
X152453714Y-101742964D02*
X152596571Y-101742964D01*
X152596571Y-101742964D02*
X152653714Y-101707250D01*
X152653714Y-101707250D02*
X152682285Y-101671535D01*
X152682285Y-101671535D02*
X152710856Y-101600107D01*
X152710856Y-101600107D02*
X152710856Y-101528678D01*
X152710856Y-101528678D02*
X152682285Y-101457250D01*
X152682285Y-101457250D02*
X152653714Y-101421535D01*
X152653714Y-101421535D02*
X152596571Y-101385821D01*
X152596571Y-101385821D02*
X152482285Y-101350107D01*
X152482285Y-101350107D02*
X152425142Y-101314392D01*
X152425142Y-101314392D02*
X152396571Y-101278678D01*
X152396571Y-101278678D02*
X152367999Y-101207250D01*
X152367999Y-101207250D02*
X152367999Y-101135821D01*
X152367999Y-101135821D02*
X152396571Y-101064392D01*
X152396571Y-101064392D02*
X152425142Y-101028678D01*
X152425142Y-101028678D02*
X152482285Y-100992964D01*
X152482285Y-100992964D02*
X152625142Y-100992964D01*
X152625142Y-100992964D02*
X152710856Y-101028678D01*
X152910857Y-100992964D02*
X153053714Y-101742964D01*
X153053714Y-101742964D02*
X153168000Y-101207250D01*
X153168000Y-101207250D02*
X153282285Y-101742964D01*
X153282285Y-101742964D02*
X153425143Y-100992964D01*
X153596571Y-100992964D02*
X153967999Y-100992964D01*
X153967999Y-100992964D02*
X153767999Y-101278678D01*
X153767999Y-101278678D02*
X153853714Y-101278678D01*
X153853714Y-101278678D02*
X153910857Y-101314392D01*
X153910857Y-101314392D02*
X153939428Y-101350107D01*
X153939428Y-101350107D02*
X153967999Y-101421535D01*
X153967999Y-101421535D02*
X153967999Y-101600107D01*
X153967999Y-101600107D02*
X153939428Y-101671535D01*
X153939428Y-101671535D02*
X153910857Y-101707250D01*
X153910857Y-101707250D02*
X153853714Y-101742964D01*
X153853714Y-101742964D02*
X153682285Y-101742964D01*
X153682285Y-101742964D02*
X153625142Y-101707250D01*
X153625142Y-101707250D02*
X153596571Y-101671535D01*
X150625143Y-103890107D02*
X150825143Y-103890107D01*
X150910857Y-104282964D02*
X150625143Y-104282964D01*
X150625143Y-104282964D02*
X150625143Y-103532964D01*
X150625143Y-103532964D02*
X150910857Y-103532964D01*
X151425143Y-103532964D02*
X151310857Y-103532964D01*
X151310857Y-103532964D02*
X151253714Y-103568678D01*
X151253714Y-103568678D02*
X151225143Y-103604392D01*
X151225143Y-103604392D02*
X151168000Y-103711535D01*
X151168000Y-103711535D02*
X151139428Y-103854392D01*
X151139428Y-103854392D02*
X151139428Y-104140107D01*
X151139428Y-104140107D02*
X151168000Y-104211535D01*
X151168000Y-104211535D02*
X151196571Y-104247250D01*
X151196571Y-104247250D02*
X151253714Y-104282964D01*
X151253714Y-104282964D02*
X151368000Y-104282964D01*
X151368000Y-104282964D02*
X151425143Y-104247250D01*
X151425143Y-104247250D02*
X151453714Y-104211535D01*
X151453714Y-104211535D02*
X151482285Y-104140107D01*
X151482285Y-104140107D02*
X151482285Y-103961535D01*
X151482285Y-103961535D02*
X151453714Y-103890107D01*
X151453714Y-103890107D02*
X151425143Y-103854392D01*
X151425143Y-103854392D02*
X151368000Y-103818678D01*
X151368000Y-103818678D02*
X151253714Y-103818678D01*
X151253714Y-103818678D02*
X151196571Y-103854392D01*
X151196571Y-103854392D02*
X151168000Y-103890107D01*
X151168000Y-103890107D02*
X151139428Y-103961535D01*
X152168000Y-103497250D02*
X151653714Y-104461535D01*
X152339428Y-104247250D02*
X152425143Y-104282964D01*
X152425143Y-104282964D02*
X152568000Y-104282964D01*
X152568000Y-104282964D02*
X152625143Y-104247250D01*
X152625143Y-104247250D02*
X152653714Y-104211535D01*
X152653714Y-104211535D02*
X152682285Y-104140107D01*
X152682285Y-104140107D02*
X152682285Y-104068678D01*
X152682285Y-104068678D02*
X152653714Y-103997250D01*
X152653714Y-103997250D02*
X152625143Y-103961535D01*
X152625143Y-103961535D02*
X152568000Y-103925821D01*
X152568000Y-103925821D02*
X152453714Y-103890107D01*
X152453714Y-103890107D02*
X152396571Y-103854392D01*
X152396571Y-103854392D02*
X152368000Y-103818678D01*
X152368000Y-103818678D02*
X152339428Y-103747250D01*
X152339428Y-103747250D02*
X152339428Y-103675821D01*
X152339428Y-103675821D02*
X152368000Y-103604392D01*
X152368000Y-103604392D02*
X152396571Y-103568678D01*
X152396571Y-103568678D02*
X152453714Y-103532964D01*
X152453714Y-103532964D02*
X152596571Y-103532964D01*
X152596571Y-103532964D02*
X152682285Y-103568678D01*
X152882286Y-103532964D02*
X153025143Y-104282964D01*
X153025143Y-104282964D02*
X153139429Y-103747250D01*
X153139429Y-103747250D02*
X153253714Y-104282964D01*
X153253714Y-104282964D02*
X153396572Y-103532964D01*
X153882286Y-103782964D02*
X153882286Y-104282964D01*
X153739428Y-103497250D02*
X153596571Y-104032964D01*
X153596571Y-104032964D02*
X153968000Y-104032964D01*
X150939428Y-99131535D02*
X150910856Y-99167250D01*
X150910856Y-99167250D02*
X150825142Y-99202964D01*
X150825142Y-99202964D02*
X150767999Y-99202964D01*
X150767999Y-99202964D02*
X150682285Y-99167250D01*
X150682285Y-99167250D02*
X150625142Y-99095821D01*
X150625142Y-99095821D02*
X150596571Y-99024392D01*
X150596571Y-99024392D02*
X150567999Y-98881535D01*
X150567999Y-98881535D02*
X150567999Y-98774392D01*
X150567999Y-98774392D02*
X150596571Y-98631535D01*
X150596571Y-98631535D02*
X150625142Y-98560107D01*
X150625142Y-98560107D02*
X150682285Y-98488678D01*
X150682285Y-98488678D02*
X150767999Y-98452964D01*
X150767999Y-98452964D02*
X150825142Y-98452964D01*
X150825142Y-98452964D02*
X150910856Y-98488678D01*
X150910856Y-98488678D02*
X150939428Y-98524392D01*
X151453714Y-98452964D02*
X151339428Y-98452964D01*
X151339428Y-98452964D02*
X151282285Y-98488678D01*
X151282285Y-98488678D02*
X151253714Y-98524392D01*
X151253714Y-98524392D02*
X151196571Y-98631535D01*
X151196571Y-98631535D02*
X151167999Y-98774392D01*
X151167999Y-98774392D02*
X151167999Y-99060107D01*
X151167999Y-99060107D02*
X151196571Y-99131535D01*
X151196571Y-99131535D02*
X151225142Y-99167250D01*
X151225142Y-99167250D02*
X151282285Y-99202964D01*
X151282285Y-99202964D02*
X151396571Y-99202964D01*
X151396571Y-99202964D02*
X151453714Y-99167250D01*
X151453714Y-99167250D02*
X151482285Y-99131535D01*
X151482285Y-99131535D02*
X151510856Y-99060107D01*
X151510856Y-99060107D02*
X151510856Y-98881535D01*
X151510856Y-98881535D02*
X151482285Y-98810107D01*
X151482285Y-98810107D02*
X151453714Y-98774392D01*
X151453714Y-98774392D02*
X151396571Y-98738678D01*
X151396571Y-98738678D02*
X151282285Y-98738678D01*
X151282285Y-98738678D02*
X151225142Y-98774392D01*
X151225142Y-98774392D02*
X151196571Y-98810107D01*
X151196571Y-98810107D02*
X151167999Y-98881535D01*
X152196571Y-98417250D02*
X151682285Y-99381535D01*
X152367999Y-99167250D02*
X152453714Y-99202964D01*
X152453714Y-99202964D02*
X152596571Y-99202964D01*
X152596571Y-99202964D02*
X152653714Y-99167250D01*
X152653714Y-99167250D02*
X152682285Y-99131535D01*
X152682285Y-99131535D02*
X152710856Y-99060107D01*
X152710856Y-99060107D02*
X152710856Y-98988678D01*
X152710856Y-98988678D02*
X152682285Y-98917250D01*
X152682285Y-98917250D02*
X152653714Y-98881535D01*
X152653714Y-98881535D02*
X152596571Y-98845821D01*
X152596571Y-98845821D02*
X152482285Y-98810107D01*
X152482285Y-98810107D02*
X152425142Y-98774392D01*
X152425142Y-98774392D02*
X152396571Y-98738678D01*
X152396571Y-98738678D02*
X152367999Y-98667250D01*
X152367999Y-98667250D02*
X152367999Y-98595821D01*
X152367999Y-98595821D02*
X152396571Y-98524392D01*
X152396571Y-98524392D02*
X152425142Y-98488678D01*
X152425142Y-98488678D02*
X152482285Y-98452964D01*
X152482285Y-98452964D02*
X152625142Y-98452964D01*
X152625142Y-98452964D02*
X152710856Y-98488678D01*
X152910857Y-98452964D02*
X153053714Y-99202964D01*
X153053714Y-99202964D02*
X153168000Y-98667250D01*
X153168000Y-98667250D02*
X153282285Y-99202964D01*
X153282285Y-99202964D02*
X153425143Y-98452964D01*
X153625142Y-98524392D02*
X153653714Y-98488678D01*
X153653714Y-98488678D02*
X153710857Y-98452964D01*
X153710857Y-98452964D02*
X153853714Y-98452964D01*
X153853714Y-98452964D02*
X153910857Y-98488678D01*
X153910857Y-98488678D02*
X153939428Y-98524392D01*
X153939428Y-98524392D02*
X153967999Y-98595821D01*
X153967999Y-98595821D02*
X153967999Y-98667250D01*
X153967999Y-98667250D02*
X153939428Y-98774392D01*
X153939428Y-98774392D02*
X153596571Y-99202964D01*
X153596571Y-99202964D02*
X153967999Y-99202964D01*
X137359428Y-86502964D02*
X137159428Y-86145821D01*
X137016571Y-86502964D02*
X137016571Y-85752964D01*
X137016571Y-85752964D02*
X137245142Y-85752964D01*
X137245142Y-85752964D02*
X137302285Y-85788678D01*
X137302285Y-85788678D02*
X137330856Y-85824392D01*
X137330856Y-85824392D02*
X137359428Y-85895821D01*
X137359428Y-85895821D02*
X137359428Y-86002964D01*
X137359428Y-86002964D02*
X137330856Y-86074392D01*
X137330856Y-86074392D02*
X137302285Y-86110107D01*
X137302285Y-86110107D02*
X137245142Y-86145821D01*
X137245142Y-86145821D02*
X137016571Y-86145821D01*
X137587999Y-86467250D02*
X137673714Y-86502964D01*
X137673714Y-86502964D02*
X137816571Y-86502964D01*
X137816571Y-86502964D02*
X137873714Y-86467250D01*
X137873714Y-86467250D02*
X137902285Y-86431535D01*
X137902285Y-86431535D02*
X137930856Y-86360107D01*
X137930856Y-86360107D02*
X137930856Y-86288678D01*
X137930856Y-86288678D02*
X137902285Y-86217250D01*
X137902285Y-86217250D02*
X137873714Y-86181535D01*
X137873714Y-86181535D02*
X137816571Y-86145821D01*
X137816571Y-86145821D02*
X137702285Y-86110107D01*
X137702285Y-86110107D02*
X137645142Y-86074392D01*
X137645142Y-86074392D02*
X137616571Y-86038678D01*
X137616571Y-86038678D02*
X137587999Y-85967250D01*
X137587999Y-85967250D02*
X137587999Y-85895821D01*
X137587999Y-85895821D02*
X137616571Y-85824392D01*
X137616571Y-85824392D02*
X137645142Y-85788678D01*
X137645142Y-85788678D02*
X137702285Y-85752964D01*
X137702285Y-85752964D02*
X137845142Y-85752964D01*
X137845142Y-85752964D02*
X137930856Y-85788678D01*
X138102285Y-85752964D02*
X138445143Y-85752964D01*
X138273714Y-86502964D02*
X138273714Y-85752964D01*
X152422857Y-88370678D02*
X152365715Y-88334964D01*
X152365715Y-88334964D02*
X152280000Y-88334964D01*
X152280000Y-88334964D02*
X152194286Y-88370678D01*
X152194286Y-88370678D02*
X152137143Y-88442107D01*
X152137143Y-88442107D02*
X152108572Y-88513535D01*
X152108572Y-88513535D02*
X152080000Y-88656392D01*
X152080000Y-88656392D02*
X152080000Y-88763535D01*
X152080000Y-88763535D02*
X152108572Y-88906392D01*
X152108572Y-88906392D02*
X152137143Y-88977821D01*
X152137143Y-88977821D02*
X152194286Y-89049250D01*
X152194286Y-89049250D02*
X152280000Y-89084964D01*
X152280000Y-89084964D02*
X152337143Y-89084964D01*
X152337143Y-89084964D02*
X152422857Y-89049250D01*
X152422857Y-89049250D02*
X152451429Y-89013535D01*
X152451429Y-89013535D02*
X152451429Y-88763535D01*
X152451429Y-88763535D02*
X152337143Y-88763535D01*
X152708572Y-89084964D02*
X152708572Y-88334964D01*
X152708572Y-88334964D02*
X153051429Y-89084964D01*
X153051429Y-89084964D02*
X153051429Y-88334964D01*
X153337143Y-89084964D02*
X153337143Y-88334964D01*
X153337143Y-88334964D02*
X153480000Y-88334964D01*
X153480000Y-88334964D02*
X153565714Y-88370678D01*
X153565714Y-88370678D02*
X153622857Y-88442107D01*
X153622857Y-88442107D02*
X153651428Y-88513535D01*
X153651428Y-88513535D02*
X153680000Y-88656392D01*
X153680000Y-88656392D02*
X153680000Y-88763535D01*
X153680000Y-88763535D02*
X153651428Y-88906392D01*
X153651428Y-88906392D02*
X153622857Y-88977821D01*
X153622857Y-88977821D02*
X153565714Y-89049250D01*
X153565714Y-89049250D02*
X153480000Y-89084964D01*
X153480000Y-89084964D02*
X153337143Y-89084964D01*
X152422857Y-86338678D02*
X152365715Y-86302964D01*
X152365715Y-86302964D02*
X152280000Y-86302964D01*
X152280000Y-86302964D02*
X152194286Y-86338678D01*
X152194286Y-86338678D02*
X152137143Y-86410107D01*
X152137143Y-86410107D02*
X152108572Y-86481535D01*
X152108572Y-86481535D02*
X152080000Y-86624392D01*
X152080000Y-86624392D02*
X152080000Y-86731535D01*
X152080000Y-86731535D02*
X152108572Y-86874392D01*
X152108572Y-86874392D02*
X152137143Y-86945821D01*
X152137143Y-86945821D02*
X152194286Y-87017250D01*
X152194286Y-87017250D02*
X152280000Y-87052964D01*
X152280000Y-87052964D02*
X152337143Y-87052964D01*
X152337143Y-87052964D02*
X152422857Y-87017250D01*
X152422857Y-87017250D02*
X152451429Y-86981535D01*
X152451429Y-86981535D02*
X152451429Y-86731535D01*
X152451429Y-86731535D02*
X152337143Y-86731535D01*
X152708572Y-87052964D02*
X152708572Y-86302964D01*
X152708572Y-86302964D02*
X153051429Y-87052964D01*
X153051429Y-87052964D02*
X153051429Y-86302964D01*
X153337143Y-87052964D02*
X153337143Y-86302964D01*
X153337143Y-86302964D02*
X153480000Y-86302964D01*
X153480000Y-86302964D02*
X153565714Y-86338678D01*
X153565714Y-86338678D02*
X153622857Y-86410107D01*
X153622857Y-86410107D02*
X153651428Y-86481535D01*
X153651428Y-86481535D02*
X153680000Y-86624392D01*
X153680000Y-86624392D02*
X153680000Y-86731535D01*
X153680000Y-86731535D02*
X153651428Y-86874392D01*
X153651428Y-86874392D02*
X153622857Y-86945821D01*
X153622857Y-86945821D02*
X153565714Y-87017250D01*
X153565714Y-87017250D02*
X153480000Y-87052964D01*
X153480000Y-87052964D02*
X153337143Y-87052964D01*
X150796571Y-106430107D02*
X150882285Y-106465821D01*
X150882285Y-106465821D02*
X150910856Y-106501535D01*
X150910856Y-106501535D02*
X150939428Y-106572964D01*
X150939428Y-106572964D02*
X150939428Y-106680107D01*
X150939428Y-106680107D02*
X150910856Y-106751535D01*
X150910856Y-106751535D02*
X150882285Y-106787250D01*
X150882285Y-106787250D02*
X150825142Y-106822964D01*
X150825142Y-106822964D02*
X150596571Y-106822964D01*
X150596571Y-106822964D02*
X150596571Y-106072964D01*
X150596571Y-106072964D02*
X150796571Y-106072964D01*
X150796571Y-106072964D02*
X150853714Y-106108678D01*
X150853714Y-106108678D02*
X150882285Y-106144392D01*
X150882285Y-106144392D02*
X150910856Y-106215821D01*
X150910856Y-106215821D02*
X150910856Y-106287250D01*
X150910856Y-106287250D02*
X150882285Y-106358678D01*
X150882285Y-106358678D02*
X150853714Y-106394392D01*
X150853714Y-106394392D02*
X150796571Y-106430107D01*
X150796571Y-106430107D02*
X150596571Y-106430107D01*
X151453714Y-106322964D02*
X151453714Y-106822964D01*
X151310856Y-106037250D02*
X151167999Y-106572964D01*
X151167999Y-106572964D02*
X151539428Y-106572964D01*
X152196571Y-106037250D02*
X151682285Y-107001535D01*
X152367999Y-106787250D02*
X152453714Y-106822964D01*
X152453714Y-106822964D02*
X152596571Y-106822964D01*
X152596571Y-106822964D02*
X152653714Y-106787250D01*
X152653714Y-106787250D02*
X152682285Y-106751535D01*
X152682285Y-106751535D02*
X152710856Y-106680107D01*
X152710856Y-106680107D02*
X152710856Y-106608678D01*
X152710856Y-106608678D02*
X152682285Y-106537250D01*
X152682285Y-106537250D02*
X152653714Y-106501535D01*
X152653714Y-106501535D02*
X152596571Y-106465821D01*
X152596571Y-106465821D02*
X152482285Y-106430107D01*
X152482285Y-106430107D02*
X152425142Y-106394392D01*
X152425142Y-106394392D02*
X152396571Y-106358678D01*
X152396571Y-106358678D02*
X152367999Y-106287250D01*
X152367999Y-106287250D02*
X152367999Y-106215821D01*
X152367999Y-106215821D02*
X152396571Y-106144392D01*
X152396571Y-106144392D02*
X152425142Y-106108678D01*
X152425142Y-106108678D02*
X152482285Y-106072964D01*
X152482285Y-106072964D02*
X152625142Y-106072964D01*
X152625142Y-106072964D02*
X152710856Y-106108678D01*
X152910857Y-106072964D02*
X153053714Y-106822964D01*
X153053714Y-106822964D02*
X153168000Y-106287250D01*
X153168000Y-106287250D02*
X153282285Y-106822964D01*
X153282285Y-106822964D02*
X153425143Y-106072964D01*
X153939428Y-106072964D02*
X153653714Y-106072964D01*
X153653714Y-106072964D02*
X153625142Y-106430107D01*
X153625142Y-106430107D02*
X153653714Y-106394392D01*
X153653714Y-106394392D02*
X153710857Y-106358678D01*
X153710857Y-106358678D02*
X153853714Y-106358678D01*
X153853714Y-106358678D02*
X153910857Y-106394392D01*
X153910857Y-106394392D02*
X153939428Y-106430107D01*
X153939428Y-106430107D02*
X153967999Y-106501535D01*
X153967999Y-106501535D02*
X153967999Y-106680107D01*
X153967999Y-106680107D02*
X153939428Y-106751535D01*
X153939428Y-106751535D02*
X153910857Y-106787250D01*
X153910857Y-106787250D02*
X153853714Y-106822964D01*
X153853714Y-106822964D02*
X153710857Y-106822964D01*
X153710857Y-106822964D02*
X153653714Y-106787250D01*
X153653714Y-106787250D02*
X153625142Y-106751535D01*
X136887999Y-88292964D02*
X137087999Y-89042964D01*
X137087999Y-89042964D02*
X137287999Y-88292964D01*
X137830857Y-88971535D02*
X137802285Y-89007250D01*
X137802285Y-89007250D02*
X137716571Y-89042964D01*
X137716571Y-89042964D02*
X137659428Y-89042964D01*
X137659428Y-89042964D02*
X137573714Y-89007250D01*
X137573714Y-89007250D02*
X137516571Y-88935821D01*
X137516571Y-88935821D02*
X137488000Y-88864392D01*
X137488000Y-88864392D02*
X137459428Y-88721535D01*
X137459428Y-88721535D02*
X137459428Y-88614392D01*
X137459428Y-88614392D02*
X137488000Y-88471535D01*
X137488000Y-88471535D02*
X137516571Y-88400107D01*
X137516571Y-88400107D02*
X137573714Y-88328678D01*
X137573714Y-88328678D02*
X137659428Y-88292964D01*
X137659428Y-88292964D02*
X137716571Y-88292964D01*
X137716571Y-88292964D02*
X137802285Y-88328678D01*
X137802285Y-88328678D02*
X137830857Y-88364392D01*
X138430857Y-88971535D02*
X138402285Y-89007250D01*
X138402285Y-89007250D02*
X138316571Y-89042964D01*
X138316571Y-89042964D02*
X138259428Y-89042964D01*
X138259428Y-89042964D02*
X138173714Y-89007250D01*
X138173714Y-89007250D02*
X138116571Y-88935821D01*
X138116571Y-88935821D02*
X138088000Y-88864392D01*
X138088000Y-88864392D02*
X138059428Y-88721535D01*
X138059428Y-88721535D02*
X138059428Y-88614392D01*
X138059428Y-88614392D02*
X138088000Y-88471535D01*
X138088000Y-88471535D02*
X138116571Y-88400107D01*
X138116571Y-88400107D02*
X138173714Y-88328678D01*
X138173714Y-88328678D02*
X138259428Y-88292964D01*
X138259428Y-88292964D02*
X138316571Y-88292964D01*
X138316571Y-88292964D02*
X138402285Y-88328678D01*
X138402285Y-88328678D02*
X138430857Y-88364392D01*
D11*
X144546570Y-78492809D02*
X144660856Y-78540428D01*
X144660856Y-78540428D02*
X144698951Y-78588047D01*
X144698951Y-78588047D02*
X144737047Y-78683285D01*
X144737047Y-78683285D02*
X144737047Y-78826142D01*
X144737047Y-78826142D02*
X144698951Y-78921380D01*
X144698951Y-78921380D02*
X144660856Y-78969000D01*
X144660856Y-78969000D02*
X144584666Y-79016619D01*
X144584666Y-79016619D02*
X144279904Y-79016619D01*
X144279904Y-79016619D02*
X144279904Y-78016619D01*
X144279904Y-78016619D02*
X144546570Y-78016619D01*
X144546570Y-78016619D02*
X144622761Y-78064238D01*
X144622761Y-78064238D02*
X144660856Y-78111857D01*
X144660856Y-78111857D02*
X144698951Y-78207095D01*
X144698951Y-78207095D02*
X144698951Y-78302333D01*
X144698951Y-78302333D02*
X144660856Y-78397571D01*
X144660856Y-78397571D02*
X144622761Y-78445190D01*
X144622761Y-78445190D02*
X144546570Y-78492809D01*
X144546570Y-78492809D02*
X144279904Y-78492809D01*
X145079904Y-79016619D02*
X145079904Y-78016619D01*
X145079904Y-78016619D02*
X145346570Y-78730904D01*
X145346570Y-78730904D02*
X145613237Y-78016619D01*
X145613237Y-78016619D02*
X145613237Y-79016619D01*
X145994190Y-79016619D02*
X145994190Y-78016619D01*
X145994190Y-78016619D02*
X146298952Y-78016619D01*
X146298952Y-78016619D02*
X146375142Y-78064238D01*
X146375142Y-78064238D02*
X146413237Y-78111857D01*
X146413237Y-78111857D02*
X146451333Y-78207095D01*
X146451333Y-78207095D02*
X146451333Y-78349952D01*
X146451333Y-78349952D02*
X146413237Y-78445190D01*
X146413237Y-78445190D02*
X146375142Y-78492809D01*
X146375142Y-78492809D02*
X146298952Y-78540428D01*
X146298952Y-78540428D02*
X145994190Y-78540428D01*
X147517999Y-79016619D02*
X147441809Y-78969000D01*
X147441809Y-78969000D02*
X147403714Y-78921380D01*
X147403714Y-78921380D02*
X147365618Y-78826142D01*
X147365618Y-78826142D02*
X147365618Y-78540428D01*
X147365618Y-78540428D02*
X147403714Y-78445190D01*
X147403714Y-78445190D02*
X147441809Y-78397571D01*
X147441809Y-78397571D02*
X147517999Y-78349952D01*
X147517999Y-78349952D02*
X147632285Y-78349952D01*
X147632285Y-78349952D02*
X147708476Y-78397571D01*
X147708476Y-78397571D02*
X147746571Y-78445190D01*
X147746571Y-78445190D02*
X147784666Y-78540428D01*
X147784666Y-78540428D02*
X147784666Y-78826142D01*
X147784666Y-78826142D02*
X147746571Y-78921380D01*
X147746571Y-78921380D02*
X147708476Y-78969000D01*
X147708476Y-78969000D02*
X147632285Y-79016619D01*
X147632285Y-79016619D02*
X147517999Y-79016619D01*
X148127524Y-78349952D02*
X148127524Y-79349952D01*
X148127524Y-78397571D02*
X148203714Y-78349952D01*
X148203714Y-78349952D02*
X148356095Y-78349952D01*
X148356095Y-78349952D02*
X148432286Y-78397571D01*
X148432286Y-78397571D02*
X148470381Y-78445190D01*
X148470381Y-78445190D02*
X148508476Y-78540428D01*
X148508476Y-78540428D02*
X148508476Y-78826142D01*
X148508476Y-78826142D02*
X148470381Y-78921380D01*
X148470381Y-78921380D02*
X148432286Y-78969000D01*
X148432286Y-78969000D02*
X148356095Y-79016619D01*
X148356095Y-79016619D02*
X148203714Y-79016619D01*
X148203714Y-79016619D02*
X148127524Y-78969000D01*
X148737048Y-78349952D02*
X149041810Y-78349952D01*
X148851334Y-78016619D02*
X148851334Y-78873761D01*
X148851334Y-78873761D02*
X148889429Y-78969000D01*
X148889429Y-78969000D02*
X148965619Y-79016619D01*
X148965619Y-79016619D02*
X149041810Y-79016619D01*
X149308477Y-79016619D02*
X149308477Y-78349952D01*
X149308477Y-78016619D02*
X149270381Y-78064238D01*
X149270381Y-78064238D02*
X149308477Y-78111857D01*
X149308477Y-78111857D02*
X149346572Y-78064238D01*
X149346572Y-78064238D02*
X149308477Y-78016619D01*
X149308477Y-78016619D02*
X149308477Y-78111857D01*
X149803714Y-79016619D02*
X149727524Y-78969000D01*
X149727524Y-78969000D02*
X149689429Y-78921380D01*
X149689429Y-78921380D02*
X149651333Y-78826142D01*
X149651333Y-78826142D02*
X149651333Y-78540428D01*
X149651333Y-78540428D02*
X149689429Y-78445190D01*
X149689429Y-78445190D02*
X149727524Y-78397571D01*
X149727524Y-78397571D02*
X149803714Y-78349952D01*
X149803714Y-78349952D02*
X149918000Y-78349952D01*
X149918000Y-78349952D02*
X149994191Y-78397571D01*
X149994191Y-78397571D02*
X150032286Y-78445190D01*
X150032286Y-78445190D02*
X150070381Y-78540428D01*
X150070381Y-78540428D02*
X150070381Y-78826142D01*
X150070381Y-78826142D02*
X150032286Y-78921380D01*
X150032286Y-78921380D02*
X149994191Y-78969000D01*
X149994191Y-78969000D02*
X149918000Y-79016619D01*
X149918000Y-79016619D02*
X149803714Y-79016619D01*
X150413239Y-78349952D02*
X150413239Y-79016619D01*
X150413239Y-78445190D02*
X150451334Y-78397571D01*
X150451334Y-78397571D02*
X150527524Y-78349952D01*
X150527524Y-78349952D02*
X150641810Y-78349952D01*
X150641810Y-78349952D02*
X150718001Y-78397571D01*
X150718001Y-78397571D02*
X150756096Y-78492809D01*
X150756096Y-78492809D02*
X150756096Y-79016619D01*
D12*
X137230857Y-83248678D02*
X137173715Y-83212964D01*
X137173715Y-83212964D02*
X137088000Y-83212964D01*
X137088000Y-83212964D02*
X137002286Y-83248678D01*
X137002286Y-83248678D02*
X136945143Y-83320107D01*
X136945143Y-83320107D02*
X136916572Y-83391535D01*
X136916572Y-83391535D02*
X136888000Y-83534392D01*
X136888000Y-83534392D02*
X136888000Y-83641535D01*
X136888000Y-83641535D02*
X136916572Y-83784392D01*
X136916572Y-83784392D02*
X136945143Y-83855821D01*
X136945143Y-83855821D02*
X137002286Y-83927250D01*
X137002286Y-83927250D02*
X137088000Y-83962964D01*
X137088000Y-83962964D02*
X137145143Y-83962964D01*
X137145143Y-83962964D02*
X137230857Y-83927250D01*
X137230857Y-83927250D02*
X137259429Y-83891535D01*
X137259429Y-83891535D02*
X137259429Y-83641535D01*
X137259429Y-83641535D02*
X137145143Y-83641535D01*
X137516572Y-83962964D02*
X137516572Y-83212964D01*
X137516572Y-83212964D02*
X137859429Y-83962964D01*
X137859429Y-83962964D02*
X137859429Y-83212964D01*
X138145143Y-83962964D02*
X138145143Y-83212964D01*
X138145143Y-83212964D02*
X138288000Y-83212964D01*
X138288000Y-83212964D02*
X138373714Y-83248678D01*
X138373714Y-83248678D02*
X138430857Y-83320107D01*
X138430857Y-83320107D02*
X138459428Y-83391535D01*
X138459428Y-83391535D02*
X138488000Y-83534392D01*
X138488000Y-83534392D02*
X138488000Y-83641535D01*
X138488000Y-83641535D02*
X138459428Y-83784392D01*
X138459428Y-83784392D02*
X138430857Y-83855821D01*
X138430857Y-83855821D02*
X138373714Y-83927250D01*
X138373714Y-83927250D02*
X138288000Y-83962964D01*
X138288000Y-83962964D02*
X138145143Y-83962964D01*
X150596571Y-96662964D02*
X150596571Y-95912964D01*
X150596571Y-95912964D02*
X150739428Y-95912964D01*
X150739428Y-95912964D02*
X150825142Y-95948678D01*
X150825142Y-95948678D02*
X150882285Y-96020107D01*
X150882285Y-96020107D02*
X150910856Y-96091535D01*
X150910856Y-96091535D02*
X150939428Y-96234392D01*
X150939428Y-96234392D02*
X150939428Y-96341535D01*
X150939428Y-96341535D02*
X150910856Y-96484392D01*
X150910856Y-96484392D02*
X150882285Y-96555821D01*
X150882285Y-96555821D02*
X150825142Y-96627250D01*
X150825142Y-96627250D02*
X150739428Y-96662964D01*
X150739428Y-96662964D02*
X150596571Y-96662964D01*
X151453714Y-96162964D02*
X151453714Y-96662964D01*
X151310856Y-95877250D02*
X151167999Y-96412964D01*
X151167999Y-96412964D02*
X151539428Y-96412964D01*
X152196571Y-95877250D02*
X151682285Y-96841535D01*
X152367999Y-96627250D02*
X152453714Y-96662964D01*
X152453714Y-96662964D02*
X152596571Y-96662964D01*
X152596571Y-96662964D02*
X152653714Y-96627250D01*
X152653714Y-96627250D02*
X152682285Y-96591535D01*
X152682285Y-96591535D02*
X152710856Y-96520107D01*
X152710856Y-96520107D02*
X152710856Y-96448678D01*
X152710856Y-96448678D02*
X152682285Y-96377250D01*
X152682285Y-96377250D02*
X152653714Y-96341535D01*
X152653714Y-96341535D02*
X152596571Y-96305821D01*
X152596571Y-96305821D02*
X152482285Y-96270107D01*
X152482285Y-96270107D02*
X152425142Y-96234392D01*
X152425142Y-96234392D02*
X152396571Y-96198678D01*
X152396571Y-96198678D02*
X152367999Y-96127250D01*
X152367999Y-96127250D02*
X152367999Y-96055821D01*
X152367999Y-96055821D02*
X152396571Y-95984392D01*
X152396571Y-95984392D02*
X152425142Y-95948678D01*
X152425142Y-95948678D02*
X152482285Y-95912964D01*
X152482285Y-95912964D02*
X152625142Y-95912964D01*
X152625142Y-95912964D02*
X152710856Y-95948678D01*
X152910857Y-95912964D02*
X153053714Y-96662964D01*
X153053714Y-96662964D02*
X153168000Y-96127250D01*
X153168000Y-96127250D02*
X153282285Y-96662964D01*
X153282285Y-96662964D02*
X153425143Y-95912964D01*
X153967999Y-96662964D02*
X153625142Y-96662964D01*
X153796571Y-96662964D02*
X153796571Y-95912964D01*
X153796571Y-95912964D02*
X153739428Y-96020107D01*
X153739428Y-96020107D02*
X153682285Y-96091535D01*
X153682285Y-96091535D02*
X153625142Y-96127250D01*
D10*
%TO.C,RSW2*%
X163802619Y-118099381D02*
X163326428Y-118432714D01*
X163802619Y-118670809D02*
X162802619Y-118670809D01*
X162802619Y-118670809D02*
X162802619Y-118289857D01*
X162802619Y-118289857D02*
X162850238Y-118194619D01*
X162850238Y-118194619D02*
X162897857Y-118147000D01*
X162897857Y-118147000D02*
X162993095Y-118099381D01*
X162993095Y-118099381D02*
X163135952Y-118099381D01*
X163135952Y-118099381D02*
X163231190Y-118147000D01*
X163231190Y-118147000D02*
X163278809Y-118194619D01*
X163278809Y-118194619D02*
X163326428Y-118289857D01*
X163326428Y-118289857D02*
X163326428Y-118670809D01*
X163278809Y-117670809D02*
X163278809Y-117337476D01*
X163802619Y-117194619D02*
X163802619Y-117670809D01*
X163802619Y-117670809D02*
X162802619Y-117670809D01*
X162802619Y-117670809D02*
X162802619Y-117194619D01*
X163755000Y-116813666D02*
X163802619Y-116670809D01*
X163802619Y-116670809D02*
X163802619Y-116432714D01*
X163802619Y-116432714D02*
X163755000Y-116337476D01*
X163755000Y-116337476D02*
X163707380Y-116289857D01*
X163707380Y-116289857D02*
X163612142Y-116242238D01*
X163612142Y-116242238D02*
X163516904Y-116242238D01*
X163516904Y-116242238D02*
X163421666Y-116289857D01*
X163421666Y-116289857D02*
X163374047Y-116337476D01*
X163374047Y-116337476D02*
X163326428Y-116432714D01*
X163326428Y-116432714D02*
X163278809Y-116623190D01*
X163278809Y-116623190D02*
X163231190Y-116718428D01*
X163231190Y-116718428D02*
X163183571Y-116766047D01*
X163183571Y-116766047D02*
X163088333Y-116813666D01*
X163088333Y-116813666D02*
X162993095Y-116813666D01*
X162993095Y-116813666D02*
X162897857Y-116766047D01*
X162897857Y-116766047D02*
X162850238Y-116718428D01*
X162850238Y-116718428D02*
X162802619Y-116623190D01*
X162802619Y-116623190D02*
X162802619Y-116385095D01*
X162802619Y-116385095D02*
X162850238Y-116242238D01*
X163278809Y-115813666D02*
X163278809Y-115480333D01*
X163802619Y-115337476D02*
X163802619Y-115813666D01*
X163802619Y-115813666D02*
X162802619Y-115813666D01*
X162802619Y-115813666D02*
X162802619Y-115337476D01*
X162802619Y-115051761D02*
X162802619Y-114480333D01*
X163802619Y-114766047D02*
X162802619Y-114766047D01*
%TO.C,RSW1*%
X155592619Y-118099381D02*
X155116428Y-118432714D01*
X155592619Y-118670809D02*
X154592619Y-118670809D01*
X154592619Y-118670809D02*
X154592619Y-118289857D01*
X154592619Y-118289857D02*
X154640238Y-118194619D01*
X154640238Y-118194619D02*
X154687857Y-118147000D01*
X154687857Y-118147000D02*
X154783095Y-118099381D01*
X154783095Y-118099381D02*
X154925952Y-118099381D01*
X154925952Y-118099381D02*
X155021190Y-118147000D01*
X155021190Y-118147000D02*
X155068809Y-118194619D01*
X155068809Y-118194619D02*
X155116428Y-118289857D01*
X155116428Y-118289857D02*
X155116428Y-118670809D01*
X155068809Y-117670809D02*
X155068809Y-117337476D01*
X155592619Y-117194619D02*
X155592619Y-117670809D01*
X155592619Y-117670809D02*
X154592619Y-117670809D01*
X154592619Y-117670809D02*
X154592619Y-117194619D01*
X155545000Y-116813666D02*
X155592619Y-116670809D01*
X155592619Y-116670809D02*
X155592619Y-116432714D01*
X155592619Y-116432714D02*
X155545000Y-116337476D01*
X155545000Y-116337476D02*
X155497380Y-116289857D01*
X155497380Y-116289857D02*
X155402142Y-116242238D01*
X155402142Y-116242238D02*
X155306904Y-116242238D01*
X155306904Y-116242238D02*
X155211666Y-116289857D01*
X155211666Y-116289857D02*
X155164047Y-116337476D01*
X155164047Y-116337476D02*
X155116428Y-116432714D01*
X155116428Y-116432714D02*
X155068809Y-116623190D01*
X155068809Y-116623190D02*
X155021190Y-116718428D01*
X155021190Y-116718428D02*
X154973571Y-116766047D01*
X154973571Y-116766047D02*
X154878333Y-116813666D01*
X154878333Y-116813666D02*
X154783095Y-116813666D01*
X154783095Y-116813666D02*
X154687857Y-116766047D01*
X154687857Y-116766047D02*
X154640238Y-116718428D01*
X154640238Y-116718428D02*
X154592619Y-116623190D01*
X154592619Y-116623190D02*
X154592619Y-116385095D01*
X154592619Y-116385095D02*
X154640238Y-116242238D01*
X155068809Y-115813666D02*
X155068809Y-115480333D01*
X155592619Y-115337476D02*
X155592619Y-115813666D01*
X155592619Y-115813666D02*
X154592619Y-115813666D01*
X154592619Y-115813666D02*
X154592619Y-115337476D01*
X154592619Y-115051761D02*
X154592619Y-114480333D01*
X155592619Y-114766047D02*
X154592619Y-114766047D01*
%TO.C,J3*%
X169829504Y-114433216D02*
X169984323Y-114433216D01*
X169984323Y-114433216D02*
X170061733Y-114471921D01*
X170061733Y-114471921D02*
X170139142Y-114549331D01*
X170139142Y-114549331D02*
X170177847Y-114704150D01*
X170177847Y-114704150D02*
X170177847Y-114975083D01*
X170177847Y-114975083D02*
X170139142Y-115129902D01*
X170139142Y-115129902D02*
X170061733Y-115207312D01*
X170061733Y-115207312D02*
X169984323Y-115246016D01*
X169984323Y-115246016D02*
X169829504Y-115246016D01*
X169829504Y-115246016D02*
X169752095Y-115207312D01*
X169752095Y-115207312D02*
X169674685Y-115129902D01*
X169674685Y-115129902D02*
X169635981Y-114975083D01*
X169635981Y-114975083D02*
X169635981Y-114704150D01*
X169635981Y-114704150D02*
X169674685Y-114549331D01*
X169674685Y-114549331D02*
X169752095Y-114471921D01*
X169752095Y-114471921D02*
X169829504Y-114433216D01*
X170913238Y-115246016D02*
X170526190Y-115246016D01*
X170526190Y-115246016D02*
X170526190Y-114433216D01*
X171184171Y-114820264D02*
X171455105Y-114820264D01*
X171571219Y-115246016D02*
X171184171Y-115246016D01*
X171184171Y-115246016D02*
X171184171Y-114433216D01*
X171184171Y-114433216D02*
X171571219Y-114433216D01*
X171919561Y-115246016D02*
X171919561Y-114433216D01*
X171919561Y-114433216D02*
X172113085Y-114433216D01*
X172113085Y-114433216D02*
X172229199Y-114471921D01*
X172229199Y-114471921D02*
X172306609Y-114549331D01*
X172306609Y-114549331D02*
X172345314Y-114626740D01*
X172345314Y-114626740D02*
X172384018Y-114781559D01*
X172384018Y-114781559D02*
X172384018Y-114897673D01*
X172384018Y-114897673D02*
X172345314Y-115052492D01*
X172345314Y-115052492D02*
X172306609Y-115129902D01*
X172306609Y-115129902D02*
X172229199Y-115207312D01*
X172229199Y-115207312D02*
X172113085Y-115246016D01*
X172113085Y-115246016D02*
X171919561Y-115246016D01*
%TO.C,J1*%
X146283504Y-114407216D02*
X146438323Y-114407216D01*
X146438323Y-114407216D02*
X146515733Y-114445921D01*
X146515733Y-114445921D02*
X146593142Y-114523331D01*
X146593142Y-114523331D02*
X146631847Y-114678150D01*
X146631847Y-114678150D02*
X146631847Y-114949083D01*
X146631847Y-114949083D02*
X146593142Y-115103902D01*
X146593142Y-115103902D02*
X146515733Y-115181312D01*
X146515733Y-115181312D02*
X146438323Y-115220016D01*
X146438323Y-115220016D02*
X146283504Y-115220016D01*
X146283504Y-115220016D02*
X146206095Y-115181312D01*
X146206095Y-115181312D02*
X146128685Y-115103902D01*
X146128685Y-115103902D02*
X146089981Y-114949083D01*
X146089981Y-114949083D02*
X146089981Y-114678150D01*
X146089981Y-114678150D02*
X146128685Y-114523331D01*
X146128685Y-114523331D02*
X146206095Y-114445921D01*
X146206095Y-114445921D02*
X146283504Y-114407216D01*
X147367238Y-115220016D02*
X146980190Y-115220016D01*
X146980190Y-115220016D02*
X146980190Y-114407216D01*
X147638171Y-114794264D02*
X147909105Y-114794264D01*
X148025219Y-115220016D02*
X147638171Y-115220016D01*
X147638171Y-115220016D02*
X147638171Y-114407216D01*
X147638171Y-114407216D02*
X148025219Y-114407216D01*
X148373561Y-115220016D02*
X148373561Y-114407216D01*
X148373561Y-114407216D02*
X148567085Y-114407216D01*
X148567085Y-114407216D02*
X148683199Y-114445921D01*
X148683199Y-114445921D02*
X148760609Y-114523331D01*
X148760609Y-114523331D02*
X148799314Y-114600740D01*
X148799314Y-114600740D02*
X148838018Y-114755559D01*
X148838018Y-114755559D02*
X148838018Y-114871673D01*
X148838018Y-114871673D02*
X148799314Y-115026492D01*
X148799314Y-115026492D02*
X148760609Y-115103902D01*
X148760609Y-115103902D02*
X148683199Y-115181312D01*
X148683199Y-115181312D02*
X148567085Y-115220016D01*
X148567085Y-115220016D02*
X148373561Y-115220016D01*
%TO.C,J6*%
X162040095Y-125538619D02*
X162611523Y-125538619D01*
X162325809Y-126538619D02*
X162325809Y-125538619D01*
X163516285Y-126538619D02*
X163182952Y-126062428D01*
X162944857Y-126538619D02*
X162944857Y-125538619D01*
X162944857Y-125538619D02*
X163325809Y-125538619D01*
X163325809Y-125538619D02*
X163421047Y-125586238D01*
X163421047Y-125586238D02*
X163468666Y-125633857D01*
X163468666Y-125633857D02*
X163516285Y-125729095D01*
X163516285Y-125729095D02*
X163516285Y-125871952D01*
X163516285Y-125871952D02*
X163468666Y-125967190D01*
X163468666Y-125967190D02*
X163421047Y-126014809D01*
X163421047Y-126014809D02*
X163325809Y-126062428D01*
X163325809Y-126062428D02*
X162944857Y-126062428D01*
X164516285Y-126538619D02*
X164182952Y-126062428D01*
X163944857Y-126538619D02*
X163944857Y-125538619D01*
X163944857Y-125538619D02*
X164325809Y-125538619D01*
X164325809Y-125538619D02*
X164421047Y-125586238D01*
X164421047Y-125586238D02*
X164468666Y-125633857D01*
X164468666Y-125633857D02*
X164516285Y-125729095D01*
X164516285Y-125729095D02*
X164516285Y-125871952D01*
X164516285Y-125871952D02*
X164468666Y-125967190D01*
X164468666Y-125967190D02*
X164421047Y-126014809D01*
X164421047Y-126014809D02*
X164325809Y-126062428D01*
X164325809Y-126062428D02*
X163944857Y-126062428D01*
X164897238Y-126491000D02*
X165040095Y-126538619D01*
X165040095Y-126538619D02*
X165278190Y-126538619D01*
X165278190Y-126538619D02*
X165373428Y-126491000D01*
X165373428Y-126491000D02*
X165421047Y-126443380D01*
X165421047Y-126443380D02*
X165468666Y-126348142D01*
X165468666Y-126348142D02*
X165468666Y-126252904D01*
X165468666Y-126252904D02*
X165421047Y-126157666D01*
X165421047Y-126157666D02*
X165373428Y-126110047D01*
X165373428Y-126110047D02*
X165278190Y-126062428D01*
X165278190Y-126062428D02*
X165087714Y-126014809D01*
X165087714Y-126014809D02*
X164992476Y-125967190D01*
X164992476Y-125967190D02*
X164944857Y-125919571D01*
X164944857Y-125919571D02*
X164897238Y-125824333D01*
X164897238Y-125824333D02*
X164897238Y-125729095D01*
X164897238Y-125729095D02*
X164944857Y-125633857D01*
X164944857Y-125633857D02*
X164992476Y-125586238D01*
X164992476Y-125586238D02*
X165087714Y-125538619D01*
X165087714Y-125538619D02*
X165325809Y-125538619D01*
X165325809Y-125538619D02*
X165468666Y-125586238D01*
%TO.C,J5*%
X152896095Y-121982619D02*
X153467523Y-121982619D01*
X153181809Y-122982619D02*
X153181809Y-121982619D01*
X154372285Y-122982619D02*
X154038952Y-122506428D01*
X153800857Y-122982619D02*
X153800857Y-121982619D01*
X153800857Y-121982619D02*
X154181809Y-121982619D01*
X154181809Y-121982619D02*
X154277047Y-122030238D01*
X154277047Y-122030238D02*
X154324666Y-122077857D01*
X154324666Y-122077857D02*
X154372285Y-122173095D01*
X154372285Y-122173095D02*
X154372285Y-122315952D01*
X154372285Y-122315952D02*
X154324666Y-122411190D01*
X154324666Y-122411190D02*
X154277047Y-122458809D01*
X154277047Y-122458809D02*
X154181809Y-122506428D01*
X154181809Y-122506428D02*
X153800857Y-122506428D01*
X155372285Y-122982619D02*
X155038952Y-122506428D01*
X154800857Y-122982619D02*
X154800857Y-121982619D01*
X154800857Y-121982619D02*
X155181809Y-121982619D01*
X155181809Y-121982619D02*
X155277047Y-122030238D01*
X155277047Y-122030238D02*
X155324666Y-122077857D01*
X155324666Y-122077857D02*
X155372285Y-122173095D01*
X155372285Y-122173095D02*
X155372285Y-122315952D01*
X155372285Y-122315952D02*
X155324666Y-122411190D01*
X155324666Y-122411190D02*
X155277047Y-122458809D01*
X155277047Y-122458809D02*
X155181809Y-122506428D01*
X155181809Y-122506428D02*
X154800857Y-122506428D01*
X155753238Y-122935000D02*
X155896095Y-122982619D01*
X155896095Y-122982619D02*
X156134190Y-122982619D01*
X156134190Y-122982619D02*
X156229428Y-122935000D01*
X156229428Y-122935000D02*
X156277047Y-122887380D01*
X156277047Y-122887380D02*
X156324666Y-122792142D01*
X156324666Y-122792142D02*
X156324666Y-122696904D01*
X156324666Y-122696904D02*
X156277047Y-122601666D01*
X156277047Y-122601666D02*
X156229428Y-122554047D01*
X156229428Y-122554047D02*
X156134190Y-122506428D01*
X156134190Y-122506428D02*
X155943714Y-122458809D01*
X155943714Y-122458809D02*
X155848476Y-122411190D01*
X155848476Y-122411190D02*
X155800857Y-122363571D01*
X155800857Y-122363571D02*
X155753238Y-122268333D01*
X155753238Y-122268333D02*
X155753238Y-122173095D01*
X155753238Y-122173095D02*
X155800857Y-122077857D01*
X155800857Y-122077857D02*
X155848476Y-122030238D01*
X155848476Y-122030238D02*
X155943714Y-121982619D01*
X155943714Y-121982619D02*
X156181809Y-121982619D01*
X156181809Y-121982619D02*
X156324666Y-122030238D01*
%TO.C,SW8*%
X222816667Y-72040000D02*
X222959524Y-72087619D01*
X222959524Y-72087619D02*
X223197619Y-72087619D01*
X223197619Y-72087619D02*
X223292857Y-72040000D01*
X223292857Y-72040000D02*
X223340476Y-71992380D01*
X223340476Y-71992380D02*
X223388095Y-71897142D01*
X223388095Y-71897142D02*
X223388095Y-71801904D01*
X223388095Y-71801904D02*
X223340476Y-71706666D01*
X223340476Y-71706666D02*
X223292857Y-71659047D01*
X223292857Y-71659047D02*
X223197619Y-71611428D01*
X223197619Y-71611428D02*
X223007143Y-71563809D01*
X223007143Y-71563809D02*
X222911905Y-71516190D01*
X222911905Y-71516190D02*
X222864286Y-71468571D01*
X222864286Y-71468571D02*
X222816667Y-71373333D01*
X222816667Y-71373333D02*
X222816667Y-71278095D01*
X222816667Y-71278095D02*
X222864286Y-71182857D01*
X222864286Y-71182857D02*
X222911905Y-71135238D01*
X222911905Y-71135238D02*
X223007143Y-71087619D01*
X223007143Y-71087619D02*
X223245238Y-71087619D01*
X223245238Y-71087619D02*
X223388095Y-71135238D01*
X223721429Y-71087619D02*
X223959524Y-72087619D01*
X223959524Y-72087619D02*
X224150000Y-71373333D01*
X224150000Y-71373333D02*
X224340476Y-72087619D01*
X224340476Y-72087619D02*
X224578572Y-71087619D01*
X225102381Y-71516190D02*
X225007143Y-71468571D01*
X225007143Y-71468571D02*
X224959524Y-71420952D01*
X224959524Y-71420952D02*
X224911905Y-71325714D01*
X224911905Y-71325714D02*
X224911905Y-71278095D01*
X224911905Y-71278095D02*
X224959524Y-71182857D01*
X224959524Y-71182857D02*
X225007143Y-71135238D01*
X225007143Y-71135238D02*
X225102381Y-71087619D01*
X225102381Y-71087619D02*
X225292857Y-71087619D01*
X225292857Y-71087619D02*
X225388095Y-71135238D01*
X225388095Y-71135238D02*
X225435714Y-71182857D01*
X225435714Y-71182857D02*
X225483333Y-71278095D01*
X225483333Y-71278095D02*
X225483333Y-71325714D01*
X225483333Y-71325714D02*
X225435714Y-71420952D01*
X225435714Y-71420952D02*
X225388095Y-71468571D01*
X225388095Y-71468571D02*
X225292857Y-71516190D01*
X225292857Y-71516190D02*
X225102381Y-71516190D01*
X225102381Y-71516190D02*
X225007143Y-71563809D01*
X225007143Y-71563809D02*
X224959524Y-71611428D01*
X224959524Y-71611428D02*
X224911905Y-71706666D01*
X224911905Y-71706666D02*
X224911905Y-71897142D01*
X224911905Y-71897142D02*
X224959524Y-71992380D01*
X224959524Y-71992380D02*
X225007143Y-72040000D01*
X225007143Y-72040000D02*
X225102381Y-72087619D01*
X225102381Y-72087619D02*
X225292857Y-72087619D01*
X225292857Y-72087619D02*
X225388095Y-72040000D01*
X225388095Y-72040000D02*
X225435714Y-71992380D01*
X225435714Y-71992380D02*
X225483333Y-71897142D01*
X225483333Y-71897142D02*
X225483333Y-71706666D01*
X225483333Y-71706666D02*
X225435714Y-71611428D01*
X225435714Y-71611428D02*
X225388095Y-71563809D01*
X225388095Y-71563809D02*
X225292857Y-71516190D01*
%TO.C,SW9*%
X241816667Y-74415000D02*
X241959524Y-74462619D01*
X241959524Y-74462619D02*
X242197619Y-74462619D01*
X242197619Y-74462619D02*
X242292857Y-74415000D01*
X242292857Y-74415000D02*
X242340476Y-74367380D01*
X242340476Y-74367380D02*
X242388095Y-74272142D01*
X242388095Y-74272142D02*
X242388095Y-74176904D01*
X242388095Y-74176904D02*
X242340476Y-74081666D01*
X242340476Y-74081666D02*
X242292857Y-74034047D01*
X242292857Y-74034047D02*
X242197619Y-73986428D01*
X242197619Y-73986428D02*
X242007143Y-73938809D01*
X242007143Y-73938809D02*
X241911905Y-73891190D01*
X241911905Y-73891190D02*
X241864286Y-73843571D01*
X241864286Y-73843571D02*
X241816667Y-73748333D01*
X241816667Y-73748333D02*
X241816667Y-73653095D01*
X241816667Y-73653095D02*
X241864286Y-73557857D01*
X241864286Y-73557857D02*
X241911905Y-73510238D01*
X241911905Y-73510238D02*
X242007143Y-73462619D01*
X242007143Y-73462619D02*
X242245238Y-73462619D01*
X242245238Y-73462619D02*
X242388095Y-73510238D01*
X242721429Y-73462619D02*
X242959524Y-74462619D01*
X242959524Y-74462619D02*
X243150000Y-73748333D01*
X243150000Y-73748333D02*
X243340476Y-74462619D01*
X243340476Y-74462619D02*
X243578572Y-73462619D01*
X244007143Y-74462619D02*
X244197619Y-74462619D01*
X244197619Y-74462619D02*
X244292857Y-74415000D01*
X244292857Y-74415000D02*
X244340476Y-74367380D01*
X244340476Y-74367380D02*
X244435714Y-74224523D01*
X244435714Y-74224523D02*
X244483333Y-74034047D01*
X244483333Y-74034047D02*
X244483333Y-73653095D01*
X244483333Y-73653095D02*
X244435714Y-73557857D01*
X244435714Y-73557857D02*
X244388095Y-73510238D01*
X244388095Y-73510238D02*
X244292857Y-73462619D01*
X244292857Y-73462619D02*
X244102381Y-73462619D01*
X244102381Y-73462619D02*
X244007143Y-73510238D01*
X244007143Y-73510238D02*
X243959524Y-73557857D01*
X243959524Y-73557857D02*
X243911905Y-73653095D01*
X243911905Y-73653095D02*
X243911905Y-73891190D01*
X243911905Y-73891190D02*
X243959524Y-73986428D01*
X243959524Y-73986428D02*
X244007143Y-74034047D01*
X244007143Y-74034047D02*
X244102381Y-74081666D01*
X244102381Y-74081666D02*
X244292857Y-74081666D01*
X244292857Y-74081666D02*
X244388095Y-74034047D01*
X244388095Y-74034047D02*
X244435714Y-73986428D01*
X244435714Y-73986428D02*
X244483333Y-73891190D01*
%TO.C,SW2*%
X64979667Y-74561000D02*
X65122524Y-74608619D01*
X65122524Y-74608619D02*
X65360619Y-74608619D01*
X65360619Y-74608619D02*
X65455857Y-74561000D01*
X65455857Y-74561000D02*
X65503476Y-74513380D01*
X65503476Y-74513380D02*
X65551095Y-74418142D01*
X65551095Y-74418142D02*
X65551095Y-74322904D01*
X65551095Y-74322904D02*
X65503476Y-74227666D01*
X65503476Y-74227666D02*
X65455857Y-74180047D01*
X65455857Y-74180047D02*
X65360619Y-74132428D01*
X65360619Y-74132428D02*
X65170143Y-74084809D01*
X65170143Y-74084809D02*
X65074905Y-74037190D01*
X65074905Y-74037190D02*
X65027286Y-73989571D01*
X65027286Y-73989571D02*
X64979667Y-73894333D01*
X64979667Y-73894333D02*
X64979667Y-73799095D01*
X64979667Y-73799095D02*
X65027286Y-73703857D01*
X65027286Y-73703857D02*
X65074905Y-73656238D01*
X65074905Y-73656238D02*
X65170143Y-73608619D01*
X65170143Y-73608619D02*
X65408238Y-73608619D01*
X65408238Y-73608619D02*
X65551095Y-73656238D01*
X65884429Y-73608619D02*
X66122524Y-74608619D01*
X66122524Y-74608619D02*
X66313000Y-73894333D01*
X66313000Y-73894333D02*
X66503476Y-74608619D01*
X66503476Y-74608619D02*
X66741572Y-73608619D01*
X67074905Y-73703857D02*
X67122524Y-73656238D01*
X67122524Y-73656238D02*
X67217762Y-73608619D01*
X67217762Y-73608619D02*
X67455857Y-73608619D01*
X67455857Y-73608619D02*
X67551095Y-73656238D01*
X67551095Y-73656238D02*
X67598714Y-73703857D01*
X67598714Y-73703857D02*
X67646333Y-73799095D01*
X67646333Y-73799095D02*
X67646333Y-73894333D01*
X67646333Y-73894333D02*
X67598714Y-74037190D01*
X67598714Y-74037190D02*
X67027286Y-74608619D01*
X67027286Y-74608619D02*
X67646333Y-74608619D01*
%TO.C,SW3*%
X83979667Y-72186000D02*
X84122524Y-72233619D01*
X84122524Y-72233619D02*
X84360619Y-72233619D01*
X84360619Y-72233619D02*
X84455857Y-72186000D01*
X84455857Y-72186000D02*
X84503476Y-72138380D01*
X84503476Y-72138380D02*
X84551095Y-72043142D01*
X84551095Y-72043142D02*
X84551095Y-71947904D01*
X84551095Y-71947904D02*
X84503476Y-71852666D01*
X84503476Y-71852666D02*
X84455857Y-71805047D01*
X84455857Y-71805047D02*
X84360619Y-71757428D01*
X84360619Y-71757428D02*
X84170143Y-71709809D01*
X84170143Y-71709809D02*
X84074905Y-71662190D01*
X84074905Y-71662190D02*
X84027286Y-71614571D01*
X84027286Y-71614571D02*
X83979667Y-71519333D01*
X83979667Y-71519333D02*
X83979667Y-71424095D01*
X83979667Y-71424095D02*
X84027286Y-71328857D01*
X84027286Y-71328857D02*
X84074905Y-71281238D01*
X84074905Y-71281238D02*
X84170143Y-71233619D01*
X84170143Y-71233619D02*
X84408238Y-71233619D01*
X84408238Y-71233619D02*
X84551095Y-71281238D01*
X84884429Y-71233619D02*
X85122524Y-72233619D01*
X85122524Y-72233619D02*
X85313000Y-71519333D01*
X85313000Y-71519333D02*
X85503476Y-72233619D01*
X85503476Y-72233619D02*
X85741572Y-71233619D01*
X86027286Y-71233619D02*
X86646333Y-71233619D01*
X86646333Y-71233619D02*
X86313000Y-71614571D01*
X86313000Y-71614571D02*
X86455857Y-71614571D01*
X86455857Y-71614571D02*
X86551095Y-71662190D01*
X86551095Y-71662190D02*
X86598714Y-71709809D01*
X86598714Y-71709809D02*
X86646333Y-71805047D01*
X86646333Y-71805047D02*
X86646333Y-72043142D01*
X86646333Y-72043142D02*
X86598714Y-72138380D01*
X86598714Y-72138380D02*
X86551095Y-72186000D01*
X86551095Y-72186000D02*
X86455857Y-72233619D01*
X86455857Y-72233619D02*
X86170143Y-72233619D01*
X86170143Y-72233619D02*
X86074905Y-72186000D01*
X86074905Y-72186000D02*
X86027286Y-72138380D01*
%TO.C,SW7*%
X203816667Y-74415000D02*
X203959524Y-74462619D01*
X203959524Y-74462619D02*
X204197619Y-74462619D01*
X204197619Y-74462619D02*
X204292857Y-74415000D01*
X204292857Y-74415000D02*
X204340476Y-74367380D01*
X204340476Y-74367380D02*
X204388095Y-74272142D01*
X204388095Y-74272142D02*
X204388095Y-74176904D01*
X204388095Y-74176904D02*
X204340476Y-74081666D01*
X204340476Y-74081666D02*
X204292857Y-74034047D01*
X204292857Y-74034047D02*
X204197619Y-73986428D01*
X204197619Y-73986428D02*
X204007143Y-73938809D01*
X204007143Y-73938809D02*
X203911905Y-73891190D01*
X203911905Y-73891190D02*
X203864286Y-73843571D01*
X203864286Y-73843571D02*
X203816667Y-73748333D01*
X203816667Y-73748333D02*
X203816667Y-73653095D01*
X203816667Y-73653095D02*
X203864286Y-73557857D01*
X203864286Y-73557857D02*
X203911905Y-73510238D01*
X203911905Y-73510238D02*
X204007143Y-73462619D01*
X204007143Y-73462619D02*
X204245238Y-73462619D01*
X204245238Y-73462619D02*
X204388095Y-73510238D01*
X204721429Y-73462619D02*
X204959524Y-74462619D01*
X204959524Y-74462619D02*
X205150000Y-73748333D01*
X205150000Y-73748333D02*
X205340476Y-74462619D01*
X205340476Y-74462619D02*
X205578572Y-73462619D01*
X205864286Y-73462619D02*
X206530952Y-73462619D01*
X206530952Y-73462619D02*
X206102381Y-74462619D01*
%TO.C,SW1*%
X45979667Y-98311000D02*
X46122524Y-98358619D01*
X46122524Y-98358619D02*
X46360619Y-98358619D01*
X46360619Y-98358619D02*
X46455857Y-98311000D01*
X46455857Y-98311000D02*
X46503476Y-98263380D01*
X46503476Y-98263380D02*
X46551095Y-98168142D01*
X46551095Y-98168142D02*
X46551095Y-98072904D01*
X46551095Y-98072904D02*
X46503476Y-97977666D01*
X46503476Y-97977666D02*
X46455857Y-97930047D01*
X46455857Y-97930047D02*
X46360619Y-97882428D01*
X46360619Y-97882428D02*
X46170143Y-97834809D01*
X46170143Y-97834809D02*
X46074905Y-97787190D01*
X46074905Y-97787190D02*
X46027286Y-97739571D01*
X46027286Y-97739571D02*
X45979667Y-97644333D01*
X45979667Y-97644333D02*
X45979667Y-97549095D01*
X45979667Y-97549095D02*
X46027286Y-97453857D01*
X46027286Y-97453857D02*
X46074905Y-97406238D01*
X46074905Y-97406238D02*
X46170143Y-97358619D01*
X46170143Y-97358619D02*
X46408238Y-97358619D01*
X46408238Y-97358619D02*
X46551095Y-97406238D01*
X46884429Y-97358619D02*
X47122524Y-98358619D01*
X47122524Y-98358619D02*
X47313000Y-97644333D01*
X47313000Y-97644333D02*
X47503476Y-98358619D01*
X47503476Y-98358619D02*
X47741572Y-97358619D01*
X48646333Y-98358619D02*
X48074905Y-98358619D01*
X48360619Y-98358619D02*
X48360619Y-97358619D01*
X48360619Y-97358619D02*
X48265381Y-97501476D01*
X48265381Y-97501476D02*
X48170143Y-97596714D01*
X48170143Y-97596714D02*
X48074905Y-97644333D01*
%TO.C,SW5*%
X140303685Y-136517582D02*
X140403594Y-136630250D01*
X140403594Y-136630250D02*
X140609790Y-136749297D01*
X140609790Y-136749297D02*
X140716078Y-136755677D01*
X140716078Y-136755677D02*
X140781127Y-136738247D01*
X140781127Y-136738247D02*
X140869986Y-136679578D01*
X140869986Y-136679578D02*
X140917605Y-136597099D01*
X140917605Y-136597099D02*
X140923984Y-136490811D01*
X140923984Y-136490811D02*
X140906555Y-136425762D01*
X140906555Y-136425762D02*
X140847886Y-136336904D01*
X140847886Y-136336904D02*
X140706738Y-136200427D01*
X140706738Y-136200427D02*
X140648069Y-136111568D01*
X140648069Y-136111568D02*
X140630639Y-136046520D01*
X140630639Y-136046520D02*
X140637019Y-135940231D01*
X140637019Y-135940231D02*
X140684638Y-135857753D01*
X140684638Y-135857753D02*
X140773496Y-135799084D01*
X140773496Y-135799084D02*
X140838545Y-135781654D01*
X140838545Y-135781654D02*
X140944833Y-135788034D01*
X140944833Y-135788034D02*
X141151030Y-135907081D01*
X141151030Y-135907081D02*
X141250938Y-136019749D01*
X141563423Y-136145177D02*
X141269619Y-137130250D01*
X141269619Y-137130250D02*
X141791719Y-136606898D01*
X141791719Y-136606898D02*
X141599534Y-137320726D01*
X141599534Y-137320726D02*
X142305730Y-136573748D01*
X143048038Y-137002319D02*
X142635645Y-136764224D01*
X142635645Y-136764224D02*
X142356310Y-137152808D01*
X142356310Y-137152808D02*
X142421359Y-137135378D01*
X142421359Y-137135378D02*
X142527647Y-137141758D01*
X142527647Y-137141758D02*
X142733843Y-137260805D01*
X142733843Y-137260805D02*
X142792513Y-137349664D01*
X142792513Y-137349664D02*
X142809942Y-137414712D01*
X142809942Y-137414712D02*
X142803563Y-137521000D01*
X142803563Y-137521000D02*
X142684515Y-137727197D01*
X142684515Y-137727197D02*
X142595657Y-137785866D01*
X142595657Y-137785866D02*
X142530608Y-137803296D01*
X142530608Y-137803296D02*
X142424320Y-137796916D01*
X142424320Y-137796916D02*
X142218123Y-137677869D01*
X142218123Y-137677869D02*
X142159454Y-137589010D01*
X142159454Y-137589010D02*
X142142024Y-137523961D01*
%TO.C,SW6*%
X168055685Y-142204914D02*
X168203213Y-142174725D01*
X168203213Y-142174725D02*
X168409409Y-142055678D01*
X168409409Y-142055678D02*
X168468078Y-141966819D01*
X168468078Y-141966819D02*
X168485508Y-141901770D01*
X168485508Y-141901770D02*
X168479129Y-141795482D01*
X168479129Y-141795482D02*
X168431509Y-141713004D01*
X168431509Y-141713004D02*
X168342651Y-141654335D01*
X168342651Y-141654335D02*
X168277602Y-141636905D01*
X168277602Y-141636905D02*
X168171314Y-141643285D01*
X168171314Y-141643285D02*
X167982547Y-141697283D01*
X167982547Y-141697283D02*
X167876259Y-141703663D01*
X167876259Y-141703663D02*
X167811210Y-141686233D01*
X167811210Y-141686233D02*
X167722352Y-141627564D01*
X167722352Y-141627564D02*
X167674733Y-141545086D01*
X167674733Y-141545086D02*
X167668353Y-141438797D01*
X167668353Y-141438797D02*
X167685783Y-141373749D01*
X167685783Y-141373749D02*
X167744452Y-141284890D01*
X167744452Y-141284890D02*
X167950649Y-141165843D01*
X167950649Y-141165843D02*
X168098176Y-141135653D01*
X168363042Y-140927747D02*
X169069238Y-141674725D01*
X169069238Y-141674725D02*
X168877053Y-140960897D01*
X168877053Y-140960897D02*
X169399153Y-141484249D01*
X169399153Y-141484249D02*
X169105349Y-140499176D01*
X169806417Y-140094414D02*
X169641460Y-140189652D01*
X169641460Y-140189652D02*
X169582791Y-140278511D01*
X169582791Y-140278511D02*
X169565361Y-140343559D01*
X169565361Y-140343559D02*
X169554311Y-140514896D01*
X169554311Y-140514896D02*
X169608310Y-140703663D01*
X169608310Y-140703663D02*
X169798786Y-141033578D01*
X169798786Y-141033578D02*
X169887645Y-141092247D01*
X169887645Y-141092247D02*
X169952693Y-141109676D01*
X169952693Y-141109676D02*
X170058981Y-141103297D01*
X170058981Y-141103297D02*
X170223939Y-141008059D01*
X170223939Y-141008059D02*
X170282608Y-140919200D01*
X170282608Y-140919200D02*
X170300038Y-140854151D01*
X170300038Y-140854151D02*
X170293658Y-140747863D01*
X170293658Y-140747863D02*
X170174610Y-140541667D01*
X170174610Y-140541667D02*
X170085752Y-140482998D01*
X170085752Y-140482998D02*
X170020703Y-140465568D01*
X170020703Y-140465568D02*
X169914415Y-140471948D01*
X169914415Y-140471948D02*
X169749458Y-140567186D01*
X169749458Y-140567186D02*
X169690789Y-140656044D01*
X169690789Y-140656044D02*
X169673359Y-140721093D01*
X169673359Y-140721093D02*
X169679739Y-140827381D01*
%TO.C,SW10*%
X260340476Y-98165000D02*
X260483333Y-98212619D01*
X260483333Y-98212619D02*
X260721428Y-98212619D01*
X260721428Y-98212619D02*
X260816666Y-98165000D01*
X260816666Y-98165000D02*
X260864285Y-98117380D01*
X260864285Y-98117380D02*
X260911904Y-98022142D01*
X260911904Y-98022142D02*
X260911904Y-97926904D01*
X260911904Y-97926904D02*
X260864285Y-97831666D01*
X260864285Y-97831666D02*
X260816666Y-97784047D01*
X260816666Y-97784047D02*
X260721428Y-97736428D01*
X260721428Y-97736428D02*
X260530952Y-97688809D01*
X260530952Y-97688809D02*
X260435714Y-97641190D01*
X260435714Y-97641190D02*
X260388095Y-97593571D01*
X260388095Y-97593571D02*
X260340476Y-97498333D01*
X260340476Y-97498333D02*
X260340476Y-97403095D01*
X260340476Y-97403095D02*
X260388095Y-97307857D01*
X260388095Y-97307857D02*
X260435714Y-97260238D01*
X260435714Y-97260238D02*
X260530952Y-97212619D01*
X260530952Y-97212619D02*
X260769047Y-97212619D01*
X260769047Y-97212619D02*
X260911904Y-97260238D01*
X261245238Y-97212619D02*
X261483333Y-98212619D01*
X261483333Y-98212619D02*
X261673809Y-97498333D01*
X261673809Y-97498333D02*
X261864285Y-98212619D01*
X261864285Y-98212619D02*
X262102381Y-97212619D01*
X263007142Y-98212619D02*
X262435714Y-98212619D01*
X262721428Y-98212619D02*
X262721428Y-97212619D01*
X262721428Y-97212619D02*
X262626190Y-97355476D01*
X262626190Y-97355476D02*
X262530952Y-97450714D01*
X262530952Y-97450714D02*
X262435714Y-97498333D01*
X263626190Y-97212619D02*
X263721428Y-97212619D01*
X263721428Y-97212619D02*
X263816666Y-97260238D01*
X263816666Y-97260238D02*
X263864285Y-97307857D01*
X263864285Y-97307857D02*
X263911904Y-97403095D01*
X263911904Y-97403095D02*
X263959523Y-97593571D01*
X263959523Y-97593571D02*
X263959523Y-97831666D01*
X263959523Y-97831666D02*
X263911904Y-98022142D01*
X263911904Y-98022142D02*
X263864285Y-98117380D01*
X263864285Y-98117380D02*
X263816666Y-98165000D01*
X263816666Y-98165000D02*
X263721428Y-98212619D01*
X263721428Y-98212619D02*
X263626190Y-98212619D01*
X263626190Y-98212619D02*
X263530952Y-98165000D01*
X263530952Y-98165000D02*
X263483333Y-98117380D01*
X263483333Y-98117380D02*
X263435714Y-98022142D01*
X263435714Y-98022142D02*
X263388095Y-97831666D01*
X263388095Y-97831666D02*
X263388095Y-97593571D01*
X263388095Y-97593571D02*
X263435714Y-97403095D01*
X263435714Y-97403095D02*
X263483333Y-97307857D01*
X263483333Y-97307857D02*
X263530952Y-97260238D01*
X263530952Y-97260238D02*
X263626190Y-97212619D01*
%TO.C,SW4*%
X102979667Y-74561000D02*
X103122524Y-74608619D01*
X103122524Y-74608619D02*
X103360619Y-74608619D01*
X103360619Y-74608619D02*
X103455857Y-74561000D01*
X103455857Y-74561000D02*
X103503476Y-74513380D01*
X103503476Y-74513380D02*
X103551095Y-74418142D01*
X103551095Y-74418142D02*
X103551095Y-74322904D01*
X103551095Y-74322904D02*
X103503476Y-74227666D01*
X103503476Y-74227666D02*
X103455857Y-74180047D01*
X103455857Y-74180047D02*
X103360619Y-74132428D01*
X103360619Y-74132428D02*
X103170143Y-74084809D01*
X103170143Y-74084809D02*
X103074905Y-74037190D01*
X103074905Y-74037190D02*
X103027286Y-73989571D01*
X103027286Y-73989571D02*
X102979667Y-73894333D01*
X102979667Y-73894333D02*
X102979667Y-73799095D01*
X102979667Y-73799095D02*
X103027286Y-73703857D01*
X103027286Y-73703857D02*
X103074905Y-73656238D01*
X103074905Y-73656238D02*
X103170143Y-73608619D01*
X103170143Y-73608619D02*
X103408238Y-73608619D01*
X103408238Y-73608619D02*
X103551095Y-73656238D01*
X103884429Y-73608619D02*
X104122524Y-74608619D01*
X104122524Y-74608619D02*
X104313000Y-73894333D01*
X104313000Y-73894333D02*
X104503476Y-74608619D01*
X104503476Y-74608619D02*
X104741572Y-73608619D01*
X105551095Y-73941952D02*
X105551095Y-74608619D01*
X105313000Y-73561000D02*
X105074905Y-74275285D01*
X105074905Y-74275285D02*
X105693952Y-74275285D01*
%TO.C,U2*%
D13*
X179866600Y-79766000D02*
X177366600Y-79766000D01*
X177366600Y-77266000D01*
X179866600Y-77266000D01*
X179866600Y-79766000D01*
G36*
X179866600Y-79766000D02*
G01*
X177366600Y-79766000D01*
X177366600Y-77266000D01*
X179866600Y-77266000D01*
X179866600Y-79766000D01*
G37*
X164686600Y-79766000D02*
X162146600Y-79766000D01*
X162146600Y-77266000D01*
X164686600Y-77266000D01*
X164686600Y-79766000D01*
G36*
X164686600Y-79766000D02*
G01*
X162146600Y-79766000D01*
X162146600Y-77266000D01*
X164686600Y-77266000D01*
X164686600Y-79766000D01*
G37*
X171526600Y-97586000D02*
X170526600Y-97586000D01*
X171026600Y-96586000D01*
X171526600Y-97586000D01*
G36*
X171526600Y-97586000D02*
G01*
X170526600Y-97586000D01*
X171026600Y-96586000D01*
X171526600Y-97586000D01*
G37*
X171026600Y-93506000D02*
X170526600Y-92506000D01*
X171526600Y-92506000D01*
X171026600Y-93506000D01*
G36*
X171026600Y-93506000D02*
G01*
X170526600Y-92506000D01*
X171526600Y-92506000D01*
X171026600Y-93506000D01*
G37*
D10*
X179906600Y-110286000D02*
X179906600Y-77266000D01*
X179906600Y-77266000D02*
X177366600Y-77266000D01*
X177376600Y-110286000D02*
X179906600Y-110286000D01*
X177366600Y-77266000D02*
X177366600Y-79766000D01*
D14*
X171026600Y-97546000D02*
X171026600Y-98546000D01*
X171026600Y-92546000D02*
X171026600Y-91546000D01*
D10*
X164686600Y-77266000D02*
X164686600Y-79766000D01*
X164676600Y-77266000D02*
X162146600Y-77266000D01*
X162146600Y-110286000D02*
X164676600Y-110286000D01*
X162146600Y-77266000D02*
X162146600Y-110286000D01*
%TO.C,U1*%
D13*
X156358000Y-79766000D02*
X153858000Y-79766000D01*
X153858000Y-77266000D01*
X156358000Y-77266000D01*
X156358000Y-79766000D01*
G36*
X156358000Y-79766000D02*
G01*
X153858000Y-79766000D01*
X153858000Y-77266000D01*
X156358000Y-77266000D01*
X156358000Y-79766000D01*
G37*
X141178000Y-79766000D02*
X138638000Y-79766000D01*
X138638000Y-77266000D01*
X141178000Y-77266000D01*
X141178000Y-79766000D01*
G36*
X141178000Y-79766000D02*
G01*
X138638000Y-79766000D01*
X138638000Y-77266000D01*
X141178000Y-77266000D01*
X141178000Y-79766000D01*
G37*
X148018000Y-97586000D02*
X147018000Y-97586000D01*
X147518000Y-96586000D01*
X148018000Y-97586000D01*
G36*
X148018000Y-97586000D02*
G01*
X147018000Y-97586000D01*
X147518000Y-96586000D01*
X148018000Y-97586000D01*
G37*
X147518000Y-93506000D02*
X147018000Y-92506000D01*
X148018000Y-92506000D01*
X147518000Y-93506000D01*
G36*
X147518000Y-93506000D02*
G01*
X147018000Y-92506000D01*
X148018000Y-92506000D01*
X147518000Y-93506000D01*
G37*
D10*
X156398000Y-110286000D02*
X156398000Y-77266000D01*
X156398000Y-77266000D02*
X153858000Y-77266000D01*
X153868000Y-110286000D02*
X156398000Y-110286000D01*
X153858000Y-77266000D02*
X153858000Y-79766000D01*
D14*
X147518000Y-97546000D02*
X147518000Y-98546000D01*
X147518000Y-92546000D02*
X147518000Y-91546000D01*
D10*
X141178000Y-77266000D02*
X141178000Y-79766000D01*
X141168000Y-77266000D02*
X138638000Y-77266000D01*
X138638000Y-110286000D02*
X141168000Y-110286000D01*
X138638000Y-77266000D02*
X138638000Y-110286000D01*
%TO.C,RSW2*%
X161740000Y-119497000D02*
X161990000Y-119497000D01*
X161740000Y-119497000D02*
X161740000Y-113797000D01*
X164940000Y-119497000D02*
X164690000Y-119497000D01*
X164940000Y-119497000D02*
X164940000Y-113797000D01*
X161740000Y-113797000D02*
X161990000Y-113797000D01*
X164940000Y-113797000D02*
X164690000Y-113797000D01*
%TO.C,RSW1*%
X153530000Y-119497000D02*
X153780000Y-119497000D01*
X153530000Y-119497000D02*
X153530000Y-113797000D01*
X156730000Y-119497000D02*
X156480000Y-119497000D01*
X156730000Y-119497000D02*
X156730000Y-113797000D01*
X153530000Y-113797000D02*
X153780000Y-113797000D01*
X156730000Y-113797000D02*
X156480000Y-113797000D01*
%TO.C,J6*%
X161573000Y-127195000D02*
X161573000Y-121395000D01*
X173323000Y-127195000D02*
X161573000Y-127195000D01*
X161573000Y-121395000D02*
X173323000Y-121395000D01*
X173323000Y-121395000D02*
X173323000Y-127195000D01*
%TO.C,J5*%
X156840000Y-121408000D02*
X156840000Y-127208000D01*
X145090000Y-121408000D02*
X156840000Y-121408000D01*
X156840000Y-127208000D02*
X145090000Y-127208000D01*
X145090000Y-127208000D02*
X145090000Y-121408000D01*
%TO.C,SW8*%
X221650000Y-70625000D02*
X222650000Y-70625000D01*
X221650000Y-71625000D02*
X221650000Y-70625000D01*
X221650000Y-83625000D02*
X221650000Y-84625000D01*
X221650000Y-84625000D02*
X222650000Y-84625000D01*
X234650000Y-84625000D02*
X235650000Y-84625000D01*
X235650000Y-70625000D02*
X234650000Y-70625000D01*
X235650000Y-70625000D02*
X235650000Y-71625000D01*
X235650000Y-84625000D02*
X235650000Y-83625000D01*
%TO.C,SW9*%
X240650000Y-73000000D02*
X241650000Y-73000000D01*
X240650000Y-74000000D02*
X240650000Y-73000000D01*
X240650000Y-86000000D02*
X240650000Y-87000000D01*
X240650000Y-87000000D02*
X241650000Y-87000000D01*
X253650000Y-87000000D02*
X254650000Y-87000000D01*
X254650000Y-73000000D02*
X253650000Y-73000000D01*
X254650000Y-73000000D02*
X254650000Y-74000000D01*
X254650000Y-87000000D02*
X254650000Y-86000000D01*
%TO.C,SW2*%
X63813000Y-73146000D02*
X64813000Y-73146000D01*
X63813000Y-74146000D02*
X63813000Y-73146000D01*
X63813000Y-86146000D02*
X63813000Y-87146000D01*
X63813000Y-87146000D02*
X64813000Y-87146000D01*
X76813000Y-87146000D02*
X77813000Y-87146000D01*
X77813000Y-73146000D02*
X76813000Y-73146000D01*
X77813000Y-73146000D02*
X77813000Y-74146000D01*
X77813000Y-87146000D02*
X77813000Y-86146000D01*
%TO.C,SW3*%
X82813000Y-70771000D02*
X83813000Y-70771000D01*
X82813000Y-71771000D02*
X82813000Y-70771000D01*
X82813000Y-83771000D02*
X82813000Y-84771000D01*
X82813000Y-84771000D02*
X83813000Y-84771000D01*
X95813000Y-84771000D02*
X96813000Y-84771000D01*
X96813000Y-70771000D02*
X95813000Y-70771000D01*
X96813000Y-70771000D02*
X96813000Y-71771000D01*
X96813000Y-84771000D02*
X96813000Y-83771000D01*
%TO.C,SW7*%
X202650000Y-73000000D02*
X203650000Y-73000000D01*
X202650000Y-74000000D02*
X202650000Y-73000000D01*
X202650000Y-86000000D02*
X202650000Y-87000000D01*
X202650000Y-87000000D02*
X203650000Y-87000000D01*
X215650000Y-87000000D02*
X216650000Y-87000000D01*
X216650000Y-73000000D02*
X215650000Y-73000000D01*
X216650000Y-73000000D02*
X216650000Y-74000000D01*
X216650000Y-87000000D02*
X216650000Y-86000000D01*
%TO.C,SW1*%
X44813000Y-96896000D02*
X45813000Y-96896000D01*
X44813000Y-97896000D02*
X44813000Y-96896000D01*
X44813000Y-109896000D02*
X44813000Y-110896000D01*
X44813000Y-110896000D02*
X45813000Y-110896000D01*
X57813000Y-110896000D02*
X58813000Y-110896000D01*
X58813000Y-96896000D02*
X57813000Y-96896000D01*
X58813000Y-96896000D02*
X58813000Y-97896000D01*
X58813000Y-110896000D02*
X58813000Y-109896000D01*
%TO.C,SW5*%
X140000822Y-134708822D02*
X140866848Y-135208822D01*
X139500822Y-135574848D02*
X140000822Y-134708822D01*
X133500822Y-145967152D02*
X133000822Y-146833178D01*
X133000822Y-146833178D02*
X133866848Y-147333178D01*
X144259152Y-153333178D02*
X145125178Y-153833178D01*
X152125178Y-141708822D02*
X151259152Y-141208822D01*
X152125178Y-141708822D02*
X151625178Y-142574848D01*
X145125178Y-153833178D02*
X145625178Y-152967152D01*
%TO.C,SW6*%
X166337822Y-141562822D02*
X167203848Y-141062822D01*
X166837822Y-142428848D02*
X166337822Y-141562822D01*
X172837822Y-152821152D02*
X173337822Y-153687178D01*
X173337822Y-153687178D02*
X174203848Y-153187178D01*
X184596152Y-147187178D02*
X185462178Y-146687178D01*
X178462178Y-134562822D02*
X177596152Y-135062822D01*
X178462178Y-134562822D02*
X178962178Y-135428848D01*
X185462178Y-146687178D02*
X184962178Y-145821152D01*
%TO.C,SW10*%
X259650000Y-96750000D02*
X260650000Y-96750000D01*
X259650000Y-97750000D02*
X259650000Y-96750000D01*
X259650000Y-109750000D02*
X259650000Y-110750000D01*
X259650000Y-110750000D02*
X260650000Y-110750000D01*
X272650000Y-110750000D02*
X273650000Y-110750000D01*
X273650000Y-96750000D02*
X272650000Y-96750000D01*
X273650000Y-96750000D02*
X273650000Y-97750000D01*
X273650000Y-110750000D02*
X273650000Y-109750000D01*
%TO.C,SW4*%
X101813000Y-73146000D02*
X102813000Y-73146000D01*
X101813000Y-74146000D02*
X101813000Y-73146000D01*
X101813000Y-86146000D02*
X101813000Y-87146000D01*
X101813000Y-87146000D02*
X102813000Y-87146000D01*
X114813000Y-87146000D02*
X115813000Y-87146000D01*
X115813000Y-73146000D02*
X114813000Y-73146000D01*
X115813000Y-73146000D02*
X115813000Y-74146000D01*
X115813000Y-87146000D02*
X115813000Y-86146000D01*
%TD*%
D15*
%TO.C,U2*%
X178646600Y-78536000D03*
X163406600Y-78536000D03*
X163406600Y-81076000D03*
X163406600Y-83616000D03*
X163406600Y-86156000D03*
X163406600Y-88696000D03*
X163406600Y-91236000D03*
X163396600Y-93776000D03*
X163406600Y-96316000D03*
X163396600Y-98856000D03*
X163396600Y-101396000D03*
X163396600Y-103936000D03*
X163396600Y-106476000D03*
X163406600Y-109016000D03*
X178646600Y-109016000D03*
X178656600Y-106476000D03*
X178656600Y-103936000D03*
X178656600Y-101396000D03*
X178646600Y-98856000D03*
X178646600Y-96316000D03*
X178656600Y-93776000D03*
X178646600Y-91236000D03*
X178646600Y-88696000D03*
X178646600Y-86156000D03*
X178646600Y-83616000D03*
X178646600Y-81076000D03*
%TD*%
%TO.C,U1*%
X155138000Y-78536000D03*
X139898000Y-78536000D03*
X139898000Y-81076000D03*
X139898000Y-83616000D03*
X139898000Y-86156000D03*
X139898000Y-88696000D03*
X139898000Y-91236000D03*
X139888000Y-93776000D03*
X139898000Y-96316000D03*
X139888000Y-98856000D03*
X139888000Y-101396000D03*
X139888000Y-103936000D03*
X139888000Y-106476000D03*
X139898000Y-109016000D03*
X155138000Y-109016000D03*
X155148000Y-106476000D03*
X155148000Y-103936000D03*
X155148000Y-101396000D03*
X155138000Y-98856000D03*
X155138000Y-96316000D03*
X155148000Y-93776000D03*
X155138000Y-91236000D03*
X155138000Y-88696000D03*
X155138000Y-86156000D03*
X155138000Y-83616000D03*
X155138000Y-81076000D03*
%TD*%
D16*
%TO.C,J3*%
X167200000Y-116170000D03*
X169740000Y-116170000D03*
X172280000Y-116170000D03*
X174820000Y-116170000D03*
%TD*%
%TO.C,J1*%
X151274000Y-116144000D03*
X148734000Y-116144000D03*
X146194000Y-116144000D03*
X143654000Y-116144000D03*
%TD*%
M02*
