%TF.GenerationSoftware,KiCad,Pcbnew,7.0.10*%
%TF.CreationDate,2024-02-18T23:47:10+09:00*%
%TF.ProjectId,kamu_keyboard,6b616d75-5f6b-4657-9962-6f6172642e6b,rev?*%
%TF.SameCoordinates,Original*%
%TF.FileFunction,Profile,NP*%
%FSLAX46Y46*%
G04 Gerber Fmt 4.6, Leading zero omitted, Abs format (unit mm)*
G04 Created by KiCad (PCBNEW 7.0.10) date 2024-02-18 23:47:10*
%MOMM*%
%LPD*%
G01*
G04 APERTURE LIST*
%TA.AperFunction,Profile*%
%ADD10C,0.035277*%
%TD*%
%TA.AperFunction,Profile*%
%ADD11C,0.150000*%
%TD*%
G04 APERTURE END LIST*
D10*
X136870626Y-73999096D02*
X136870626Y-75248985D01*
X136869976Y-73973359D02*
X136870626Y-73999096D01*
X136868046Y-73947961D02*
X136869976Y-73973359D01*
X136864869Y-73922935D02*
X136868046Y-73947961D01*
X136860475Y-73898310D02*
X136864869Y-73922935D01*
X136854897Y-73874118D02*
X136860475Y-73898310D01*
X136848164Y-73850391D02*
X136854897Y-73874118D01*
X136840308Y-73827160D02*
X136848164Y-73850391D01*
X136831362Y-73804456D02*
X136840308Y-73827160D01*
X136821355Y-73782311D02*
X136831362Y-73804456D01*
X136810320Y-73760756D02*
X136821355Y-73782311D01*
X136798288Y-73739822D02*
X136810320Y-73760756D01*
X136785289Y-73719541D02*
X136798288Y-73739822D01*
X136771357Y-73699944D02*
X136785289Y-73719541D01*
X136756520Y-73681062D02*
X136771357Y-73699944D01*
X136740812Y-73662926D02*
X136756520Y-73681062D01*
X136724263Y-73645568D02*
X136740812Y-73662926D01*
X136706905Y-73629020D02*
X136724263Y-73645568D01*
X136688769Y-73613312D02*
X136706905Y-73629020D01*
X136669886Y-73598477D02*
X136688769Y-73613312D01*
X136650288Y-73584544D02*
X136669886Y-73598477D01*
X136630006Y-73571546D02*
X136650288Y-73584544D01*
X136609071Y-73559514D02*
X136630006Y-73571546D01*
X136587515Y-73548479D02*
X136609071Y-73559514D01*
X136565369Y-73538472D02*
X136587515Y-73548479D01*
X136542664Y-73529526D02*
X136565369Y-73538472D01*
X136519432Y-73521671D02*
X136542664Y-73529526D01*
X136495703Y-73514938D02*
X136519432Y-73521671D01*
X136471510Y-73509359D02*
X136495703Y-73514938D01*
X136446884Y-73504966D02*
X136471510Y-73509359D01*
X136421855Y-73501789D02*
X136446884Y-73504966D01*
X136396456Y-73499859D02*
X136421855Y-73501789D01*
X136370717Y-73499209D02*
X136396456Y-73499859D01*
X118360776Y-73499209D02*
X136370717Y-73499209D01*
X118335977Y-73498592D02*
X118360776Y-73499209D01*
X118311350Y-73496752D02*
X118335977Y-73498592D01*
X118286936Y-73493707D02*
X118311350Y-73496752D01*
X118262776Y-73489475D02*
X118286936Y-73493707D01*
X118238909Y-73484073D02*
X118262776Y-73489475D01*
X118215376Y-73477518D02*
X118238909Y-73484073D01*
X118192218Y-73469828D02*
X118215376Y-73477518D01*
X118169474Y-73461022D02*
X118192218Y-73469828D01*
X118147185Y-73451115D02*
X118169474Y-73461022D01*
X118125391Y-73440127D02*
X118147185Y-73451115D01*
X118104134Y-73428074D02*
X118125391Y-73440127D01*
X118083452Y-73414974D02*
X118104134Y-73428074D01*
X118063386Y-73400845D02*
X118083452Y-73414974D01*
X118043977Y-73385703D02*
X118063386Y-73400845D01*
X118025265Y-73369568D02*
X118043977Y-73385703D01*
X118007291Y-73352456D02*
X118025265Y-73369568D01*
X117990182Y-73334537D02*
X118007291Y-73352456D01*
X117974057Y-73315867D02*
X117990182Y-73334537D01*
X117958933Y-73296486D02*
X117974057Y-73315867D01*
X117944825Y-73276437D02*
X117958933Y-73296486D01*
X117931751Y-73255762D02*
X117944825Y-73276437D01*
X117919728Y-73234503D02*
X117931751Y-73255762D01*
X117908770Y-73212701D02*
X117919728Y-73234503D01*
X117898896Y-73190398D02*
X117908770Y-73212701D01*
X117890122Y-73167637D02*
X117898896Y-73190398D01*
X117882464Y-73144458D02*
X117890122Y-73167637D01*
X117875939Y-73120904D02*
X117882464Y-73144458D01*
X117870563Y-73097017D02*
X117875939Y-73120904D01*
X117866353Y-73072838D02*
X117870563Y-73097017D01*
X117863325Y-73048410D02*
X117866353Y-73072838D01*
X117861496Y-73023774D02*
X117863325Y-73048410D01*
X117860883Y-72998973D02*
X117861496Y-73023774D01*
X117860883Y-71496496D02*
X117860883Y-72998973D01*
X117860270Y-71471698D02*
X117860883Y-71496496D01*
X117858441Y-71447072D02*
X117860270Y-71471698D01*
X117855413Y-71422660D02*
X117858441Y-71447072D01*
X117851203Y-71398501D02*
X117855413Y-71422660D01*
X117845827Y-71374635D02*
X117851203Y-71398501D01*
X117839302Y-71351104D02*
X117845827Y-71374635D01*
X117831644Y-71327946D02*
X117839302Y-71351104D01*
X117822869Y-71305203D02*
X117831644Y-71327946D01*
X117812995Y-71282914D02*
X117822869Y-71305203D01*
X117802038Y-71261121D02*
X117812995Y-71282914D01*
X117790014Y-71239863D02*
X117802038Y-71261121D01*
X117776940Y-71219180D02*
X117790014Y-71239863D01*
X117762833Y-71199114D02*
X117776940Y-71219180D01*
X117747709Y-71179704D02*
X117762833Y-71199114D01*
X117731584Y-71160990D02*
X117747709Y-71179704D01*
X117714475Y-71143014D02*
X117731584Y-71160990D01*
X117696498Y-71125906D02*
X117714475Y-71143014D01*
X117677784Y-71109781D02*
X117696498Y-71125906D01*
X117658374Y-71094657D02*
X117677784Y-71109781D01*
X117638308Y-71080550D02*
X117658374Y-71094657D01*
X117617626Y-71067477D02*
X117638308Y-71080550D01*
X117596368Y-71055454D02*
X117617626Y-71067477D01*
X117574575Y-71044497D02*
X117596368Y-71055454D01*
X117552287Y-71034623D02*
X117574575Y-71044497D01*
X117529545Y-71025849D02*
X117552287Y-71034623D01*
X117506387Y-71018191D02*
X117529545Y-71025849D01*
X117482856Y-71011666D02*
X117506387Y-71018191D01*
X117458991Y-71006290D02*
X117482856Y-71011666D01*
X117434832Y-71002080D02*
X117458991Y-71006290D01*
X117410420Y-70999053D02*
X117434832Y-71002080D01*
X117385795Y-70997224D02*
X117410420Y-70999053D01*
X117360997Y-70996611D02*
X117385795Y-70997224D01*
X99360917Y-70998729D02*
X117360997Y-70996611D01*
X99336118Y-70998115D02*
X99360917Y-70998729D01*
X99311492Y-70996287D02*
X99336118Y-70998115D01*
X99287079Y-70993259D02*
X99311492Y-70996287D01*
X99262918Y-70989049D02*
X99287079Y-70993259D01*
X99239051Y-70983673D02*
X99262918Y-70989049D01*
X99215518Y-70977148D02*
X99239051Y-70983673D01*
X99192359Y-70969491D02*
X99215518Y-70977148D01*
X99169614Y-70960717D02*
X99192359Y-70969491D01*
X99147325Y-70950843D02*
X99169614Y-70960717D01*
X99125530Y-70939886D02*
X99147325Y-70950843D01*
X99104271Y-70927863D02*
X99125530Y-70939886D01*
X99083587Y-70914789D02*
X99104271Y-70927863D01*
X99063519Y-70900682D02*
X99083587Y-70914789D01*
X99044108Y-70885558D02*
X99063519Y-70900682D01*
X99025394Y-70869434D02*
X99044108Y-70885558D01*
X99007417Y-70852326D02*
X99025394Y-70869434D01*
X98990311Y-70834349D02*
X99007417Y-70852326D01*
X98974188Y-70815636D02*
X98990311Y-70834349D01*
X98959065Y-70796226D02*
X98974188Y-70815636D01*
X98944958Y-70776159D02*
X98959065Y-70796226D01*
X98931885Y-70755477D02*
X98944958Y-70776159D01*
X98919861Y-70734219D02*
X98931885Y-70755477D01*
X98908904Y-70712425D02*
X98919861Y-70734219D01*
X98899030Y-70690137D02*
X98908904Y-70712425D01*
X98890255Y-70667394D02*
X98899030Y-70690137D01*
X98882596Y-70644236D02*
X98890255Y-70667394D01*
X98876070Y-70620704D02*
X98882596Y-70644236D01*
X98870694Y-70596839D02*
X98876070Y-70620704D01*
X98866483Y-70572679D02*
X98870694Y-70596839D01*
X98863455Y-70548267D02*
X98866483Y-70572679D01*
X98861626Y-70523642D02*
X98863455Y-70548267D01*
X98861013Y-70498844D02*
X98861626Y-70523642D01*
X98861013Y-69248955D02*
X98861013Y-70498844D01*
X98860399Y-69224157D02*
X98861013Y-69248955D01*
X98858571Y-69199531D02*
X98860399Y-69224157D01*
X98855544Y-69175119D02*
X98858571Y-69199531D01*
X98851335Y-69150960D02*
X98855544Y-69175119D01*
X98845960Y-69127094D02*
X98851335Y-69150960D01*
X98839436Y-69103562D02*
X98845960Y-69127094D01*
X98831780Y-69080405D02*
X98839436Y-69103562D01*
X98823007Y-69057661D02*
X98831780Y-69080405D01*
X98813134Y-69035373D02*
X98823007Y-69057661D01*
X98802178Y-69013579D02*
X98813134Y-69035373D01*
X98790156Y-68992321D02*
X98802178Y-69013579D01*
X98777083Y-68971639D02*
X98790156Y-68992321D01*
X98762977Y-68951573D02*
X98777083Y-68971639D01*
X98747853Y-68932163D02*
X98762977Y-68951573D01*
X98731728Y-68913449D02*
X98747853Y-68932163D01*
X98714620Y-68895473D02*
X98731728Y-68913449D01*
X98696643Y-68878364D02*
X98714620Y-68895473D01*
X98677929Y-68862240D02*
X98696643Y-68878364D01*
X98658519Y-68847116D02*
X98677929Y-68862240D01*
X98638453Y-68833009D02*
X98658519Y-68847116D01*
X98617770Y-68819935D02*
X98638453Y-68833009D01*
X98596513Y-68807912D02*
X98617770Y-68819935D01*
X98574720Y-68796955D02*
X98596513Y-68807912D01*
X98552432Y-68787082D02*
X98574720Y-68796955D01*
X98529689Y-68778308D02*
X98552432Y-68787082D01*
X98506532Y-68770650D02*
X98529689Y-68778308D01*
X98483000Y-68764125D02*
X98506532Y-68770650D01*
X98459134Y-68758749D02*
X98483000Y-68764125D01*
X98434975Y-68754539D02*
X98459134Y-68758749D01*
X98410563Y-68751512D02*
X98434975Y-68754539D01*
X98385937Y-68749683D02*
X98410563Y-68751512D01*
X98361138Y-68749070D02*
X98385937Y-68749683D01*
X81411267Y-68749422D02*
X98361138Y-68749070D01*
X81385530Y-68750072D02*
X81411267Y-68749422D01*
X81360133Y-68752001D02*
X81385530Y-68750072D01*
X81335106Y-68755178D02*
X81360133Y-68752001D01*
X81310481Y-68759572D02*
X81335106Y-68755178D01*
X81286289Y-68765151D02*
X81310481Y-68759572D01*
X81262562Y-68771884D02*
X81286289Y-68765151D01*
X81239331Y-68779739D02*
X81262562Y-68771884D01*
X81216627Y-68788685D02*
X81239331Y-68779739D01*
X81194482Y-68798692D02*
X81216627Y-68788685D01*
X81172927Y-68809726D02*
X81194482Y-68798692D01*
X81151993Y-68821758D02*
X81172927Y-68809726D01*
X81131712Y-68834756D02*
X81151993Y-68821758D01*
X81112115Y-68848689D02*
X81131712Y-68834756D01*
X81093233Y-68863525D02*
X81112115Y-68848689D01*
X81075097Y-68879232D02*
X81093233Y-68863525D01*
X81057740Y-68895781D02*
X81075097Y-68879232D01*
X81041192Y-68913138D02*
X81057740Y-68895781D01*
X81025484Y-68931274D02*
X81041192Y-68913138D01*
X81010648Y-68950156D02*
X81025484Y-68931274D01*
X80996716Y-68969753D02*
X81010648Y-68950156D01*
X80983718Y-68990034D02*
X80996716Y-68969753D01*
X80971686Y-69010968D02*
X80983718Y-68990034D01*
X80960651Y-69032523D02*
X80971686Y-69010968D01*
X80950645Y-69054668D02*
X80960651Y-69032523D01*
X80941698Y-69077372D02*
X80950645Y-69054668D01*
X80933843Y-69100603D02*
X80941698Y-69077372D01*
X80927110Y-69124330D02*
X80933843Y-69100603D01*
X80921532Y-69148521D02*
X80927110Y-69124330D01*
X80917138Y-69173146D02*
X80921532Y-69148521D01*
X80913961Y-69198173D02*
X80917138Y-69173146D01*
X80912032Y-69223570D02*
X80913961Y-69198173D01*
X80911382Y-69249307D02*
X80912032Y-69223570D01*
X80911027Y-70499196D02*
X80911382Y-69249307D01*
X80910346Y-70524933D02*
X80911027Y-70499196D01*
X80908388Y-70550330D02*
X80910346Y-70524933D01*
X80905183Y-70575357D02*
X80908388Y-70550330D01*
X80900764Y-70599982D02*
X80905183Y-70575357D01*
X80895162Y-70624173D02*
X80900764Y-70599982D01*
X80888407Y-70647900D02*
X80895162Y-70624173D01*
X80880531Y-70671131D02*
X80888407Y-70647900D01*
X80871565Y-70693835D02*
X80880531Y-70671131D01*
X80861541Y-70715980D02*
X80871565Y-70693835D01*
X80850490Y-70737535D02*
X80861541Y-70715980D01*
X80838442Y-70758469D02*
X80850490Y-70737535D01*
X80825430Y-70778750D02*
X80838442Y-70758469D01*
X80811485Y-70798347D02*
X80825430Y-70778750D01*
X80796638Y-70817229D02*
X80811485Y-70798347D01*
X80780920Y-70835365D02*
X80796638Y-70817229D01*
X80764362Y-70852722D02*
X80780920Y-70835365D01*
X80746997Y-70869271D02*
X80764362Y-70852722D01*
X80728854Y-70884978D02*
X80746997Y-70869271D01*
X80709965Y-70899814D02*
X80728854Y-70884978D01*
X80690362Y-70913747D02*
X80709965Y-70899814D01*
X80670076Y-70926745D02*
X80690362Y-70913747D01*
X80649138Y-70938777D02*
X80670076Y-70926745D01*
X80627579Y-70949812D02*
X80649138Y-70938777D01*
X80605431Y-70959818D02*
X80627579Y-70949812D01*
X80582725Y-70968764D02*
X80605431Y-70959818D01*
X80559492Y-70976620D02*
X80582725Y-70968764D01*
X80535764Y-70983352D02*
X80559492Y-70976620D01*
X80511571Y-70988931D02*
X80535764Y-70983352D01*
X80486945Y-70993325D02*
X80511571Y-70988931D01*
X80461918Y-70996502D02*
X80486945Y-70993325D01*
X80436520Y-70998431D02*
X80461918Y-70996502D01*
X80410783Y-70999081D02*
X80436520Y-70998431D01*
X62511245Y-70999081D02*
X80410783Y-70999081D01*
X62485508Y-70999732D02*
X62511245Y-70999081D01*
X62460110Y-71001664D02*
X62485508Y-70999732D01*
X62435084Y-71004846D02*
X62460110Y-71001664D01*
X62410459Y-71009246D02*
X62435084Y-71004846D01*
X62386268Y-71014833D02*
X62410459Y-71009246D01*
X62362541Y-71021575D02*
X62386268Y-71014833D01*
X62339310Y-71029441D02*
X62362541Y-71021575D01*
X62316607Y-71038399D02*
X62339310Y-71029441D01*
X62294462Y-71048418D02*
X62316607Y-71038399D01*
X62272908Y-71059467D02*
X62294462Y-71048418D01*
X62251974Y-71071514D02*
X62272908Y-71059467D01*
X62231694Y-71084527D02*
X62251974Y-71071514D01*
X62212097Y-71098475D02*
X62231694Y-71084527D01*
X62193216Y-71113327D02*
X62212097Y-71098475D01*
X62175081Y-71129051D02*
X62193216Y-71113327D01*
X62157724Y-71145616D02*
X62175081Y-71129051D01*
X62141176Y-71162990D02*
X62157724Y-71145616D01*
X62125469Y-71181141D02*
X62141176Y-71162990D01*
X62110634Y-71200040D02*
X62125469Y-71181141D01*
X62096702Y-71219653D02*
X62110634Y-71200040D01*
X62083705Y-71239949D02*
X62096702Y-71219653D01*
X62071673Y-71260897D02*
X62083705Y-71239949D01*
X62060639Y-71282466D02*
X62071673Y-71260897D01*
X62050633Y-71304624D02*
X62060639Y-71282466D01*
X62041687Y-71327340D02*
X62050633Y-71304624D01*
X62033833Y-71350581D02*
X62041687Y-71327340D01*
X62027100Y-71374318D02*
X62033833Y-71350581D01*
X62021522Y-71398517D02*
X62027100Y-71374318D01*
X62017129Y-71423148D02*
X62021522Y-71398517D01*
X62013952Y-71448180D02*
X62017129Y-71423148D01*
X62012023Y-71473580D02*
X62013952Y-71448180D01*
X62011373Y-71499318D02*
X62012023Y-71473580D01*
X62011373Y-75349526D02*
X62011373Y-71499318D01*
X62010722Y-75375232D02*
X62011373Y-75349526D01*
X62008789Y-75400602D02*
X62010722Y-75375232D01*
X62005607Y-75425605D02*
X62008789Y-75400602D01*
X62001207Y-75450210D02*
X62005607Y-75425605D01*
X61995620Y-75474385D02*
X62001207Y-75450210D01*
X61988878Y-75498099D02*
X61995620Y-75474385D01*
X61981012Y-75521320D02*
X61988878Y-75498099D01*
X61972054Y-75544016D02*
X61981012Y-75521320D01*
X61962034Y-75566156D02*
X61972054Y-75544016D01*
X61950985Y-75587708D02*
X61962034Y-75566156D01*
X61938938Y-75608642D02*
X61950985Y-75587708D01*
X61925924Y-75628925D02*
X61938938Y-75608642D01*
X61911976Y-75648525D02*
X61925924Y-75628925D01*
X61897123Y-75667412D02*
X61911976Y-75648525D01*
X61881399Y-75685554D02*
X61897123Y-75667412D01*
X61864833Y-75702920D02*
X61881399Y-75685554D01*
X61847458Y-75719477D02*
X61864833Y-75702920D01*
X61829306Y-75735194D02*
X61847458Y-75719477D01*
X61810407Y-75750040D02*
X61829306Y-75735194D01*
X61790793Y-75763983D02*
X61810407Y-75750040D01*
X61770496Y-75776992D02*
X61790793Y-75763983D01*
X61749546Y-75789035D02*
X61770496Y-75776992D01*
X61727976Y-75800081D02*
X61749546Y-75789035D01*
X61705817Y-75810098D02*
X61727976Y-75800081D01*
X61683101Y-75819055D02*
X61705817Y-75810098D01*
X61659858Y-75826919D02*
X61683101Y-75819055D01*
X61636120Y-75833660D02*
X61659858Y-75826919D01*
X61611919Y-75839246D02*
X61636120Y-75833660D01*
X61587286Y-75843646D02*
X61611919Y-75839246D01*
X61562253Y-75846828D02*
X61587286Y-75843646D01*
X61536851Y-75848760D02*
X61562253Y-75846828D01*
X61511111Y-75849411D02*
X61536851Y-75848760D01*
X43314889Y-75850116D02*
X61511111Y-75849411D01*
X43289183Y-75850767D02*
X43314889Y-75850116D01*
X43263812Y-75852699D02*
X43289183Y-75850767D01*
X43238809Y-75855880D02*
X43263812Y-75852699D01*
X43214204Y-75860280D02*
X43238809Y-75855880D01*
X43190029Y-75865866D02*
X43214204Y-75860280D01*
X43166315Y-75872607D02*
X43190029Y-75865866D01*
X43143094Y-75880472D02*
X43166315Y-75872607D01*
X43120398Y-75889428D02*
X43143094Y-75880472D01*
X43098258Y-75899445D02*
X43120398Y-75889428D01*
X43076705Y-75910491D02*
X43098258Y-75899445D01*
X43055771Y-75922534D02*
X43076705Y-75910491D01*
X43035488Y-75935543D02*
X43055771Y-75922534D01*
X43015887Y-75949487D02*
X43035488Y-75935543D01*
X42997000Y-75964333D02*
X43015887Y-75949487D01*
X42978858Y-75980050D02*
X42997000Y-75964333D01*
X42961492Y-75996607D02*
X42978858Y-75980050D01*
X42944935Y-76013972D02*
X42961492Y-75996607D01*
X42929218Y-76032114D02*
X42944935Y-76013972D01*
X42914372Y-76051001D02*
X42929218Y-76032114D01*
X42900428Y-76070602D02*
X42914372Y-76051001D01*
X42887419Y-76090885D02*
X42900428Y-76070602D01*
X42875376Y-76111818D02*
X42887419Y-76090885D01*
X42864330Y-76133371D02*
X42875376Y-76111818D01*
X42854313Y-76155511D02*
X42864330Y-76133371D01*
X42845357Y-76178207D02*
X42854313Y-76155511D01*
X42837492Y-76201428D02*
X42845357Y-76178207D01*
X42830751Y-76225141D02*
X42837492Y-76201428D01*
X42825164Y-76249316D02*
X42830751Y-76225141D01*
X42820765Y-76273921D02*
X42825164Y-76249316D01*
X42817583Y-76298924D02*
X42820765Y-76273921D01*
X42815651Y-76324295D02*
X42817583Y-76298924D01*
X42815000Y-76350000D02*
X42815651Y-76324295D01*
X42815000Y-131465039D02*
X42815000Y-76350000D01*
X42815617Y-131489840D02*
X42815000Y-131465039D01*
X42817457Y-131514475D02*
X42815617Y-131489840D01*
X42820502Y-131538904D02*
X42817457Y-131514475D01*
X42824735Y-131563086D02*
X42820502Y-131538904D01*
X42830138Y-131586978D02*
X42824735Y-131563086D01*
X42836693Y-131610539D02*
X42830138Y-131586978D01*
X42844383Y-131633728D02*
X42836693Y-131610539D01*
X42853190Y-131656504D02*
X42844383Y-131633728D01*
X42863097Y-131678826D02*
X42853190Y-131656504D01*
X42874086Y-131700651D02*
X42863097Y-131678826D01*
X42886140Y-131721939D02*
X42874086Y-131700651D01*
X42899240Y-131742648D02*
X42886140Y-131721939D01*
X42913370Y-131762736D02*
X42899240Y-131742648D01*
X42928512Y-131782164D02*
X42913370Y-131762736D01*
X42944648Y-131800888D02*
X42928512Y-131782164D01*
X42961761Y-131818868D02*
X42944648Y-131800888D01*
X42979738Y-131835918D02*
X42961761Y-131818868D01*
X42998452Y-131852000D02*
X42979738Y-131835918D01*
X43017862Y-131867093D02*
X42998452Y-131852000D01*
X43037928Y-131881180D02*
X43017862Y-131867093D01*
X43058611Y-131894241D02*
X43037928Y-131881180D01*
X43079869Y-131906258D02*
X43058611Y-131894241D01*
X43101662Y-131917212D02*
X43079869Y-131906258D01*
X43123950Y-131927086D02*
X43101662Y-131917212D01*
X43146693Y-131935859D02*
X43123950Y-131927086D01*
X43169851Y-131943514D02*
X43146693Y-131935859D01*
X43193383Y-131950033D02*
X43169851Y-131943514D01*
X43217248Y-131955395D02*
X43193383Y-131950033D01*
X43241407Y-131959584D02*
X43217248Y-131955395D01*
X43265820Y-131962579D02*
X43241407Y-131959584D01*
X43290445Y-131964363D02*
X43265820Y-131962579D01*
X43315244Y-131964917D02*
X43290445Y-131964363D01*
X79639623Y-131948689D02*
X43315244Y-131964917D01*
X81340345Y-132032658D02*
X79639623Y-131948689D01*
X83150472Y-132276776D02*
X81340345Y-132032658D01*
X85060739Y-132670827D02*
X83150472Y-132276776D01*
X87062039Y-133203877D02*
X85060739Y-132670827D01*
X91300653Y-134644620D02*
X87062039Y-133203877D01*
X95793626Y-136513280D02*
X91300653Y-134644620D01*
X100467210Y-138724477D02*
X95793626Y-136513280D01*
X105249105Y-141192159D02*
X100467210Y-138724477D01*
X114844289Y-146555425D02*
X105249105Y-141192159D01*
X132113423Y-156597562D02*
X114844289Y-146555425D01*
X135604489Y-158466222D02*
X132113423Y-156597562D01*
X138618627Y-159906972D02*
X135604489Y-158466222D01*
X141082776Y-160834065D02*
X138618627Y-159906972D01*
X142085713Y-161078542D02*
X141082776Y-160834065D01*
X142876996Y-161157559D02*
X142085713Y-161078542D01*
X142895328Y-161159040D02*
X142876996Y-161157559D01*
X142913604Y-161159849D02*
X142895328Y-161159040D01*
X142931808Y-161159992D02*
X142913604Y-161159849D01*
X142949925Y-161159479D02*
X142931808Y-161159992D01*
X142967939Y-161158317D02*
X142949925Y-161159479D01*
X142985836Y-161156514D02*
X142967939Y-161158317D01*
X143003600Y-161154077D02*
X142985836Y-161156514D01*
X143021216Y-161151014D02*
X143003600Y-161154077D01*
X143038668Y-161147333D02*
X143021216Y-161151014D01*
X143055942Y-161143042D02*
X143038668Y-161147333D01*
X143073022Y-161138148D02*
X143055942Y-161143042D01*
X143089894Y-161132659D02*
X143073022Y-161138148D01*
X143106540Y-161126584D02*
X143089894Y-161132659D01*
X143122948Y-161119929D02*
X143106540Y-161126584D01*
X143139100Y-161112702D02*
X143122948Y-161119929D01*
X143154983Y-161104912D02*
X143139100Y-161112702D01*
X143170580Y-161096565D02*
X143154983Y-161104912D01*
X143185877Y-161087671D02*
X143170580Y-161096565D01*
X143200858Y-161078235D02*
X143185877Y-161087671D01*
X143215508Y-161068267D02*
X143200858Y-161078235D01*
X143229812Y-161057774D02*
X143215508Y-161068267D01*
X143243754Y-161046764D02*
X143229812Y-161057774D01*
X143257320Y-161035244D02*
X143243754Y-161046764D01*
X143270493Y-161023222D02*
X143257320Y-161035244D01*
X143283260Y-161010707D02*
X143270493Y-161023222D01*
X143295604Y-160997705D02*
X143283260Y-161010707D01*
X143307510Y-160984225D02*
X143295604Y-160997705D01*
X143318964Y-160970273D02*
X143307510Y-160984225D01*
X143329949Y-160955859D02*
X143318964Y-160970273D01*
X143340451Y-160940990D02*
X143329949Y-160955859D01*
X143350455Y-160925673D02*
X143340451Y-160940990D01*
X143359944Y-160909917D02*
X143350455Y-160925673D01*
X157543691Y-136343228D02*
X143359944Y-160909917D01*
X157548950Y-136333854D02*
X157543691Y-136343228D01*
X157554008Y-136324384D02*
X157548950Y-136333854D01*
X157558864Y-136314821D02*
X157554008Y-136324384D01*
X157563515Y-136305171D02*
X157558864Y-136314821D01*
X157567959Y-136295435D02*
X157563515Y-136305171D01*
X157572194Y-136285619D02*
X157567959Y-136295435D01*
X157576218Y-136275725D02*
X157572194Y-136285619D01*
X157580030Y-136265756D02*
X157576218Y-136275725D01*
X157583626Y-136255718D02*
X157580030Y-136265756D01*
X157587006Y-136245613D02*
X157583626Y-136255718D01*
X157590166Y-136235444D02*
X157587006Y-136245613D01*
X157593106Y-136225216D02*
X157590166Y-136235444D01*
X157595822Y-136214932D02*
X157593106Y-136225216D01*
X157598313Y-136204596D02*
X157595822Y-136214932D01*
X157600578Y-136194211D02*
X157598313Y-136204596D01*
X157602613Y-136183781D02*
X157600578Y-136194211D01*
X136870626Y-122976170D02*
X157602613Y-136183781D01*
X136870626Y-75248985D02*
X136870626Y-122976170D01*
D11*
%TO.C,J3*%
X82763000Y-70721000D02*
X96863000Y-70721000D01*
X82763000Y-84821000D02*
X82763000Y-70721000D01*
X96863000Y-70721000D02*
X96863000Y-84821000D01*
X96863000Y-84821000D02*
X82763000Y-84821000D01*
%TO.C,J1*%
X44763000Y-96846000D02*
X58863000Y-96846000D01*
X44763000Y-110946000D02*
X44763000Y-96846000D01*
X58863000Y-96846000D02*
X58863000Y-110946000D01*
X58863000Y-110946000D02*
X44763000Y-110946000D01*
%TO.C,J5*%
X152193479Y-141690521D02*
X145143479Y-153901479D01*
X139982521Y-134640521D02*
X152193479Y-141690521D01*
X145143479Y-153901479D02*
X132932521Y-146851479D01*
X132932521Y-146851479D02*
X139982521Y-134640521D01*
%TO.C,J4*%
X115863000Y-87196000D02*
X115863000Y-73096000D01*
X115863000Y-73096000D02*
X101763000Y-73096000D01*
X101763000Y-87196000D02*
X115863000Y-87196000D01*
X101763000Y-73096000D02*
X101763000Y-87196000D01*
%TO.C,J2*%
X77863000Y-87196000D02*
X77863000Y-73096000D01*
X77863000Y-73096000D02*
X63763000Y-73096000D01*
X63763000Y-87196000D02*
X77863000Y-87196000D01*
X63763000Y-73096000D02*
X63763000Y-87196000D01*
%TD*%
M02*
