<?xml version="1.0" encoding="UTF-8" standalone="no"?>
<!DOCTYPE svg PUBLIC "-//W3C//DTD SVG 1.1//EN" "http://www.w3.org/Graphics/SVG/1.1/DTD/svg11.dtd">
<svg width="100%" height="100%" viewBox="0 0 908 1134" version="1.1" xmlns="http://www.w3.org/2000/svg" xmlns:xlink="http://www.w3.org/1999/xlink" xml:space="preserve" xmlns:serif="http://www.serif.com/" style="fill-rule:evenodd;clip-rule:evenodd;stroke-linecap:round;stroke-linejoin:round;">
    <g transform="matrix(1.33333,0,0,1.33333,13.0473,-16.2716)">
        <g transform="matrix(0.55,0,0,0.55,108.551,30.9304)">
            <circle cx="241.225" cy="68.734" r="5.669" style="fill:none;stroke:rgb(255,0,0);stroke-width:0.18px;"/>
        </g>
        <g transform="matrix(0.55,0,0,0.55,11.6062,30.9304)">
            <circle cx="25.792" cy="68.734" r="5.669" style="fill:none;stroke:rgb(255,0,0);stroke-width:0.18px;"/>
        </g>
        <g transform="matrix(0.55,0,0,0.55,11.6062,79.4028)">
            <circle cx="25.792" cy="176.451" r="5.669" style="fill:none;stroke:rgb(255,0,0);stroke-width:0.18px;"/>
        </g>
        <g transform="matrix(0.55,0,0,0.55,72.1968,91.5209)">
            <circle cx="160.437" cy="203.38" r="5.669" style="fill:none;stroke:rgb(255,0,0);stroke-width:0.18px;"/>
        </g>
        <g transform="matrix(0.55,0,0,0.55,110.575,96.9741)">
            <circle cx="245.722" cy="215.498" r="5.669" style="fill:none;stroke:rgb(255,0,0);stroke-width:0.18px;"/>
        </g>
    </g>
    <g transform="matrix(-1.33333,0,0,1.33333,894.062,-16.2716)">
        <path d="M393.861,41.387L393.861,176.677L335.093,214.116C335.122,214.274 335.179,214.427 335.26,214.568L375.466,284.206C375.745,284.689 376.28,284.963 376.835,284.908L379.078,284.684L381.921,283.991L388.906,281.363L397.45,277.279L407.346,271.982L456.298,243.516L483.497,228.313L497.052,221.318L510.3,215.05L523.036,209.753L535.051,205.669L540.724,204.158L546.139,203.041L551.27,202.349L556.091,202.111L659.058,202.157C659.434,202.158 659.794,202.008 660.06,201.743C660.326,201.477 660.476,201.116 660.476,200.74L660.476,44.508C660.476,43.726 659.841,43.091 659.059,43.091L607.479,43.089C606.696,43.089 606.061,42.454 606.061,41.672L606.061,30.758C606.061,29.975 605.427,29.34 604.644,29.34L553.905,29.34C553.122,29.34 552.488,28.706 552.487,27.923L552.486,24.38C552.486,23.597 551.852,22.963 551.069,22.963L503.022,22.962C502.646,22.962 502.286,23.111 502.02,23.377C501.754,23.643 501.605,24.003 501.605,24.379L501.605,27.922C501.605,28.298 501.456,28.658 501.19,28.924C500.924,29.19 500.564,29.339 500.188,29.339L449.164,29.333C448.788,29.333 448.428,29.482 448.162,29.748C447.896,30.014 447.747,30.374 447.747,30.75L447.747,35.009C447.747,35.385 447.598,35.746 447.332,36.011C447.066,36.277 446.706,36.427 446.33,36.427L395.278,36.427C394.495,36.427 393.861,37.061 393.861,37.844L393.861,41.387Z" style="fill:none;stroke:rgb(0,0,255);stroke-width:0.1px;"/>
    </g>
</svg>
