<?xml version="1.0" standalone="no"?>
 <!DOCTYPE svg PUBLIC "-//W3C//DTD SVG 1.1//EN" 
 "http://www.w3.org/Graphics/SVG/1.1/DTD/svg11.dtd"> 
<svg
  xmlns:svg="http://www.w3.org/2000/svg"
  xmlns="http://www.w3.org/2000/svg"
  xmlns:xlink="http://www.w3.org/1999/xlink"
  version="1.1"
  width="233.0958mm" height="108.6104mm" viewBox="0.0000 0.0000 233.0958 108.6104">
<title>SVG Image created as kamu_keyboard-brd.svg date 2023/12/13 20:18:53 </title>
  <desc>Image generated by PCBNEW </desc>
<g style="fill:#000000; fill-opacity:1.0000;stroke:#000000; stroke-opacity:1.0000;
stroke-linecap:round; stroke-linejoin:round;"
 transform="translate(0 0) scale(1 1)">
</g>
<g style="fill:#000000; fill-opacity:0.0; 
stroke:#000000; stroke-width:0.0000; stroke-opacity:1; 
stroke-linecap:round; stroke-linejoin:round;">
</g>
<g style="fill:#B4DBD2; fill-opacity:0.0; 
stroke:#B4DBD2; stroke-width:0.0000; stroke-opacity:1; 
stroke-linecap:round; stroke-linejoin:round;">
</g>
<g style="fill:#B4DBD2; fill-opacity:0.0; 
stroke:#B4DBD2; stroke-width:0.1500; stroke-opacity:1; 
stroke-linecap:round; stroke-linejoin:round;">
<path d="M0.1007 15.2015
L0.1007 15.7017
" />
<path d="M0.6007 15.2015
L0.1007 15.2015
" />
<path d="M0.1007 15.7017
L0.6007 15.2015
" />
</g>
<g style="fill:#B4DBD2; fill-opacity:0.0; 
stroke:#B4DBD2; stroke-width:0.1000; stroke-opacity:1; 
stroke-linecap:round; stroke-linejoin:round;">
<path d="M179.0037 10.1229
L193.0037 10.1229
" />
<path d="M179.0037 24.1229
L179.0037 10.1229
" />
<path d="M193.0037 10.1229
L193.0037 24.1229
" />
<path d="M193.0037 24.1229
L179.0037 24.1229
" />
<path d="M187.7537 20.3729
L184.2537 20.3729
" />
<path d="M184.2537 20.3729
L184.2537 23.4729
" />
<path d="M184.2537 23.4729
L187.7537 23.4729
" />
<path d="M187.7537 23.4729
L187.7537 20.3729
" />
<path d="M198.0037 12.4979
L212.0037 12.4979
" />
<path d="M198.0037 26.4979
L198.0037 12.4979
" />
<path d="M212.0037 12.4979
L212.0037 26.4979
" />
<path d="M212.0037 26.4979
L198.0037 26.4979
" />
<path d="M206.7537 22.7479
L203.2537 22.7479
" />
<path d="M203.2537 22.7479
L203.2537 25.8479
" />
<path d="M203.2537 25.8479
L206.7537 25.8479
" />
<path d="M206.7537 25.8479
L206.7537 22.7479
" />
<path d="M21.0987 12.4979
L35.0987 12.4979
" />
<path d="M21.0987 26.4979
L21.0987 12.4979
" />
<path d="M35.0987 12.4979
L35.0987 26.4979
" />
<path d="M35.0987 26.4979
L21.0987 26.4979
" />
<path d="M29.8487 22.7479
L26.3487 22.7479
" />
<path d="M26.3487 22.7479
L26.3487 25.8479
" />
<path d="M26.3487 25.8479
L29.8487 25.8479
" />
<path d="M29.8487 25.8479
L29.8487 22.7479
" />
<path d="M40.0987 10.1229
L54.0987 10.1229
" />
<path d="M40.0987 24.1229
L40.0987 10.1229
" />
<path d="M54.0987 10.1229
L54.0987 24.1229
" />
<path d="M54.0987 24.1229
L40.0987 24.1229
" />
<path d="M48.8487 20.3729
L45.3487 20.3729
" />
<path d="M45.3487 20.3729
L45.3487 23.4729
" />
<path d="M45.3487 23.4729
L48.8487 23.4729
" />
<path d="M48.8487 23.4729
L48.8487 20.3729
" />
<path d="M160.0037 12.4979
L174.0037 12.4979
" />
<path d="M160.0037 26.4979
L160.0037 12.4979
" />
<path d="M174.0037 12.4979
L174.0037 26.4979
" />
<path d="M174.0037 26.4979
L160.0037 26.4979
" />
<path d="M168.7537 22.7479
L165.2537 22.7479
" />
<path d="M165.2537 22.7479
L165.2537 25.8479
" />
<path d="M165.2537 25.8479
L168.7537 25.8479
" />
<path d="M168.7537 25.8479
L168.7537 22.7479
" />
<path d="M2.0987 36.2479
L16.0987 36.2479
" />
<path d="M2.0987 50.2479
L2.0987 36.2479
" />
<path d="M16.0987 36.2479
L16.0987 50.2479
" />
<path d="M16.0987 50.2479
L2.0987 50.2479
" />
<path d="M10.8487 46.4979
L7.3487 46.4979
" />
<path d="M7.3487 46.4979
L7.3487 49.5979
" />
<path d="M7.3487 49.5979
L10.8487 49.5979
" />
<path d="M10.8487 49.5979
L10.8487 46.4979
" />
<path d="M97.2865 74.0607
L109.4109 81.0607
" />
<path d="M90.2865 86.1851
L97.2865 74.0607
" />
<path d="M109.4109 81.0607
L102.4109 93.1851
" />
<path d="M102.4109 93.1851
L90.2865 86.1851
" />
<path d="M99.7392 87.3125
L96.7081 85.5625
" />
<path d="M96.7081 85.5625
L95.1581 88.2472
" />
<path d="M95.1581 88.2472
L98.1892 89.9972
" />
<path d="M98.1892 89.9972
L99.7392 87.3125
" />
<path d="M123.6915 81.0607
L135.8159 74.0607
" />
<path d="M130.6915 93.1851
L123.6915 81.0607
" />
<path d="M135.8159 74.0607
L142.8159 86.1851
" />
<path d="M142.8159 86.1851
L130.6915 93.1851
" />
<path d="M136.3942 85.5625
L133.3631 87.3125
" />
<path d="M133.3631 87.3125
L134.9131 89.9972
" />
<path d="M134.9131 89.9972
L137.9442 88.2472
" />
<path d="M137.9442 88.2472
L136.3942 85.5625
" />
<path d="M217.0037 36.2479
L231.0037 36.2479
" />
<path d="M217.0037 50.2479
L217.0037 36.2479
" />
<path d="M231.0037 36.2479
L231.0037 50.2479
" />
<path d="M231.0037 50.2479
L217.0037 50.2479
" />
<path d="M225.7537 46.4979
L222.2537 46.4979
" />
<path d="M222.2537 46.4979
L222.2537 49.5979
" />
<path d="M222.2537 49.5979
L225.7537 49.5979
" />
<path d="M225.7537 49.5979
L225.7537 46.4979
" />
<path d="M59.0987 12.4979
L73.0987 12.4979
" />
<path d="M59.0987 26.4979
L59.0987 12.4979
" />
<path d="M73.0987 12.4979
L73.0987 26.4979
" />
<path d="M73.0987 26.4979
L59.0987 26.4979
" />
<path d="M67.8487 22.7479
L64.3487 22.7479
" />
<path d="M64.3487 22.7479
L64.3487 25.8479
" />
<path d="M64.3487 25.8479
L67.8487 25.8479
" />
<path d="M67.8487 25.8479
L67.8487 22.7479
" />
<g >
</g>
<g >
</g>
<g >
</g>
<g >
</g>
<g >
</g>
<g >
</g>
<g >
</g>
<g >
</g>
<g >
</g>
<g >
</g>
<g >
</g>
<g >
</g>
<g >
</g>
<g >
</g>
<g >
</g>
<g >
</g>
<g >
</g>
<g >
</g>
<g >
</g>
<g >
</g>
<g >
</g>
<g >
</g>
<g >
</g>
<g >
</g>
<g >
</g>
<g >
</g>
<g >
</g>
<g >
</g>
<g >
</g>
<g >
</g>
<g >
</g>
<g >
</g>
<g >
</g>
<g >
</g>
<g >
</g>
<g >
</g>
<g >
</g>
<g >
</g>
<g >
</g>
<g >
</g>
<g >
</g>
<g >
</g>
<g >
</g>
<g >
</g>
</g>
<g style="fill:#000000; fill-opacity:0.0; 
stroke:#000000; stroke-width:0.1000; stroke-opacity:1; 
stroke-linecap:round; stroke-linejoin:round;">
</g>
<g style="fill:#D0D2CD; fill-opacity:0.0; 
stroke:#D0D2CD; stroke-width:0.1000; stroke-opacity:1; 
stroke-linecap:round; stroke-linejoin:round;">
</g>
<g style="fill:#D0D2CD; fill-opacity:0.0; 
stroke:#D0D2CD; stroke-width:0.2011; stroke-opacity:1; 
stroke-linecap:round; stroke-linejoin:round;">
<path d="M213.7993 10.7744
L213.8024 10.7995
" />
<path d="M138.7634 14.9864
L138.7815 14.9707
" />
<path d="M114.8584 75.6360
L114.8519 75.6510
" />
<path d="M94.1591 14.6518
L94.1623 14.6769
" />
<path d="M94.1868 14.7726
L94.1958 14.7953
" />
<path d="M114.7823 15.2825
L114.7971 15.3014
" />
<path d="M0.1308 107.7574
L0.1200 107.7097
" />
<path d="M201.9497 74.5151
L202.0012 74.5137
" />
<path d="M214.0059 15.1013
L214.0255 15.1153
" />
<path d="M94.3202 14.9708
L94.3383 14.9865
" />
<path d="M122.9896 15.1609
L123.0106 15.1729
" />
<path d="M0.4095 71.2783
L0.3872 71.2684
" />
<path d="M213.9689 15.0708
L213.9870 15.0865
" />
<path d="M138.8600 14.8801
L138.8730 14.8598
" />
<path d="M232.1533 0.1121
L232.2025 0.1209
" />
<path d="M232.4345 0.1992
L232.4777 0.2213
" />
<path d="M232.5601 0.2714
L232.5993 0.2993
" />
<path d="M232.9817 107.7098
L232.9709 107.7575
" />
<path d="M75.5726 12.8450
L75.5970 12.8480
" />
<path d="M100.5864 100.3446
L100.5753 100.3567
" />
<path d="M132.5380 100.3684
L132.5155 100.3446
" />
<path d="M232.7364 71.2574
L232.7145 71.2683
" />
<path d="M93.7782 12.8656
L93.8018 12.8722
" />
<path d="M109.8201 24.7725
L109.8279 24.7493
" />
<path d="M38.5019 8.1400
L38.5246 8.1310
" />
<path d="M118.3047 15.3014
L118.3195 15.2825
" />
<path d="M232.7746 74.8801
L232.8048 74.9189
" />
<path d="M0.3015 15.3009
L0.3211 15.2869
" />
<path d="M75.1314 10.7285
L75.1368 10.7524
" />
<path d="M176.9552 9.8505
L176.9550 8.6006
" />
<path d="M110.3246 15.1014
L110.3503 15.1008
" />
<path d="M0.1232 15.5529
L0.1311 15.5297
" />
<path d="M232.0505 5.0992
L232.0009 5.1004
" />
<path d="M0.1007 4.1006
L0.1005 1.1006
" />
<path d="M194.5301 8.1165
L194.5538 8.1232
" />
<path d="M132.8586 100.5128
L132.8256 100.5095
" />
<path d="M200.8805 102.9904
L200.9026 102.9473
" />
<path d="M194.7413 8.2306
L194.7586 8.2471
" />
<path d="M232.6730 15.2319
L232.6957 15.2409
" />
<path d="M177.2197 8.1596
L177.2416 8.1486
" />
<path d="M123.5130 25.0402
L123.5346 25.0512
" />
<path d="M100.3873 100.4816
L100.3719 100.4871
" />
<path d="M99.8503 24.6006
L99.8509 24.6263
" />
<path d="M19.5372 10.4230
L19.5582 10.4109
" />
<path d="M232.3381 5.0420
L232.2918 5.0573
" />
<path d="M4.0005 5.1007
L1.1006 5.1005
" />
<path d="M94.4844 15.0704
L94.5076 15.0782
" />
<path d="M200.9897 102.6661
L200.9961 102.6160
" />
<path d="M232.3448 0.1613
L232.3902 0.1792
" />
<path d="M138.9453 13.3505
L138.9459 13.3257
" />
<path d="M32.0953 75.4115
L32.0992 75.4623
" />
<path d="M0.1223 70.9617
L0.1157 70.9382
" />
<path d="M213.4059 10.3608
L213.4301 10.3664
" />
<path d="M0.8097 108.4706
L0.7634 108.4553
" />
<path d="M157.9576 10.8009
L157.9606 10.7765
" />
<path d="M157.9172 12.5420
L157.9260 12.5192
" />
<path d="M0.5871 4.9587
L0.5457 4.9326
" />
<path d="M56.4779 10.3211
L56.5010 10.3288
" />
<path d="M122.9681 15.1499
L122.9896 15.1609
" />
<path d="M118.2657 15.3623
L118.2777 15.3413
" />
<path d="M157.8571 12.6481
L157.8712 12.6280
" />
<path d="M118.4671 15.1609
L118.4886 15.1498
" />
<path d="M232.5558 4.9327
L232.5144 4.9588
" />
<path d="M133.3237 15.3413
L133.3367 15.3210
" />
<path d="M132.4752 100.2924
L132.4575 100.2641
" />
<path d="M232.8024 0.5023
L232.8302 0.5415
" />
<path d="M158.0684 10.5336
L158.0845 10.5149
" />
<path d="M32.1612 102.8576
L32.1791 102.9030
" />
<path d="M195.3289 10.3448
L195.3539 10.3479
" />
<path d="M118.5335 15.1309
L118.5567 15.1230
" />
<path d="M157.9073 12.5643
L157.9172 12.5420
" />
<path d="M75.1615 12.4724
L75.1680 12.4960
" />
<path d="M177.0141 8.3652
L177.0261 8.3440
" />
<path d="M33.1005 103.5138
L200.0010 103.5138
" />
<path d="M232.5558 108.3457
L232.5144 108.3719
" />
<path d="M232.5559 74.6819
L232.5960 74.7101
" />
<path d="M232.1487 74.5249
L232.1970 74.5333
" />
<path d="M94.1958 14.7953
L94.2058 14.8174
" />
<path d="M114.7326 15.2304
L114.7500 15.2470
" />
<path d="M201.0215 75.3122
L201.0326 75.2638
" />
<path d="M232.9986 70.8657
L232.9956 70.8901
" />
<path d="M213.8076 14.7519
L213.8108 14.7769
" />
<path d="M0.3872 71.2684
L0.3654 71.2574
" />
<path d="M232.9051 107.9411
L232.8832 107.9847
" />
<path d="M110.0910 15.1731
L110.1120 15.1610
" />
<path d="M110.0141 15.2305
L110.0323 15.2148
" />
<path d="M109.6865 24.9707
L109.7039 24.9541
" />
<path d="M0.6007 15.2015
L4.0008 15.2014
" />
<path d="M123.5346 25.0512
L123.5567 25.0613
" />
<path d="M114.8833 75.5584
L114.8794 75.5742
" />
<path d="M62.5349 80.5437
L57.7531 78.0760
" />
<path d="M99.5887 15.1609
L99.6097 15.1729
" />
<path d="M194.7909 8.2826
L194.8057 8.3015
" />
<path d="M109.3505 25.1004
L109.3762 25.0998
" />
<path d="M123.2288 15.4518
L123.2355 15.4755
" />
<path d="M138.5703 15.0848
L138.5940 15.0781
" />
<path d="M201.8989 74.5189
L201.9497 74.5151
" />
<path d="M32.3289 103.1498
L32.3603 103.1861
" />
<path d="M55.9032 8.1715
L55.9239 8.1846
" />
<path d="M132.7612 100.4966
L132.7299 100.4871
" />
<path d="M213.7825 10.7019
L213.7893 10.7256
" />
<path d="M32.1791 102.9030
L32.1991 102.9473
" />
<path d="M110.1784 15.1311
L110.2016 15.1232
" />
<path d="M201.0013 75.5137
L201.0025 75.4622
" />
<path d="M194.7231 8.2149
L194.7413 8.2306
" />
<path d="M132.8256 100.5095
L132.7931 100.5041
" />
<path d="M214.0668 15.1403
L214.0883 15.1514
" />
<path d="M157.9551 10.8503
L157.9558 10.8255
" />
<path d="M177.3813 8.1061
L177.4057 8.1030
" />
<path d="M233.0005 15.6758
L233.0012 15.7016
" />
<path d="M118.7055 15.1005
L122.7515 15.1006
" />
<path d="M94.1790 14.7494
L94.1868 14.7726
" />
<path d="M214.2044 15.1906
L214.2290 15.1950
" />
<path d="M53.0792 75.8650
L48.5864 73.9963
" />
<path d="M139.2099 12.9095
L139.2317 12.8986
" />
<path d="M32.1057 102.6161
L32.1120 102.6661
" />
<path d="M93.9539 12.9487
L93.9734 12.9638
" />
<path d="M232.0012 108.5138
L1.1006 108.5139
" />
<path d="M100.2993 25.0979
L100.3247 25.0999
" />
<path d="M123.5794 25.0702
L123.6026 25.0781
" />
<path d="M195.2332 10.3202
L195.2564 10.3280
" />
<path d="M19.2242 14.9599
L19.2362 14.9390
" />
<path d="M55.8151 8.1298
L55.8379 8.1386
" />
<path d="M213.8774 14.9599
L213.8904 14.9802
" />
<path d="M94.1623 14.6769
L94.1667 14.7015
" />
<path d="M133.2486 24.6518
L133.2506 24.6264
" />
<path d="M44.3478 72.5556
L42.3465 72.0225
" />
<path d="M194.8747 8.4287
L194.8826 8.4520
" />
<path d="M200.4778 103.3931
L200.5196 103.3690
" />
<path d="M176.9401 9.9723
L176.9455 9.9485
" />
<path d="M99.3761 15.1012
L99.4015 15.1031
" />
<path d="M109.4512 25.0903
L109.4753 25.0847
" />
<path d="M74.8819 10.4094
L74.9032 10.4214
" />
<path d="M195.0690 10.2207
L195.0871 10.2364
" />
<path d="M56.1470 9.8752
L56.1488 9.8999
" />
<path d="M132.7512 25.1004
L132.7770 25.0998
" />
<path d="M0.7179 5.0245
L0.6733 5.0047
" />
<path d="M138.9061 14.7951
L138.9150 14.7724
" />
<path d="M200.2984 103.4688
L200.3449 103.4531
" />
<path d="M232.8191 15.3158
L232.8372 15.3315
" />
<path d="M56.5010 10.3288
L56.5246 10.3353
" />
<path d="M93.9921 12.9799
L94.0101 12.9970
" />
<path d="M32.1005 75.5137
L32.1005 102.5139
" />
<path d="M194.8993 8.5245
L194.9025 8.5495
" />
<path d="M232.7806 15.2870
L232.8002 15.3009
" />
<path d="M118.2643 75.6805
L118.2568 75.6659
" />
<path d="M114.8965 15.6004
L114.8962 75.4448
" />
<path d="M0.3441 71.2454
L0.3234 71.2323
" />
<path d="M232.9157 15.4220
L232.9287 15.4423
" />
<path d="M56.1173 8.4320
L56.1249 8.4552
" />
<path d="M94.1540 13.3011
L94.1558 13.3257
" />
<path d="M194.6846 8.1861
L194.7042 8.2000
" />
<path d="M38.2359 8.4060
L38.2459 8.3838
" />
<path d="M38.1112 10.1301
L38.1242 10.1098
" />
<path d="M232.8717 71.1518
L232.8546 71.1697
" />
<path d="M232.7178 15.2509
L232.7394 15.2619
" />
<path d="M214.1802 15.1850
L214.2044 15.1906
" />
<path d="M201.7037 74.5588
L201.7512 74.5453
" />
<path d="M100.3504 25.1005
L109.3505 25.1004
" />
<path d="M232.9959 0.9983
L232.9997 1.0490
" />
<path d="M0.3604 0.4283
L0.3935 0.3935
" />
<path d="M0.8568 108.4837
L0.8097 108.4706
" />
<path d="M18.9912 15.1613
L19.0134 15.1513
" />
<path d="M75.2304 12.6280
L75.2445 12.6480
" />
<path d="M19.2362 14.9390
L19.2472 14.9174
" />
<path d="M56.3110 10.2211
L56.3297 10.2372
" />
<path d="M232.9425 107.8509
L232.9249 107.8965
" />
<path d="M0.2185 107.9846
L0.1965 107.9410
" />
<path d="M194.7752 8.2645
L194.7909 8.2826
" />
<path d="M19.2940 14.7519
L19.2959 14.7265
" />
<path d="M157.8259 12.6862
L157.8420 12.6675
" />
<path d="M232.7727 0.4645
L232.8024 0.5023
" />
<path d="M123.1659 15.3210
L123.1789 15.3412
" />
<path d="M93.7543 12.8603
L93.7782 12.8656
" />
<path d="M118.2357 15.4287
L118.2446 15.4060
" />
<path d="M109.9645 15.2826
L109.9802 15.2644
" />
<path d="M19.3123 10.7256
L19.3190 10.7019
" />
<path d="M114.8295 75.6949
L100.6444 100.2639
" />
<path d="M0.1311 15.5297
L0.1400 15.5070
" />
<path d="M132.9896 25.0402
L133.0105 25.0281
" />
<path d="M133.4151 15.2305
L133.4332 15.2148
" />
<path d="M214.2540 15.1982
L214.2794 15.2001
" />
<path d="M232.9999 107.5634
L232.9962 107.6126
" />
<path d="M38.1992 8.5494
L38.2024 8.5244
" />
<path d="M0.1308 4.3444
L0.1201 4.2966
" />
<path d="M139.1479 12.9487
L139.1679 12.9346
" />
<path d="M110.2741 15.1065
L110.2992 15.1033
" />
<path d="M110.3503 15.1008
L114.3963 15.1005
" />
<path d="M232.9816 75.3178
L232.9900 75.3661
" />
<path d="M37.9348 10.2902
L37.9558 10.2781
" />
<path d="M38.1662 10.0225
L38.1740 9.9993
" />
<path d="M75.1249 10.7050
L75.1314 10.7285
" />
<path d="M184.5154 73.9963
L180.0226 75.8649
" />
<path d="M0.2000 15.4024
L0.2149 15.3835
" />
<path d="M232.1969 5.0811
L232.1486 5.0895
" />
<path d="M132.8999 25.0780
L132.9232 25.0701
" />
<path d="M232.5145 74.6557
L232.5559 74.6819
" />
<path d="M114.8958 15.5747
L114.8965 15.6004
" />
<path d="M176.5532 10.3406
L176.5771 10.3352
" />
<path d="M232.9422 71.0518
L232.9302 71.0730
" />
<path d="M123.1371 15.2825
L123.1519 15.3014
" />
<path d="M200.9405 102.8576
L200.9563 102.8111
" />
<path d="M94.4180 15.0403
L94.4395 15.0514
" />
<path d="M93.9131 12.9215
L93.9339 12.9345
" />
<path d="M0.1767 75.1312
L0.1965 75.0866
" />
<path d="M18.8223 15.1999
L18.8477 15.1980
" />
<path d="M123.1909 15.3622
L123.2020 15.3837
" />
<path d="M0.5023 0.2993
L0.5415 0.2714
" />
<path d="M213.9870 15.0865
L214.0059 15.1013
" />
<path d="M158.1383 10.4637
L158.1577 10.4485
" />
<path d="M232.9532 71.0300
L232.9422 71.0518
" />
<path d="M133.5567 15.1399
L133.5794 15.1309
" />
<path d="M38.1966 8.6005
L38.1973 8.5748
" />
<path d="M213.3563 10.3532
L213.3813 10.3564
" />
<path d="M213.4770 10.3810
L213.4997 10.3899
" />
<path d="M74.7203 10.3560
L74.7445 10.3602
" />
<path d="M94.1509 13.2767
L94.1540 13.3011
" />
<path d="M0.8990 0.1209
L0.9482 0.1121
" />
<path d="M0.3234 71.2323
L0.3034 71.2182
" />
<path d="M232.7746 4.7344
L232.7424 4.7718
" />
<path d="M123.2487 15.5494
L123.2506 15.5748
" />
<path d="M139.2999 12.8723
L139.3234 12.8658
" />
<path d="M100.2925 100.5071
L100.2762 100.5095
" />
<path d="M232.4284 74.6097
L232.4720 74.6317
" />
<path d="M114.3963 15.1005
L114.4221 15.1011
" />
<path d="M109.9496 15.3014
L109.9645 15.2826
" />
<path d="M138.9454 14.6004
L138.9453 13.3505
" />
<path d="M157.7119 12.7797
L157.7326 12.7666
" />
<path d="M99.6684 15.2147
L99.6866 15.2304
" />
<path d="M157.4552 12.8505
L157.4800 12.8499
" />
<path d="M194.9209 9.9755
L194.9276 9.9993
" />
<path d="M132.8762 25.0847
L132.8999 25.0780
" />
<path d="M118.3692 15.2304
L118.3873 15.2147
" />
<path d="M201.0997 75.0803
L201.1218 75.0372
" />
<path d="M232.5988 71.3067
L232.5746 71.3109
" />
<path d="M0.3934 4.8076
L0.3592 4.7717
" />
<path d="M56.5971 10.3480
L56.6217 10.3498
" />
<path d="M100.4746 100.4387
L100.4607 100.4470
" />
<path d="M194.9058 9.8763
L194.9077 9.9017
" />
<path d="M123.3238 24.8599
L123.3368 24.8801
" />
<path d="M176.9557 8.5758
L176.9575 8.5512
" />
<path d="M38.2459 8.3838
L38.2570 8.3623
" />
<path d="M232.8869 15.3835
L232.9017 15.4024
" />
<path d="M38.1964 9.8507
L38.1966 8.6005
" />
<path d="M94.5313 15.0850
L94.5555 15.0906
" />
<path d="M109.8504 24.6006
L109.8503 15.6006
" />
<path d="M123.4522 25.0012
L123.4718 25.0152
" />
<path d="M0.1861 15.4220
L0.2000 15.4024
" />
<path d="M0.5457 4.9326
L0.5056 4.9043
" />
<path d="M0.6297 108.3960
L0.5872 108.3719
" />
<path d="M99.8498 15.5748
L99.8505 15.6005
" />
<path d="M214.0255 15.1153
L214.0458 15.1283
" />
<path d="M213.8354 14.8726
L213.8443 14.8953
" />
<path d="M56.1757 10.0190
L56.1845 10.0417
" />
<path d="M157.9260 12.5192
L157.9336 12.4961
" />
<path d="M100.4320 100.4623
L100.4173 100.4692
" />
<path d="M0.3934 74.8067
L0.4293 74.7725
" />
<path d="M19.0957 15.1013
L19.1146 15.0864
" />
<path d="M32.0691 75.2639
L32.0802 75.3123
" />
<path d="M132.4575 100.2641
L118.2722 75.6948
" />
<path d="M232.9999 4.1501
L232.9963 4.1994
" />
<path d="M31.9799 75.0372
L32.0020 75.0803
" />
<path d="M32.7567 103.4531
L32.8032 103.4688
" />
<path d="M157.9606 10.7765
L157.9648 10.7523
" />
<path d="M139.0585 13.0338
L139.0747 13.0151
" />
<path d="M232.8546 15.3480
L232.8712 15.3654
" />
<path d="M158.2197 10.4093
L158.2415 10.3984
" />
<path d="M19.2741 14.8494
L19.2808 14.8256
" />
<path d="M19.7965 10.3504
L37.6964 10.3505
" />
<path d="M94.2058 14.8174
L94.2168 14.8390
" />
<path d="M200.7083 103.2209
L200.7414 103.1861
" />
<path d="M0.8506 0.1321
L0.8990 0.1209
" />
<path d="M55.6959 8.1030
L55.7203 8.1061
" />
<path d="M0.9529 108.5029
L0.9045 108.4945
" />
<path d="M19.2908 14.7769
L19.2940 14.7519
" />
<path d="M94.5802 15.0950
L94.6052 15.0982
" />
<path d="M74.6714 10.3511
L74.6959 10.3530
" />
<path d="M133.0693 24.9864
L133.0874 24.9707
" />
<path d="M137.1975 99.2587
L134.7333 100.1858
" />
<path d="M232.9250 4.4833
L232.9052 4.5279
" />
<path d="M157.6006 12.8289
L157.6238 12.8213
" />
<path d="M0.1731 15.4423
L0.1861 15.4220
" />
<path d="M232.5772 15.2074
L232.6018 15.2118
" />
<path d="M55.6713 8.1012
L55.6959 8.1030
" />
<path d="M123.4333 24.9864
L123.4522 25.0012
" />
<path d="M118.2061 15.5749
L118.2080 15.5495
" />
<path d="M19.3569 10.6122
L19.3689 10.5913
" />
<path d="M100.6358 100.2783
L100.6267 100.2923
" />
<path d="M0.9046 5.0812
L0.8568 5.0704
" />
<path d="M232.2918 108.4706
L232.2447 108.4837
" />
<path d="M0.1030 70.8658
L0.1012 70.8411
" />
<path d="M0.1965 4.5279
L0.1768 4.4833
" />
<path d="M114.8939 15.5493
L114.8958 15.5747
" />
<path d="M232.9579 4.3914
L232.9425 4.4377
" />
<path d="M74.9634 10.4637
L74.9821 10.4799
" />
<path d="M133.0874 24.9707
L133.1048 24.9541
" />
<path d="M176.7907 10.2210
L176.8087 10.2039
" />
<path d="M0.4554 71.2947
L0.4322 71.2871
" />
<path d="M37.9957 10.2512
L38.0146 10.2363
" />
<path d="M201.0000 102.5653
L201.0013 102.5138
" />
<path d="M194.8826 8.4520
L194.8893 8.4757
" />
<path d="M232.1033 0.1057
L232.1533 0.1121
" />
<path d="M109.3762 25.0998
L109.4016 25.0978
" />
<path d="M118.2373 75.6209
L118.2318 75.6055
" />
<path d="M38.6455 8.1033
L38.6709 8.1013
" />
<path d="M232.9696 0.8506
L232.9807 0.8990
" />
<path d="M158.2415 10.3984
L158.2638 10.3885
" />
<path d="M232.6694 71.2871
L232.6462 71.2947
" />
<path d="M201.0025 75.4622
L201.0064 75.4115
" />
<path d="M109.7039 24.9541
L109.7205 24.9368
" />
<path d="M0.5057 108.3176
L0.4669 108.2874
" />
<path d="M133.2816 15.4286
L133.2906 15.4059
" />
<path d="M94.1086 13.1369
L94.1184 13.1592
" />
<path d="M194.4813 8.1065
L194.5059 8.1109
" />
<path d="M133.2455 24.6768
L133.2486 24.6518
" />
<path d="M74.9239 10.4345
L74.9440 10.4486
" />
<path d="M31.6597 74.6846
L31.6989 74.7125
" />
<path d="M201.1719 74.9547
L201.1997 74.9155
" />
<path d="M1.1008 74.5140
L4.0006 74.5138
" />
<path d="M176.5290 10.3448
L176.5532 10.3406
" />
<path d="M55.9999 8.2470
L56.0170 8.2650
" />
<path d="M123.7512 25.1005
L132.7512 25.1004
" />
<path d="M213.6751 10.5144
L213.6908 10.5325
" />
<path d="M176.6006 10.3287
L176.6238 10.3211
" />
<path d="M32.6670 103.4151
L32.7113 103.4352
" />
<path d="M195.3793 10.3499
L195.4050 10.3505
" />
<path d="M138.9150 14.7724
L138.9229 14.7492
" />
<path d="M94.1272 13.1820
L94.1349 13.2051
" />
<path d="M177.3572 8.1103
L177.3813 8.1061
" />
<path d="M232.6349 74.7403
L232.6723 74.7726
" />
<path d="M99.7900 15.3622
L99.8011 15.3837
" />
<path d="M114.5910 15.1398
L114.6132 15.1498
" />
<path d="M37.8684 10.3202
L37.8911 10.3112
" />
<path d="M232.5993 0.2993
L232.6371 0.3290
" />
<path d="M194.5770 8.1310
L194.5997 8.1400
" />
<path d="M232.3381 108.4553
L232.2918 108.4706
" />
<path d="M123.2817 24.7725
L123.2907 24.7952
" />
<path d="M200.9698 102.7637
L200.9809 102.7153
" />
<path d="M0.4669 108.2874
L0.4296 108.2552
" />
<path d="M56.3897 10.2795
L56.4110 10.2915
" />
<path d="M177.2866 8.1299
L177.3098 8.1223
" />
<path d="M100.4024 100.4756
L100.3873 100.4816
" />
<path d="M232.9901 107.6614
L232.9817 107.7098
" />
<path d="M232.5960 4.9045
L232.5558 4.9327
" />
<path d="M232.6018 15.2118
L232.6260 15.2174
" />
<path d="M114.8921 75.5102
L114.8897 75.5264
" />
<path d="M32.3934 103.2208
L32.4282 103.2540
" />
<path d="M118.4461 15.1729
L118.4671 15.1609
" />
<path d="M232.5959 108.3175
L232.5558 108.3457
" />
<path d="M132.7931 100.5041
L132.7612 100.4966
" />
<path d="M109.7205 24.9368
L109.7362 24.9186
" />
<path d="M118.6543 15.1031
L118.6797 15.1012
" />
<path d="M158.0140 10.6150
L158.0261 10.5937
" />
<path d="M133.1048 24.9541
L133.1213 24.9368
" />
<path d="M0.1768 107.8964
L0.1592 107.8509
" />
<path d="M0.6007 71.3163
L0.5759 71.3157
" />
<path d="M139.0747 13.0151
L139.0918 12.9971
" />
<path d="M232.5007 71.3164
L229.1010 71.3147
" />
<path d="M94.0272 13.0150
L94.0433 13.0337
" />
<path d="M109.8996 15.3838
L109.9107 15.3622
" />
<path d="M100.2265 100.5137
L100.2098 100.5140
" />
<path d="M132.7770 25.0998
L132.8024 25.0978
" />
<path d="M138.9669 13.2052
L138.9746 13.1820
" />
<path d="M19.5797 10.3999
L19.6019 10.3899
" />
<path d="M138.9477 13.3011
L138.9508 13.2767
" />
<path d="M194.9052 9.8506
L194.9058 9.8763
" />
<path d="M55.8820 8.1595
L55.9032 8.1715
" />
<path d="M139.1886 12.9216
L139.2099 12.9095
" />
<path d="M123.3117 24.8389
L123.3238 24.8599
" />
<path d="M123.0875 15.2304
L123.1048 15.2470
" />
<path d="M118.2077 75.4941
L118.2063 75.4778
" />
<path d="M109.8503 15.6006
L109.8510 15.5748
" />
<path d="M132.9680 25.0512
L132.9896 25.0402
" />
<path d="M114.8952 75.4776
L114.8939 75.4940
" />
<path d="M213.8050 14.7008
L213.8057 14.7265
" />
<path d="M139.1097 12.9800
L139.1285 12.9639
" />
<path d="M31.9019 74.9155
L31.9298 74.9547
" />
<path d="M132.8274 25.0947
L132.8520 25.0903
" />
<path d="M0.1965 107.9410
L0.1768 107.8964
" />
<path d="M100.2743 25.0948
L100.2993 25.0979
" />
<path d="M177.0392 8.3233
L177.0533 8.3032
" />
<path d="M19.2472 14.9174
L19.2572 14.8953
" />
<path d="M232.2448 74.5440
L232.2919 74.5571
" />
<path d="M158.1196 10.4798
L158.1383 10.4637
" />
<path d="M176.9844 8.4320
L176.9932 8.4093
" />
<path d="M0.2473 71.1699
L0.2302 71.1519
" />
<path d="M232.9860 70.9382
L232.9795 70.9617
" />
<path d="M38.0667 10.1867
L38.0824 10.1686
" />
<path d="M19.6246 10.3809
L19.6478 10.3730
" />
<path d="M56.1680 9.9958
L56.1757 10.0190
" />
<path d="M232.0507 108.5126
L232.0012 108.5138
" />
<path d="M100.0323 24.9864
L100.0512 25.0012
" />
<path d="M19.0761 15.1152
L19.0957 15.1013
" />
<path d="M213.8024 10.7995
L213.8044 10.8248
" />
<path d="M200.9563 102.8111
L200.9698 102.7637
" />
<path d="M138.9550 13.2525
L138.9604 13.2287
" />
<path d="M55.9820 8.2299
L55.9999 8.2470
" />
<path d="M160.9719 85.9071
L143.7025 95.9493
" />
<path d="M118.2433 75.6361
L118.2373 75.6209
" />
<path d="M194.9905 10.1301
L195.0045 10.1497
" />
<path d="M232.6371 0.3290
L232.6734 0.3604
" />
<path d="M38.2820 8.3211
L38.2959 8.3015
" />
<path d="M75.1471 12.3753
L75.1489 12.3999
" />
<path d="M118.2183 75.5585
L118.2149 75.5425
" />
<path d="M157.4800 12.8499
L157.5047 12.8481
" />
<path d="M133.2521 15.5748
L133.2540 15.5494
" />
<path d="M94.3572 15.0013
L94.3768 15.0153
" />
<path d="M232.9718 70.9849
L232.9630 71.0077
" />
<path d="M82.9953 12.8507
L82.9953 5.1006
" />
<path d="M94.6563 15.1007
L99.3504 15.1005
" />
<path d="M99.8896 24.7952
L99.8996 24.8174
" />
<path d="M56.3297 10.2372
L56.3490 10.2523
" />
<path d="M0.4645 0.3290
L0.5023 0.2993
" />
<path d="M232.9986 15.6504
L233.0005 15.6758
" />
<path d="M201.0461 75.2164
L201.0618 75.1700
" />
<path d="M114.6347 15.1609
L114.6557 15.1729
" />
<path d="M0.5056 74.7101
L0.5458 74.6819
" />
<path d="M177.0845 8.2651
L177.1015 8.2471
" />
<path d="M109.8561 15.5244
L109.8605 15.4998
" />
<path d="M38.2690 8.3414
L38.2820 8.3211
" />
<path d="M157.8712 12.6280
L157.8843 12.6073
" />
<path d="M201.6573 74.5745
L201.7037 74.5588
" />
<path d="M75.1440 10.8010
L75.1458 10.8257
" />
<path d="M232.7424 4.7718
L232.7082 4.8078
" />
<path d="M133.7514 15.1004
L138.4455 15.1006
" />
<path d="M0.7634 108.4553
L0.7179 108.4377
" />
<path d="M56.2760 10.1860
L56.2931 10.2039
" />
<path d="M194.5059 8.1109
L194.5301 8.1165
" />
<path d="M232.8372 15.3315
L232.8546 15.3480
" />
<path d="M0.1299 70.9849
L0.1223 70.9617
" />
<path d="M214.3051 15.2008
L221.9012 15.2011
" />
<path d="M196.1767 71.3003
L194.4757 71.3841
" />
<path d="M75.2053 12.5860
L75.2173 12.6073
" />
<path d="M195.3539 10.3479
L195.3793 10.3499
" />
<path d="M99.6866 15.2304
L99.7039 15.2470
" />
<path d="M57.7531 78.0760
L53.0792 75.8650
" />
<path d="M74.7683 10.3656
L74.7919 10.3721
" />
<path d="M133.2514 15.6006
L133.2521 15.5748
" />
<path d="M201.8489 74.5253
L201.8989 74.5189
" />
<path d="M38.3974 8.2000
L38.4170 8.1861
" />
<path d="M19.3067 10.7498
L19.3123 10.7256
" />
<path d="M232.9024 0.6671
L232.9225 0.7113
" />
<path d="M118.2063 75.4778
L118.2055 75.4614
" />
<path d="M157.9648 10.7523
L157.9702 10.7285
" />
<path d="M99.7205 15.2643
L99.7362 15.2825
" />
<path d="M37.6964 10.3505
L37.7222 10.3499
" />
<path d="M0.1061 70.8902
L0.1030 70.8658
" />
<path d="M114.6557 15.1729
L114.6760 15.1859
" />
<path d="M232.4720 74.6317
L232.5145 74.6557
" />
<path d="M232.6498 15.2241
L232.6730 15.2319
" />
<path d="M157.9455 12.4487
L157.9497 12.4245
" />
<path d="M133.2540 15.5494
L133.2571 15.5244
" />
<path d="M0.3935 0.3935
L0.4282 0.3604
" />
<path d="M56.0170 8.2650
L56.0332 8.2837
" />
<path d="M232.1487 108.5029
L232.0999 108.5089
" />
<path d="M201.0013 102.5138
L201.0013 75.5137
" />
<path d="M114.8572 15.4059
L114.8661 15.4286
" />
<path d="M200.9961 102.6160
L201.0000 102.5653
" />
<path d="M0.1116 107.6613
L0.1055 107.6125
" />
<path d="M100.6267 100.2923
L100.6173 100.3060
" />
<path d="M114.8472 15.3838
L114.8572 15.4059
" />
<path d="M19.3819 10.5710
L19.3959 10.5514
" />
<path d="M92.8902 97.8180
L89.3994 95.9493
" />
<path d="M0.8098 74.5572
L0.8569 74.5441
" />
<path d="M99.8505 15.6005
L99.8503 24.6006
" />
<path d="M122.7772 15.1012
L122.8025 15.1031
" />
<path d="M122.9233 15.1309
L122.9460 15.1399
" />
<path d="M201.4825 74.6586
L201.5244 74.6346
" />
<path d="M32.0220 75.1246
L32.0399 75.1700
" />
<path d="M180.0226 75.8649
L175.3488 78.0759
" />
<path d="M0.2471 15.3480
L0.2645 15.3314
" />
<path d="M114.8868 75.5424
L114.8833 75.5584
" />
<path d="M195.0350 10.1868
L195.0516 10.2041
" />
<path d="M0.5458 108.3458
L0.5057 108.3176
" />
<path d="M133.6264 15.1163
L133.6506 15.1107
" />
<path d="M99.8529 24.6517
L99.8560 24.6767
" />
<path d="M0.1005 1.1006
L0.1019 1.0491
" />
<path d="M202.0012 74.5137
L221.9010 74.5138
" />
<path d="M232.6348 4.8742
L232.5960 4.9045
" />
<path d="M213.8443 14.8953
L213.8543 14.9174
" />
<path d="M200.6372 103.2854
L200.6735 103.2540
" />
<path d="M0.2686 4.6554
L0.2425 4.6140
" />
<path d="M177.1985 8.1716
L177.2197 8.1596
" />
<path d="M1.1006 108.5139
L1.0510 108.5127
" />
<path d="M158.4303 10.3509
L158.4551 10.3502
" />
<path d="M0.1965 75.0866
L0.2184 75.0430
" />
<path d="M118.5805 15.1163
L118.6047 15.1107
" />
<path d="M75.4328 12.8025
L75.4551 12.8124
" />
<path d="M232.8302 0.5415
L232.8563 0.5821
" />
<path d="M176.9171 10.0418
L176.9259 10.0190
" />
<path d="M0.1116 4.2483
L0.1056 4.1995
" />
<path d="M19.3269 10.6786
L19.3358 10.6559
" />
<path d="M100.3564 100.4921
L100.3407 100.4966
" />
<path d="M200.2026 103.4935
L200.2510 103.4823
" />
<path d="M118.2112 15.5245
L118.2156 15.4999
" />
<path d="M118.2568 75.6659
L118.2498 75.6511
" />
<path d="M123.1519 15.3014
L123.1659 15.3210
" />
<path d="M200.5994 103.3151
L200.6372 103.2854
" />
<path d="M213.5846 10.4360
L213.6042 10.4499
" />
<path d="M232.9954 15.6254
L232.9986 15.6504
" />
<path d="M143.7025 95.9493
L140.2116 97.8179
" />
<path d="M213.6412 10.4805
L213.6586 10.4970
" />
<path d="M132.8520 25.0903
L132.8762 25.0847
" />
<path d="M118.6293 15.1063
L118.6543 15.1031
" />
<path d="M176.9768 8.4552
L176.9844 8.4320
" />
<path d="M0.6734 74.6098
L0.7180 74.5901
" />
<path d="M232.9017 15.4024
L232.9157 15.4220
" />
<path d="M19.6715 10.3663
L19.6957 10.3607
" />
<path d="M67.3515 83.1826
L62.5349 80.5437
" />
<path d="M94.0725 13.0732
L94.0856 13.0939
" />
<path d="M232.7412 0.4282
L232.7727 0.4645
" />
<path d="M176.5046 10.3478
L176.5290 10.3448
" />
<path d="M31.5342 74.6125
L31.5773 74.6345
" />
<path d="M138.5940 15.0781
L138.6172 15.0702
" />
<path d="M138.9353 14.7012
L138.9397 14.6766
" />
<path d="M157.9401 12.4726
L157.9455 12.4487
" />
<path d="M232.0009 5.1004
L229.1011 5.1006
" />
<path d="M32.5022 103.3151
L32.5414 103.3430
" />
<path d="M138.9229 14.7492
L138.9297 14.7254
" />
<path d="M19.5169 10.4360
L19.5372 10.4230
" />
<path d="M123.7255 25.0999
L123.7512 25.1005
" />
<path d="M1.0490 0.1019
L1.1005 0.1006
" />
<path d="M232.6722 108.2550
L232.6348 108.2873
" />
<path d="M138.9508 13.2767
L138.9550 13.2525
" />
<path d="M75.1943 12.5642
L75.2053 12.5860
" />
<path d="M99.8479 15.5494
L99.8498 15.5748
" />
<path d="M190.7553 72.0224
L188.7541 72.5556
" />
<path d="M139.4205 12.8514
L139.4453 12.8507
" />
<path d="M138.7445 15.0012
L138.7634 14.9864
" />
<path d="M123.3813 24.9368
L123.3978 24.9541
" />
<path d="M213.5434 10.4110
L213.5643 10.4230
" />
<path d="M138.9604 13.2287
L138.9669 13.2052
" />
<path d="M94.1349 13.2051
L94.1414 13.2287
" />
<path d="M109.8498 24.6263
L109.8504 24.6006
" />
<path d="M232.7784 71.2322
L232.7577 71.2453
" />
<path d="M176.6238 10.3211
L176.6465 10.3123
" />
<path d="M31.9298 74.9547
L31.9558 74.9953
" />
<path d="M176.8087 10.2039
L176.8258 10.1860
" />
<path d="M157.9702 10.7285
L157.9767 10.7049
" />
<path d="M19.2572 14.8953
L19.2662 14.8726
" />
<path d="M232.0997 5.0956
L232.0505 5.0992
" />
<path d="M95.9043 99.2587
L92.8902 97.8180
" />
<path d="M232.7603 15.2740
L232.7806 15.2870
" />
<path d="M133.5130 15.1609
L133.5345 15.1499
" />
<path d="M98.3685 100.1859
L95.9043 99.2587
" />
<path d="M158.0391 10.5730
L158.0532 10.5530
" />
<path d="M232.6462 71.2947
L232.6227 71.3013
" />
<path d="M123.2513 15.6005
L123.2514 24.6006
" />
<path d="M138.8312 14.9186
L138.8460 14.8997
" />
<path d="M232.2509 0.1321
L232.2984 0.1455
" />
<path d="M99.8011 15.3837
L99.8111 15.4059
" />
<path d="M0.6733 108.4179
L0.6297 108.3960
" />
<path d="M139.0162 13.0939
L139.0293 13.0732
" />
<path d="M201.0127 75.3614
L201.0215 75.3122
" />
<path d="M176.8258 10.1860
L176.8419 10.1673
" />
<path d="M19.2808 14.8256
L19.2864 14.8015
" />
<path d="M177.3333 8.1157
L177.3572 8.1103
" />
<path d="M0.2425 4.6140
L0.2185 4.5715
" />
<path d="M176.9259 10.0190
L176.9336 9.9959
" />
<path d="M109.6495 25.0012
L109.6684 24.9864
" />
<path d="M201.1218 75.0372
L201.1458 74.9953
" />
<path d="M195.1668 10.2902
L195.1883 10.3012
" />
<path d="M48.5864 73.9963
L44.3478 72.5556
" />
<path d="M123.2615 24.7014
L123.2671 24.7256
" />
<path d="M139.3473 12.8604
L139.3714 12.8562
" />
<path d="M232.3382 74.5724
L232.3837 74.5900
" />
<path d="M100.4883 100.4300
L100.4746 100.4387
" />
<path d="M213.8057 14.7265
L213.8076 14.7519
" />
<path d="M133.3006 15.3838
L133.3116 15.3622
" />
<path d="M118.6797 15.1012
L118.7055 15.1005
" />
<path d="M0.7635 74.5725
L0.8098 74.5572
" />
<path d="M1.0019 74.5189
L1.0512 74.5152
" />
<path d="M213.4538 10.3731
L213.4770 10.3810
" />
<path d="M94.0584 13.0531
L94.0725 13.0732
" />
<path d="M232.9052 4.5279
L232.8833 4.5715
" />
<path d="M75.2757 12.6861
L75.2928 12.7040
" />
<path d="M232.9249 107.8965
L232.9051 107.9411
" />
<path d="M38.2570 8.3623
L38.2690 8.3414
" />
<path d="M200.3903 103.4352
L200.4346 103.4152
" />
<path d="M110.1120 15.1610
L110.1335 15.1500
" />
<path d="M123.6026 25.0781
L123.6263 25.0848
" />
<path d="M194.6219 8.1500
L194.6434 8.1610
" />
<path d="M93.9734 12.9638
L93.9921 12.9799
" />
<path d="M194.4310 8.1014
L194.4563 8.1033
" />
<path d="M123.2455 15.5244
L123.2487 15.5494
" />
<path d="M75.1489 12.3999
L75.1519 12.4244
" />
<path d="M123.0505 15.1999
L123.0693 15.2147
" />
<path d="M1.0018 5.0956
L0.9529 5.0896
" />
<path d="M99.8200 15.4286
L99.8279 15.4518
" />
<path d="M232.9618 15.5069
L232.9707 15.5296
" />
<path d="M0.1056 75.4151
L0.1116 75.3662
" />
<path d="M75.0876 10.6149
L75.0986 10.6367
" />
<path d="M158.0845 10.5149
L158.1016 10.4969
" />
<path d="M233.0012 4.1005
L232.9999 4.1501
" />
<path d="M200.6735 103.2540
L200.7083 103.2209
" />
<path d="M213.7557 10.6338
L213.7657 10.6559
" />
<path d="M176.9550 8.6006
L176.9557 8.5758
" />
<path d="M213.6231 10.4648
L213.6412 10.4805
" />
<path d="M232.7746 108.1475
L232.7423 108.1849
" />
<path d="M157.7326 12.7666
L157.7526 12.7525
" />
<path d="M32.4282 103.2540
L32.4644 103.2854
" />
<path d="M93.8700 12.8985
L93.8919 12.9094
" />
<path d="M0.1065 15.6255
L0.1109 15.6009
" />
<path d="M0.8568 5.0704
L0.8098 5.0573
" />
<path d="M232.3837 5.0245
L232.3381 5.0420
" />
<path d="M118.4062 15.1999
L118.4258 15.1859
" />
<path d="M221.9012 5.1007
L150.1951 5.1008
" />
<path d="M56.1615 9.9723
L56.1680 9.9958
" />
<path d="M123.3368 24.8801
L123.3507 24.8997
" />
<path d="M100.6173 100.3060
L100.6074 100.3192
" />
<path d="M31.3505 74.5453
L31.3980 74.5588
" />
<path d="M195.0871 10.2364
L195.1060 10.2512
" />
<path d="M232.6227 71.3013
L232.5988 71.3067
" />
<path d="M100.1120 25.0402
L100.1336 25.0512
" />
<path d="M176.4552 10.3503
L176.4800 10.3497
" />
<path d="M232.8179 71.2030
L232.7985 71.2181
" />
<path d="M0.9047 74.5334
L0.9530 74.5249
" />
<path d="M75.3108 12.7211
L75.3295 12.7372
" />
<path d="M232.8002 15.3009
L232.8191 15.3158
" />
<path d="M75.2596 12.6674
L75.2757 12.6861
" />
<path d="M213.8044 10.8248
L213.8050 10.8506
" />
<path d="M0.4282 0.3604
L0.4645 0.3290
" />
<path d="M232.5011 15.2016
L232.5268 15.2023
" />
<path d="M0.4296 108.2552
L0.3937 108.2210
" />
<path d="M0.1201 4.2966
L0.1116 4.2483
" />
<path d="M232.9302 71.0730
L232.9171 71.0937
" />
<path d="M100.6074 100.3192
L100.5971 100.3321
" />
<path d="M99.8604 24.7013
L99.8660 24.7255
" />
<path d="M109.5450 25.0612
L109.5671 25.0512
" />
<path d="M118.2446 15.4060
L118.2547 15.3838
" />
<path d="M0.1006 70.8164
L0.1007 15.7017
" />
<path d="M75.5246 12.8354
L75.5484 12.8408
" />
<path d="M118.2907 15.3210
L118.3047 15.3014
" />
<path d="M232.2447 108.4837
L232.1970 108.4944
" />
<path d="M138.9932 13.1370
L139.0042 13.1152
" />
<path d="M0.1012 70.8411
L0.1006 70.8164
" />
<path d="M0.6297 4.9828
L0.5871 4.9587
" />
<path d="M94.0856 13.0939
L94.0976 13.1151
" />
<path d="M232.9961 75.4150
L232.9997 75.4642
" />
<path d="M229.1011 5.1006
L229.1010 15.2013
" />
<path d="M37.8452 10.3280
L37.8684 10.3202
" />
<path d="M176.9546 9.8753
L176.9552 9.8505
" />
<path d="M38.0146 10.2363
L38.0327 10.2206
" />
<path d="M232.9249 75.1311
L232.9424 75.1766
" />
<path d="M157.5291 12.8450
L157.5532 12.8408
" />
<path d="M201.3650 74.7422
L201.4027 74.7125
" />
<path d="M139.2540 12.8887
L139.2767 12.8800
" />
<path d="M138.9459 13.3257
L138.9477 13.3011
" />
<path d="M32.1018 102.5653
L32.1057 102.6161
" />
<path d="M177.0261 8.3440
L177.0392 8.3233
" />
<path d="M0.1768 4.4833
L0.1592 4.4378
" />
<path d="M233.0011 70.8163
L233.0005 70.8411
" />
<path d="M118.4886 15.1498
L118.5108 15.1398
" />
<path d="M110.2495 15.1109
L110.2741 15.1065
" />
<path d="M55.7445 8.1103
L55.7684 8.1157
" />
<path d="M133.3812 15.2644
L133.3977 15.2470
" />
<path d="M0.1019 1.0491
L0.1057 0.9984
" />
<path d="M114.8519 75.6510
L114.8449 75.6659
" />
<path d="M133.3977 15.2470
L133.4151 15.2305
" />
<path d="M0.1438 75.2230
L0.1592 75.1767
" />
<path d="M158.1577 10.4485
L158.1778 10.4344
" />
<path d="M31.6989 74.7125
L31.7367 74.7422
" />
<path d="M100.0512 25.0012
L100.0708 25.0152
" />
<path d="M19.1824 15.0187
L19.1972 14.9998
" />
<path d="M0.1006 107.5136
L0.1008 75.5139
" />
<path d="M142.9953 12.8507
L142.9953 5.1005
" />
<path d="M0.1848 71.0937
L0.1717 71.0730
" />
<path d="M176.9606 8.5268
L176.9648 8.5026
" />
<path d="M232.8048 108.1087
L232.7746 108.1475
" />
<path d="M232.2919 74.5571
L232.3382 74.5724
" />
<path d="M74.6959 10.3530
L74.7203 10.3560
" />
<path d="M0.4293 4.8418
L0.3934 4.8076
" />
<path d="M157.9558 10.8255
L157.9576 10.8009
" />
<path d="M19.7708 10.3511
L19.7965 10.3504
" />
<path d="M232.7082 4.8078
L232.6723 4.8420
" />
<path d="M232.1486 5.0895
L232.0997 5.0956
" />
<path d="M19.6019 10.3899
L19.6246 10.3809
" />
<path d="M99.5223 15.1309
L99.5450 15.1398
" />
<path d="M114.5450 15.1230
L114.5683 15.1308
" />
<path d="M114.8241 15.3413
L114.8361 15.3622
" />
<path d="M56.2175 10.1071
L56.2306 10.1278
" />
<path d="M176.9932 8.4093
L177.0031 8.3870
" />
<path d="M123.0106 15.1729
L123.0309 15.1859
" />
<path d="M11.2006 15.2010
L18.7966 15.2006
" />
<path d="M232.5195 0.2454
L232.5601 0.2714
" />
<path d="M31.8723 74.8778
L31.9019 74.9155
" />
<path d="M19.4264 10.5144
L19.4430 10.4970
" />
<path d="M19.4603 10.4805
L19.4785 10.4648
" />
<path d="M1.0510 108.5127
L1.0017 108.5090
" />
<path d="M38.3265 8.2645
L38.3430 8.2471
" />
<path d="M100.0911 25.0282
L100.1120 25.0402
" />
<path d="M0.1592 107.8509
L0.1439 107.8045
" />
<path d="M213.3813 10.3564
L213.4059 10.3608
" />
<path d="M38.5246 8.1310
L38.5479 8.1231
" />
<path d="M213.8050 10.8506
L213.8050 14.7008
" />
<path d="M118.2055 75.4614
L118.2052 75.4450
" />
<path d="M157.5771 12.8355
L157.6006 12.8289
" />
<path d="M177.1778 8.1847
L177.1985 8.1716
" />
<path d="M194.8327 8.3414
L194.8447 8.3623
" />
<path d="M109.6684 24.9864
L109.6865 24.9707
" />
<path d="M176.6906 10.2915
L176.7118 10.2795
" />
<path d="M0.1056 4.1995
L0.1019 4.1502
" />
<path d="M176.5771 10.3352
L176.6006 10.3287
" />
<path d="M200.2510 103.4823
L200.2984 103.4688
" />
<path d="M138.6399 15.0613
L138.6621 15.0513
" />
<path d="M37.9761 10.2651
L37.9957 10.2512
" />
<path d="M94.2706 14.9187
L94.2863 14.9368
" />
<path d="M0.1717 71.0730
L0.1596 71.0517
" />
<path d="M157.7721 12.7374
L157.7908 12.7213
" />
<path d="M232.3902 0.1792
L232.4345 0.1992
" />
<path d="M232.5144 4.9588
L232.4719 4.9828
" />
<path d="M75.3490 12.7524
L75.3690 12.7665
" />
<path d="M123.2411 15.4997
L123.2455 15.5244
" />
<path d="M38.4582 8.1610
L38.4798 8.1500
" />
<path d="M232.3837 74.5900
L232.4284 74.6097
" />
<path d="M0.3270 4.7343
L0.2968 4.6955
" />
<path d="M110.1557 15.1400
L110.1784 15.1311
" />
<path d="M194.4563 8.1033
L194.4813 8.1065
" />
<path d="M0.1157 70.9382
L0.1103 70.9143
" />
<path d="M56.4328 10.3025
L56.4551 10.3124
" />
<path d="M229.1010 71.3147
L229.1012 74.5137
" />
<path d="M232.2984 0.1455
L232.3448 0.1613
" />
<path d="M109.5671 25.0512
L109.5887 25.0401
" />
<path d="M32.8506 103.4823
L32.8990 103.4935
" />
<path d="M19.1501 15.0542
L19.1667 15.0368
" />
<path d="M232.9963 4.1994
L232.9902 4.2482
" />
<path d="M150.1951 12.8506
L157.4552 12.8505
" />
<path d="M0.2826 15.3157
L0.3015 15.3009
" />
<path d="M100.5753 100.3567
L100.5639 100.3684
" />
<path d="M75.4110 12.7916
L75.4328 12.8025
" />
<path d="M94.1565 14.6008
L94.1572 14.6265
" />
<path d="M99.8403 15.4997
L99.8447 15.5244
" />
<path d="M157.9528 12.4001
L157.9546 12.3755
" />
<path d="M139.2767 12.8800
L139.2999 12.8723
" />
<path d="M133.4717 15.1860
L133.4920 15.1730
" />
<path d="M232.5144 108.3719
L232.4718 108.3960
" />
<path d="M213.8543 14.9174
L213.8654 14.9390
" />
<path d="M114.8960 75.4612
L114.8952 75.4776
" />
<path d="M100.1785 25.0702
L100.2017 25.0780
" />
<path d="M133.2411 24.7014
L133.2455 24.6768
" />
<path d="M114.8962 75.4448
L114.8960 75.4612
" />
<path d="M139.3959 12.8532
L139.4205 12.8514
" />
<path d="M232.8366 71.1868
L232.8179 71.2030
" />
<path d="M19.7454 10.3531
L19.7708 10.3511
" />
<path d="M93.6811 12.8512
L93.7057 12.8530
" />
<path d="M94.2863 14.9368
L94.3028 14.9542
" />
<path d="M1.0017 108.5090
L0.9529 108.5029
" />
<path d="M0.4999 15.2117
L0.5245 15.2073
" />
<path d="M201.2294 74.8778
L201.2608 74.8415
" />
<path d="M232.9287 15.4423
L232.9407 15.4632
" />
<path d="M100.0141 24.9707
L100.0323 24.9864
" />
<path d="M19.4973 10.4499
L19.5169 10.4360
" />
<path d="M100.3407 100.4966
L100.3248 100.5006
" />
<path d="M56.5246 10.3353
L56.5485 10.3407
" />
<path d="M232.1970 108.4944
L232.1487 108.5029
" />
<path d="M56.1442 8.5511
L56.1460 8.5758
" />
<path d="M132.8024 25.0978
L132.8274 25.0947
" />
<path d="M75.1519 12.4244
L75.1562 12.4485
" />
<path d="M94.2168 14.8390
L94.2288 14.8599
" />
<path d="M118.5108 15.1398
L118.5335 15.1309
" />
<path d="M118.5567 15.1230
L118.5805 15.1163
" />
<path d="M99.4265 15.1063
L99.4512 15.1107
" />
<path d="M232.7985 71.2181
L232.7784 71.2322
" />
<path d="M0.1020 75.4643
L0.1056 75.4151
" />
<path d="M133.3367 15.3210
L133.3506 15.3014
" />
<path d="M114.7971 15.3014
L114.8111 15.3210
" />
<path d="M133.1519 24.8998
L133.1658 24.8802
" />
<path d="M232.8832 75.0429
L232.9051 75.0865
" />
<path d="M213.7949 10.7498
L213.7993 10.7744
" />
<path d="M133.4521 15.1999
L133.4717 15.1860
" />
<path d="M232.9404 0.7568
L232.9561 0.8032
" />
<path d="M31.8408 74.8415
L31.8723 74.8778
" />
<path d="M109.7650 24.8802
L109.7780 24.8599
" />
<path d="M200.7728 103.1498
L200.8025 103.1121
" />
<path d="M74.9821 10.4799
L75.0001 10.4970
" />
<path d="M100.2496 25.0904
L100.2743 25.0948
" />
<path d="M133.2906 15.4059
L133.3006 15.3838
" />
<path d="M38.5479 8.1231
L38.5716 8.1164
" />
<path d="M0.1487 71.0299
L0.1387 71.0076
" />
<path d="M32.9482 103.5023
L32.9983 103.5086
" />
<path d="M99.6097 15.1729
L99.6299 15.1859
" />
<path d="M133.2738 15.4519
L133.2816 15.4286
" />
<path d="M0.1992 0.6671
L0.2213 0.6240
" />
<path d="M75.0756 10.5937
L75.0876 10.6149
" />
<path d="M138.4712 15.0999
L138.4965 15.0980
" />
<path d="M19.3023 10.7744
L19.3067 10.7498
" />
<path d="M114.8897 75.5264
L114.8868 75.5424
" />
<path d="M123.5567 25.0613
L123.5794 25.0702
" />
<path d="M0.1116 75.3662
L0.1200 75.3179
" />
<path d="M75.0625 10.5730
L75.0756 10.5937
" />
<path d="M132.5155 100.3446
L132.4945 100.3193
" />
<path d="M232.2447 5.0704
L232.1969 5.0811
" />
<path d="M18.9453 15.1781
L18.9685 15.1703
" />
<path d="M177.1382 8.2139
L177.1577 8.1988
" />
<path d="M109.4266 25.0947
L109.4512 25.0903
" />
<path d="M32.8032 103.4688
L32.8506 103.4823
" />
<path d="M232.9900 75.3661
L232.9961 75.4150
" />
<path d="M118.2149 75.5425
L118.2120 75.5265
" />
<path d="M195.1459 10.2782
L195.1668 10.2902
" />
<path d="M213.9349 15.0368
L213.9515 15.0542
" />
<path d="M232.9225 0.7113
L232.9404 0.7568
" />
<path d="M157.9767 10.7049
L157.9844 10.6818
" />
<path d="M132.4945 100.3193
L132.4752 100.2924
" />
<path d="M213.7893 10.7256
L213.7949 10.7498
" />
<path d="M139.0918 12.9971
L139.1097 12.9800
" />
<path d="M194.5997 8.1400
L194.6219 8.1500
" />
<path d="M90.1955 5.1005
L90.1955 12.8506
" />
<path d="M0.5759 71.3157
L0.5513 71.3139
" />
<path d="M56.3490 10.2523
L56.3691 10.2664
" />
<path d="M214.1564 15.1782
L214.1802 15.1850
" />
<path d="M232.4777 0.2213
L232.5195 0.2454
" />
<path d="M0.1308 75.2701
L0.1438 75.2230
" />
<path d="M109.6096 25.0281
L109.6299 25.0151
" />
<path d="M133.6506 15.1107
L133.6752 15.1063
" />
<path d="M110.2992 15.1033
L110.3246 15.1014
" />
<path d="M114.8361 15.3622
L114.8472 15.3838
" />
<path d="M90.1955 12.8506
L93.6563 12.8506
" />
<path d="M99.9106 24.8389
L99.9227 24.8598
" />
<path d="M213.7326 10.5913
L213.7447 10.6122
" />
<path d="M56.6465 10.3504
L74.6466 10.3505
" />
<path d="M232.6260 15.2174
L232.6498 15.2241
" />
<path d="M195.1883 10.3012
L195.2105 10.3112
" />
<path d="M109.8728 15.4519
L109.8807 15.4286
" />
<path d="M194.8949 8.4999
L194.8993 8.5245
" />
<path d="M31.9558 74.9953
L31.9799 75.0372
" />
<path d="M194.9444 10.0452
L194.9544 10.0674
" />
<path d="M19.1667 15.0368
L19.1824 15.0187
" />
<path d="M74.8150 10.3798
L74.8378 10.3886
" />
<path d="M32.2992 103.1121
L32.3289 103.1498
" />
<path d="M32.0020 75.0803
L32.0220 75.1246
" />
<path d="M232.8546 71.1697
L232.8366 71.1868
" />
<path d="M194.9077 9.9017
L194.9109 9.9267
" />
<path d="M38.1242 10.1098
L38.1362 10.0889
" />
<path d="M94.1722 14.7256
L94.1790 14.7494
" />
<path d="M123.2571 24.6767
L123.2615 24.7014
" />
<path d="M232.9425 4.4377
L232.9250 4.4833
" />
<path d="M99.3504 15.1005
L99.3761 15.1012
" />
<path d="M195.1256 10.2652
L195.1459 10.2782
" />
<path d="M0.3592 4.7717
L0.3270 4.7343
" />
<path d="M114.8740 15.4518
L114.8807 15.4756
" />
<path d="M38.2959 8.3015
L38.3108 8.2826
" />
<path d="M109.8347 24.7256
L109.8403 24.7014
" />
<path d="M232.9051 75.0865
L232.9249 75.1311
" />
<path d="M123.0693 15.2147
L123.0875 15.2304
" />
<path d="M123.4152 24.9707
L123.4333 24.9864
" />
<path d="M213.8654 14.9390
L213.8774 14.9599
" />
<path d="M158.0532 10.5530
L158.0684 10.5336
" />
<path d="M200.8564 103.0323
L200.8805 102.9904
" />
<path d="M214.0458 15.1283
L214.0668 15.1403
" />
<path d="M118.3195 15.2825
L118.3352 15.2644
" />
<path d="M38.1472 10.0673
L38.1572 10.0452
" />
<path d="M176.8843 10.1071
L176.8963 10.0858
" />
<path d="M232.9707 15.5296
L232.9786 15.5529
" />
<path d="M4.0005 71.3148
L0.6007 71.3163
" />
<path d="M99.8447 15.5244
L99.8479 15.5494
" />
<path d="M56.1460 8.5758
L56.1466 8.6006
" />
<path d="M94.3383 14.9865
L94.3572 15.0013
" />
<path d="M55.9440 8.1987
L55.9633 8.2138
" />
<path d="M0.9482 0.1121
L0.9983 0.1058
" />
<path d="M38.3430 8.2471
L38.3604 8.2305
" />
<path d="M94.1467 13.2525
L94.1509 13.2767
" />
<path d="M232.5255 71.3158
L232.5007 71.3164
" />
<path d="M200.0010 103.5138
L200.0525 103.5125
" />
<path d="M56.2931 10.2039
L56.3110 10.2211
" />
<path d="M94.2288 14.8599
L94.2418 14.8802
" />
<path d="M109.7780 24.8599
L109.7900 24.8389
" />
<path d="M118.2052 75.4450
L118.2055 15.6007
" />
<path d="M194.9025 8.5495
L194.9044 8.5749
" />
<path d="M100.5148 100.4112
L100.5017 100.4208
" />
<path d="M176.9575 8.5512
L176.9606 8.5268
" />
<path d="M133.2287 24.7493
L133.2355 24.7256
" />
<path d="M123.4921 25.0282
L123.5130 25.0402
" />
<path d="M94.3768 15.0153
L94.3971 15.0283
" />
<path d="M0.6239 0.2213
L0.6671 0.1992
" />
<path d="M0.2968 74.9189
L0.3270 74.8800
" />
<path d="M118.2055 15.6007
L118.2061 15.5749
" />
<path d="M123.2020 15.3837
L123.2120 15.4059
" />
<path d="M114.8661 15.4286
L114.8740 15.4518
" />
<path d="M0.3270 74.8800
L0.3592 74.8426
" />
<path d="M32.0802 75.3123
L32.0890 75.3615
" />
<path d="M158.2638 10.3885
L158.2866 10.3797
" />
<path d="M232.9817 4.2965
L232.9710 4.3443
" />
<path d="M232.9708 75.2700
L232.9816 75.3178
" />
<path d="M38.1907 9.9268
L38.1939 9.9018
" />
<path d="M75.1410 10.7766
L75.1440 10.8010
" />
<path d="M158.0261 10.5937
L158.0391 10.5730
" />
<path d="M99.8660 24.7255
L99.8728 24.7493
" />
<path d="M158.4057 10.3527
L158.4303 10.3509
" />
<path d="M201.1997 74.9155
L201.2294 74.8778
" />
<path d="M19.2965 10.8506
L19.2972 10.8248
" />
<path d="M18.9216 15.1849
L18.9453 15.1781
" />
<path d="M233.0011 107.5139
L232.9999 107.5634
" />
<path d="M0.2184 75.0430
L0.2424 75.0004
" />
<path d="M232.8330 108.0686
L232.8048 108.1087
" />
<path d="M139.3234 12.8658
L139.3473 12.8604
" />
<path d="M32.2713 103.0729
L32.2992 103.1121
" />
<path d="M157.9336 12.4961
L157.9401 12.4726
" />
<path d="M19.7204 10.3563
L19.7454 10.3531
" />
<path d="M94.5555 15.0906
L94.5802 15.0950
" />
<path d="M201.5244 74.6346
L201.5675 74.6125
" />
<path d="M157.7526 12.7525
L157.7721 12.7374
" />
<path d="M0.9983 0.1058
L1.0490 0.1019
" />
<path d="M0.5028 71.3066
L0.4789 71.3012
" />
<path d="M114.8699 75.6054
L114.8644 75.6208
" />
<path d="M19.3959 10.5514
L19.4107 10.5325
" />
<path d="M177.1195 8.2300
L177.1382 8.2139
" />
<path d="M75.3690 12.7665
L75.3897 12.7796
" />
<path d="M32.1991 102.9473
L32.2212 102.9904
" />
<path d="M138.7989 14.9541
L138.8154 14.9367
" />
<path d="M122.8275 15.1063
L122.8522 15.1107
" />
<path d="M37.9558 10.2781
L37.9761 10.2651
" />
<path d="M4.0006 74.5138
L4.0005 71.3148
" />
<path d="M0.5245 15.2073
L0.5496 15.2041
" />
<path d="M75.1757 12.5192
L75.1845 12.5419
" />
<path d="M200.3449 103.4531
L200.3903 103.4352
" />
<path d="M118.3352 15.2644
L118.3518 15.2470
" />
<path d="M74.8378 10.3886
L74.8601 10.3984
" />
<path d="M74.7445 10.3602
L74.7683 10.3656
" />
<path d="M232.6922 71.2783
L232.6694 71.2871
" />
<path d="M99.9802 24.9368
L99.9968 24.9541
" />
<path d="M232.9956 70.8901
L232.9914 70.9143
" />
<path d="M0.5269 71.3108
L0.5028 71.3066
" />
<path d="M37.7476 10.3479
L37.7726 10.3448
" />
<path d="M0.1014 15.6759
L0.1033 15.6505
" />
<path d="M100.5017 100.4208
L100.4883 100.4300
" />
<path d="M100.2254 25.0848
L100.2496 25.0904
" />
<path d="M177.0533 8.3032
L177.0684 8.2838
" />
<path d="M99.8347 15.4755
L99.8403 15.4997
" />
<path d="M55.7203 8.1061
L55.7445 8.1103
" />
<path d="M232.2918 5.0573
L232.2447 5.0704
" />
<path d="M122.7515 15.1006
L122.7772 15.1012
" />
<path d="M138.8154 14.9367
L138.8312 14.9186
" />
<path d="M32.5414 103.3430
L32.5820 103.3690
" />
<path d="M100.4173 100.4692
L100.4024 100.4756
" />
<path d="M75.1464 10.8505
L75.1465 12.3505
" />
<path d="M176.6465 10.3123
L176.6688 10.3024
" />
<path d="M232.3836 108.4377
L232.3381 108.4553
" />
<path d="M118.2080 15.5495
L118.2112 15.5245
" />
<path d="M11.2006 71.3115
L11.2008 74.5137
" />
<path d="M232.9578 107.8046
L232.9425 107.8509
" />
<path d="M232.8832 107.9847
L232.8591 108.0272
" />
<path d="M19.3190 10.7019
L19.3269 10.6786
" />
<path d="M232.6348 108.2873
L232.5959 108.3175
" />
<path d="M38.2124 8.4756
L38.2191 8.4519
" />
<path d="M100.5400 100.3906
L100.5275 100.4011
" />
<path d="M38.4170 8.1861
L38.4373 8.1730
" />
<path d="M201.6119 74.5924
L201.6573 74.5745
" />
<path d="M0.3414 15.2739
L0.3623 15.2619
" />
<path d="M176.9455 9.9485
L176.9497 9.9243
" />
<path d="M100.4607 100.4470
L100.4465 100.4549
" />
<path d="M201.5675 74.6125
L201.6119 74.5924
" />
<path d="M192.6656 71.6284
L190.7553 72.0224
" />
<path d="M177.4550 8.1004
L194.4053 8.1007
" />
<path d="M109.7362 24.9186
L109.7510 24.8997
" />
<path d="M232.9786 15.5529
L232.9854 15.5766
" />
<path d="M122.9460 15.1399
L122.9681 15.1499
" />
<path d="M109.8807 15.4286
L109.8896 15.4059
" />
<path d="M133.3654 15.2825
L133.3812 15.2644
" />
<path d="M176.9497 9.9243
L176.9527 9.8999
" />
<path d="M75.1084 10.6590
L75.1172 10.6818
" />
<path d="M133.1371 24.9186
L133.1519 24.8998
" />
<path d="M74.6466 10.3505
L74.6714 10.3511
" />
<path d="M0.3839 15.2508
L0.4060 15.2408
" />
<path d="M56.0755 8.3439
L56.0876 8.3652
" />
<path d="M38.5716 8.1164
L38.5958 8.1108
" />
<path d="M176.8419 10.1673
L176.8571 10.1478
" />
<path d="M195.3043 10.3404
L195.3289 10.3448
" />
<path d="M0.7179 108.4377
L0.6733 108.4179
" />
<path d="M75.1562 12.4485
L75.1615 12.4724
" />
<path d="M0.5750 15.2022
L0.6007 15.2015
" />
<path d="M109.8447 24.6768
L109.8479 24.6517
" />
<path d="M232.9997 1.0490
L233.0010 1.1005
" />
<path d="M133.0504 25.0012
L133.0693 24.9864
" />
<path d="M213.4301 10.3664
L213.4538 10.3731
" />
<path d="M232.8331 4.6554
L232.8048 4.6956
" />
<path d="M133.4332 15.2148
L133.4521 15.1999
" />
<path d="M232.0010 74.5139
L232.0506 74.5151
" />
<path d="M38.1808 9.9756
L38.1863 9.9514
" />
<path d="M94.1558 13.3257
L94.1564 13.3505
" />
<path d="M0.4789 71.3012
L0.4554 71.2947
" />
<path d="M56.0876 8.3652
L56.0986 8.3870
" />
<path d="M177.0684 8.2838
L177.0845 8.2651
" />
<path d="M138.9448 14.6262
L138.9454 14.6004
" />
<path d="M201.0326 75.2638
L201.0461 75.2164
" />
<path d="M0.4668 4.8741
L0.4293 4.8418
" />
<path d="M232.0011 0.1005
L232.0525 0.1019
" />
<path d="M36.9251 71.3003
L11.2006 71.3115
" />
<path d="M232.8048 4.6956
L232.7746 4.7344
" />
<path d="M123.3655 24.9186
L123.3813 24.9368
" />
<path d="M232.5746 71.3109
L232.5502 71.3140
" />
<path d="M133.6752 15.1063
L133.7003 15.1031
" />
<path d="M72.1299 85.9071
L67.3515 83.1826
" />
<path d="M32.6239 103.3931
L32.6670 103.4151
" />
<path d="M142.9953 5.1005
L90.1955 5.1005
" />
<path d="M233.0005 70.8411
L232.9986 70.8657
" />
<path d="M56.1845 10.0417
L56.1944 10.0640
" />
<path d="M110.0323 15.2148
L110.0511 15.2000
" />
<path d="M139.2317 12.8986
L139.2540 12.8887
" />
<path d="M99.7362 15.2825
L99.7510 15.3013
" />
<path d="M133.2355 24.7256
L133.2411 24.7014
" />
<path d="M0.1109 15.6009
L0.1165 15.5767
" />
<path d="M109.9357 15.3210
L109.9496 15.3014
" />
<path d="M133.0308 25.0151
L133.0504 25.0012
" />
<path d="M55.7684 8.1157
L55.7919 8.1222
" />
<path d="M56.1561 9.9484
L56.1615 9.9723
" />
<path d="M0.6671 0.1992
L0.7113 0.1792
" />
<path d="M0.3595 108.1850
L0.3272 108.1476
" />
<path d="M158.1016 10.4969
L158.1196 10.4798
" />
<path d="M32.1005 102.5139
L32.1018 102.5653
" />
<path d="M4.0008 15.2014
L4.0005 5.1007
" />
<path d="M93.8018 12.8722
L93.8249 12.8798
" />
<path d="M38.0824 10.1686
L38.0972 10.1497
" />
<path d="M38.0972 10.1497
L38.1112 10.1301
" />
<path d="M157.9844 10.6818
L157.9932 10.6590
" />
<path d="M118.2777 15.3413
L118.2907 15.3210
" />
<path d="M33.0490 103.5125
L33.1005 103.5138
" />
<path d="M0.2993 0.5023
L0.3290 0.4646
" />
<path d="M74.7919 10.3721
L74.8150 10.3798
" />
<path d="M94.2418 14.8802
L94.2557 14.8998
" />
<path d="M201.4027 74.7125
L201.4420 74.6847
" />
<path d="M233.0010 1.1005
L233.0012 4.1005
" />
<path d="M177.1577 8.1988
L177.1778 8.1847
" />
<path d="M232.8591 108.0272
L232.8330 108.0686
" />
<path d="M100.1558 25.0612
L100.1785 25.0702
" />
<path d="M195.0045 10.1497
L195.0193 10.1686
" />
<path d="M32.1120 102.6661
L32.1208 102.7153
" />
<path d="M1.1006 5.1005
L1.0510 5.0993
" />
<path d="M0.3623 15.2619
L0.3839 15.2508
" />
<path d="M38.4373 8.1730
L38.4582 8.1610
" />
<path d="M56.4551 10.3124
L56.4779 10.3211
" />
<path d="M170.5670 80.5437
L160.9719 85.9071
" />
<path d="M194.8057 8.3015
L194.8197 8.3211
" />
<path d="M157.9932 10.6590
L158.0031 10.6368
" />
<path d="M100.4465 100.4549
L100.4320 100.4623
" />
<path d="M0.8098 5.0573
L0.7634 5.0420
" />
<path d="M123.2506 15.5748
L123.2513 15.6005
" />
<path d="M0.1387 71.0076
L0.1299 70.9849
" />
<path d="M232.9854 15.5766
L232.9910 15.6008
" />
<path d="M38.3108 8.2826
L38.3265 8.2645
" />
<path d="M194.9276 9.9993
L194.9355 10.0225
" />
<path d="M99.8111 15.4059
L99.8200 15.4286
" />
<path d="M157.6465 12.8125
L157.6688 12.8026
" />
<path d="M157.8843 12.6073
L157.8963 12.5861
" />
<path d="M0.2213 0.6240
L0.2454 0.5821
" />
<path d="M56.3691 10.2664
L56.3897 10.2795
" />
<path d="M232.9997 75.4642
L233.0009 75.5138
" />
<path d="M114.4725 15.1062
L114.4971 15.1106
" />
<path d="M114.7500 15.2470
L114.7666 15.2644
" />
<path d="M132.5619 100.3906
L132.5380 100.3684
" />
<path d="M213.3309 10.3513
L213.3563 10.3532
" />
<path d="M132.8921 100.5139
L132.8586 100.5128
" />
<path d="M19.6478 10.3730
L19.6715 10.3663
" />
<path d="M75.0172 10.5149
L75.0333 10.5336
" />
<path d="M75.5011 12.8289
L75.5246 12.8354
" />
<path d="M99.5672 15.1498
L99.5887 15.1609
" />
<path d="M232.8563 0.5821
L232.8803 0.6239
" />
<path d="M232.8879 71.1331
L232.8717 71.1518
" />
<path d="M38.4798 8.1500
L38.5019 8.1400
" />
<path d="M38.1572 10.0452
L38.1662 10.0225
" />
<path d="M75.3295 12.7372
L75.3490 12.7524
" />
<path d="M0.1321 0.8507
L0.1455 0.8033
" />
<path d="M221.9012 15.2011
L221.9012 5.1007
" />
<path d="M133.4920 15.1730
L133.5130 15.1609
" />
<path d="M176.8712 10.1278
L176.8843 10.1071
" />
<path d="M109.8111 24.7952
L109.8201 24.7725
" />
<path d="M114.5683 15.1308
L114.5910 15.1398
" />
<path d="M123.2738 24.7493
L123.2817 24.7725
" />
<path d="M213.6042 10.4499
L213.6231 10.4648
" />
<path d="M213.9515 15.0542
L213.9689 15.0708
" />
<path d="M0.5872 108.3719
L0.5458 108.3458
" />
<path d="M0.6297 74.6317
L0.6734 74.6098
" />
<path d="M42.3465 72.0225
L40.4363 71.6284
" />
<path d="M31.3980 74.5588
L31.4444 74.5745
" />
<path d="M0.9529 5.0896
L0.9046 5.0812
" />
<path d="M0.1019 4.1502
L0.1007 4.1006
" />
<path d="M123.3507 24.8997
L123.3655 24.9186
" />
<path d="M75.4551 12.8124
L75.4779 12.8212
" />
<path d="M114.8111 15.3210
L114.8241 15.3413
" />
<path d="M138.7046 15.0282
L138.7249 15.0152
" />
<path d="M37.7726 10.3448
L37.7972 10.3404
" />
<path d="M201.3287 74.7737
L201.3650 74.7422
" />
<path d="M232.4719 4.9828
L232.4283 5.0048
" />
<path d="M150.1951 5.1008
L150.1951 12.8506
" />
<path d="M133.2019 24.8174
L133.2119 24.7953
" />
<path d="M176.6688 10.3024
L176.6906 10.2915
" />
<path d="M94.0433 13.0337
L94.0584 13.0531
" />
<path d="M123.6751 25.0948
L123.7001 25.0980
" />
<path d="M138.7815 14.9707
L138.7989 14.9541
" />
<path d="M75.1172 10.6818
L75.1249 10.7050
" />
<path d="M232.6734 0.3604
L232.7081 0.3935
" />
<path d="M229.1010 15.2013
L232.5011 15.2016
" />
<path d="M123.2120 15.4059
L123.2209 15.4286
" />
<path d="M123.6505 25.0904
L123.6751 25.0948
" />
<path d="M139.1679 12.9346
L139.1886 12.9216
" />
<path d="M38.1958 9.8764
L38.1964 9.8507
" />
<path d="M18.8974 15.1904
L18.9216 15.1849
" />
<path d="M0.1596 71.0517
L0.1487 71.0299
" />
<path d="M123.2514 24.6006
L123.2520 24.6263
" />
<path d="M0.2653 71.1870
L0.2473 71.1699
" />
<path d="M75.0484 10.5530
L75.0625 10.5730
" />
<path d="M99.4754 15.1163
L99.4991 15.1230
" />
<path d="M232.9795 70.9617
L232.9718 70.9849
" />
<path d="M109.8510 15.5748
L109.8529 15.5494
" />
<path d="M123.2907 24.7952
L123.3007 24.8174
" />
<path d="M94.4395 15.0514
L94.4617 15.0614
" />
<path d="M138.9297 14.7254
L138.9353 14.7012
" />
<path d="M93.7301 12.8560
L93.7543 12.8603
" />
<path d="M74.8601 10.3984
L74.8819 10.4094
" />
<path d="M232.2025 0.1209
L232.2509 0.1321
" />
<path d="M213.5643 10.4230
L213.5846 10.4360
" />
<path d="M194.8893 8.4757
L194.8949 8.4999
" />
<path d="M114.8863 15.4997
L114.8907 15.5243
" />
<path d="M0.1592 75.1767
L0.1767 75.1312
" />
<path d="M109.8605 15.4998
L109.8661 15.4756
" />
<path d="M0.1592 4.4378
L0.1439 4.3915
" />
<path d="M38.2191 8.4519
L38.2270 8.4287
" />
<path d="M132.5871 100.4112
L132.5619 100.3906
" />
<path d="M118.2318 75.6055
L118.2268 75.5900
" />
<path d="M32.3603 103.1861
L32.3934 103.2208
" />
<path d="M232.7083 74.8068
L232.7424 74.8427
" />
<path d="M19.1972 14.9998
L19.2112 14.9802
" />
<path d="M32.9983 103.5086
L33.0490 103.5125
" />
<path d="M94.6306 15.1001
L94.6563 15.1007
" />
<path d="M100.2098 100.5140
L99.3716 100.4302
" />
<path d="M99.6299 15.1859
L99.6495 15.1999
" />
<path d="M56.2306 10.1278
L56.2447 10.1478
" />
<path d="M232.9895 0.9482
L232.9959 0.9983
" />
<path d="M94.1414 13.2287
L94.1467 13.2525
" />
<path d="M138.6172 15.0702
L138.6399 15.0613
" />
<path d="M214.2290 15.1950
L214.2540 15.1982
" />
<path d="M158.3097 10.3720
L158.3333 10.3655
" />
<path d="M232.0525 0.1019
L232.1033 0.1057
" />
<path d="M1.1005 0.1006
L232.0011 0.1005
" />
<path d="M176.9527 9.8999
L176.9546 9.8753
" />
<path d="M89.3994 95.9493
L72.1299 85.9071
" />
<path d="M11.2008 74.5137
L31.1005 74.5138
" />
<path d="M118.4258 15.1859
L118.4461 15.1729
" />
<path d="M56.1466 8.6006
L56.1464 9.8504
" />
<path d="M123.2209 15.4286
L123.2288 15.4518
" />
<path d="M194.9355 10.0225
L194.9444 10.0452
" />
<path d="M232.9424 75.1766
L232.9577 75.2230
" />
<path d="M0.2969 108.1087
L0.2687 108.0686
" />
<path d="M19.6957 10.3607
L19.7204 10.3563
" />
<path d="M109.9968 15.2471
L110.0141 15.2305
" />
<path d="M0.1007 15.7017
L0.1014 15.6759
" />
<path d="M100.6444 100.2639
L100.6358 100.2783
" />
<path d="M194.8558 8.3839
L194.8658 8.4060
" />
<path d="M213.9044 14.9998
L213.9192 15.0187
" />
<path d="M75.0333 10.5336
L75.0484 10.5530
" />
<path d="M138.6836 15.0402
L138.7046 15.0282
" />
<path d="M201.2608 74.8415
L201.2940 74.8068
" />
<path d="M177.2416 8.1486
L177.2639 8.1387
" />
<path d="M176.7325 10.2664
L176.7526 10.2523
" />
<path d="M109.8529 15.5494
L109.8561 15.5244
" />
<path d="M133.3506 15.3014
L133.3654 15.2825
" />
<path d="M38.1939 9.9018
L38.1958 9.8764
" />
<path d="M232.8048 74.9189
L232.8330 74.9590
" />
<path d="M132.9232 25.0701
L132.9459 25.0612
" />
<path d="M139.0434 13.0532
L139.0585 13.0338
" />
<path d="M32.1455 102.8112
L32.1612 102.8576
" />
<path d="M200.5196 103.3690
L200.5602 103.3430
" />
<path d="M139.0293 13.0732
L139.0434 13.0532
" />
<path d="M0.3592 74.8426
L0.3934 74.8067
" />
<path d="M110.0707 15.1861
L110.0910 15.1731
" />
<path d="M214.2794 15.2001
L214.3051 15.2008
" />
<path d="M99.8560 24.6767
L99.8604 24.7013
" />
<path d="M200.9226 102.9030
L200.9405 102.8576
" />
<path d="M0.2968 4.6955
L0.2686 4.6554
" />
<path d="M114.7145 15.2147
L114.7326 15.2304
" />
<path d="M0.1055 107.6125
L0.1019 107.5632
" />
<path d="M32.1208 102.7153
L32.1320 102.7637
" />
<path d="M56.1519 9.9243
L56.1561 9.9484
" />
<path d="M157.9497 12.4245
L157.9528 12.4001
" />
<path d="M99.3716 100.4302
L98.3685 100.1859
" />
<path d="M109.8279 24.7493
L109.8347 24.7256
" />
<path d="M75.1680 12.4960
L75.1757 12.5192
" />
<path d="M0.2686 74.9590
L0.2968 74.9189
" />
<path d="M100.3719 100.4871
L100.3564 100.4921
" />
<path d="M0.3937 108.2210
L0.3595 108.1850
" />
<path d="M195.1060 10.2512
L195.1256 10.2652
" />
<path d="M213.6908 10.5325
L213.7057 10.5514
" />
<path d="M176.7526 10.2523
L176.7720 10.2372
" />
<path d="M38.3604 8.2305
L38.3785 8.2148
" />
<path d="M118.2498 75.6511
L118.2433 75.6361
" />
<path d="M0.1455 0.8033
L0.1613 0.7568
" />
<path d="M232.7394 15.2619
L232.7603 15.2740
" />
<path d="M232.9914 70.9143
L232.9860 70.9382
" />
<path d="M176.4800 10.3497
L176.5046 10.3478
" />
<path d="M1.0510 5.0993
L1.0018 5.0956
" />
<path d="M0.9045 108.4945
L0.8568 108.4837
" />
<path d="M19.3458 10.6338
L19.3569 10.6122
" />
<path d="M213.8275 14.8494
L213.8354 14.8726
" />
<path d="M133.5794 15.1309
L133.6027 15.1230
" />
<path d="M0.5513 71.3139
L0.5269 71.3108
" />
<path d="M232.0999 74.5188
L232.1487 74.5249
" />
<path d="M56.1944 10.0640
L56.2054 10.0858
" />
<path d="M157.5047 12.8481
L157.5291 12.8450
" />
<path d="M19.4785 10.4648
L19.4973 10.4499
" />
<path d="M177.0031 8.3870
L177.0141 8.3652
" />
<path d="M56.0986 8.3870
L56.1085 8.4093
" />
<path d="M138.9833 13.1593
L138.9932 13.1370
" />
<path d="M133.7003 15.1031
L133.7257 15.1011
" />
<path d="M94.5076 15.0782
L94.5313 15.0850
" />
<path d="M157.8420 12.6675
L157.8571 12.6481
" />
<path d="M188.7541 72.5556
L184.5154 73.9963
" />
<path d="M200.8304 103.0728
L200.8564 103.0323
" />
<path d="M138.9428 14.6516
L138.9448 14.6262
" />
<path d="M109.8661 15.4756
L109.8728 15.4519
" />
<path d="M138.6621 15.0513
L138.6836 15.0402
" />
<path d="M32.2212 102.9904
L32.2453 103.0323
" />
<path d="M38.0327 10.2206
L38.0501 10.2041
" />
<path d="M100.2598 100.5114
L100.2432 100.5128
" />
<path d="M233.0009 75.5138
L233.0011 107.5139
" />
<path d="M38.3785 8.2148
L38.3974 8.2000
" />
<path d="M213.7196 10.5710
L213.7326 10.5913
" />
<path d="M133.2119 24.7953
L133.2209 24.7726
" />
<path d="M0.4520 15.2240
L0.4757 15.2172
" />
<path d="M133.1788 24.8599
L133.1909 24.8390
" />
<path d="M38.2024 8.5244
L38.2068 8.4998
" />
<path d="M31.1520 74.5151
L31.2028 74.5190
" />
<path d="M114.6132 15.1498
L114.6347 15.1609
" />
<path d="M175.3488 78.0759
L170.5670 80.5437
" />
<path d="M56.0624 8.3232
L56.0755 8.3439
" />
<path d="M82.9953 5.1006
L11.2006 5.1006
" />
<path d="M201.7512 74.5453
L201.7996 74.5341
" />
<path d="M38.1362 10.0889
L38.1472 10.0673
" />
<path d="M157.6906 12.7917
L157.7119 12.7797
" />
<path d="M138.4965 15.0980
L138.5215 15.0948
" />
<path d="M232.5268 15.2023
L232.5522 15.2042
" />
<path d="M114.8807 15.4756
L114.8863 15.4997
" />
<path d="M194.4757 71.3841
L192.6656 71.6284
" />
<path d="M75.2445 12.6480
L75.2596 12.6674
" />
<path d="M56.1464 9.8504
L56.1470 9.8752
" />
<path d="M38.1740 9.9993
L38.1808 9.9756
" />
<path d="M176.7118 10.2795
L176.7325 10.2664
" />
<path d="M93.9339 12.9345
L93.9539 12.9487
" />
<path d="M100.1336 25.0512
L100.1558 25.0612
" />
<path d="M133.2506 24.6264
L133.2512 24.6006
" />
<path d="M56.1488 9.8999
L56.1519 9.9243
" />
<path d="M0.1103 70.9143
L0.1061 70.8902
" />
<path d="M195.0516 10.2041
L195.0690 10.2207
" />
<path d="M56.5727 10.3449
L56.5971 10.3480
" />
<path d="M75.5484 12.8408
L75.5726 12.8450
" />
<path d="M232.8712 15.3654
L232.8869 15.3835
" />
<path d="M32.7113 103.4352
L32.7567 103.4531
" />
<path d="M200.8025 103.1121
L200.8304 103.0728
" />
<path d="M94.2557 14.8998
L94.2706 14.9187
" />
<path d="M32.8990 103.4935
L32.9482 103.5023
" />
<path d="M18.9685 15.1703
L18.9912 15.1613
" />
<path d="M38.0501 10.2041
L38.0667 10.1867
" />
<path d="M232.1970 74.5333
L232.2448 74.5440
" />
<path d="M213.7747 10.6786
L213.7825 10.7019
" />
<path d="M0.6733 5.0047
L0.6297 4.9828
" />
<path d="M114.4221 15.1011
L114.4475 15.1030
" />
<path d="M176.8963 10.0858
L176.9073 10.0641
" />
<path d="M118.2156 15.4999
L118.2211 15.4757
" />
<path d="M200.1533 103.5023
L200.2026 103.4935
" />
<path d="M93.8919 12.9094
L93.9131 12.9215
" />
<path d="M100.5275 100.4011
L100.5148 100.4112
" />
<path d="M75.1845 12.5419
L75.1943 12.5642
" />
<path d="M194.8447 8.3623
L194.8558 8.3839
" />
<path d="M232.9710 4.3443
L232.9579 4.3914
" />
<path d="M56.1085 8.4093
L56.1173 8.4320
" />
<path d="M232.6957 15.2409
L232.7178 15.2509
" />
<path d="M99.8728 24.7493
L99.8806 24.7725
" />
<path d="M109.7900 24.8389
L109.8011 24.8174
" />
<path d="M157.9552 12.3507
L157.9551 10.8503
" />
<path d="M213.8904 14.9802
L213.9044 14.9998
" />
<path d="M194.8658 8.4060
L194.8747 8.4287
" />
<path d="M94.4617 15.0614
L94.4844 15.0704
" />
<path d="M118.2223 75.5743
L118.2183 75.5585
" />
<path d="M93.6563 12.8506
L93.6811 12.8512
" />
<path d="M0.4668 74.7403
L0.5056 74.7101
" />
<path d="M0.5415 0.2714
L0.5821 0.2454
" />
<path d="M177.3098 8.1223
L177.3333 8.1157
" />
<path d="M195.2105 10.3112
L195.2332 10.3202
" />
<path d="M56.2447 10.1478
L56.2598 10.1673
" />
<path d="M232.5522 15.2042
L232.5772 15.2074
" />
<path d="M109.8403 24.7014
L109.8447 24.6768
" />
<path d="M133.7257 15.1011
L133.7514 15.1004
" />
<path d="M232.9910 15.6008
L232.9954 15.6254
" />
<path d="M19.0559 15.1282
L19.0761 15.1152
" />
<path d="M132.7299 100.4871
L132.6994 100.4757
" />
<path d="M18.8727 15.1948
L18.8974 15.1904
" />
<path d="M232.9518 15.4848
L232.9618 15.5069
" />
<path d="M0.1439 4.3915
L0.1308 4.3444
" />
<path d="M32.5820 103.3690
L32.6239 103.3931
" />
<path d="M157.8087 12.7041
L157.8259 12.6862
" />
<path d="M114.8374 75.6805
L114.8295 75.6949
" />
<path d="M109.4991 25.0780
L109.5223 25.0701
" />
<path d="M194.7042 8.2000
L194.7231 8.2149
" />
<path d="M93.7057 12.8530
L93.7301 12.8560
" />
<path d="M118.2095 75.5103
L118.2077 75.4941
" />
<path d="M123.2540 24.6517
L123.2571 24.6767
" />
<path d="M0.2840 71.2031
L0.2653 71.1870
" />
<path d="M100.3087 100.5041
L100.2925 100.5071
" />
<path d="M109.8896 15.4059
L109.8996 15.3838
" />
<path d="M94.0976 13.1151
L94.1086 13.1369
" />
<path d="M232.9962 107.6126
L232.9901 107.6614
" />
<path d="M100.5971 100.3321
L100.5864 100.3446
" />
<path d="M213.7057 10.5514
L213.7196 10.5710
" />
<path d="M214.1332 15.1704
L214.1564 15.1782
" />
<path d="M123.4718 25.0152
L123.4921 25.0282
" />
<path d="M0.1400 15.5070
L0.1500 15.4848
" />
<path d="M114.6760 15.1859
L114.6956 15.1999
" />
<path d="M0.3272 108.1476
L0.2969 108.1087
" />
<path d="M94.3028 14.9542
L94.3202 14.9708
" />
<path d="M157.6238 12.8213
L157.6465 12.8125
" />
<path d="M118.3873 15.2147
L118.4062 15.1999
" />
<path d="M122.9000 15.1230
L122.9233 15.1309
" />
<path d="M110.2016 15.1232
L110.2253 15.1165
" />
<path d="M158.4551 10.3502
L176.4552 10.3503
" />
<path d="M100.2762 100.5095
L100.2598 100.5114
" />
<path d="M176.9336 9.9959
L176.9401 9.9723
" />
<path d="M213.8152 14.8015
L213.8208 14.8257
" />
<path d="M133.6027 15.1230
L133.6264 15.1163
" />
<path d="M0.7567 0.1613
L0.8032 0.1456
" />
<path d="M109.4016 25.0978
L109.4266 25.0947
" />
<path d="M0.1792 0.7114
L0.1992 0.6671
" />
<path d="M232.7145 71.2683
L232.6922 71.2783
" />
<path d="M138.5215 15.0948
L138.5461 15.0904
" />
<path d="M118.3518 15.2470
L118.3692 15.2304
" />
<path d="M55.8379 8.1386
L55.8602 8.1485
" />
<path d="M0.4757 15.2172
L0.4999 15.2117
" />
<path d="M0.9530 74.5249
L1.0019 74.5189
" />
<path d="M158.1985 10.4213
L158.2197 10.4093
" />
<path d="M213.6586 10.4970
L213.6751 10.5144
" />
<path d="M100.0708 25.0152
L100.0911 25.0282
" />
<path d="M0.1165 15.5767
L0.1232 15.5529
" />
<path d="M38.6261 71.3841
L36.9251 71.3003
" />
<path d="M110.2253 15.1165
L110.2495 15.1109
" />
<path d="M0.5821 0.2454
L0.6239 0.2213
" />
<path d="M100.3248 100.5006
L100.3087 100.5041
" />
<path d="M158.3571 10.3601
L158.3813 10.3558
" />
<path d="M0.1008 75.5139
L0.1020 75.4643
" />
<path d="M200.1033 103.5086
L200.1533 103.5023
" />
<path d="M201.7996 74.5341
L201.8489 74.5253
" />
<path d="M0.1209 0.8991
L0.1321 0.8507
" />
<path d="M0.2185 4.5715
L0.1965 4.5279
" />
<path d="M139.4453 12.8507
L142.9953 12.8507
" />
<path d="M99.8806 24.7725
L99.8896 24.7952
" />
<path d="M18.7966 15.2006
L18.8223 15.1999
" />
<path d="M132.6994 100.4757
L132.6698 100.4623
" />
<path d="M118.2268 75.5900
L118.2223 75.5743
" />
<path d="M232.9577 75.2230
L232.9708 75.2700
" />
<path d="M99.4512 15.1107
L99.4754 15.1163
" />
<path d="M232.9561 0.8032
L232.9696 0.8506
" />
<path d="M75.2928 12.7040
L75.3108 12.7211
" />
<path d="M232.0999 108.5089
L232.0507 108.5126
" />
<path d="M123.3978 24.9541
L123.4152 24.9707
" />
<path d="M123.0309 15.1859
L123.0505 15.1999
" />
<path d="M157.6688 12.8026
L157.6906 12.7917
" />
<path d="M138.5461 15.0904
L138.5703 15.0848
" />
<path d="M133.2209 24.7726
L133.2287 24.7493
" />
<path d="M31.5773 74.6345
L31.6192 74.6586
" />
<path d="M232.4718 108.3960
L232.4282 108.4179
" />
<path d="M99.8996 24.8174
L99.9106 24.8389
" />
<path d="M0.3034 71.2182
L0.2840 71.2031
" />
<path d="M232.8833 4.5715
L232.8592 4.6140
" />
<path d="M132.9459 25.0612
L132.9680 25.0512
" />
<path d="M75.1368 10.7524
L75.1410 10.7766
" />
<path d="M176.9648 8.5026
L176.9702 8.4787
" />
<path d="M31.4899 74.5924
L31.5342 74.6125
" />
<path d="M32.0992 75.4623
L32.1005 75.5137
" />
<path d="M195.0193 10.1686
L195.0350 10.1868
" />
<path d="M123.1214 15.2643
L123.1371 15.2825
" />
<path d="M0.1989 71.1138
L0.1848 71.0937
" />
<path d="M213.4997 10.3899
L213.5218 10.3999
" />
<path d="M232.8803 0.6239
L232.9024 0.6671
" />
<path d="M201.0797 75.1246
L201.0997 75.0803
" />
<path d="M232.8591 75.0004
L232.8832 75.0429
" />
<path d="M75.4779 12.8212
L75.5011 12.8289
" />
<path d="M31.4444 74.5745
L31.4899 74.5924
" />
<path d="M0.8569 74.5441
L0.9047 74.5334
" />
<path d="M32.0399 75.1700
L32.0556 75.2165
" />
<path d="M194.9544 10.0674
L194.9655 10.0889
" />
<path d="M213.7657 10.6559
L213.7747 10.6786
" />
<path d="M194.9044 8.5749
L194.9050 8.6007
" />
<path d="M157.8963 12.5861
L157.9073 12.5643
" />
<path d="M31.2529 74.5253
L31.3021 74.5341
" />
<path d="M38.1973 8.5748
L38.1992 8.5494
" />
<path d="M213.7447 10.6122
L213.7557 10.6338
" />
<path d="M123.6263 25.0848
L123.6505 25.0904
" />
<path d="M232.7082 108.2208
L232.6722 108.2550
" />
<path d="M200.7414 103.1861
L200.7728 103.1498
" />
<path d="M123.2355 15.4755
L123.2411 15.4997
" />
<path d="M157.7908 12.7213
L157.8087 12.7041
" />
<path d="M138.8460 14.8997
L138.8600 14.8801
" />
<path d="M40.4363 71.6284
L38.6261 71.3841
" />
<path d="M123.1048 15.2470
L123.1214 15.2643
" />
<path d="M74.9440 10.4486
L74.9634 10.4637
" />
<path d="M122.8025 15.1031
L122.8275 15.1063
" />
<path d="M200.0525 103.5125
L200.1033 103.5086
" />
<path d="M177.1015 8.2471
L177.1195 8.2300
" />
<path d="M93.8249 12.8798
L93.8477 12.8886
" />
<path d="M158.1778 10.4344
L158.1985 10.4213
" />
<path d="M232.5960 74.7101
L232.6349 74.7403
" />
<path d="M213.5218 10.3999
L213.5434 10.4110
" />
<path d="M138.9397 14.6766
L138.9428 14.6516
" />
<path d="M0.4060 15.2408
L0.4287 15.2318
" />
<path d="M19.3358 10.6559
L19.3458 10.6338
" />
<path d="M0.5056 4.9043
L0.4668 4.8741
" />
<path d="M158.0031 10.6368
L158.0140 10.6150
" />
<path d="M214.0883 15.1514
L214.1105 15.1614
" />
<path d="M158.3813 10.3558
L158.4057 10.3527
" />
<path d="M31.7730 74.7736
L31.8077 74.8068
" />
<path d="M31.2028 74.5190
L31.2529 74.5253
" />
<path d="M99.5450 15.1398
L99.5672 15.1498
" />
<path d="M0.1439 107.8045
L0.1308 107.7574
" />
<path d="M56.0483 8.3032
L56.0624 8.3232
" />
<path d="M176.8571 10.1478
L176.8712 10.1278
" />
<path d="M109.4753 25.0847
L109.4991 25.0780
" />
<path d="M75.5970 12.8480
L75.6215 12.8498
" />
<path d="M100.3247 25.0999
L100.3504 25.1005
" />
<path d="M122.8763 15.1163
L122.9000 15.1230
" />
<path d="M0.3654 71.2574
L0.3441 71.2454
" />
<path d="M133.1213 24.9368
L133.1371 24.9186
" />
<path d="M114.8749 75.5899
L114.8699 75.6054
" />
<path d="M200.4346 103.4152
L200.4778 103.3931
" />
<path d="M19.2991 10.7994
L19.3023 10.7744
" />
<path d="M114.8449 75.6659
L114.8374 75.6805
" />
<path d="M109.9802 15.2644
L109.9968 15.2471
" />
<path d="M19.4430 10.4970
L19.4603 10.4805
" />
<path d="M94.6052 15.0982
L94.6306 15.1001
" />
<path d="M194.5538 8.1232
L194.5770 8.1310
" />
<path d="M0.2687 108.0686
L0.2425 108.0272
" />
<path d="M75.1465 12.3505
L75.1471 12.3753
" />
<path d="M0.2306 15.3654
L0.2471 15.3480
" />
<path d="M19.1146 15.0864
L19.1328 15.0707
" />
<path d="M0.5496 15.2041
L0.5750 15.2022
" />
<path d="M99.4991 15.1230
L99.5223 15.1309
" />
<path d="M221.9010 74.5138
L221.9012 71.3117
" />
<path d="M157.9546 12.3755
L157.9552 12.3507
" />
<path d="M110.1335 15.1500
L110.1557 15.1400
" />
<path d="M232.8592 4.6140
L232.8331 4.6554
" />
<path d="M100.5639 100.3684
L100.5521 100.3797
" />
<path d="M0.2714 0.5415
L0.2993 0.5023
" />
<path d="M133.2615 15.4998
L133.2671 15.4756
" />
<path d="M232.9902 4.2482
L232.9817 4.2965
" />
<path d="M118.2211 15.4757
L118.2279 15.4519
" />
<path d="M232.6723 4.8420
L232.6348 4.8742
" />
<path d="M158.3333 10.3655
L158.3571 10.3601
" />
<path d="M75.0986 10.6367
L75.1084 10.6590
" />
<path d="M0.2425 108.0272
L0.2185 107.9846
" />
<path d="M139.0042 13.1152
L139.0162 13.0939
" />
<path d="M0.1500 15.4848
L0.1611 15.4633
" />
<path d="M109.5223 25.0701
L109.5450 25.0612
" />
<path d="M99.9496 24.8997
L99.9645 24.9186
" />
<path d="M0.5458 74.6819
L0.5872 74.6558
" />
<path d="M56.4110 10.2915
L56.4328 10.3025
" />
<path d="M229.1012 74.5137
L232.0010 74.5139
" />
<path d="M100.5521 100.3797
L100.5400 100.3906
" />
<path d="M19.0134 15.1513
L19.0349 15.1402
" />
<path d="M1.0512 74.5152
L1.1008 74.5140
" />
<path d="M139.3714 12.8562
L139.3959 12.8532
" />
<path d="M177.4303 8.1011
L177.4550 8.1004
" />
<path d="M114.5213 15.1162
L114.5450 15.1230
" />
<path d="M195.2564 10.3280
L195.2801 10.3348
" />
<path d="M194.6434 8.1610
L194.6644 8.1731
" />
<path d="M133.2571 15.5244
L133.2615 15.4998
" />
<path d="M74.9032 10.4214
L74.9239 10.4345
" />
<path d="M37.9133 10.3012
L37.9348 10.2902
" />
<path d="M38.2270 8.4287
L38.2359 8.4060
" />
<path d="M132.6412 100.4471
L132.6136 100.4300
" />
<path d="M56.1315 8.4787
L56.1369 8.5026
" />
<path d="M19.2864 14.8015
L19.2908 14.7769
" />
<path d="M201.0064 75.4115
L201.0127 75.3614
" />
<path d="M200.9026 102.9473
L200.9226 102.9030
" />
<path d="M38.6709 8.1013
L38.6966 8.1007
" />
<path d="M31.7367 74.7422
L31.7730 74.7736
" />
<path d="M56.2598 10.1673
L56.2760 10.1860
" />
<path d="M19.4107 10.5325
L19.4264 10.5144
" />
<path d="M31.6192 74.6586
L31.6597 74.6846
" />
<path d="M75.2173 12.6073
L75.2304 12.6280
" />
<path d="M0.7634 5.0420
L0.7179 5.0245
" />
<path d="M138.8730 14.8598
L138.8850 14.8388
" />
<path d="M0.1613 0.7568
L0.1792 0.7114
" />
<path d="M194.9775 10.1098
L194.9905 10.1301
" />
<path d="M221.9012 71.3117
L196.1767 71.3003
" />
<path d="M138.4455 15.1006
L138.4712 15.0999
" />
<path d="M99.9645 24.9186
L99.9802 24.9368
" />
<path d="M194.9050 8.6007
L194.9052 9.8506
" />
<path d="M32.1320 102.7637
L32.1455 102.8112
" />
<path d="M109.5887 25.0401
L109.6096 25.0281
" />
<path d="M55.9633 8.2138
L55.9820 8.2299
" />
<path d="M31.1005 74.5138
L31.1520 74.5151
" />
<path d="M200.9809 102.7153
L200.9897 102.6661
" />
<path d="M0.1121 0.9483
L0.1209 0.8991
" />
<path d="M0.1033 15.6505
L0.1065 15.6255
" />
<path d="M0.4322 71.2871
L0.4095 71.2783
" />
<path d="M0.3290 0.4646
L0.3604 0.4283
" />
<path d="M213.3052 10.3506
L213.3309 10.3513
" />
<path d="M0.7113 0.1792
L0.7567 0.1613
" />
<path d="M55.9239 8.1846
L55.9440 8.1987
" />
<path d="M176.9702 8.4787
L176.9768 8.4552
" />
<path d="M0.2454 0.5821
L0.2714 0.5415
" />
<path d="M100.2017 25.0780
L100.2254 25.0848
" />
<path d="M99.4015 15.1031
L99.4265 15.1063
" />
<path d="M123.7001 25.0980
L123.7255 25.0999
" />
<path d="M133.1658 24.8802
L133.1788 24.8599
" />
<path d="M0.2424 75.0004
L0.2686 74.9590
" />
<path d="M0.2302 71.1519
L0.2140 71.1332
" />
<path d="M114.8907 15.5243
L114.8939 15.5493
" />
<path d="M37.8911 10.3112
L37.9133 10.3012
" />
<path d="M0.1200 107.7097
L0.1116 107.6613
" />
<path d="M138.9746 13.1820
L138.9833 13.1593
" />
<path d="M0.1057 0.9984
L0.1121 0.9483
" />
<path d="M19.2112 14.9802
L19.2242 14.9599
" />
<path d="M56.1411 8.5267
L56.1442 8.5511
" />
<path d="M55.7919 8.1222
L55.8151 8.1298
" />
<path d="M232.9807 0.8990
L232.9895 0.9482
" />
<path d="M232.4282 108.4179
L232.3836 108.4377
" />
<path d="M201.1458 74.9953
L201.1719 74.9547
" />
<path d="M75.6463 12.8505
L82.9953 12.8507
" />
<path d="M31.3021 74.5341
L31.3505 74.5453
" />
<path d="M214.1105 15.1614
L214.1332 15.1704
" />
<path d="M132.6136 100.4300
L132.5871 100.4112
" />
<path d="M176.9073 10.0641
L176.9171 10.0418
" />
<path d="M99.7780 15.3412
L99.7900 15.3622
" />
<path d="M0.1200 75.3179
L0.1308 75.2701
" />
<path d="M94.0101 12.9970
L94.0272 13.0150
" />
<path d="M118.2279 15.4519
L118.2357 15.4287
" />
<path d="M194.8197 8.3211
L194.8327 8.3414
" />
<path d="M194.7586 8.2471
L194.7752 8.2645
" />
<path d="M139.1285 12.9639
L139.1479 12.9487
" />
<path d="M75.0001 10.4970
L75.0172 10.5149
" />
<path d="M56.6217 10.3498
L56.6465 10.3504
" />
<path d="M38.6966 8.1007
L55.6465 8.1006
" />
<path d="M38.2068 8.4998
L38.2124 8.4756
" />
<path d="M118.2722 75.6948
L118.2643 75.6805
" />
<path d="M118.2120 75.5265
L118.2095 75.5103
" />
<path d="M158.2866 10.3797
L158.3097 10.3720
" />
<path d="M99.6495 15.1999
L99.6684 15.2147
" />
<path d="M213.8108 14.7769
L213.8152 14.8015
" />
<path d="M99.8279 15.4518
L99.8347 15.4755
" />
<path d="M99.9968 24.9541
L100.0141 24.9707
" />
<path d="M194.4053 8.1007
L194.4310 8.1014
" />
<path d="M232.5502 71.3140
L232.5255 71.3158
" />
<path d="M201.4420 74.6847
L201.4825 74.6586
" />
<path d="M232.9630 71.0077
L232.9532 71.0300
" />
<path d="M0.1019 107.5632
L0.1006 107.5136
" />
<path d="M19.3689 10.5913
L19.3819 10.5710
" />
<path d="M109.9107 15.3622
L109.9227 15.3413
" />
<path d="M0.5872 74.6558
L0.6297 74.6317
" />
<path d="M114.8794 75.5742
L114.8749 75.5899
" />
<path d="M75.3897 12.7796
L75.4110 12.7916
" />
<path d="M38.6204 8.1064
L38.6455 8.1033
" />
<path d="M0.1611 15.4633
L0.1731 15.4423
" />
<path d="M0.4293 74.7725
L0.4668 74.7403
" />
<path d="M99.7039 15.2470
L99.7205 15.2643
" />
<path d="M200.5602 103.3430
L200.5994 103.3151
" />
<path d="M99.8509 24.6263
L99.8529 24.6517
" />
<path d="M122.8522 15.1107
L122.8763 15.1163
" />
<path d="M19.2972 10.8248
L19.2991 10.7994
" />
<path d="M232.7577 71.2453
L232.7364 71.2574
" />
<path d="M177.2639 8.1387
L177.2866 8.1299
" />
<path d="M195.4050 10.3505
L213.3052 10.3506
" />
<path d="M132.6698 100.4623
L132.6412 100.4471
" />
<path d="M37.7222 10.3499
L37.7476 10.3479
" />
<path d="M232.9407 15.4632
L232.9518 15.4848
" />
<path d="M114.8644 75.6208
L114.8584 75.6360
" />
<path d="M99.7510 15.3013
L99.7650 15.3209
" />
<path d="M114.4475 15.1030
L114.4725 15.1062
" />
<path d="M133.7303 100.4301
L132.8921 100.5139
" />
<path d="M109.8011 24.8174
L109.8111 24.7952
" />
<path d="M123.1789 15.3412
L123.1909 15.3622
" />
<path d="M232.7423 108.1849
L232.7082 108.2208
" />
<path d="M138.7249 15.0152
L138.7445 15.0012
" />
<path d="M38.1863 9.9514
L38.1907 9.9268
" />
<path d="M0.7180 74.5901
L0.7635 74.5725
" />
<path d="M133.5345 15.1499
L133.5567 15.1399
" />
<path d="M32.0556 75.2165
L32.0691 75.2639
" />
<path d="M56.1249 8.4552
L56.1315 8.4787
" />
<path d="M114.8939 75.4940
L114.8921 75.5102
" />
<path d="M19.5582 10.4109
L19.5797 10.3999
" />
<path d="M0.8032 0.1456
L0.8506 0.1321
" />
<path d="M133.0105 25.0281
L133.0308 25.0151
" />
<path d="M75.1458 10.8257
L75.1464 10.8505
" />
<path d="M18.8477 15.1980
L18.8727 15.1948
" />
<path d="M232.7424 74.8427
L232.7746 74.8801
" />
<path d="M194.9153 9.9514
L194.9209 9.9755
" />
<path d="M232.9030 71.1138
L232.8879 71.1331
" />
<path d="M109.8479 24.6517
L109.8498 24.6263
" />
<path d="M94.1564 13.3505
L94.1565 14.6008
" />
<path d="M0.2149 15.3835
L0.2306 15.3654
" />
<path d="M94.3971 15.0283
L94.4180 15.0403
" />
<path d="M55.6465 8.1006
L55.6713 8.1012
" />
<path d="M194.6644 8.1731
L194.6846 8.1861
" />
<path d="M55.8602 8.1485
L55.8820 8.1595
" />
<path d="M56.5485 10.3407
L56.5727 10.3449
" />
<path d="M0.4287 15.2318
L0.4520 15.2240
" />
<path d="M56.0332 8.2837
L56.0483 8.3032
" />
<path d="M118.2547 15.3838
L118.2657 15.3623
" />
<path d="M177.4057 8.1030
L177.4303 8.1011
" />
<path d="M109.9227 15.3413
L109.9357 15.3210
" />
<path d="M134.7333 100.1858
L133.7303 100.4301
" />
<path d="M123.3007 24.8174
L123.3117 24.8389
" />
<path d="M109.6299 25.0151
L109.6495 25.0012
" />
<path d="M94.1184 13.1592
L94.1272 13.1820
" />
<path d="M19.2959 14.7265
L19.2965 14.7008
" />
<path d="M201.2940 74.8068
L201.3287 74.7737
" />
<path d="M37.7972 10.3404
L37.8214 10.3348
" />
<path d="M201.0618 75.1700
L201.0797 75.1246
" />
<path d="M195.2801 10.3348
L195.3043 10.3404
" />
<path d="M31.8077 74.8068
L31.8408 74.8415
" />
<path d="M114.4971 15.1106
L114.5213 15.1162
" />
<path d="M37.8214 10.3348
L37.8452 10.3280
" />
<path d="M38.5958 8.1108
L38.6204 8.1064
" />
<path d="M109.7510 24.8997
L109.7650 24.8802
" />
<path d="M232.8330 74.9590
L232.8591 75.0004
" />
<path d="M32.0890 75.3615
L32.0953 75.4115
" />
<path d="M213.8208 14.8257
L213.8275 14.8494
" />
<path d="M123.2520 24.6263
L123.2540 24.6517
" />
<path d="M232.0506 74.5151
L232.0999 74.5188
" />
<path d="M213.9192 15.0187
L213.9349 15.0368
" />
<path d="M133.3116 15.3622
L133.3237 15.3413
" />
<path d="M232.7081 0.3935
L232.7412 0.4282
" />
<path d="M93.8477 12.8886
L93.8700 12.8985
" />
<path d="M75.6215 12.8498
L75.6463 12.8505
" />
<path d="M19.2662 14.8726
L19.2741 14.8494
" />
<path d="M194.9109 9.9267
L194.9153 9.9514
" />
<path d="M19.1328 15.0707
L19.1501 15.0542
" />
<path d="M232.6723 74.7726
L232.7083 74.8068
" />
<path d="M114.6956 15.1999
L114.7145 15.2147
" />
<path d="M157.5532 12.8408
L157.5771 12.8355
" />
<path d="M32.2453 103.0323
L32.2713 103.0729
" />
<path d="M19.2965 14.7008
L19.2965 10.8506
" />
<path d="M56.2054 10.0858
L56.2175 10.1071
" />
<path d="M11.2006 5.1006
L11.2006 15.2010
" />
<path d="M133.1909 24.8390
L133.2019 24.8174
" />
<path d="M32.4644 103.2854
L32.5022 103.3151
" />
<path d="M123.2671 24.7256
L123.2738 24.7493
" />
<path d="M19.0349 15.1402
L19.0559 15.1282
" />
<path d="M99.9227 24.8598
L99.9357 24.8801
" />
<path d="M94.1667 14.7015
L94.1722 14.7256
" />
<path d="M0.3211 15.2869
L0.3414 15.2739
" />
<path d="M133.2671 15.4756
L133.2738 15.4519
" />
<path d="M133.2512 24.6006
L133.2514 15.6006
" />
<path d="M56.1369 8.5026
L56.1411 8.5267
" />
<path d="M194.9655 10.0889
L194.9775 10.1098
" />
<path d="M0.2140 71.1332
L0.1989 71.1138
" />
<path d="M232.4283 5.0048
L232.3837 5.0245
" />
<path d="M110.0511 15.2000
L110.0707 15.1861
" />
<path d="M0.2645 15.3314
L0.2826 15.3157
" />
<path d="M99.9357 24.8801
L99.9496 24.8997
" />
<path d="M99.7650 15.3209
L99.7780 15.3412
" />
<path d="M118.6047 15.1107
L118.6293 15.1063
" />
<path d="M94.1572 14.6265
L94.1591 14.6518
" />
<path d="M138.8961 14.8173
L138.9061 14.7951
" />
<path d="M100.2432 100.5128
L100.2265 100.5137
" />
<path d="M138.8850 14.8388
L138.8961 14.8173
" />
<path d="M232.9709 107.7575
L232.9578 107.8046
" />
<path d="M232.9171 71.0937
L232.9030 71.1138
" />
<path d="M233.0012 15.7016
L233.0011 70.8163
" />
<path d="M176.7720 10.2372
L176.7907 10.2210
" />
<path d="M114.7666 15.2644
L114.7823 15.2825
" />
<path d="M140.2116 97.8179
L137.1975 99.2587
" />
<g >
</g>
<g >
</g>
<g >
</g>
<g >
</g>
<g >
</g>
<g >
</g>
<g >
</g>
<g >
</g>
<g >
</g>
<g >
</g>
<g >
</g>
<g >
</g>
<g >
</g>
<g >
</g>
<g >
</g>
<g >
</g>
<g >
</g>
<g >
</g>
<g >
</g>
<g >
</g>
<g >
</g>
<g >
</g>
<g >
</g>
<g >
</g>
<g >
</g>
<g >
</g>
<g >
</g>
<g >
</g>
<g >
</g>
<g >
</g>
<g >
</g>
<g >
</g>
<g >
</g>
<g >
</g>
<g >
</g>
<g >
</g>
<g >
</g>
<g >
</g>
<g >
</g>
<g >
</g>
<g >
</g>
<g >
</g>
<g >
</g>
<g >
</g>
</g> 
</svg>
